<svg width="271" height="281" viewBox="0 0 271 281" fill="none" xmlns="http://www.w3.org/2000/svg">
<g clip-path="url(#clip0_1_4266)">
<rect x="0.496094" y="0.376953" width="270" height="280" rx="12" fill="url(#paint0_linear_1_4266)"/>
<rect x="0.496094" y="0.376953" width="270" height="280" rx="12" fill="url(#paint1_linear_1_4266)"/>
<g clip-path="url(#clip1_1_4266)">
<path d="M12.4961 55.877C12.4961 56.1531 12.2722 56.377 11.9961 56.377C11.72 56.377 11.4961 56.1531 11.4961 55.877C11.4961 55.6008 11.72 55.377 11.9961 55.377C12.2722 55.377 12.4961 55.6008 12.4961 55.877Z" fill="#22328A" fill-opacity="0.2"/>
<path d="M25.4961 55.877C25.4961 56.1531 25.2722 56.377 24.9961 56.377C24.72 56.377 24.4961 56.1531 24.4961 55.877C24.4961 55.6008 24.72 55.377 24.9961 55.377C25.2722 55.377 25.4961 55.6008 25.4961 55.877Z" fill="#22328A" fill-opacity="0.2"/>
<path d="M38.4961 55.877C38.4961 56.1531 38.2722 56.377 37.9961 56.377C37.72 56.377 37.4961 56.1531 37.4961 55.877C37.4961 55.6008 37.72 55.377 37.9961 55.377C38.2722 55.377 38.4961 55.6008 38.4961 55.877Z" fill="#22328A" fill-opacity="0.2"/>
<path d="M51.4961 55.877C51.4961 56.1531 51.2722 56.377 50.9961 56.377C50.72 56.377 50.4961 56.1531 50.4961 55.877C50.4961 55.6008 50.72 55.377 50.9961 55.377C51.2722 55.377 51.4961 55.6008 51.4961 55.877Z" fill="#22328A" fill-opacity="0.2"/>
<path d="M64.4961 55.877C64.4961 56.1531 64.2722 56.377 63.9961 56.377C63.72 56.377 63.4961 56.1531 63.4961 55.877C63.4961 55.6008 63.72 55.377 63.9961 55.377C64.2722 55.377 64.4961 55.6008 64.4961 55.877Z" fill="#22328A" fill-opacity="0.2"/>
<path d="M77.4961 55.877C77.4961 56.1531 77.2722 56.377 76.9961 56.377C76.72 56.377 76.4961 56.1531 76.4961 55.877C76.4961 55.6008 76.72 55.377 76.9961 55.377C77.2722 55.377 77.4961 55.6008 77.4961 55.877Z" fill="#22328A" fill-opacity="0.2"/>
<path d="M90.4961 55.877C90.4961 56.1531 90.2722 56.377 89.9961 56.377C89.72 56.377 89.4961 56.1531 89.4961 55.877C89.4961 55.6008 89.72 55.377 89.9961 55.377C90.2722 55.377 90.4961 55.6008 90.4961 55.877Z" fill="#22328A" fill-opacity="0.2"/>
<path d="M103.496 55.877C103.496 56.1531 103.272 56.377 102.996 56.377C102.72 56.377 102.496 56.1531 102.496 55.877C102.496 55.6008 102.72 55.377 102.996 55.377C103.272 55.377 103.496 55.6008 103.496 55.877Z" fill="#22328A" fill-opacity="0.2"/>
<path d="M116.496 55.877C116.496 56.1531 116.272 56.377 115.996 56.377C115.72 56.377 115.496 56.1531 115.496 55.877C115.496 55.6008 115.72 55.377 115.996 55.377C116.272 55.377 116.496 55.6008 116.496 55.877Z" fill="#22328A" fill-opacity="0.2"/>
<path d="M129.496 55.877C129.496 56.1531 129.272 56.377 128.996 56.377C128.72 56.377 128.496 56.1531 128.496 55.877C128.496 55.6008 128.72 55.377 128.996 55.377C129.272 55.377 129.496 55.6008 129.496 55.877Z" fill="#22328A" fill-opacity="0.2"/>
<path d="M12.4961 68.877C12.4961 69.1531 12.2722 69.377 11.9961 69.377C11.72 69.377 11.4961 69.1531 11.4961 68.877C11.4961 68.6009 11.72 68.377 11.9961 68.377C12.2722 68.377 12.4961 68.6009 12.4961 68.877Z" fill="#22328A" fill-opacity="0.2"/>
<path d="M25.4961 68.877C25.4961 69.1531 25.2722 69.377 24.9961 69.377C24.72 69.377 24.4961 69.1531 24.4961 68.877C24.4961 68.6009 24.72 68.377 24.9961 68.377C25.2722 68.377 25.4961 68.6009 25.4961 68.877Z" fill="#22328A" fill-opacity="0.2"/>
<path d="M38.4961 68.877C38.4961 69.1531 38.2722 69.377 37.9961 69.377C37.72 69.377 37.4961 69.1531 37.4961 68.877C37.4961 68.6009 37.72 68.377 37.9961 68.377C38.2722 68.377 38.4961 68.6009 38.4961 68.877Z" fill="#22328A" fill-opacity="0.2"/>
<path d="M51.4961 68.877C51.4961 69.1531 51.2722 69.377 50.9961 69.377C50.72 69.377 50.4961 69.1531 50.4961 68.877C50.4961 68.6009 50.72 68.377 50.9961 68.377C51.2722 68.377 51.4961 68.6009 51.4961 68.877Z" fill="#22328A" fill-opacity="0.2"/>
<path d="M64.4961 68.877C64.4961 69.1531 64.2722 69.377 63.9961 69.377C63.72 69.377 63.4961 69.1531 63.4961 68.877C63.4961 68.6009 63.72 68.377 63.9961 68.377C64.2722 68.377 64.4961 68.6009 64.4961 68.877Z" fill="#22328A" fill-opacity="0.2"/>
<path d="M77.4961 68.877C77.4961 69.1531 77.2722 69.377 76.9961 69.377C76.72 69.377 76.4961 69.1531 76.4961 68.877C76.4961 68.6009 76.72 68.377 76.9961 68.377C77.2722 68.377 77.4961 68.6009 77.4961 68.877Z" fill="#22328A" fill-opacity="0.2"/>
<path d="M90.4961 68.877C90.4961 69.1531 90.2722 69.377 89.9961 69.377C89.72 69.377 89.4961 69.1531 89.4961 68.877C89.4961 68.6009 89.72 68.377 89.9961 68.377C90.2722 68.377 90.4961 68.6009 90.4961 68.877Z" fill="#22328A" fill-opacity="0.2"/>
<path d="M103.496 68.877C103.496 69.1531 103.272 69.377 102.996 69.377C102.72 69.377 102.496 69.1531 102.496 68.877C102.496 68.6009 102.72 68.377 102.996 68.377C103.272 68.377 103.496 68.6009 103.496 68.877Z" fill="#22328A" fill-opacity="0.2"/>
<path d="M116.496 68.877C116.496 69.1531 116.272 69.377 115.996 69.377C115.72 69.377 115.496 69.1531 115.496 68.877C115.496 68.6009 115.72 68.377 115.996 68.377C116.272 68.377 116.496 68.6009 116.496 68.877Z" fill="#22328A" fill-opacity="0.2"/>
<path d="M129.496 68.877C129.496 69.1531 129.272 69.377 128.996 69.377C128.72 69.377 128.496 69.1531 128.496 68.877C128.496 68.6009 128.72 68.377 128.996 68.377C129.272 68.377 129.496 68.6009 129.496 68.877Z" fill="#22328A" fill-opacity="0.2"/>
<path d="M12.4961 81.877C12.4961 82.1531 12.2722 82.377 11.9961 82.377C11.72 82.377 11.4961 82.1531 11.4961 81.877C11.4961 81.6009 11.72 81.377 11.9961 81.377C12.2722 81.377 12.4961 81.6009 12.4961 81.877Z" fill="#22328A" fill-opacity="0.2"/>
<path d="M25.4961 81.877C25.4961 82.1531 25.2722 82.377 24.9961 82.377C24.72 82.377 24.4961 82.1531 24.4961 81.877C24.4961 81.6009 24.72 81.377 24.9961 81.377C25.2722 81.377 25.4961 81.6009 25.4961 81.877Z" fill="#22328A" fill-opacity="0.2"/>
<path d="M38.4961 81.877C38.4961 82.1531 38.2722 82.377 37.9961 82.377C37.72 82.377 37.4961 82.1531 37.4961 81.877C37.4961 81.6009 37.72 81.377 37.9961 81.377C38.2722 81.377 38.4961 81.6009 38.4961 81.877Z" fill="#22328A" fill-opacity="0.2"/>
<path d="M51.4961 81.877C51.4961 82.1531 51.2722 82.377 50.9961 82.377C50.72 82.377 50.4961 82.1531 50.4961 81.877C50.4961 81.6009 50.72 81.377 50.9961 81.377C51.2722 81.377 51.4961 81.6009 51.4961 81.877Z" fill="#22328A" fill-opacity="0.2"/>
<path d="M64.4961 81.877C64.4961 82.1531 64.2722 82.377 63.9961 82.377C63.72 82.377 63.4961 82.1531 63.4961 81.877C63.4961 81.6009 63.72 81.377 63.9961 81.377C64.2722 81.377 64.4961 81.6009 64.4961 81.877Z" fill="#22328A" fill-opacity="0.2"/>
<path d="M77.4961 81.877C77.4961 82.1531 77.2722 82.377 76.9961 82.377C76.72 82.377 76.4961 82.1531 76.4961 81.877C76.4961 81.6009 76.72 81.377 76.9961 81.377C77.2722 81.377 77.4961 81.6009 77.4961 81.877Z" fill="#22328A" fill-opacity="0.2"/>
<path d="M90.4961 81.877C90.4961 82.1531 90.2722 82.377 89.9961 82.377C89.72 82.377 89.4961 82.1531 89.4961 81.877C89.4961 81.6009 89.72 81.377 89.9961 81.377C90.2722 81.377 90.4961 81.6009 90.4961 81.877Z" fill="#22328A" fill-opacity="0.2"/>
<path d="M103.496 81.877C103.496 82.1531 103.272 82.377 102.996 82.377C102.72 82.377 102.496 82.1531 102.496 81.877C102.496 81.6009 102.72 81.377 102.996 81.377C103.272 81.377 103.496 81.6009 103.496 81.877Z" fill="#22328A" fill-opacity="0.2"/>
<path d="M116.496 81.877C116.496 82.1531 116.272 82.377 115.996 82.377C115.72 82.377 115.496 82.1531 115.496 81.877C115.496 81.6009 115.72 81.377 115.996 81.377C116.272 81.377 116.496 81.6009 116.496 81.877Z" fill="#22328A" fill-opacity="0.2"/>
<path d="M129.496 81.877C129.496 82.1531 129.272 82.377 128.996 82.377C128.72 82.377 128.496 82.1531 128.496 81.877C128.496 81.6009 128.72 81.377 128.996 81.377C129.272 81.377 129.496 81.6009 129.496 81.877Z" fill="#22328A" fill-opacity="0.2"/>
<path d="M12.4961 94.877C12.4961 95.1531 12.2722 95.377 11.9961 95.377C11.72 95.377 11.4961 95.1531 11.4961 94.877C11.4961 94.6009 11.72 94.377 11.9961 94.377C12.2722 94.377 12.4961 94.6009 12.4961 94.877Z" fill="#22328A" fill-opacity="0.2"/>
<path d="M25.4961 94.877C25.4961 95.1531 25.2722 95.377 24.9961 95.377C24.72 95.377 24.4961 95.1531 24.4961 94.877C24.4961 94.6009 24.72 94.377 24.9961 94.377C25.2722 94.377 25.4961 94.6009 25.4961 94.877Z" fill="#22328A" fill-opacity="0.2"/>
<path d="M38.4961 94.877C38.4961 95.1531 38.2722 95.377 37.9961 95.377C37.72 95.377 37.4961 95.1531 37.4961 94.877C37.4961 94.6009 37.72 94.377 37.9961 94.377C38.2722 94.377 38.4961 94.6009 38.4961 94.877Z" fill="#22328A" fill-opacity="0.2"/>
<path d="M51.4961 94.877C51.4961 95.1531 51.2722 95.377 50.9961 95.377C50.72 95.377 50.4961 95.1531 50.4961 94.877C50.4961 94.6009 50.72 94.377 50.9961 94.377C51.2722 94.377 51.4961 94.6009 51.4961 94.877Z" fill="#22328A" fill-opacity="0.2"/>
<path d="M64.4961 94.877C64.4961 95.1531 64.2722 95.377 63.9961 95.377C63.72 95.377 63.4961 95.1531 63.4961 94.877C63.4961 94.6009 63.72 94.377 63.9961 94.377C64.2722 94.377 64.4961 94.6009 64.4961 94.877Z" fill="#22328A" fill-opacity="0.2"/>
<path d="M77.4961 94.877C77.4961 95.1531 77.2722 95.377 76.9961 95.377C76.72 95.377 76.4961 95.1531 76.4961 94.877C76.4961 94.6009 76.72 94.377 76.9961 94.377C77.2722 94.377 77.4961 94.6009 77.4961 94.877Z" fill="#22328A" fill-opacity="0.2"/>
<path d="M90.4961 94.877C90.4961 95.1531 90.2722 95.377 89.9961 95.377C89.72 95.377 89.4961 95.1531 89.4961 94.877C89.4961 94.6009 89.72 94.377 89.9961 94.377C90.2722 94.377 90.4961 94.6009 90.4961 94.877Z" fill="#22328A" fill-opacity="0.2"/>
<path d="M103.496 94.877C103.496 95.1531 103.272 95.377 102.996 95.377C102.72 95.377 102.496 95.1531 102.496 94.877C102.496 94.6009 102.72 94.377 102.996 94.377C103.272 94.377 103.496 94.6009 103.496 94.877Z" fill="#22328A" fill-opacity="0.2"/>
<path d="M116.496 94.877C116.496 95.1531 116.272 95.377 115.996 95.377C115.72 95.377 115.496 95.1531 115.496 94.877C115.496 94.6009 115.72 94.377 115.996 94.377C116.272 94.377 116.496 94.6009 116.496 94.877Z" fill="#22328A" fill-opacity="0.2"/>
<path d="M129.496 94.877C129.496 95.1531 129.272 95.377 128.996 95.377C128.72 95.377 128.496 95.1531 128.496 94.877C128.496 94.6009 128.72 94.377 128.996 94.377C129.272 94.377 129.496 94.6009 129.496 94.877Z" fill="#22328A" fill-opacity="0.2"/>
<path d="M12.4961 107.877C12.4961 108.153 12.2722 108.377 11.9961 108.377C11.72 108.377 11.4961 108.153 11.4961 107.877C11.4961 107.601 11.72 107.377 11.9961 107.377C12.2722 107.377 12.4961 107.601 12.4961 107.877Z" fill="#22328A" fill-opacity="0.2"/>
<path d="M25.4961 107.877C25.4961 108.153 25.2722 108.377 24.9961 108.377C24.72 108.377 24.4961 108.153 24.4961 107.877C24.4961 107.601 24.72 107.377 24.9961 107.377C25.2722 107.377 25.4961 107.601 25.4961 107.877Z" fill="#22328A" fill-opacity="0.2"/>
<path d="M38.4961 107.877C38.4961 108.153 38.2722 108.377 37.9961 108.377C37.72 108.377 37.4961 108.153 37.4961 107.877C37.4961 107.601 37.72 107.377 37.9961 107.377C38.2722 107.377 38.4961 107.601 38.4961 107.877Z" fill="#22328A" fill-opacity="0.2"/>
<path d="M51.4961 107.877C51.4961 108.153 51.2722 108.377 50.9961 108.377C50.72 108.377 50.4961 108.153 50.4961 107.877C50.4961 107.601 50.72 107.377 50.9961 107.377C51.2722 107.377 51.4961 107.601 51.4961 107.877Z" fill="#22328A" fill-opacity="0.2"/>
<path d="M64.4961 107.877C64.4961 108.153 64.2722 108.377 63.9961 108.377C63.72 108.377 63.4961 108.153 63.4961 107.877C63.4961 107.601 63.72 107.377 63.9961 107.377C64.2722 107.377 64.4961 107.601 64.4961 107.877Z" fill="#22328A" fill-opacity="0.2"/>
<path d="M77.4961 107.877C77.4961 108.153 77.2722 108.377 76.9961 108.377C76.72 108.377 76.4961 108.153 76.4961 107.877C76.4961 107.601 76.72 107.377 76.9961 107.377C77.2722 107.377 77.4961 107.601 77.4961 107.877Z" fill="#22328A" fill-opacity="0.2"/>
<path d="M90.4961 107.877C90.4961 108.153 90.2722 108.377 89.9961 108.377C89.72 108.377 89.4961 108.153 89.4961 107.877C89.4961 107.601 89.72 107.377 89.9961 107.377C90.2722 107.377 90.4961 107.601 90.4961 107.877Z" fill="#22328A" fill-opacity="0.2"/>
<path d="M103.496 107.877C103.496 108.153 103.272 108.377 102.996 108.377C102.72 108.377 102.496 108.153 102.496 107.877C102.496 107.601 102.72 107.377 102.996 107.377C103.272 107.377 103.496 107.601 103.496 107.877Z" fill="#22328A" fill-opacity="0.2"/>
<path d="M116.496 107.877C116.496 108.153 116.272 108.377 115.996 108.377C115.72 108.377 115.496 108.153 115.496 107.877C115.496 107.601 115.72 107.377 115.996 107.377C116.272 107.377 116.496 107.601 116.496 107.877Z" fill="#22328A" fill-opacity="0.2"/>
<path d="M129.496 107.877C129.496 108.153 129.272 108.377 128.996 108.377C128.72 108.377 128.496 108.153 128.496 107.877C128.496 107.601 128.72 107.377 128.996 107.377C129.272 107.377 129.496 107.601 129.496 107.877Z" fill="#22328A" fill-opacity="0.2"/>
<path d="M12.4961 120.877C12.4961 121.153 12.2722 121.377 11.9961 121.377C11.72 121.377 11.4961 121.153 11.4961 120.877C11.4961 120.601 11.72 120.377 11.9961 120.377C12.2722 120.377 12.4961 120.601 12.4961 120.877Z" fill="#22328A" fill-opacity="0.2"/>
<path d="M25.4961 120.877C25.4961 121.153 25.2722 121.377 24.9961 121.377C24.72 121.377 24.4961 121.153 24.4961 120.877C24.4961 120.601 24.72 120.377 24.9961 120.377C25.2722 120.377 25.4961 120.601 25.4961 120.877Z" fill="#22328A" fill-opacity="0.2"/>
<path d="M38.4961 120.877C38.4961 121.153 38.2722 121.377 37.9961 121.377C37.72 121.377 37.4961 121.153 37.4961 120.877C37.4961 120.601 37.72 120.377 37.9961 120.377C38.2722 120.377 38.4961 120.601 38.4961 120.877Z" fill="#22328A" fill-opacity="0.2"/>
<path d="M51.4961 120.877C51.4961 121.153 51.2722 121.377 50.9961 121.377C50.72 121.377 50.4961 121.153 50.4961 120.877C50.4961 120.601 50.72 120.377 50.9961 120.377C51.2722 120.377 51.4961 120.601 51.4961 120.877Z" fill="#22328A" fill-opacity="0.2"/>
<path d="M64.4961 120.877C64.4961 121.153 64.2722 121.377 63.9961 121.377C63.72 121.377 63.4961 121.153 63.4961 120.877C63.4961 120.601 63.72 120.377 63.9961 120.377C64.2722 120.377 64.4961 120.601 64.4961 120.877Z" fill="#22328A" fill-opacity="0.2"/>
<path d="M77.4961 120.877C77.4961 121.153 77.2722 121.377 76.9961 121.377C76.72 121.377 76.4961 121.153 76.4961 120.877C76.4961 120.601 76.72 120.377 76.9961 120.377C77.2722 120.377 77.4961 120.601 77.4961 120.877Z" fill="#22328A" fill-opacity="0.2"/>
<path d="M90.4961 120.877C90.4961 121.153 90.2722 121.377 89.9961 121.377C89.72 121.377 89.4961 121.153 89.4961 120.877C89.4961 120.601 89.72 120.377 89.9961 120.377C90.2722 120.377 90.4961 120.601 90.4961 120.877Z" fill="#22328A" fill-opacity="0.2"/>
<path d="M103.496 120.877C103.496 121.153 103.272 121.377 102.996 121.377C102.72 121.377 102.496 121.153 102.496 120.877C102.496 120.601 102.72 120.377 102.996 120.377C103.272 120.377 103.496 120.601 103.496 120.877Z" fill="#22328A" fill-opacity="0.2"/>
<path d="M116.496 120.877C116.496 121.153 116.272 121.377 115.996 121.377C115.72 121.377 115.496 121.153 115.496 120.877C115.496 120.601 115.72 120.377 115.996 120.377C116.272 120.377 116.496 120.601 116.496 120.877Z" fill="#22328A" fill-opacity="0.2"/>
<path d="M129.496 120.877C129.496 121.153 129.272 121.377 128.996 121.377C128.72 121.377 128.496 121.153 128.496 120.877C128.496 120.601 128.72 120.377 128.996 120.377C129.272 120.377 129.496 120.601 129.496 120.877Z" fill="#22328A" fill-opacity="0.2"/>
<path d="M12.4961 133.877C12.4961 134.153 12.2722 134.377 11.9961 134.377C11.72 134.377 11.4961 134.153 11.4961 133.877C11.4961 133.601 11.72 133.377 11.9961 133.377C12.2722 133.377 12.4961 133.601 12.4961 133.877Z" fill="#22328A" fill-opacity="0.2"/>
<path d="M25.4961 133.877C25.4961 134.153 25.2722 134.377 24.9961 134.377C24.72 134.377 24.4961 134.153 24.4961 133.877C24.4961 133.601 24.72 133.377 24.9961 133.377C25.2722 133.377 25.4961 133.601 25.4961 133.877Z" fill="#22328A" fill-opacity="0.2"/>
<path d="M38.4961 133.877C38.4961 134.153 38.2722 134.377 37.9961 134.377C37.72 134.377 37.4961 134.153 37.4961 133.877C37.4961 133.601 37.72 133.377 37.9961 133.377C38.2722 133.377 38.4961 133.601 38.4961 133.877Z" fill="#22328A" fill-opacity="0.2"/>
<path d="M51.4961 133.877C51.4961 134.153 51.2722 134.377 50.9961 134.377C50.72 134.377 50.4961 134.153 50.4961 133.877C50.4961 133.601 50.72 133.377 50.9961 133.377C51.2722 133.377 51.4961 133.601 51.4961 133.877Z" fill="#22328A" fill-opacity="0.2"/>
<path d="M64.4961 133.877C64.4961 134.153 64.2722 134.377 63.9961 134.377C63.72 134.377 63.4961 134.153 63.4961 133.877C63.4961 133.601 63.72 133.377 63.9961 133.377C64.2722 133.377 64.4961 133.601 64.4961 133.877Z" fill="#22328A" fill-opacity="0.2"/>
<path d="M77.4961 133.877C77.4961 134.153 77.2722 134.377 76.9961 134.377C76.72 134.377 76.4961 134.153 76.4961 133.877C76.4961 133.601 76.72 133.377 76.9961 133.377C77.2722 133.377 77.4961 133.601 77.4961 133.877Z" fill="#22328A" fill-opacity="0.2"/>
<path d="M90.4961 133.877C90.4961 134.153 90.2722 134.377 89.9961 134.377C89.72 134.377 89.4961 134.153 89.4961 133.877C89.4961 133.601 89.72 133.377 89.9961 133.377C90.2722 133.377 90.4961 133.601 90.4961 133.877Z" fill="#22328A" fill-opacity="0.2"/>
<path d="M103.496 133.877C103.496 134.153 103.272 134.377 102.996 134.377C102.72 134.377 102.496 134.153 102.496 133.877C102.496 133.601 102.72 133.377 102.996 133.377C103.272 133.377 103.496 133.601 103.496 133.877Z" fill="#22328A" fill-opacity="0.2"/>
<path d="M116.496 133.877C116.496 134.153 116.272 134.377 115.996 134.377C115.72 134.377 115.496 134.153 115.496 133.877C115.496 133.601 115.72 133.377 115.996 133.377C116.272 133.377 116.496 133.601 116.496 133.877Z" fill="#22328A" fill-opacity="0.2"/>
<path d="M129.496 133.877C129.496 134.153 129.272 134.377 128.996 134.377C128.72 134.377 128.496 134.153 128.496 133.877C128.496 133.601 128.72 133.377 128.996 133.377C129.272 133.377 129.496 133.601 129.496 133.877Z" fill="#22328A" fill-opacity="0.2"/>
<path d="M12.4961 146.877C12.4961 147.153 12.2722 147.377 11.9961 147.377C11.72 147.377 11.4961 147.153 11.4961 146.877C11.4961 146.601 11.72 146.377 11.9961 146.377C12.2722 146.377 12.4961 146.601 12.4961 146.877Z" fill="#22328A" fill-opacity="0.2"/>
<path d="M25.4961 146.877C25.4961 147.153 25.2722 147.377 24.9961 147.377C24.72 147.377 24.4961 147.153 24.4961 146.877C24.4961 146.601 24.72 146.377 24.9961 146.377C25.2722 146.377 25.4961 146.601 25.4961 146.877Z" fill="#22328A" fill-opacity="0.2"/>
<path d="M38.4961 146.877C38.4961 147.153 38.2722 147.377 37.9961 147.377C37.72 147.377 37.4961 147.153 37.4961 146.877C37.4961 146.601 37.72 146.377 37.9961 146.377C38.2722 146.377 38.4961 146.601 38.4961 146.877Z" fill="#22328A" fill-opacity="0.2"/>
<path d="M51.4961 146.877C51.4961 147.153 51.2722 147.377 50.9961 147.377C50.72 147.377 50.4961 147.153 50.4961 146.877C50.4961 146.601 50.72 146.377 50.9961 146.377C51.2722 146.377 51.4961 146.601 51.4961 146.877Z" fill="#22328A" fill-opacity="0.2"/>
<path d="M64.4961 146.877C64.4961 147.153 64.2722 147.377 63.9961 147.377C63.72 147.377 63.4961 147.153 63.4961 146.877C63.4961 146.601 63.72 146.377 63.9961 146.377C64.2722 146.377 64.4961 146.601 64.4961 146.877Z" fill="#22328A" fill-opacity="0.2"/>
<path d="M77.4961 146.877C77.4961 147.153 77.2722 147.377 76.9961 147.377C76.72 147.377 76.4961 147.153 76.4961 146.877C76.4961 146.601 76.72 146.377 76.9961 146.377C77.2722 146.377 77.4961 146.601 77.4961 146.877Z" fill="#22328A" fill-opacity="0.2"/>
<path d="M90.4961 146.877C90.4961 147.153 90.2722 147.377 89.9961 147.377C89.72 147.377 89.4961 147.153 89.4961 146.877C89.4961 146.601 89.72 146.377 89.9961 146.377C90.2722 146.377 90.4961 146.601 90.4961 146.877Z" fill="#22328A" fill-opacity="0.2"/>
<path d="M103.496 146.877C103.496 147.153 103.272 147.377 102.996 147.377C102.72 147.377 102.496 147.153 102.496 146.877C102.496 146.601 102.72 146.377 102.996 146.377C103.272 146.377 103.496 146.601 103.496 146.877Z" fill="#22328A" fill-opacity="0.2"/>
<path d="M116.496 146.877C116.496 147.153 116.272 147.377 115.996 147.377C115.72 147.377 115.496 147.153 115.496 146.877C115.496 146.601 115.72 146.377 115.996 146.377C116.272 146.377 116.496 146.601 116.496 146.877Z" fill="#22328A" fill-opacity="0.2"/>
<path d="M129.496 146.877C129.496 147.153 129.272 147.377 128.996 147.377C128.72 147.377 128.496 147.153 128.496 146.877C128.496 146.601 128.72 146.377 128.996 146.377C129.272 146.377 129.496 146.601 129.496 146.877Z" fill="#22328A" fill-opacity="0.2"/>
<path d="M12.4961 159.877C12.4961 160.153 12.2722 160.377 11.9961 160.377C11.72 160.377 11.4961 160.153 11.4961 159.877C11.4961 159.601 11.72 159.377 11.9961 159.377C12.2722 159.377 12.4961 159.601 12.4961 159.877Z" fill="#22328A" fill-opacity="0.2"/>
<path d="M25.4961 159.877C25.4961 160.153 25.2722 160.377 24.9961 160.377C24.72 160.377 24.4961 160.153 24.4961 159.877C24.4961 159.601 24.72 159.377 24.9961 159.377C25.2722 159.377 25.4961 159.601 25.4961 159.877Z" fill="#22328A" fill-opacity="0.2"/>
<path d="M38.4961 159.877C38.4961 160.153 38.2722 160.377 37.9961 160.377C37.72 160.377 37.4961 160.153 37.4961 159.877C37.4961 159.601 37.72 159.377 37.9961 159.377C38.2722 159.377 38.4961 159.601 38.4961 159.877Z" fill="#22328A" fill-opacity="0.2"/>
<path d="M51.4961 159.877C51.4961 160.153 51.2722 160.377 50.9961 160.377C50.72 160.377 50.4961 160.153 50.4961 159.877C50.4961 159.601 50.72 159.377 50.9961 159.377C51.2722 159.377 51.4961 159.601 51.4961 159.877Z" fill="#22328A" fill-opacity="0.2"/>
<path d="M64.4961 159.877C64.4961 160.153 64.2722 160.377 63.9961 160.377C63.72 160.377 63.4961 160.153 63.4961 159.877C63.4961 159.601 63.72 159.377 63.9961 159.377C64.2722 159.377 64.4961 159.601 64.4961 159.877Z" fill="#22328A" fill-opacity="0.2"/>
<path d="M77.4961 159.877C77.4961 160.153 77.2722 160.377 76.9961 160.377C76.72 160.377 76.4961 160.153 76.4961 159.877C76.4961 159.601 76.72 159.377 76.9961 159.377C77.2722 159.377 77.4961 159.601 77.4961 159.877Z" fill="#22328A" fill-opacity="0.2"/>
<path d="M90.4961 159.877C90.4961 160.153 90.2722 160.377 89.9961 160.377C89.72 160.377 89.4961 160.153 89.4961 159.877C89.4961 159.601 89.72 159.377 89.9961 159.377C90.2722 159.377 90.4961 159.601 90.4961 159.877Z" fill="#22328A" fill-opacity="0.2"/>
<path d="M103.496 159.877C103.496 160.153 103.272 160.377 102.996 160.377C102.72 160.377 102.496 160.153 102.496 159.877C102.496 159.601 102.72 159.377 102.996 159.377C103.272 159.377 103.496 159.601 103.496 159.877Z" fill="#22328A" fill-opacity="0.2"/>
<path d="M116.496 159.877C116.496 160.153 116.272 160.377 115.996 160.377C115.72 160.377 115.496 160.153 115.496 159.877C115.496 159.601 115.72 159.377 115.996 159.377C116.272 159.377 116.496 159.601 116.496 159.877Z" fill="#22328A" fill-opacity="0.2"/>
<path d="M129.496 159.877C129.496 160.153 129.272 160.377 128.996 160.377C128.72 160.377 128.496 160.153 128.496 159.877C128.496 159.601 128.72 159.377 128.996 159.377C129.272 159.377 129.496 159.601 129.496 159.877Z" fill="#22328A" fill-opacity="0.2"/>
<path d="M12.4961 172.877C12.4961 173.153 12.2722 173.377 11.9961 173.377C11.72 173.377 11.4961 173.153 11.4961 172.877C11.4961 172.601 11.72 172.377 11.9961 172.377C12.2722 172.377 12.4961 172.601 12.4961 172.877Z" fill="#22328A" fill-opacity="0.2"/>
<path d="M25.4961 172.877C25.4961 173.153 25.2722 173.377 24.9961 173.377C24.72 173.377 24.4961 173.153 24.4961 172.877C24.4961 172.601 24.72 172.377 24.9961 172.377C25.2722 172.377 25.4961 172.601 25.4961 172.877Z" fill="#22328A" fill-opacity="0.2"/>
<path d="M38.4961 172.877C38.4961 173.153 38.2722 173.377 37.9961 173.377C37.72 173.377 37.4961 173.153 37.4961 172.877C37.4961 172.601 37.72 172.377 37.9961 172.377C38.2722 172.377 38.4961 172.601 38.4961 172.877Z" fill="#22328A" fill-opacity="0.2"/>
<path d="M51.4961 172.877C51.4961 173.153 51.2722 173.377 50.9961 173.377C50.72 173.377 50.4961 173.153 50.4961 172.877C50.4961 172.601 50.72 172.377 50.9961 172.377C51.2722 172.377 51.4961 172.601 51.4961 172.877Z" fill="#22328A" fill-opacity="0.2"/>
<path d="M64.4961 172.877C64.4961 173.153 64.2722 173.377 63.9961 173.377C63.72 173.377 63.4961 173.153 63.4961 172.877C63.4961 172.601 63.72 172.377 63.9961 172.377C64.2722 172.377 64.4961 172.601 64.4961 172.877Z" fill="#22328A" fill-opacity="0.2"/>
<path d="M77.4961 172.877C77.4961 173.153 77.2722 173.377 76.9961 173.377C76.72 173.377 76.4961 173.153 76.4961 172.877C76.4961 172.601 76.72 172.377 76.9961 172.377C77.2722 172.377 77.4961 172.601 77.4961 172.877Z" fill="#22328A" fill-opacity="0.2"/>
<path d="M90.4961 172.877C90.4961 173.153 90.2722 173.377 89.9961 173.377C89.72 173.377 89.4961 173.153 89.4961 172.877C89.4961 172.601 89.72 172.377 89.9961 172.377C90.2722 172.377 90.4961 172.601 90.4961 172.877Z" fill="#22328A" fill-opacity="0.2"/>
<path d="M103.496 172.877C103.496 173.153 103.272 173.377 102.996 173.377C102.72 173.377 102.496 173.153 102.496 172.877C102.496 172.601 102.72 172.377 102.996 172.377C103.272 172.377 103.496 172.601 103.496 172.877Z" fill="#22328A" fill-opacity="0.2"/>
<path d="M116.496 172.877C116.496 173.153 116.272 173.377 115.996 173.377C115.72 173.377 115.496 173.153 115.496 172.877C115.496 172.601 115.72 172.377 115.996 172.377C116.272 172.377 116.496 172.601 116.496 172.877Z" fill="#22328A" fill-opacity="0.2"/>
<path d="M129.496 172.877C129.496 173.153 129.272 173.377 128.996 173.377C128.72 173.377 128.496 173.153 128.496 172.877C128.496 172.601 128.72 172.377 128.996 172.377C129.272 172.377 129.496 172.601 129.496 172.877Z" fill="#22328A" fill-opacity="0.2"/>
<path d="M12.4961 185.877C12.4961 186.153 12.2722 186.377 11.9961 186.377C11.72 186.377 11.4961 186.153 11.4961 185.877C11.4961 185.601 11.72 185.377 11.9961 185.377C12.2722 185.377 12.4961 185.601 12.4961 185.877Z" fill="#22328A" fill-opacity="0.2"/>
<path d="M25.4961 185.877C25.4961 186.153 25.2722 186.377 24.9961 186.377C24.72 186.377 24.4961 186.153 24.4961 185.877C24.4961 185.601 24.72 185.377 24.9961 185.377C25.2722 185.377 25.4961 185.601 25.4961 185.877Z" fill="#22328A" fill-opacity="0.2"/>
<path d="M38.4961 185.877C38.4961 186.153 38.2722 186.377 37.9961 186.377C37.72 186.377 37.4961 186.153 37.4961 185.877C37.4961 185.601 37.72 185.377 37.9961 185.377C38.2722 185.377 38.4961 185.601 38.4961 185.877Z" fill="#22328A" fill-opacity="0.2"/>
<path d="M51.4961 185.877C51.4961 186.153 51.2722 186.377 50.9961 186.377C50.72 186.377 50.4961 186.153 50.4961 185.877C50.4961 185.601 50.72 185.377 50.9961 185.377C51.2722 185.377 51.4961 185.601 51.4961 185.877Z" fill="#22328A" fill-opacity="0.2"/>
<path d="M64.4961 185.877C64.4961 186.153 64.2722 186.377 63.9961 186.377C63.72 186.377 63.4961 186.153 63.4961 185.877C63.4961 185.601 63.72 185.377 63.9961 185.377C64.2722 185.377 64.4961 185.601 64.4961 185.877Z" fill="#22328A" fill-opacity="0.2"/>
<path d="M77.4961 185.877C77.4961 186.153 77.2722 186.377 76.9961 186.377C76.72 186.377 76.4961 186.153 76.4961 185.877C76.4961 185.601 76.72 185.377 76.9961 185.377C77.2722 185.377 77.4961 185.601 77.4961 185.877Z" fill="#22328A" fill-opacity="0.2"/>
<path d="M90.4961 185.877C90.4961 186.153 90.2722 186.377 89.9961 186.377C89.72 186.377 89.4961 186.153 89.4961 185.877C89.4961 185.601 89.72 185.377 89.9961 185.377C90.2722 185.377 90.4961 185.601 90.4961 185.877Z" fill="#22328A" fill-opacity="0.2"/>
<path d="M103.496 185.877C103.496 186.153 103.272 186.377 102.996 186.377C102.72 186.377 102.496 186.153 102.496 185.877C102.496 185.601 102.72 185.377 102.996 185.377C103.272 185.377 103.496 185.601 103.496 185.877Z" fill="#22328A" fill-opacity="0.2"/>
<path d="M116.496 185.877C116.496 186.153 116.272 186.377 115.996 186.377C115.72 186.377 115.496 186.153 115.496 185.877C115.496 185.601 115.72 185.377 115.996 185.377C116.272 185.377 116.496 185.601 116.496 185.877Z" fill="#22328A" fill-opacity="0.2"/>
<path d="M129.496 185.877C129.496 186.153 129.272 186.377 128.996 186.377C128.72 186.377 128.496 186.153 128.496 185.877C128.496 185.601 128.72 185.377 128.996 185.377C129.272 185.377 129.496 185.601 129.496 185.877Z" fill="#22328A" fill-opacity="0.2"/>
<path d="M12.4961 198.877C12.4961 199.153 12.2722 199.377 11.9961 199.377C11.72 199.377 11.4961 199.153 11.4961 198.877C11.4961 198.601 11.72 198.377 11.9961 198.377C12.2722 198.377 12.4961 198.601 12.4961 198.877Z" fill="#22328A" fill-opacity="0.2"/>
<path d="M25.4961 198.877C25.4961 199.153 25.2722 199.377 24.9961 199.377C24.72 199.377 24.4961 199.153 24.4961 198.877C24.4961 198.601 24.72 198.377 24.9961 198.377C25.2722 198.377 25.4961 198.601 25.4961 198.877Z" fill="#22328A" fill-opacity="0.2"/>
<path d="M38.4961 198.877C38.4961 199.153 38.2722 199.377 37.9961 199.377C37.72 199.377 37.4961 199.153 37.4961 198.877C37.4961 198.601 37.72 198.377 37.9961 198.377C38.2722 198.377 38.4961 198.601 38.4961 198.877Z" fill="#22328A" fill-opacity="0.2"/>
<path d="M51.4961 198.877C51.4961 199.153 51.2722 199.377 50.9961 199.377C50.72 199.377 50.4961 199.153 50.4961 198.877C50.4961 198.601 50.72 198.377 50.9961 198.377C51.2722 198.377 51.4961 198.601 51.4961 198.877Z" fill="#22328A" fill-opacity="0.2"/>
<path d="M64.4961 198.877C64.4961 199.153 64.2722 199.377 63.9961 199.377C63.72 199.377 63.4961 199.153 63.4961 198.877C63.4961 198.601 63.72 198.377 63.9961 198.377C64.2722 198.377 64.4961 198.601 64.4961 198.877Z" fill="#22328A" fill-opacity="0.2"/>
<path d="M77.4961 198.877C77.4961 199.153 77.2722 199.377 76.9961 199.377C76.72 199.377 76.4961 199.153 76.4961 198.877C76.4961 198.601 76.72 198.377 76.9961 198.377C77.2722 198.377 77.4961 198.601 77.4961 198.877Z" fill="#22328A" fill-opacity="0.2"/>
<path d="M90.4961 198.877C90.4961 199.153 90.2722 199.377 89.9961 199.377C89.72 199.377 89.4961 199.153 89.4961 198.877C89.4961 198.601 89.72 198.377 89.9961 198.377C90.2722 198.377 90.4961 198.601 90.4961 198.877Z" fill="#22328A" fill-opacity="0.2"/>
<path d="M103.496 198.877C103.496 199.153 103.272 199.377 102.996 199.377C102.72 199.377 102.496 199.153 102.496 198.877C102.496 198.601 102.72 198.377 102.996 198.377C103.272 198.377 103.496 198.601 103.496 198.877Z" fill="#22328A" fill-opacity="0.2"/>
<path d="M116.496 198.877C116.496 199.153 116.272 199.377 115.996 199.377C115.72 199.377 115.496 199.153 115.496 198.877C115.496 198.601 115.72 198.377 115.996 198.377C116.272 198.377 116.496 198.601 116.496 198.877Z" fill="#22328A" fill-opacity="0.2"/>
<path d="M129.496 198.877C129.496 199.153 129.272 199.377 128.996 199.377C128.72 199.377 128.496 199.153 128.496 198.877C128.496 198.601 128.72 198.377 128.996 198.377C129.272 198.377 129.496 198.601 129.496 198.877Z" fill="#22328A" fill-opacity="0.2"/>
<path d="M12.4961 211.877C12.4961 212.153 12.2722 212.377 11.9961 212.377C11.72 212.377 11.4961 212.153 11.4961 211.877C11.4961 211.601 11.72 211.377 11.9961 211.377C12.2722 211.377 12.4961 211.601 12.4961 211.877Z" fill="#22328A" fill-opacity="0.2"/>
<path d="M25.4961 211.877C25.4961 212.153 25.2722 212.377 24.9961 212.377C24.72 212.377 24.4961 212.153 24.4961 211.877C24.4961 211.601 24.72 211.377 24.9961 211.377C25.2722 211.377 25.4961 211.601 25.4961 211.877Z" fill="#22328A" fill-opacity="0.2"/>
<path d="M38.4961 211.877C38.4961 212.153 38.2722 212.377 37.9961 212.377C37.72 212.377 37.4961 212.153 37.4961 211.877C37.4961 211.601 37.72 211.377 37.9961 211.377C38.2722 211.377 38.4961 211.601 38.4961 211.877Z" fill="#22328A" fill-opacity="0.2"/>
<path d="M51.4961 211.877C51.4961 212.153 51.2722 212.377 50.9961 212.377C50.72 212.377 50.4961 212.153 50.4961 211.877C50.4961 211.601 50.72 211.377 50.9961 211.377C51.2722 211.377 51.4961 211.601 51.4961 211.877Z" fill="#22328A" fill-opacity="0.2"/>
<path d="M64.4961 211.877C64.4961 212.153 64.2722 212.377 63.9961 212.377C63.72 212.377 63.4961 212.153 63.4961 211.877C63.4961 211.601 63.72 211.377 63.9961 211.377C64.2722 211.377 64.4961 211.601 64.4961 211.877Z" fill="#22328A" fill-opacity="0.2"/>
<path d="M77.4961 211.877C77.4961 212.153 77.2722 212.377 76.9961 212.377C76.72 212.377 76.4961 212.153 76.4961 211.877C76.4961 211.601 76.72 211.377 76.9961 211.377C77.2722 211.377 77.4961 211.601 77.4961 211.877Z" fill="#22328A" fill-opacity="0.2"/>
<path d="M90.4961 211.877C90.4961 212.153 90.2722 212.377 89.9961 212.377C89.72 212.377 89.4961 212.153 89.4961 211.877C89.4961 211.601 89.72 211.377 89.9961 211.377C90.2722 211.377 90.4961 211.601 90.4961 211.877Z" fill="#22328A" fill-opacity="0.2"/>
<path d="M103.496 211.877C103.496 212.153 103.272 212.377 102.996 212.377C102.72 212.377 102.496 212.153 102.496 211.877C102.496 211.601 102.72 211.377 102.996 211.377C103.272 211.377 103.496 211.601 103.496 211.877Z" fill="#22328A" fill-opacity="0.2"/>
<path d="M116.496 211.877C116.496 212.153 116.272 212.377 115.996 212.377C115.72 212.377 115.496 212.153 115.496 211.877C115.496 211.601 115.72 211.377 115.996 211.377C116.272 211.377 116.496 211.601 116.496 211.877Z" fill="#22328A" fill-opacity="0.2"/>
<path d="M129.496 211.877C129.496 212.153 129.272 212.377 128.996 212.377C128.72 212.377 128.496 212.153 128.496 211.877C128.496 211.601 128.72 211.377 128.996 211.377C129.272 211.377 129.496 211.601 129.496 211.877Z" fill="#22328A" fill-opacity="0.2"/>
<path d="M12.4961 224.877C12.4961 225.153 12.2722 225.377 11.9961 225.377C11.72 225.377 11.4961 225.153 11.4961 224.877C11.4961 224.601 11.72 224.377 11.9961 224.377C12.2722 224.377 12.4961 224.601 12.4961 224.877Z" fill="#22328A" fill-opacity="0.2"/>
<path d="M25.4961 224.877C25.4961 225.153 25.2722 225.377 24.9961 225.377C24.72 225.377 24.4961 225.153 24.4961 224.877C24.4961 224.601 24.72 224.377 24.9961 224.377C25.2722 224.377 25.4961 224.601 25.4961 224.877Z" fill="#22328A" fill-opacity="0.2"/>
<path d="M38.4961 224.877C38.4961 225.153 38.2722 225.377 37.9961 225.377C37.72 225.377 37.4961 225.153 37.4961 224.877C37.4961 224.601 37.72 224.377 37.9961 224.377C38.2722 224.377 38.4961 224.601 38.4961 224.877Z" fill="#22328A" fill-opacity="0.2"/>
<path d="M51.4961 224.877C51.4961 225.153 51.2722 225.377 50.9961 225.377C50.72 225.377 50.4961 225.153 50.4961 224.877C50.4961 224.601 50.72 224.377 50.9961 224.377C51.2722 224.377 51.4961 224.601 51.4961 224.877Z" fill="#22328A" fill-opacity="0.2"/>
<path d="M64.4961 224.877C64.4961 225.153 64.2722 225.377 63.9961 225.377C63.72 225.377 63.4961 225.153 63.4961 224.877C63.4961 224.601 63.72 224.377 63.9961 224.377C64.2722 224.377 64.4961 224.601 64.4961 224.877Z" fill="#22328A" fill-opacity="0.2"/>
<path d="M77.4961 224.877C77.4961 225.153 77.2722 225.377 76.9961 225.377C76.72 225.377 76.4961 225.153 76.4961 224.877C76.4961 224.601 76.72 224.377 76.9961 224.377C77.2722 224.377 77.4961 224.601 77.4961 224.877Z" fill="#22328A" fill-opacity="0.2"/>
<path d="M90.4961 224.877C90.4961 225.153 90.2722 225.377 89.9961 225.377C89.72 225.377 89.4961 225.153 89.4961 224.877C89.4961 224.601 89.72 224.377 89.9961 224.377C90.2722 224.377 90.4961 224.601 90.4961 224.877Z" fill="#22328A" fill-opacity="0.2"/>
<path d="M103.496 224.877C103.496 225.153 103.272 225.377 102.996 225.377C102.72 225.377 102.496 225.153 102.496 224.877C102.496 224.601 102.72 224.377 102.996 224.377C103.272 224.377 103.496 224.601 103.496 224.877Z" fill="#22328A" fill-opacity="0.2"/>
<path d="M116.496 224.877C116.496 225.153 116.272 225.377 115.996 225.377C115.72 225.377 115.496 225.153 115.496 224.877C115.496 224.601 115.72 224.377 115.996 224.377C116.272 224.377 116.496 224.601 116.496 224.877Z" fill="#22328A" fill-opacity="0.2"/>
<path d="M129.496 224.877C129.496 225.153 129.272 225.377 128.996 225.377C128.72 225.377 128.496 225.153 128.496 224.877C128.496 224.601 128.72 224.377 128.996 224.377C129.272 224.377 129.496 224.601 129.496 224.877Z" fill="#22328A" fill-opacity="0.2"/>
<path d="M258.496 55.877C258.496 56.1531 258.72 56.377 258.996 56.377C259.272 56.377 259.496 56.1531 259.496 55.877C259.496 55.6008 259.272 55.377 258.996 55.377C258.72 55.377 258.496 55.6008 258.496 55.877Z" fill="#22328A" fill-opacity="0.2"/>
<path d="M245.496 55.877C245.496 56.1531 245.72 56.377 245.996 56.377C246.272 56.377 246.496 56.1531 246.496 55.877C246.496 55.6008 246.272 55.377 245.996 55.377C245.72 55.377 245.496 55.6008 245.496 55.877Z" fill="#22328A" fill-opacity="0.2"/>
<path d="M232.496 55.877C232.496 56.1531 232.72 56.377 232.996 56.377C233.272 56.377 233.496 56.1531 233.496 55.877C233.496 55.6008 233.272 55.377 232.996 55.377C232.72 55.377 232.496 55.6008 232.496 55.877Z" fill="#22328A" fill-opacity="0.2"/>
<path d="M219.496 55.877C219.496 56.1531 219.72 56.377 219.996 56.377C220.272 56.377 220.496 56.1531 220.496 55.877C220.496 55.6008 220.272 55.377 219.996 55.377C219.72 55.377 219.496 55.6008 219.496 55.877Z" fill="#22328A" fill-opacity="0.2"/>
<path d="M206.496 55.877C206.496 56.1531 206.72 56.377 206.996 56.377C207.272 56.377 207.496 56.1531 207.496 55.877C207.496 55.6008 207.272 55.377 206.996 55.377C206.72 55.377 206.496 55.6008 206.496 55.877Z" fill="#22328A" fill-opacity="0.2"/>
<path d="M193.496 55.877C193.496 56.1531 193.72 56.377 193.996 56.377C194.272 56.377 194.496 56.1531 194.496 55.877C194.496 55.6008 194.272 55.377 193.996 55.377C193.72 55.377 193.496 55.6008 193.496 55.877Z" fill="#22328A" fill-opacity="0.2"/>
<path d="M180.496 55.877C180.496 56.1531 180.72 56.377 180.996 56.377C181.272 56.377 181.496 56.1531 181.496 55.877C181.496 55.6008 181.272 55.377 180.996 55.377C180.72 55.377 180.496 55.6008 180.496 55.877Z" fill="#22328A" fill-opacity="0.2"/>
<path d="M167.496 55.877C167.496 56.1531 167.72 56.377 167.996 56.377C168.272 56.377 168.496 56.1531 168.496 55.877C168.496 55.6008 168.272 55.377 167.996 55.377C167.72 55.377 167.496 55.6008 167.496 55.877Z" fill="#22328A" fill-opacity="0.2"/>
<path d="M154.496 55.877C154.496 56.1531 154.72 56.377 154.996 56.377C155.272 56.377 155.496 56.1531 155.496 55.877C155.496 55.6008 155.272 55.377 154.996 55.377C154.72 55.377 154.496 55.6008 154.496 55.877Z" fill="#22328A" fill-opacity="0.2"/>
<path d="M141.496 55.877C141.496 56.1531 141.72 56.377 141.996 56.377C142.272 56.377 142.496 56.1531 142.496 55.877C142.496 55.6008 142.272 55.377 141.996 55.377C141.72 55.377 141.496 55.6008 141.496 55.877Z" fill="#22328A" fill-opacity="0.2"/>
<path d="M258.496 68.877C258.496 69.1531 258.72 69.377 258.996 69.377C259.272 69.377 259.496 69.1531 259.496 68.877C259.496 68.6009 259.272 68.377 258.996 68.377C258.72 68.377 258.496 68.6009 258.496 68.877Z" fill="#22328A" fill-opacity="0.2"/>
<path d="M245.496 68.877C245.496 69.1531 245.72 69.377 245.996 69.377C246.272 69.377 246.496 69.1531 246.496 68.877C246.496 68.6009 246.272 68.377 245.996 68.377C245.72 68.377 245.496 68.6009 245.496 68.877Z" fill="#22328A" fill-opacity="0.2"/>
<path d="M232.496 68.877C232.496 69.1531 232.72 69.377 232.996 69.377C233.272 69.377 233.496 69.1531 233.496 68.877C233.496 68.6009 233.272 68.377 232.996 68.377C232.72 68.377 232.496 68.6009 232.496 68.877Z" fill="#22328A" fill-opacity="0.2"/>
<path d="M219.496 68.877C219.496 69.1531 219.72 69.377 219.996 69.377C220.272 69.377 220.496 69.1531 220.496 68.877C220.496 68.6009 220.272 68.377 219.996 68.377C219.72 68.377 219.496 68.6009 219.496 68.877Z" fill="#22328A" fill-opacity="0.2"/>
<path d="M206.496 68.877C206.496 69.1531 206.72 69.377 206.996 69.377C207.272 69.377 207.496 69.1531 207.496 68.877C207.496 68.6009 207.272 68.377 206.996 68.377C206.72 68.377 206.496 68.6009 206.496 68.877Z" fill="#22328A" fill-opacity="0.2"/>
<path d="M193.496 68.877C193.496 69.1531 193.72 69.377 193.996 69.377C194.272 69.377 194.496 69.1531 194.496 68.877C194.496 68.6009 194.272 68.377 193.996 68.377C193.72 68.377 193.496 68.6009 193.496 68.877Z" fill="#22328A" fill-opacity="0.2"/>
<path d="M180.496 68.877C180.496 69.1531 180.72 69.377 180.996 69.377C181.272 69.377 181.496 69.1531 181.496 68.877C181.496 68.6009 181.272 68.377 180.996 68.377C180.72 68.377 180.496 68.6009 180.496 68.877Z" fill="#22328A" fill-opacity="0.2"/>
<path d="M167.496 68.877C167.496 69.1531 167.72 69.377 167.996 69.377C168.272 69.377 168.496 69.1531 168.496 68.877C168.496 68.6009 168.272 68.377 167.996 68.377C167.72 68.377 167.496 68.6009 167.496 68.877Z" fill="#22328A" fill-opacity="0.2"/>
<path d="M154.496 68.877C154.496 69.1531 154.72 69.377 154.996 69.377C155.272 69.377 155.496 69.1531 155.496 68.877C155.496 68.6009 155.272 68.377 154.996 68.377C154.72 68.377 154.496 68.6009 154.496 68.877Z" fill="#22328A" fill-opacity="0.2"/>
<path d="M141.496 68.877C141.496 69.1531 141.72 69.377 141.996 69.377C142.272 69.377 142.496 69.1531 142.496 68.877C142.496 68.6009 142.272 68.377 141.996 68.377C141.72 68.377 141.496 68.6009 141.496 68.877Z" fill="#22328A" fill-opacity="0.2"/>
<path d="M258.496 81.877C258.496 82.1531 258.72 82.377 258.996 82.377C259.272 82.377 259.496 82.1531 259.496 81.877C259.496 81.6009 259.272 81.377 258.996 81.377C258.72 81.377 258.496 81.6009 258.496 81.877Z" fill="#22328A" fill-opacity="0.2"/>
<path d="M245.496 81.877C245.496 82.1531 245.72 82.377 245.996 82.377C246.272 82.377 246.496 82.1531 246.496 81.877C246.496 81.6009 246.272 81.377 245.996 81.377C245.72 81.377 245.496 81.6009 245.496 81.877Z" fill="#22328A" fill-opacity="0.2"/>
<path d="M232.496 81.877C232.496 82.1531 232.72 82.377 232.996 82.377C233.272 82.377 233.496 82.1531 233.496 81.877C233.496 81.6009 233.272 81.377 232.996 81.377C232.72 81.377 232.496 81.6009 232.496 81.877Z" fill="#22328A" fill-opacity="0.2"/>
<path d="M219.496 81.877C219.496 82.1531 219.72 82.377 219.996 82.377C220.272 82.377 220.496 82.1531 220.496 81.877C220.496 81.6009 220.272 81.377 219.996 81.377C219.72 81.377 219.496 81.6009 219.496 81.877Z" fill="#22328A" fill-opacity="0.2"/>
<path d="M206.496 81.877C206.496 82.1531 206.72 82.377 206.996 82.377C207.272 82.377 207.496 82.1531 207.496 81.877C207.496 81.6009 207.272 81.377 206.996 81.377C206.72 81.377 206.496 81.6009 206.496 81.877Z" fill="#22328A" fill-opacity="0.2"/>
<path d="M193.496 81.877C193.496 82.1531 193.72 82.377 193.996 82.377C194.272 82.377 194.496 82.1531 194.496 81.877C194.496 81.6009 194.272 81.377 193.996 81.377C193.72 81.377 193.496 81.6009 193.496 81.877Z" fill="#22328A" fill-opacity="0.2"/>
<path d="M180.496 81.877C180.496 82.1531 180.72 82.377 180.996 82.377C181.272 82.377 181.496 82.1531 181.496 81.877C181.496 81.6009 181.272 81.377 180.996 81.377C180.72 81.377 180.496 81.6009 180.496 81.877Z" fill="#22328A" fill-opacity="0.2"/>
<path d="M167.496 81.877C167.496 82.1531 167.72 82.377 167.996 82.377C168.272 82.377 168.496 82.1531 168.496 81.877C168.496 81.6009 168.272 81.377 167.996 81.377C167.72 81.377 167.496 81.6009 167.496 81.877Z" fill="#22328A" fill-opacity="0.2"/>
<path d="M154.496 81.877C154.496 82.1531 154.72 82.377 154.996 82.377C155.272 82.377 155.496 82.1531 155.496 81.877C155.496 81.6009 155.272 81.377 154.996 81.377C154.72 81.377 154.496 81.6009 154.496 81.877Z" fill="#22328A" fill-opacity="0.2"/>
<path d="M141.496 81.877C141.496 82.1531 141.72 82.377 141.996 82.377C142.272 82.377 142.496 82.1531 142.496 81.877C142.496 81.6009 142.272 81.377 141.996 81.377C141.72 81.377 141.496 81.6009 141.496 81.877Z" fill="#22328A" fill-opacity="0.2"/>
<path d="M258.496 94.877C258.496 95.1531 258.72 95.377 258.996 95.377C259.272 95.377 259.496 95.1531 259.496 94.877C259.496 94.6009 259.272 94.377 258.996 94.377C258.72 94.377 258.496 94.6009 258.496 94.877Z" fill="#22328A" fill-opacity="0.2"/>
<path d="M245.496 94.877C245.496 95.1531 245.72 95.377 245.996 95.377C246.272 95.377 246.496 95.1531 246.496 94.877C246.496 94.6009 246.272 94.377 245.996 94.377C245.72 94.377 245.496 94.6009 245.496 94.877Z" fill="#22328A" fill-opacity="0.2"/>
<path d="M232.496 94.877C232.496 95.1531 232.72 95.377 232.996 95.377C233.272 95.377 233.496 95.1531 233.496 94.877C233.496 94.6009 233.272 94.377 232.996 94.377C232.72 94.377 232.496 94.6009 232.496 94.877Z" fill="#22328A" fill-opacity="0.2"/>
<path d="M219.496 94.877C219.496 95.1531 219.72 95.377 219.996 95.377C220.272 95.377 220.496 95.1531 220.496 94.877C220.496 94.6009 220.272 94.377 219.996 94.377C219.72 94.377 219.496 94.6009 219.496 94.877Z" fill="#22328A" fill-opacity="0.2"/>
<path d="M206.496 94.877C206.496 95.1531 206.72 95.377 206.996 95.377C207.272 95.377 207.496 95.1531 207.496 94.877C207.496 94.6009 207.272 94.377 206.996 94.377C206.72 94.377 206.496 94.6009 206.496 94.877Z" fill="#22328A" fill-opacity="0.2"/>
<path d="M193.496 94.877C193.496 95.1531 193.72 95.377 193.996 95.377C194.272 95.377 194.496 95.1531 194.496 94.877C194.496 94.6009 194.272 94.377 193.996 94.377C193.72 94.377 193.496 94.6009 193.496 94.877Z" fill="#22328A" fill-opacity="0.2"/>
<path d="M180.496 94.877C180.496 95.1531 180.72 95.377 180.996 95.377C181.272 95.377 181.496 95.1531 181.496 94.877C181.496 94.6009 181.272 94.377 180.996 94.377C180.72 94.377 180.496 94.6009 180.496 94.877Z" fill="#22328A" fill-opacity="0.2"/>
<path d="M167.496 94.877C167.496 95.1531 167.72 95.377 167.996 95.377C168.272 95.377 168.496 95.1531 168.496 94.877C168.496 94.6009 168.272 94.377 167.996 94.377C167.72 94.377 167.496 94.6009 167.496 94.877Z" fill="#22328A" fill-opacity="0.2"/>
<path d="M154.496 94.877C154.496 95.1531 154.72 95.377 154.996 95.377C155.272 95.377 155.496 95.1531 155.496 94.877C155.496 94.6009 155.272 94.377 154.996 94.377C154.72 94.377 154.496 94.6009 154.496 94.877Z" fill="#22328A" fill-opacity="0.2"/>
<path d="M141.496 94.877C141.496 95.1531 141.72 95.377 141.996 95.377C142.272 95.377 142.496 95.1531 142.496 94.877C142.496 94.6009 142.272 94.377 141.996 94.377C141.72 94.377 141.496 94.6009 141.496 94.877Z" fill="#22328A" fill-opacity="0.2"/>
<path d="M258.496 107.877C258.496 108.153 258.72 108.377 258.996 108.377C259.272 108.377 259.496 108.153 259.496 107.877C259.496 107.601 259.272 107.377 258.996 107.377C258.72 107.377 258.496 107.601 258.496 107.877Z" fill="#22328A" fill-opacity="0.2"/>
<path d="M245.496 107.877C245.496 108.153 245.72 108.377 245.996 108.377C246.272 108.377 246.496 108.153 246.496 107.877C246.496 107.601 246.272 107.377 245.996 107.377C245.72 107.377 245.496 107.601 245.496 107.877Z" fill="#22328A" fill-opacity="0.2"/>
<path d="M232.496 107.877C232.496 108.153 232.72 108.377 232.996 108.377C233.272 108.377 233.496 108.153 233.496 107.877C233.496 107.601 233.272 107.377 232.996 107.377C232.72 107.377 232.496 107.601 232.496 107.877Z" fill="#22328A" fill-opacity="0.2"/>
<path d="M219.496 107.877C219.496 108.153 219.72 108.377 219.996 108.377C220.272 108.377 220.496 108.153 220.496 107.877C220.496 107.601 220.272 107.377 219.996 107.377C219.72 107.377 219.496 107.601 219.496 107.877Z" fill="#22328A" fill-opacity="0.2"/>
<path d="M206.496 107.877C206.496 108.153 206.72 108.377 206.996 108.377C207.272 108.377 207.496 108.153 207.496 107.877C207.496 107.601 207.272 107.377 206.996 107.377C206.72 107.377 206.496 107.601 206.496 107.877Z" fill="#22328A" fill-opacity="0.2"/>
<path d="M193.496 107.877C193.496 108.153 193.72 108.377 193.996 108.377C194.272 108.377 194.496 108.153 194.496 107.877C194.496 107.601 194.272 107.377 193.996 107.377C193.72 107.377 193.496 107.601 193.496 107.877Z" fill="#22328A" fill-opacity="0.2"/>
<path d="M180.496 107.877C180.496 108.153 180.72 108.377 180.996 108.377C181.272 108.377 181.496 108.153 181.496 107.877C181.496 107.601 181.272 107.377 180.996 107.377C180.72 107.377 180.496 107.601 180.496 107.877Z" fill="#22328A" fill-opacity="0.2"/>
<path d="M167.496 107.877C167.496 108.153 167.72 108.377 167.996 108.377C168.272 108.377 168.496 108.153 168.496 107.877C168.496 107.601 168.272 107.377 167.996 107.377C167.72 107.377 167.496 107.601 167.496 107.877Z" fill="#22328A" fill-opacity="0.2"/>
<path d="M154.496 107.877C154.496 108.153 154.72 108.377 154.996 108.377C155.272 108.377 155.496 108.153 155.496 107.877C155.496 107.601 155.272 107.377 154.996 107.377C154.72 107.377 154.496 107.601 154.496 107.877Z" fill="#22328A" fill-opacity="0.2"/>
<path d="M141.496 107.877C141.496 108.153 141.72 108.377 141.996 108.377C142.272 108.377 142.496 108.153 142.496 107.877C142.496 107.601 142.272 107.377 141.996 107.377C141.72 107.377 141.496 107.601 141.496 107.877Z" fill="#22328A" fill-opacity="0.2"/>
<path d="M258.496 120.877C258.496 121.153 258.72 121.377 258.996 121.377C259.272 121.377 259.496 121.153 259.496 120.877C259.496 120.601 259.272 120.377 258.996 120.377C258.72 120.377 258.496 120.601 258.496 120.877Z" fill="#22328A" fill-opacity="0.2"/>
<path d="M245.496 120.877C245.496 121.153 245.72 121.377 245.996 121.377C246.272 121.377 246.496 121.153 246.496 120.877C246.496 120.601 246.272 120.377 245.996 120.377C245.72 120.377 245.496 120.601 245.496 120.877Z" fill="#22328A" fill-opacity="0.2"/>
<path d="M232.496 120.877C232.496 121.153 232.72 121.377 232.996 121.377C233.272 121.377 233.496 121.153 233.496 120.877C233.496 120.601 233.272 120.377 232.996 120.377C232.72 120.377 232.496 120.601 232.496 120.877Z" fill="#22328A" fill-opacity="0.2"/>
<path d="M219.496 120.877C219.496 121.153 219.72 121.377 219.996 121.377C220.272 121.377 220.496 121.153 220.496 120.877C220.496 120.601 220.272 120.377 219.996 120.377C219.72 120.377 219.496 120.601 219.496 120.877Z" fill="#22328A" fill-opacity="0.2"/>
<path d="M206.496 120.877C206.496 121.153 206.72 121.377 206.996 121.377C207.272 121.377 207.496 121.153 207.496 120.877C207.496 120.601 207.272 120.377 206.996 120.377C206.72 120.377 206.496 120.601 206.496 120.877Z" fill="#22328A" fill-opacity="0.2"/>
<path d="M193.496 120.877C193.496 121.153 193.72 121.377 193.996 121.377C194.272 121.377 194.496 121.153 194.496 120.877C194.496 120.601 194.272 120.377 193.996 120.377C193.72 120.377 193.496 120.601 193.496 120.877Z" fill="#22328A" fill-opacity="0.2"/>
<path d="M180.496 120.877C180.496 121.153 180.72 121.377 180.996 121.377C181.272 121.377 181.496 121.153 181.496 120.877C181.496 120.601 181.272 120.377 180.996 120.377C180.72 120.377 180.496 120.601 180.496 120.877Z" fill="#22328A" fill-opacity="0.2"/>
<path d="M167.496 120.877C167.496 121.153 167.72 121.377 167.996 121.377C168.272 121.377 168.496 121.153 168.496 120.877C168.496 120.601 168.272 120.377 167.996 120.377C167.72 120.377 167.496 120.601 167.496 120.877Z" fill="#22328A" fill-opacity="0.2"/>
<path d="M154.496 120.877C154.496 121.153 154.72 121.377 154.996 121.377C155.272 121.377 155.496 121.153 155.496 120.877C155.496 120.601 155.272 120.377 154.996 120.377C154.72 120.377 154.496 120.601 154.496 120.877Z" fill="#22328A" fill-opacity="0.2"/>
<path d="M141.496 120.877C141.496 121.153 141.72 121.377 141.996 121.377C142.272 121.377 142.496 121.153 142.496 120.877C142.496 120.601 142.272 120.377 141.996 120.377C141.72 120.377 141.496 120.601 141.496 120.877Z" fill="#22328A" fill-opacity="0.2"/>
<path d="M258.496 133.877C258.496 134.153 258.72 134.377 258.996 134.377C259.272 134.377 259.496 134.153 259.496 133.877C259.496 133.601 259.272 133.377 258.996 133.377C258.72 133.377 258.496 133.601 258.496 133.877Z" fill="#22328A" fill-opacity="0.2"/>
<path d="M245.496 133.877C245.496 134.153 245.72 134.377 245.996 134.377C246.272 134.377 246.496 134.153 246.496 133.877C246.496 133.601 246.272 133.377 245.996 133.377C245.72 133.377 245.496 133.601 245.496 133.877Z" fill="#22328A" fill-opacity="0.2"/>
<path d="M232.496 133.877C232.496 134.153 232.72 134.377 232.996 134.377C233.272 134.377 233.496 134.153 233.496 133.877C233.496 133.601 233.272 133.377 232.996 133.377C232.72 133.377 232.496 133.601 232.496 133.877Z" fill="#22328A" fill-opacity="0.2"/>
<path d="M219.496 133.877C219.496 134.153 219.72 134.377 219.996 134.377C220.272 134.377 220.496 134.153 220.496 133.877C220.496 133.601 220.272 133.377 219.996 133.377C219.72 133.377 219.496 133.601 219.496 133.877Z" fill="#22328A" fill-opacity="0.2"/>
<path d="M206.496 133.877C206.496 134.153 206.72 134.377 206.996 134.377C207.272 134.377 207.496 134.153 207.496 133.877C207.496 133.601 207.272 133.377 206.996 133.377C206.72 133.377 206.496 133.601 206.496 133.877Z" fill="#22328A" fill-opacity="0.2"/>
<path d="M193.496 133.877C193.496 134.153 193.72 134.377 193.996 134.377C194.272 134.377 194.496 134.153 194.496 133.877C194.496 133.601 194.272 133.377 193.996 133.377C193.72 133.377 193.496 133.601 193.496 133.877Z" fill="#22328A" fill-opacity="0.2"/>
<path d="M180.496 133.877C180.496 134.153 180.72 134.377 180.996 134.377C181.272 134.377 181.496 134.153 181.496 133.877C181.496 133.601 181.272 133.377 180.996 133.377C180.72 133.377 180.496 133.601 180.496 133.877Z" fill="#22328A" fill-opacity="0.2"/>
<path d="M167.496 133.877C167.496 134.153 167.72 134.377 167.996 134.377C168.272 134.377 168.496 134.153 168.496 133.877C168.496 133.601 168.272 133.377 167.996 133.377C167.72 133.377 167.496 133.601 167.496 133.877Z" fill="#22328A" fill-opacity="0.2"/>
<path d="M154.496 133.877C154.496 134.153 154.72 134.377 154.996 134.377C155.272 134.377 155.496 134.153 155.496 133.877C155.496 133.601 155.272 133.377 154.996 133.377C154.72 133.377 154.496 133.601 154.496 133.877Z" fill="#22328A" fill-opacity="0.2"/>
<path d="M141.496 133.877C141.496 134.153 141.72 134.377 141.996 134.377C142.272 134.377 142.496 134.153 142.496 133.877C142.496 133.601 142.272 133.377 141.996 133.377C141.72 133.377 141.496 133.601 141.496 133.877Z" fill="#22328A" fill-opacity="0.2"/>
<path d="M258.496 146.877C258.496 147.153 258.72 147.377 258.996 147.377C259.272 147.377 259.496 147.153 259.496 146.877C259.496 146.601 259.272 146.377 258.996 146.377C258.72 146.377 258.496 146.601 258.496 146.877Z" fill="#22328A" fill-opacity="0.2"/>
<path d="M245.496 146.877C245.496 147.153 245.72 147.377 245.996 147.377C246.272 147.377 246.496 147.153 246.496 146.877C246.496 146.601 246.272 146.377 245.996 146.377C245.72 146.377 245.496 146.601 245.496 146.877Z" fill="#22328A" fill-opacity="0.2"/>
<path d="M232.496 146.877C232.496 147.153 232.72 147.377 232.996 147.377C233.272 147.377 233.496 147.153 233.496 146.877C233.496 146.601 233.272 146.377 232.996 146.377C232.72 146.377 232.496 146.601 232.496 146.877Z" fill="#22328A" fill-opacity="0.2"/>
<path d="M219.496 146.877C219.496 147.153 219.72 147.377 219.996 147.377C220.272 147.377 220.496 147.153 220.496 146.877C220.496 146.601 220.272 146.377 219.996 146.377C219.72 146.377 219.496 146.601 219.496 146.877Z" fill="#22328A" fill-opacity="0.2"/>
<path d="M206.496 146.877C206.496 147.153 206.72 147.377 206.996 147.377C207.272 147.377 207.496 147.153 207.496 146.877C207.496 146.601 207.272 146.377 206.996 146.377C206.72 146.377 206.496 146.601 206.496 146.877Z" fill="#22328A" fill-opacity="0.2"/>
<path d="M193.496 146.877C193.496 147.153 193.72 147.377 193.996 147.377C194.272 147.377 194.496 147.153 194.496 146.877C194.496 146.601 194.272 146.377 193.996 146.377C193.72 146.377 193.496 146.601 193.496 146.877Z" fill="#22328A" fill-opacity="0.2"/>
<path d="M180.496 146.877C180.496 147.153 180.72 147.377 180.996 147.377C181.272 147.377 181.496 147.153 181.496 146.877C181.496 146.601 181.272 146.377 180.996 146.377C180.72 146.377 180.496 146.601 180.496 146.877Z" fill="#22328A" fill-opacity="0.2"/>
<path d="M167.496 146.877C167.496 147.153 167.72 147.377 167.996 147.377C168.272 147.377 168.496 147.153 168.496 146.877C168.496 146.601 168.272 146.377 167.996 146.377C167.72 146.377 167.496 146.601 167.496 146.877Z" fill="#22328A" fill-opacity="0.2"/>
<path d="M154.496 146.877C154.496 147.153 154.72 147.377 154.996 147.377C155.272 147.377 155.496 147.153 155.496 146.877C155.496 146.601 155.272 146.377 154.996 146.377C154.72 146.377 154.496 146.601 154.496 146.877Z" fill="#22328A" fill-opacity="0.2"/>
<path d="M141.496 146.877C141.496 147.153 141.72 147.377 141.996 147.377C142.272 147.377 142.496 147.153 142.496 146.877C142.496 146.601 142.272 146.377 141.996 146.377C141.72 146.377 141.496 146.601 141.496 146.877Z" fill="#22328A" fill-opacity="0.2"/>
<path d="M258.496 159.877C258.496 160.153 258.72 160.377 258.996 160.377C259.272 160.377 259.496 160.153 259.496 159.877C259.496 159.601 259.272 159.377 258.996 159.377C258.72 159.377 258.496 159.601 258.496 159.877Z" fill="#22328A" fill-opacity="0.2"/>
<path d="M245.496 159.877C245.496 160.153 245.72 160.377 245.996 160.377C246.272 160.377 246.496 160.153 246.496 159.877C246.496 159.601 246.272 159.377 245.996 159.377C245.72 159.377 245.496 159.601 245.496 159.877Z" fill="#22328A" fill-opacity="0.2"/>
<path d="M232.496 159.877C232.496 160.153 232.72 160.377 232.996 160.377C233.272 160.377 233.496 160.153 233.496 159.877C233.496 159.601 233.272 159.377 232.996 159.377C232.72 159.377 232.496 159.601 232.496 159.877Z" fill="#22328A" fill-opacity="0.2"/>
<path d="M219.496 159.877C219.496 160.153 219.72 160.377 219.996 160.377C220.272 160.377 220.496 160.153 220.496 159.877C220.496 159.601 220.272 159.377 219.996 159.377C219.72 159.377 219.496 159.601 219.496 159.877Z" fill="#22328A" fill-opacity="0.2"/>
<path d="M206.496 159.877C206.496 160.153 206.72 160.377 206.996 160.377C207.272 160.377 207.496 160.153 207.496 159.877C207.496 159.601 207.272 159.377 206.996 159.377C206.72 159.377 206.496 159.601 206.496 159.877Z" fill="#22328A" fill-opacity="0.2"/>
<path d="M193.496 159.877C193.496 160.153 193.72 160.377 193.996 160.377C194.272 160.377 194.496 160.153 194.496 159.877C194.496 159.601 194.272 159.377 193.996 159.377C193.72 159.377 193.496 159.601 193.496 159.877Z" fill="#22328A" fill-opacity="0.2"/>
<path d="M180.496 159.877C180.496 160.153 180.72 160.377 180.996 160.377C181.272 160.377 181.496 160.153 181.496 159.877C181.496 159.601 181.272 159.377 180.996 159.377C180.72 159.377 180.496 159.601 180.496 159.877Z" fill="#22328A" fill-opacity="0.2"/>
<path d="M167.496 159.877C167.496 160.153 167.72 160.377 167.996 160.377C168.272 160.377 168.496 160.153 168.496 159.877C168.496 159.601 168.272 159.377 167.996 159.377C167.72 159.377 167.496 159.601 167.496 159.877Z" fill="#22328A" fill-opacity="0.2"/>
<path d="M154.496 159.877C154.496 160.153 154.72 160.377 154.996 160.377C155.272 160.377 155.496 160.153 155.496 159.877C155.496 159.601 155.272 159.377 154.996 159.377C154.72 159.377 154.496 159.601 154.496 159.877Z" fill="#22328A" fill-opacity="0.2"/>
<path d="M141.496 159.877C141.496 160.153 141.72 160.377 141.996 160.377C142.272 160.377 142.496 160.153 142.496 159.877C142.496 159.601 142.272 159.377 141.996 159.377C141.72 159.377 141.496 159.601 141.496 159.877Z" fill="#22328A" fill-opacity="0.2"/>
<path d="M258.496 172.877C258.496 173.153 258.72 173.377 258.996 173.377C259.272 173.377 259.496 173.153 259.496 172.877C259.496 172.601 259.272 172.377 258.996 172.377C258.72 172.377 258.496 172.601 258.496 172.877Z" fill="#22328A" fill-opacity="0.2"/>
<path d="M245.496 172.877C245.496 173.153 245.72 173.377 245.996 173.377C246.272 173.377 246.496 173.153 246.496 172.877C246.496 172.601 246.272 172.377 245.996 172.377C245.72 172.377 245.496 172.601 245.496 172.877Z" fill="#22328A" fill-opacity="0.2"/>
<path d="M232.496 172.877C232.496 173.153 232.72 173.377 232.996 173.377C233.272 173.377 233.496 173.153 233.496 172.877C233.496 172.601 233.272 172.377 232.996 172.377C232.72 172.377 232.496 172.601 232.496 172.877Z" fill="#22328A" fill-opacity="0.2"/>
<path d="M219.496 172.877C219.496 173.153 219.72 173.377 219.996 173.377C220.272 173.377 220.496 173.153 220.496 172.877C220.496 172.601 220.272 172.377 219.996 172.377C219.72 172.377 219.496 172.601 219.496 172.877Z" fill="#22328A" fill-opacity="0.2"/>
<path d="M206.496 172.877C206.496 173.153 206.72 173.377 206.996 173.377C207.272 173.377 207.496 173.153 207.496 172.877C207.496 172.601 207.272 172.377 206.996 172.377C206.72 172.377 206.496 172.601 206.496 172.877Z" fill="#22328A" fill-opacity="0.2"/>
<path d="M193.496 172.877C193.496 173.153 193.72 173.377 193.996 173.377C194.272 173.377 194.496 173.153 194.496 172.877C194.496 172.601 194.272 172.377 193.996 172.377C193.72 172.377 193.496 172.601 193.496 172.877Z" fill="#22328A" fill-opacity="0.2"/>
<path d="M180.496 172.877C180.496 173.153 180.72 173.377 180.996 173.377C181.272 173.377 181.496 173.153 181.496 172.877C181.496 172.601 181.272 172.377 180.996 172.377C180.72 172.377 180.496 172.601 180.496 172.877Z" fill="#22328A" fill-opacity="0.2"/>
<path d="M167.496 172.877C167.496 173.153 167.72 173.377 167.996 173.377C168.272 173.377 168.496 173.153 168.496 172.877C168.496 172.601 168.272 172.377 167.996 172.377C167.72 172.377 167.496 172.601 167.496 172.877Z" fill="#22328A" fill-opacity="0.2"/>
<path d="M154.496 172.877C154.496 173.153 154.72 173.377 154.996 173.377C155.272 173.377 155.496 173.153 155.496 172.877C155.496 172.601 155.272 172.377 154.996 172.377C154.72 172.377 154.496 172.601 154.496 172.877Z" fill="#22328A" fill-opacity="0.2"/>
<path d="M141.496 172.877C141.496 173.153 141.72 173.377 141.996 173.377C142.272 173.377 142.496 173.153 142.496 172.877C142.496 172.601 142.272 172.377 141.996 172.377C141.72 172.377 141.496 172.601 141.496 172.877Z" fill="#22328A" fill-opacity="0.2"/>
<path d="M258.496 185.877C258.496 186.153 258.72 186.377 258.996 186.377C259.272 186.377 259.496 186.153 259.496 185.877C259.496 185.601 259.272 185.377 258.996 185.377C258.72 185.377 258.496 185.601 258.496 185.877Z" fill="#22328A" fill-opacity="0.2"/>
<path d="M245.496 185.877C245.496 186.153 245.72 186.377 245.996 186.377C246.272 186.377 246.496 186.153 246.496 185.877C246.496 185.601 246.272 185.377 245.996 185.377C245.72 185.377 245.496 185.601 245.496 185.877Z" fill="#22328A" fill-opacity="0.2"/>
<path d="M232.496 185.877C232.496 186.153 232.72 186.377 232.996 186.377C233.272 186.377 233.496 186.153 233.496 185.877C233.496 185.601 233.272 185.377 232.996 185.377C232.72 185.377 232.496 185.601 232.496 185.877Z" fill="#22328A" fill-opacity="0.2"/>
<path d="M219.496 185.877C219.496 186.153 219.72 186.377 219.996 186.377C220.272 186.377 220.496 186.153 220.496 185.877C220.496 185.601 220.272 185.377 219.996 185.377C219.72 185.377 219.496 185.601 219.496 185.877Z" fill="#22328A" fill-opacity="0.2"/>
<path d="M206.496 185.877C206.496 186.153 206.72 186.377 206.996 186.377C207.272 186.377 207.496 186.153 207.496 185.877C207.496 185.601 207.272 185.377 206.996 185.377C206.72 185.377 206.496 185.601 206.496 185.877Z" fill="#22328A" fill-opacity="0.2"/>
<path d="M193.496 185.877C193.496 186.153 193.72 186.377 193.996 186.377C194.272 186.377 194.496 186.153 194.496 185.877C194.496 185.601 194.272 185.377 193.996 185.377C193.72 185.377 193.496 185.601 193.496 185.877Z" fill="#22328A" fill-opacity="0.2"/>
<path d="M180.496 185.877C180.496 186.153 180.72 186.377 180.996 186.377C181.272 186.377 181.496 186.153 181.496 185.877C181.496 185.601 181.272 185.377 180.996 185.377C180.72 185.377 180.496 185.601 180.496 185.877Z" fill="#22328A" fill-opacity="0.2"/>
<path d="M167.496 185.877C167.496 186.153 167.72 186.377 167.996 186.377C168.272 186.377 168.496 186.153 168.496 185.877C168.496 185.601 168.272 185.377 167.996 185.377C167.72 185.377 167.496 185.601 167.496 185.877Z" fill="#22328A" fill-opacity="0.2"/>
<path d="M154.496 185.877C154.496 186.153 154.72 186.377 154.996 186.377C155.272 186.377 155.496 186.153 155.496 185.877C155.496 185.601 155.272 185.377 154.996 185.377C154.72 185.377 154.496 185.601 154.496 185.877Z" fill="#22328A" fill-opacity="0.2"/>
<path d="M141.496 185.877C141.496 186.153 141.72 186.377 141.996 186.377C142.272 186.377 142.496 186.153 142.496 185.877C142.496 185.601 142.272 185.377 141.996 185.377C141.72 185.377 141.496 185.601 141.496 185.877Z" fill="#22328A" fill-opacity="0.2"/>
<path d="M258.496 198.877C258.496 199.153 258.72 199.377 258.996 199.377C259.272 199.377 259.496 199.153 259.496 198.877C259.496 198.601 259.272 198.377 258.996 198.377C258.72 198.377 258.496 198.601 258.496 198.877Z" fill="#22328A" fill-opacity="0.2"/>
<path d="M245.496 198.877C245.496 199.153 245.72 199.377 245.996 199.377C246.272 199.377 246.496 199.153 246.496 198.877C246.496 198.601 246.272 198.377 245.996 198.377C245.72 198.377 245.496 198.601 245.496 198.877Z" fill="#22328A" fill-opacity="0.2"/>
<path d="M232.496 198.877C232.496 199.153 232.72 199.377 232.996 199.377C233.272 199.377 233.496 199.153 233.496 198.877C233.496 198.601 233.272 198.377 232.996 198.377C232.72 198.377 232.496 198.601 232.496 198.877Z" fill="#22328A" fill-opacity="0.2"/>
<path d="M219.496 198.877C219.496 199.153 219.72 199.377 219.996 199.377C220.272 199.377 220.496 199.153 220.496 198.877C220.496 198.601 220.272 198.377 219.996 198.377C219.72 198.377 219.496 198.601 219.496 198.877Z" fill="#22328A" fill-opacity="0.2"/>
<path d="M206.496 198.877C206.496 199.153 206.72 199.377 206.996 199.377C207.272 199.377 207.496 199.153 207.496 198.877C207.496 198.601 207.272 198.377 206.996 198.377C206.72 198.377 206.496 198.601 206.496 198.877Z" fill="#22328A" fill-opacity="0.2"/>
<path d="M193.496 198.877C193.496 199.153 193.72 199.377 193.996 199.377C194.272 199.377 194.496 199.153 194.496 198.877C194.496 198.601 194.272 198.377 193.996 198.377C193.72 198.377 193.496 198.601 193.496 198.877Z" fill="#22328A" fill-opacity="0.2"/>
<path d="M180.496 198.877C180.496 199.153 180.72 199.377 180.996 199.377C181.272 199.377 181.496 199.153 181.496 198.877C181.496 198.601 181.272 198.377 180.996 198.377C180.72 198.377 180.496 198.601 180.496 198.877Z" fill="#22328A" fill-opacity="0.2"/>
<path d="M167.496 198.877C167.496 199.153 167.72 199.377 167.996 199.377C168.272 199.377 168.496 199.153 168.496 198.877C168.496 198.601 168.272 198.377 167.996 198.377C167.72 198.377 167.496 198.601 167.496 198.877Z" fill="#22328A" fill-opacity="0.2"/>
<path d="M154.496 198.877C154.496 199.153 154.72 199.377 154.996 199.377C155.272 199.377 155.496 199.153 155.496 198.877C155.496 198.601 155.272 198.377 154.996 198.377C154.72 198.377 154.496 198.601 154.496 198.877Z" fill="#22328A" fill-opacity="0.2"/>
<path d="M141.496 198.877C141.496 199.153 141.72 199.377 141.996 199.377C142.272 199.377 142.496 199.153 142.496 198.877C142.496 198.601 142.272 198.377 141.996 198.377C141.72 198.377 141.496 198.601 141.496 198.877Z" fill="#22328A" fill-opacity="0.2"/>
<path d="M258.496 211.877C258.496 212.153 258.72 212.377 258.996 212.377C259.272 212.377 259.496 212.153 259.496 211.877C259.496 211.601 259.272 211.377 258.996 211.377C258.72 211.377 258.496 211.601 258.496 211.877Z" fill="#22328A" fill-opacity="0.2"/>
<path d="M245.496 211.877C245.496 212.153 245.72 212.377 245.996 212.377C246.272 212.377 246.496 212.153 246.496 211.877C246.496 211.601 246.272 211.377 245.996 211.377C245.72 211.377 245.496 211.601 245.496 211.877Z" fill="#22328A" fill-opacity="0.2"/>
<path d="M232.496 211.877C232.496 212.153 232.72 212.377 232.996 212.377C233.272 212.377 233.496 212.153 233.496 211.877C233.496 211.601 233.272 211.377 232.996 211.377C232.72 211.377 232.496 211.601 232.496 211.877Z" fill="#22328A" fill-opacity="0.2"/>
<path d="M219.496 211.877C219.496 212.153 219.72 212.377 219.996 212.377C220.272 212.377 220.496 212.153 220.496 211.877C220.496 211.601 220.272 211.377 219.996 211.377C219.72 211.377 219.496 211.601 219.496 211.877Z" fill="#22328A" fill-opacity="0.2"/>
<path d="M206.496 211.877C206.496 212.153 206.72 212.377 206.996 212.377C207.272 212.377 207.496 212.153 207.496 211.877C207.496 211.601 207.272 211.377 206.996 211.377C206.72 211.377 206.496 211.601 206.496 211.877Z" fill="#22328A" fill-opacity="0.2"/>
<path d="M193.496 211.877C193.496 212.153 193.72 212.377 193.996 212.377C194.272 212.377 194.496 212.153 194.496 211.877C194.496 211.601 194.272 211.377 193.996 211.377C193.72 211.377 193.496 211.601 193.496 211.877Z" fill="#22328A" fill-opacity="0.2"/>
<path d="M180.496 211.877C180.496 212.153 180.72 212.377 180.996 212.377C181.272 212.377 181.496 212.153 181.496 211.877C181.496 211.601 181.272 211.377 180.996 211.377C180.72 211.377 180.496 211.601 180.496 211.877Z" fill="#22328A" fill-opacity="0.2"/>
<path d="M167.496 211.877C167.496 212.153 167.72 212.377 167.996 212.377C168.272 212.377 168.496 212.153 168.496 211.877C168.496 211.601 168.272 211.377 167.996 211.377C167.72 211.377 167.496 211.601 167.496 211.877Z" fill="#22328A" fill-opacity="0.2"/>
<path d="M154.496 211.877C154.496 212.153 154.72 212.377 154.996 212.377C155.272 212.377 155.496 212.153 155.496 211.877C155.496 211.601 155.272 211.377 154.996 211.377C154.72 211.377 154.496 211.601 154.496 211.877Z" fill="#22328A" fill-opacity="0.2"/>
<path d="M141.496 211.877C141.496 212.153 141.72 212.377 141.996 212.377C142.272 212.377 142.496 212.153 142.496 211.877C142.496 211.601 142.272 211.377 141.996 211.377C141.72 211.377 141.496 211.601 141.496 211.877Z" fill="#22328A" fill-opacity="0.2"/>
<path d="M258.496 224.877C258.496 225.153 258.72 225.377 258.996 225.377C259.272 225.377 259.496 225.153 259.496 224.877C259.496 224.601 259.272 224.377 258.996 224.377C258.72 224.377 258.496 224.601 258.496 224.877Z" fill="#22328A" fill-opacity="0.2"/>
<path d="M245.496 224.877C245.496 225.153 245.72 225.377 245.996 225.377C246.272 225.377 246.496 225.153 246.496 224.877C246.496 224.601 246.272 224.377 245.996 224.377C245.72 224.377 245.496 224.601 245.496 224.877Z" fill="#22328A" fill-opacity="0.2"/>
<path d="M232.496 224.877C232.496 225.153 232.72 225.377 232.996 225.377C233.272 225.377 233.496 225.153 233.496 224.877C233.496 224.601 233.272 224.377 232.996 224.377C232.72 224.377 232.496 224.601 232.496 224.877Z" fill="#22328A" fill-opacity="0.2"/>
<path d="M219.496 224.877C219.496 225.153 219.72 225.377 219.996 225.377C220.272 225.377 220.496 225.153 220.496 224.877C220.496 224.601 220.272 224.377 219.996 224.377C219.72 224.377 219.496 224.601 219.496 224.877Z" fill="#22328A" fill-opacity="0.2"/>
<path d="M206.496 224.877C206.496 225.153 206.72 225.377 206.996 225.377C207.272 225.377 207.496 225.153 207.496 224.877C207.496 224.601 207.272 224.377 206.996 224.377C206.72 224.377 206.496 224.601 206.496 224.877Z" fill="#22328A" fill-opacity="0.2"/>
<path d="M193.496 224.877C193.496 225.153 193.72 225.377 193.996 225.377C194.272 225.377 194.496 225.153 194.496 224.877C194.496 224.601 194.272 224.377 193.996 224.377C193.72 224.377 193.496 224.601 193.496 224.877Z" fill="#22328A" fill-opacity="0.2"/>
<path d="M180.496 224.877C180.496 225.153 180.72 225.377 180.996 225.377C181.272 225.377 181.496 225.153 181.496 224.877C181.496 224.601 181.272 224.377 180.996 224.377C180.72 224.377 180.496 224.601 180.496 224.877Z" fill="#22328A" fill-opacity="0.2"/>
<path d="M167.496 224.877C167.496 225.153 167.72 225.377 167.996 225.377C168.272 225.377 168.496 225.153 168.496 224.877C168.496 224.601 168.272 224.377 167.996 224.377C167.72 224.377 167.496 224.601 167.496 224.877Z" fill="#22328A" fill-opacity="0.2"/>
<path d="M154.496 224.877C154.496 225.153 154.72 225.377 154.996 225.377C155.272 225.377 155.496 225.153 155.496 224.877C155.496 224.601 155.272 224.377 154.996 224.377C154.72 224.377 154.496 224.601 154.496 224.877Z" fill="#22328A" fill-opacity="0.2"/>
<path d="M141.496 224.877C141.496 225.153 141.72 225.377 141.996 225.377C142.272 225.377 142.496 225.153 142.496 224.877C142.496 224.601 142.272 224.377 141.996 224.377C141.72 224.377 141.496 224.601 141.496 224.877Z" fill="#22328A" fill-opacity="0.2"/>
</g>
<rect x="33.4961" y="67.377" width="72" height="72" rx="8" fill="url(#paint2_linear_1_4266)"/>
<path d="M60.4296 89.7769L69.4963 98.8435H60.4296V107.91L69.4963 116.977V107.91H78.5629L69.4963 98.8435H78.5629V89.7769H60.4296Z" fill="#D5D7E3"/>
<rect x="165.496" y="67.377" width="72" height="72" rx="8" fill="url(#paint3_linear_1_4266)"/>
<path fill-rule="evenodd" clip-rule="evenodd" d="M216.706 93.5347L206.999 112.511H197.882L201.944 104.646H201.762C198.41 108.997 193.41 111.861 186.285 112.511V104.755C186.285 104.755 190.843 104.486 193.523 101.669H186.285V93.5348H194.419V100.225L194.602 100.224L197.926 93.5348H204.077V100.182L204.26 100.182L207.708 93.5347H216.706Z" fill="#D5D7E3"/>
<g clip-path="url(#clip2_1_4266)">
<rect x="57.4961" y="41.377" width="156" height="124" rx="8" fill="url(#paint4_linear_1_4266)"/>
<rect x="57.4961" y="41.377" width="156" height="124" rx="8" fill="url(#paint5_linear_1_4266)"/>
<rect width="1" height="124" transform="translate(134.996 41.377)" fill="#0E0948" fill-opacity="0.06"/>
<rect x="134.996" y="48.377" width="1" height="51" rx="0.5" fill="url(#paint6_linear_1_4266)"/>
<rect x="134.996" y="125.377" width="1" height="32" rx="0.5" fill="url(#paint7_linear_1_4266)"/>
<g clip-path="url(#clip3_1_4266)">
<g clip-path="url(#clip4_1_4266)">
<g clip-path="url(#clip5_1_4266)">
<path d="M117.996 94.377C118.548 94.377 118.996 93.9292 118.996 93.377C118.996 92.8247 118.548 92.377 117.996 92.377C117.444 92.377 116.996 92.8247 116.996 93.377C116.996 93.9292 117.444 94.377 117.996 94.377Z" fill="#10049B" fill-opacity="0.24"/>
<path d="M102.996 137.377C103.548 137.377 103.996 136.929 103.996 136.377C103.996 135.825 103.548 135.377 102.996 135.377C102.444 135.377 101.996 135.825 101.996 136.377C101.996 136.929 102.444 137.377 102.996 137.377Z" fill="#10049B" fill-opacity="0.24"/>
<path d="M118.996 81.377C119.548 81.377 119.996 80.9292 119.996 80.377C119.996 79.8247 119.548 79.377 118.996 79.377C118.444 79.377 117.996 79.8247 117.996 80.377C117.996 80.9292 118.444 81.377 118.996 81.377Z" fill="#10049B" fill-opacity="0.24"/>
<path d="M106.996 128.377C107.548 128.377 107.996 127.929 107.996 127.377C107.996 126.825 107.548 126.377 106.996 126.377C106.444 126.377 105.996 126.825 105.996 127.377C105.996 127.929 106.444 128.377 106.996 128.377Z" fill="#10049B" fill-opacity="0.24"/>
<path d="M102.996 153.377C103.548 153.377 103.996 152.929 103.996 152.377C103.996 151.825 103.548 151.377 102.996 151.377C102.444 151.377 101.996 151.825 101.996 152.377C101.996 152.929 102.444 153.377 102.996 153.377Z" fill="#10049B" fill-opacity="0.24"/>
<path d="M126.496 143.377C126.772 143.377 126.996 143.153 126.996 142.877C126.996 142.601 126.772 142.377 126.496 142.377C126.22 142.377 125.996 142.601 125.996 142.877C125.996 143.153 126.22 143.377 126.496 143.377Z" fill="#10049B" fill-opacity="0.24"/>
<path d="M70.4961 111.377C70.7722 111.377 70.9961 111.153 70.9961 110.877C70.9961 110.601 70.7722 110.377 70.4961 110.377C70.22 110.377 69.9961 110.601 69.9961 110.877C69.9961 111.153 70.22 111.377 70.4961 111.377Z" fill="#10049B" fill-opacity="0.24"/>
<path d="M73.4961 87.377C73.7722 87.377 73.9961 87.1531 73.9961 86.877C73.9961 86.6008 73.7722 86.377 73.4961 86.377C73.22 86.377 72.9961 86.6008 72.9961 86.877C72.9961 87.1531 73.22 87.377 73.4961 87.377Z" fill="#10049B" fill-opacity="0.24"/>
<path d="M66.4961 143.377C66.7722 143.377 66.9961 143.153 66.9961 142.877C66.9961 142.601 66.7722 142.377 66.4961 142.377C66.22 142.377 65.9961 142.601 65.9961 142.877C65.9961 143.153 66.22 143.377 66.4961 143.377Z" fill="#10049B" fill-opacity="0.24"/>
<path d="M79.4961 64.377C79.7722 64.377 79.9961 64.1531 79.9961 63.877C79.9961 63.6008 79.7722 63.377 79.4961 63.377C79.22 63.377 78.9961 63.6008 78.9961 63.877C78.9961 64.1531 79.22 64.377 79.4961 64.377Z" fill="#10049B" fill-opacity="0.24"/>
<path d="M78.4961 93.377C78.7722 93.377 78.9961 93.1531 78.9961 92.877C78.9961 92.6008 78.7722 92.377 78.4961 92.377C78.22 92.377 77.9961 92.6008 77.9961 92.877C77.9961 93.1531 78.22 93.377 78.4961 93.377Z" fill="#10049B" fill-opacity="0.24"/>
<path d="M80.4961 131.377C80.7722 131.377 80.9961 131.153 80.9961 130.877C80.9961 130.601 80.7722 130.377 80.4961 130.377C80.22 130.377 79.9961 130.601 79.9961 130.877C79.9961 131.153 80.22 131.377 80.4961 131.377Z" fill="#10049B" fill-opacity="0.24"/>
<path d="M108.496 123.377C108.772 123.377 108.996 123.153 108.996 122.877C108.996 122.601 108.772 122.377 108.496 122.377C108.22 122.377 107.996 122.601 107.996 122.877C107.996 123.153 108.22 123.377 108.496 123.377Z" fill="#10049B" fill-opacity="0.24"/>
<path d="M112.496 72.377C112.772 72.377 112.996 72.1531 112.996 71.877C112.996 71.6008 112.772 71.377 112.496 71.377C112.22 71.377 111.996 71.6008 111.996 71.877C111.996 72.1531 112.22 72.377 112.496 72.377Z" fill="#10049B" fill-opacity="0.24"/>
<path d="M110.496 81.377C110.772 81.377 110.996 81.1531 110.996 80.877C110.996 80.6008 110.772 80.377 110.496 80.377C110.22 80.377 109.996 80.6008 109.996 80.877C109.996 81.1531 110.22 81.377 110.496 81.377Z" fill="#10049B" fill-opacity="0.24"/>
<path d="M123.496 81.377C123.772 81.377 123.996 81.1531 123.996 80.877C123.996 80.6008 123.772 80.377 123.496 80.377C123.22 80.377 122.996 80.6008 122.996 80.877C122.996 81.1531 123.22 81.377 123.496 81.377Z" fill="#10049B" fill-opacity="0.24"/>
<path d="M69.4961 106.377C69.7722 106.377 69.9961 106.153 69.9961 105.877C69.9961 105.601 69.7722 105.377 69.4961 105.377C69.22 105.377 68.9961 105.601 68.9961 105.877C68.9961 106.153 69.22 106.377 69.4961 106.377Z" fill="#10049B" fill-opacity="0.24"/>
<path d="M117.496 66.377C117.772 66.377 117.996 66.1531 117.996 65.877C117.996 65.6008 117.772 65.377 117.496 65.377C117.22 65.377 116.996 65.6008 116.996 65.877C116.996 66.1531 117.22 66.377 117.496 66.377Z" fill="#10049B" fill-opacity="0.24"/>
<path d="M97.4961 101.377C97.7722 101.377 97.9961 101.153 97.9961 100.877C97.9961 100.601 97.7722 100.377 97.4961 100.377C97.22 100.377 96.9961 100.601 96.9961 100.877C96.9961 101.153 97.22 101.377 97.4961 101.377Z" fill="#10049B" fill-opacity="0.24"/>
<path d="M86.4961 54.377C86.7722 54.377 86.9961 54.1531 86.9961 53.877C86.9961 53.6008 86.7722 53.377 86.4961 53.377C86.22 53.377 85.9961 53.6008 85.9961 53.877C85.9961 54.1531 86.22 54.377 86.4961 54.377Z" fill="#10049B" fill-opacity="0.24"/>
</g>
</g>
</g>
<g clip-path="url(#clip6_1_4266)">
<g clip-path="url(#clip7_1_4266)">
<g clip-path="url(#clip8_1_4266)">
<path d="M142.996 51.877C142.996 51.6008 142.772 51.377 142.496 51.377C142.22 51.377 141.996 51.6008 141.996 51.877V52.877C141.996 53.1531 142.22 53.377 142.496 53.377C142.772 53.377 142.996 53.1531 142.996 52.877V51.877Z" fill="#0E0948" fill-opacity="0.2"/>
<path d="M142.996 59.877C142.996 59.6008 142.772 59.377 142.496 59.377C142.22 59.377 141.996 59.6008 141.996 59.877V60.877C141.996 61.1531 142.22 61.377 142.496 61.377C142.772 61.377 142.996 61.1531 142.996 60.877V59.877Z" fill="#0E0948" fill-opacity="0.2"/>
<path d="M142.996 67.877C142.996 67.6008 142.772 67.377 142.496 67.377C142.22 67.377 141.996 67.6008 141.996 67.877V68.877C141.996 69.1531 142.22 69.377 142.496 69.377C142.772 69.377 142.996 69.1531 142.996 68.877V67.877Z" fill="#0E0948" fill-opacity="0.2"/>
<path d="M142.996 75.877C142.996 75.6008 142.772 75.377 142.496 75.377C142.22 75.377 141.996 75.6008 141.996 75.877V76.877C141.996 77.1531 142.22 77.377 142.496 77.377C142.772 77.377 142.996 77.1531 142.996 76.877V75.877Z" fill="#0E0948" fill-opacity="0.2"/>
<path d="M142.996 83.877C142.996 83.6008 142.772 83.377 142.496 83.377C142.22 83.377 141.996 83.6008 141.996 83.877V84.877C141.996 85.1531 142.22 85.377 142.496 85.377C142.772 85.377 142.996 85.1531 142.996 84.877V83.877Z" fill="#0E0948" fill-opacity="0.2"/>
<path d="M142.996 91.877C142.996 91.6008 142.772 91.377 142.496 91.377C142.22 91.377 141.996 91.6008 141.996 91.877V92.877C141.996 93.1531 142.22 93.377 142.496 93.377C142.772 93.377 142.996 93.1531 142.996 92.877V91.877Z" fill="#0E0948" fill-opacity="0.2"/>
<path d="M142.996 99.877C142.996 99.6008 142.772 99.377 142.496 99.377C142.22 99.377 141.996 99.6008 141.996 99.877V100.877C141.996 101.153 142.22 101.377 142.496 101.377C142.772 101.377 142.996 101.153 142.996 100.877V99.877Z" fill="#0E0948" fill-opacity="0.2"/>
<path d="M142.996 107.877C142.996 107.601 142.772 107.377 142.496 107.377C142.22 107.377 141.996 107.601 141.996 107.877V108.877C141.996 109.153 142.22 109.377 142.496 109.377C142.772 109.377 142.996 109.153 142.996 108.877V107.877Z" fill="#0E0948" fill-opacity="0.2"/>
<path d="M142.996 115.877C142.996 115.601 142.772 115.377 142.496 115.377C142.22 115.377 141.996 115.601 141.996 115.877V116.877C141.996 117.153 142.22 117.377 142.496 117.377C142.772 117.377 142.996 117.153 142.996 116.877V115.877Z" fill="#0E0948" fill-opacity="0.2"/>
<path d="M162.996 59.377H149.996C149.444 59.377 148.996 59.8247 148.996 60.377C148.996 60.9292 149.444 61.377 149.996 61.377H162.996C163.548 61.377 163.996 60.9292 163.996 60.377C163.996 59.8247 163.548 59.377 162.996 59.377Z" fill="#1A9FBD" fill-opacity="0.2"/>
<path d="M170.996 59.377H167.996C167.444 59.377 166.996 59.8247 166.996 60.377C166.996 60.9292 167.444 61.377 167.996 61.377H170.996C171.548 61.377 171.996 60.9292 171.996 60.377C171.996 59.8247 171.548 59.377 170.996 59.377Z" fill="#BD1AB6" fill-opacity="0.2"/>
<path d="M181.996 59.377H175.996C175.444 59.377 174.996 59.8247 174.996 60.377C174.996 60.9292 175.444 61.377 175.996 61.377H181.996C182.548 61.377 182.996 60.9292 182.996 60.377C182.996 59.8247 182.548 59.377 181.996 59.377Z" fill="#0E0948" fill-opacity="0.2"/>
<path d="M167.996 75.377H157.996C157.444 75.377 156.996 75.8247 156.996 76.377C156.996 76.9292 157.444 77.377 157.996 77.377H167.996C168.548 77.377 168.996 76.9292 168.996 76.377C168.996 75.8247 168.548 75.377 167.996 75.377Z" fill="#5539FF" fill-opacity="0.2"/>
<path d="M182.996 75.377H172.996C172.444 75.377 171.996 75.8247 171.996 76.377C171.996 76.9292 172.444 77.377 172.996 77.377H182.996C183.548 77.377 183.996 76.9292 183.996 76.377C183.996 75.8247 183.548 75.377 182.996 75.377Z" fill="#BD1AB6" fill-opacity="0.2"/>
<path d="M199.996 75.377H187.996C187.444 75.377 186.996 75.8247 186.996 76.377C186.996 76.9292 187.444 77.377 187.996 77.377H199.996C200.548 77.377 200.996 76.9292 200.996 76.377C200.996 75.8247 200.548 75.377 199.996 75.377Z" fill="#0E0948" fill-opacity="0.1"/>
<path d="M205.996 75.377H204.996C204.444 75.377 203.996 75.8247 203.996 76.377C203.996 76.9292 204.444 77.377 204.996 77.377H205.996C206.548 77.377 206.996 76.9292 206.996 76.377C206.996 75.8247 206.548 75.377 205.996 75.377Z" fill="#0E0948" fill-opacity="0.2"/>
<path d="M154.996 51.377H149.996C149.444 51.377 148.996 51.8247 148.996 52.377C148.996 52.9292 149.444 53.377 149.996 53.377H154.996C155.548 53.377 155.996 52.9292 155.996 52.377C155.996 51.8247 155.548 51.377 154.996 51.377Z" fill="#0E0948" fill-opacity="0.2"/>
<path d="M162.996 51.377H159.996C159.444 51.377 158.996 51.8247 158.996 52.377C158.996 52.9292 159.444 53.377 159.996 53.377H162.996C163.548 53.377 163.996 52.9292 163.996 52.377C163.996 51.8247 163.548 51.377 162.996 51.377Z" fill="#BD1AB6" fill-opacity="0.2"/>
<path d="M188.996 51.377H167.996C167.444 51.377 166.996 51.8247 166.996 52.377C166.996 52.9292 167.444 53.377 167.996 53.377H188.996C189.548 53.377 189.996 52.9292 189.996 52.377C189.996 51.8247 189.548 51.377 188.996 51.377Z" fill="#0E0948" fill-opacity="0.1"/>
<path d="M178.996 67.377H157.996C157.444 67.377 156.996 67.8247 156.996 68.377C156.996 68.9292 157.444 69.377 157.996 69.377H178.996C179.548 69.377 179.996 68.9292 179.996 68.377C179.996 67.8247 179.548 67.377 178.996 67.377Z" fill="#0E0948" fill-opacity="0.1"/>
<path d="M193.996 67.377H183.996C183.444 67.377 182.996 67.8247 182.996 68.377C182.996 68.9292 183.444 69.377 183.996 69.377H193.996C194.548 69.377 194.996 68.9292 194.996 68.377C194.996 67.8247 194.548 67.377 193.996 67.377Z" fill="#0E0948" fill-opacity="0.2"/>
<path d="M204.996 67.377H198.996C198.444 67.377 197.996 67.8247 197.996 68.377C197.996 68.9292 198.444 69.377 198.996 69.377H204.996C205.548 69.377 205.996 68.9292 205.996 68.377C205.996 67.8247 205.548 67.377 204.996 67.377Z" fill="#1A9FBD" fill-opacity="0.2"/>
<path d="M167.996 83.377H163.996C163.444 83.377 162.996 83.8247 162.996 84.377C162.996 84.9292 163.444 85.377 163.996 85.377H167.996C168.548 85.377 168.996 84.9292 168.996 84.377C168.996 83.8247 168.548 83.377 167.996 83.377Z" fill="#0E0948" fill-opacity="0.2"/>
<path d="M182.996 83.377H172.996C172.444 83.377 171.996 83.8247 171.996 84.377C171.996 84.9292 172.444 85.377 172.996 85.377H182.996C183.548 85.377 183.996 84.9292 183.996 84.377C183.996 83.8247 183.548 83.377 182.996 83.377Z" fill="#0E0948" fill-opacity="0.2"/>
<path d="M189.996 83.377H187.996C187.444 83.377 186.996 83.8247 186.996 84.377C186.996 84.9292 187.444 85.377 187.996 85.377H189.996C190.548 85.377 190.996 84.9292 190.996 84.377C190.996 83.8247 190.548 83.377 189.996 83.377Z" fill="#0E0948" fill-opacity="0.1"/>
<path d="M201.996 83.377H194.996C194.444 83.377 193.996 83.8247 193.996 84.377C193.996 84.9292 194.444 85.377 194.996 85.377H201.996C202.548 85.377 202.996 84.9292 202.996 84.377C202.996 83.8247 202.548 83.377 201.996 83.377Z" fill="#BD1AB6" fill-opacity="0.2"/>
<path d="M155.996 91.377H149.996C149.444 91.377 148.996 91.8247 148.996 92.377C148.996 92.9292 149.444 93.377 149.996 93.377H155.996C156.548 93.377 156.996 92.9292 156.996 92.377C156.996 91.8247 156.548 91.377 155.996 91.377Z" fill="#0E0948" fill-opacity="0.1"/>
<path d="M163.996 91.377H160.996C160.444 91.377 159.996 91.8247 159.996 92.377C159.996 92.9292 160.444 93.377 160.996 93.377H163.996C164.548 93.377 164.996 92.9292 164.996 92.377C164.996 91.8247 164.548 91.377 163.996 91.377Z" fill="#BD1AB6" fill-opacity="0.2"/>
<path d="M191.996 91.377H168.996C168.444 91.377 167.996 91.8247 167.996 92.377C167.996 92.9292 168.444 93.377 168.996 93.377H191.996C192.548 93.377 192.996 92.9292 192.996 92.377C192.996 91.8247 192.548 91.377 191.996 91.377Z" fill="#5539FF" fill-opacity="0.2"/>
<path d="M197.996 91.377H196.996C196.444 91.377 195.996 91.8247 195.996 92.377C195.996 92.9292 196.444 93.377 196.996 93.377H197.996C198.548 93.377 198.996 92.9292 198.996 92.377C198.996 91.8247 198.548 91.377 197.996 91.377Z" fill="#0E0948" fill-opacity="0.2"/>
<path d="M155.996 107.377H149.996C149.444 107.377 148.996 107.825 148.996 108.377C148.996 108.929 149.444 109.377 149.996 109.377H155.996C156.548 109.377 156.996 108.929 156.996 108.377C156.996 107.825 156.548 107.377 155.996 107.377Z" fill="#5539FF" fill-opacity="0.2"/>
<path d="M172.996 107.377H160.996C160.444 107.377 159.996 107.825 159.996 108.377C159.996 108.929 160.444 109.377 160.996 109.377H172.996C173.548 109.377 173.996 108.929 173.996 108.377C173.996 107.825 173.548 107.377 172.996 107.377Z" fill="#0E0948" fill-opacity="0.2"/>
<path d="M180.996 107.377H177.996C177.444 107.377 176.996 107.825 176.996 108.377C176.996 108.929 177.444 109.377 177.996 109.377H180.996C181.548 109.377 181.996 108.929 181.996 108.377C181.996 107.825 181.548 107.377 180.996 107.377Z" fill="#5539FF" fill-opacity="0.2"/>
<path d="M194.996 107.377H185.996C185.444 107.377 184.996 107.825 184.996 108.377C184.996 108.929 185.444 109.377 185.996 109.377H194.996C195.548 109.377 195.996 108.929 195.996 108.377C195.996 107.825 195.548 107.377 194.996 107.377Z" fill="#1A9FBD" fill-opacity="0.2"/>
<path d="M167.996 99.377H157.996C157.444 99.377 156.996 99.8247 156.996 100.377C156.996 100.929 157.444 101.377 157.996 101.377H167.996C168.548 101.377 168.996 100.929 168.996 100.377C168.996 99.8247 168.548 99.377 167.996 99.377Z" fill="#5539FF" fill-opacity="0.2"/>
<path d="M178.996 99.377H172.996C172.444 99.377 171.996 99.8247 171.996 100.377C171.996 100.929 172.444 101.377 172.996 101.377H178.996C179.548 101.377 179.996 100.929 179.996 100.377C179.996 99.8247 179.548 99.377 178.996 99.377Z" fill="#1A9FBD" fill-opacity="0.2"/>
<path d="M195.996 99.377H183.996C183.444 99.377 182.996 99.8247 182.996 100.377C182.996 100.929 183.444 101.377 183.996 101.377H195.996C196.548 101.377 196.996 100.929 196.996 100.377C196.996 99.8247 196.548 99.377 195.996 99.377Z" fill="#0E0948" fill-opacity="0.1"/>
<path d="M201.996 99.377H200.996C200.444 99.377 199.996 99.8247 199.996 100.377C199.996 100.929 200.444 101.377 200.996 101.377H201.996C202.548 101.377 202.996 100.929 202.996 100.377C202.996 99.8247 202.548 99.377 201.996 99.377Z" fill="#0E0948" fill-opacity="0.2"/>
</g>
</g>
</g>
<g filter="url(#filter0_dd_1_4266)">
<rect x="123.496" y="91.377" width="24" height="24" rx="12" fill="white"/>
<g clip-path="url(#clip9_1_4266)">
<g clip-path="url(#clip10_1_4266)">
<g clip-path="url(#clip11_1_4266)">
<path d="M137.683 100.897C137.683 100.656 137.487 100.46 137.246 100.46C137.004 100.46 136.808 100.656 136.808 100.897C136.808 102.313 136.496 103.232 135.923 103.804C135.351 104.377 134.432 104.689 133.017 104.689C132.775 104.689 132.579 104.885 132.579 105.127C132.579 105.368 132.775 105.564 133.017 105.564C134.432 105.564 135.351 105.877 135.923 106.449C136.496 107.022 136.808 107.941 136.808 109.356C136.808 109.597 137.004 109.793 137.246 109.793C137.487 109.793 137.683 109.597 137.683 109.356C137.683 107.941 137.996 107.022 138.568 106.449C139.141 105.877 140.06 105.564 141.475 105.564C141.717 105.564 141.912 105.368 141.912 105.127C141.912 104.885 141.717 104.689 141.475 104.689C140.06 104.689 139.141 104.377 138.568 103.804C137.996 103.232 137.683 102.313 137.683 100.897Z" fill="url(#paint8_linear_1_4266)"/>
<path d="M132.725 97.3979C132.725 97.1563 132.529 96.9604 132.287 96.9604C132.046 96.9604 131.85 97.1563 131.85 97.3979C131.85 98.3066 131.649 98.8611 131.314 99.1956C130.98 99.5301 130.425 99.7313 129.517 99.7313C129.275 99.7313 129.079 99.9272 129.079 100.169C129.079 100.41 129.275 100.606 129.517 100.606C130.425 100.606 130.98 100.807 131.314 101.142C131.649 101.476 131.85 102.031 131.85 102.94C131.85 103.181 132.046 103.377 132.287 103.377C132.529 103.377 132.725 103.181 132.725 102.94C132.725 102.031 132.926 101.476 133.261 101.142C133.595 100.807 134.15 100.606 135.058 100.606C135.3 100.606 135.496 100.41 135.496 100.169C135.496 99.9272 135.3 99.7313 135.058 99.7313C134.15 99.7313 133.595 99.5301 133.261 99.1956C132.926 98.8611 132.725 98.3066 132.725 97.3979Z" fill="url(#paint9_linear_1_4266)"/>
</g>
</g>
</g>
</g>
</g>
</g>
<rect x="0.996094" y="0.876953" width="269" height="279" rx="11.5" stroke="#ECE6FF"/>
<defs>
<filter id="filter0_dd_1_4266" x="121.496" y="90.377" width="28" height="28" filterUnits="userSpaceOnUse" color-interpolation-filters="sRGB">
<feFlood flood-opacity="0" result="BackgroundImageFix"/>
<feColorMatrix in="SourceAlpha" type="matrix" values="0 0 0 0 0 0 0 0 0 0 0 0 0 0 0 0 0 0 127 0" result="hardAlpha"/>
<feMorphology radius="1" operator="dilate" in="SourceAlpha" result="effect1_dropShadow_1_4266"/>
<feOffset/>
<feComposite in2="hardAlpha" operator="out"/>
<feColorMatrix type="matrix" values="0 0 0 0 0.054902 0 0 0 0 0.0352941 0 0 0 0 0.282353 0 0 0 0.04 0"/>
<feBlend mode="normal" in2="BackgroundImageFix" result="effect1_dropShadow_1_4266"/>
<feColorMatrix in="SourceAlpha" type="matrix" values="0 0 0 0 0 0 0 0 0 0 0 0 0 0 0 0 0 0 127 0" result="hardAlpha"/>
<feOffset dy="1"/>
<feGaussianBlur stdDeviation="1"/>
<feComposite in2="hardAlpha" operator="out"/>
<feColorMatrix type="matrix" values="0 0 0 0 0.054902 0 0 0 0 0.0352941 0 0 0 0 0.282353 0 0 0 0.08 0"/>
<feBlend mode="normal" in2="effect1_dropShadow_1_4266" result="effect2_dropShadow_1_4266"/>
<feBlend mode="normal" in="SourceGraphic" in2="effect2_dropShadow_1_4266" result="shape"/>
</filter>
<linearGradient id="paint0_linear_1_4266" x1="135.496" y1="0.376953" x2="135.496" y2="280.377" gradientUnits="userSpaceOnUse">
<stop stop-color="#F3F0FF"/>
<stop offset="1" stop-color="#F0F6FF"/>
</linearGradient>
<linearGradient id="paint1_linear_1_4266" x1="135.496" y1="0.376953" x2="135.496" y2="280.377" gradientUnits="userSpaceOnUse">
<stop offset="0.52" stop-color="white" stop-opacity="0"/>
<stop offset="1" stop-color="white" stop-opacity="0.8"/>
</linearGradient>
<linearGradient id="paint2_linear_1_4266" x1="69.4961" y1="67.377" x2="69.4961" y2="139.377" gradientUnits="userSpaceOnUse">
<stop stop-color="white" stop-opacity="0.85"/>
<stop offset="1" stop-color="white" stop-opacity="0.9"/>
</linearGradient>
<linearGradient id="paint3_linear_1_4266" x1="201.496" y1="67.377" x2="201.496" y2="139.377" gradientUnits="userSpaceOnUse">
<stop stop-color="white" stop-opacity="0.85"/>
<stop offset="1" stop-color="white" stop-opacity="0.9"/>
</linearGradient>
<linearGradient id="paint4_linear_1_4266" x1="135.496" y1="41.377" x2="135.496" y2="165.377" gradientUnits="userSpaceOnUse">
<stop stop-color="white" stop-opacity="0.85"/>
<stop offset="1" stop-color="white" stop-opacity="0.9"/>
</linearGradient>
<linearGradient id="paint5_linear_1_4266" x1="57.4961" y1="103.377" x2="213.496" y2="103.377" gradientUnits="userSpaceOnUse">
<stop offset="0.4943" stop-color="#F3F2FF" stop-opacity="0"/>
<stop offset="0.4944" stop-color="#F3F2FF"/>
<stop offset="1" stop-color="#F3F2FF" stop-opacity="0"/>
</linearGradient>
<linearGradient id="paint6_linear_1_4266" x1="135.496" y1="48.377" x2="135.496" y2="99.377" gradientUnits="userSpaceOnUse">
<stop stop-color="#665BE1" stop-opacity="0.55"/>
<stop offset="1" stop-color="#665BE1" stop-opacity="0"/>
</linearGradient>
<linearGradient id="paint7_linear_1_4266" x1="135.496" y1="125.377" x2="135.496" y2="157.377" gradientUnits="userSpaceOnUse">
<stop stop-color="#665BE1" stop-opacity="0.4"/>
<stop offset="1" stop-color="#665BE1" stop-opacity="0"/>
</linearGradient>
<linearGradient id="paint8_linear_1_4266" x1="135.496" y1="96.96" x2="138.496" y2="112.377" gradientUnits="userSpaceOnUse">
<stop stop-color="#B0AEF8"/>
<stop offset="1" stop-color="#EFE4FD"/>
</linearGradient>
<linearGradient id="paint9_linear_1_4266" x1="135.496" y1="96.9604" x2="138.496" y2="112.377" gradientUnits="userSpaceOnUse">
<stop stop-color="#B0AEF8"/>
<stop offset="1" stop-color="#EFE4FD"/>
</linearGradient>
<clipPath id="clip0_1_4266">
<rect x="0.496094" y="0.376953" width="270" height="280" rx="12" fill="white"/>
</clipPath>
<clipPath id="clip1_1_4266">
<rect width="248" height="170" fill="white" transform="translate(11.4961 55.377)"/>
</clipPath>
<clipPath id="clip2_1_4266">
<rect x="57.4961" y="41.377" width="156" height="124" rx="8" fill="white"/>
</clipPath>
<clipPath id="clip3_1_4266">
<rect width="61" height="100" fill="white" transform="translate(65.9961 53.377)"/>
</clipPath>
<clipPath id="clip4_1_4266">
<rect width="61" height="100" fill="white" transform="translate(65.9961 53.377)"/>
</clipPath>
<clipPath id="clip5_1_4266">
<rect width="61" height="100" fill="white" transform="translate(65.9961 53.377)"/>
</clipPath>
<clipPath id="clip6_1_4266">
<rect width="65" height="66" fill="white" transform="translate(141.996 51.377)"/>
</clipPath>
<clipPath id="clip7_1_4266">
<rect width="65" height="66" fill="white" transform="translate(141.996 51.377)"/>
</clipPath>
<clipPath id="clip8_1_4266">
<rect width="65" height="66" fill="white" transform="translate(141.996 51.377)"/>
</clipPath>
<clipPath id="clip9_1_4266">
<rect width="15" height="14" fill="white" transform="translate(127.996 96.377)"/>
</clipPath>
<clipPath id="clip10_1_4266">
<rect width="15" height="14" fill="white" transform="translate(127.996 96.377)"/>
</clipPath>
<clipPath id="clip11_1_4266">
<rect width="15" height="14" fill="white" transform="translate(127.996 96.377)"/>
</clipPath>
</defs>
</svg>
