<svg width="271" height="281" viewBox="0 0 271 281" fill="none" xmlns="http://www.w3.org/2000/svg">
<g clip-path="url(#clip0_1_3963)">
<rect x="0.496094" y="0.376953" width="270" height="280" rx="12" fill="url(#paint0_linear_1_3963)"/>
<rect x="0.496094" y="0.376953" width="270" height="280" rx="12" fill="url(#paint1_linear_1_3963)"/>
<g clip-path="url(#clip1_1_3963)">
<path d="M12.4961 55.877C12.4961 56.1531 12.2722 56.377 11.9961 56.377C11.72 56.377 11.4961 56.1531 11.4961 55.877C11.4961 55.6008 11.72 55.377 11.9961 55.377C12.2722 55.377 12.4961 55.6008 12.4961 55.877Z" fill="#22328A" fill-opacity="0.2"/>
<path d="M25.4961 55.877C25.4961 56.1531 25.2722 56.377 24.9961 56.377C24.72 56.377 24.4961 56.1531 24.4961 55.877C24.4961 55.6008 24.72 55.377 24.9961 55.377C25.2722 55.377 25.4961 55.6008 25.4961 55.877Z" fill="#22328A" fill-opacity="0.2"/>
<path d="M38.4961 55.877C38.4961 56.1531 38.2722 56.377 37.9961 56.377C37.72 56.377 37.4961 56.1531 37.4961 55.877C37.4961 55.6008 37.72 55.377 37.9961 55.377C38.2722 55.377 38.4961 55.6008 38.4961 55.877Z" fill="#22328A" fill-opacity="0.2"/>
<path d="M51.4961 55.877C51.4961 56.1531 51.2722 56.377 50.9961 56.377C50.72 56.377 50.4961 56.1531 50.4961 55.877C50.4961 55.6008 50.72 55.377 50.9961 55.377C51.2722 55.377 51.4961 55.6008 51.4961 55.877Z" fill="#22328A" fill-opacity="0.2"/>
<path d="M64.4961 55.877C64.4961 56.1531 64.2722 56.377 63.9961 56.377C63.72 56.377 63.4961 56.1531 63.4961 55.877C63.4961 55.6008 63.72 55.377 63.9961 55.377C64.2722 55.377 64.4961 55.6008 64.4961 55.877Z" fill="#22328A" fill-opacity="0.2"/>
<path d="M77.4961 55.877C77.4961 56.1531 77.2722 56.377 76.9961 56.377C76.72 56.377 76.4961 56.1531 76.4961 55.877C76.4961 55.6008 76.72 55.377 76.9961 55.377C77.2722 55.377 77.4961 55.6008 77.4961 55.877Z" fill="#22328A" fill-opacity="0.2"/>
<path d="M90.4961 55.877C90.4961 56.1531 90.2722 56.377 89.9961 56.377C89.72 56.377 89.4961 56.1531 89.4961 55.877C89.4961 55.6008 89.72 55.377 89.9961 55.377C90.2722 55.377 90.4961 55.6008 90.4961 55.877Z" fill="#22328A" fill-opacity="0.2"/>
<path d="M103.496 55.877C103.496 56.1531 103.272 56.377 102.996 56.377C102.72 56.377 102.496 56.1531 102.496 55.877C102.496 55.6008 102.72 55.377 102.996 55.377C103.272 55.377 103.496 55.6008 103.496 55.877Z" fill="#22328A" fill-opacity="0.2"/>
<path d="M116.496 55.877C116.496 56.1531 116.272 56.377 115.996 56.377C115.72 56.377 115.496 56.1531 115.496 55.877C115.496 55.6008 115.72 55.377 115.996 55.377C116.272 55.377 116.496 55.6008 116.496 55.877Z" fill="#22328A" fill-opacity="0.2"/>
<path d="M129.496 55.877C129.496 56.1531 129.272 56.377 128.996 56.377C128.72 56.377 128.496 56.1531 128.496 55.877C128.496 55.6008 128.72 55.377 128.996 55.377C129.272 55.377 129.496 55.6008 129.496 55.877Z" fill="#22328A" fill-opacity="0.2"/>
<path d="M12.4961 68.877C12.4961 69.1531 12.2722 69.377 11.9961 69.377C11.72 69.377 11.4961 69.1531 11.4961 68.877C11.4961 68.6009 11.72 68.377 11.9961 68.377C12.2722 68.377 12.4961 68.6009 12.4961 68.877Z" fill="#22328A" fill-opacity="0.2"/>
<path d="M25.4961 68.877C25.4961 69.1531 25.2722 69.377 24.9961 69.377C24.72 69.377 24.4961 69.1531 24.4961 68.877C24.4961 68.6009 24.72 68.377 24.9961 68.377C25.2722 68.377 25.4961 68.6009 25.4961 68.877Z" fill="#22328A" fill-opacity="0.2"/>
<path d="M38.4961 68.877C38.4961 69.1531 38.2722 69.377 37.9961 69.377C37.72 69.377 37.4961 69.1531 37.4961 68.877C37.4961 68.6009 37.72 68.377 37.9961 68.377C38.2722 68.377 38.4961 68.6009 38.4961 68.877Z" fill="#22328A" fill-opacity="0.2"/>
<path d="M51.4961 68.877C51.4961 69.1531 51.2722 69.377 50.9961 69.377C50.72 69.377 50.4961 69.1531 50.4961 68.877C50.4961 68.6009 50.72 68.377 50.9961 68.377C51.2722 68.377 51.4961 68.6009 51.4961 68.877Z" fill="#22328A" fill-opacity="0.2"/>
<path d="M64.4961 68.877C64.4961 69.1531 64.2722 69.377 63.9961 69.377C63.72 69.377 63.4961 69.1531 63.4961 68.877C63.4961 68.6009 63.72 68.377 63.9961 68.377C64.2722 68.377 64.4961 68.6009 64.4961 68.877Z" fill="#22328A" fill-opacity="0.2"/>
<path d="M77.4961 68.877C77.4961 69.1531 77.2722 69.377 76.9961 69.377C76.72 69.377 76.4961 69.1531 76.4961 68.877C76.4961 68.6009 76.72 68.377 76.9961 68.377C77.2722 68.377 77.4961 68.6009 77.4961 68.877Z" fill="#22328A" fill-opacity="0.2"/>
<path d="M90.4961 68.877C90.4961 69.1531 90.2722 69.377 89.9961 69.377C89.72 69.377 89.4961 69.1531 89.4961 68.877C89.4961 68.6009 89.72 68.377 89.9961 68.377C90.2722 68.377 90.4961 68.6009 90.4961 68.877Z" fill="#22328A" fill-opacity="0.2"/>
<path d="M103.496 68.877C103.496 69.1531 103.272 69.377 102.996 69.377C102.72 69.377 102.496 69.1531 102.496 68.877C102.496 68.6009 102.72 68.377 102.996 68.377C103.272 68.377 103.496 68.6009 103.496 68.877Z" fill="#22328A" fill-opacity="0.2"/>
<path d="M116.496 68.877C116.496 69.1531 116.272 69.377 115.996 69.377C115.72 69.377 115.496 69.1531 115.496 68.877C115.496 68.6009 115.72 68.377 115.996 68.377C116.272 68.377 116.496 68.6009 116.496 68.877Z" fill="#22328A" fill-opacity="0.2"/>
<path d="M129.496 68.877C129.496 69.1531 129.272 69.377 128.996 69.377C128.72 69.377 128.496 69.1531 128.496 68.877C128.496 68.6009 128.72 68.377 128.996 68.377C129.272 68.377 129.496 68.6009 129.496 68.877Z" fill="#22328A" fill-opacity="0.2"/>
<path d="M12.4961 81.877C12.4961 82.1531 12.2722 82.377 11.9961 82.377C11.72 82.377 11.4961 82.1531 11.4961 81.877C11.4961 81.6009 11.72 81.377 11.9961 81.377C12.2722 81.377 12.4961 81.6009 12.4961 81.877Z" fill="#22328A" fill-opacity="0.2"/>
<path d="M25.4961 81.877C25.4961 82.1531 25.2722 82.377 24.9961 82.377C24.72 82.377 24.4961 82.1531 24.4961 81.877C24.4961 81.6009 24.72 81.377 24.9961 81.377C25.2722 81.377 25.4961 81.6009 25.4961 81.877Z" fill="#22328A" fill-opacity="0.2"/>
<path d="M38.4961 81.877C38.4961 82.1531 38.2722 82.377 37.9961 82.377C37.72 82.377 37.4961 82.1531 37.4961 81.877C37.4961 81.6009 37.72 81.377 37.9961 81.377C38.2722 81.377 38.4961 81.6009 38.4961 81.877Z" fill="#22328A" fill-opacity="0.2"/>
<path d="M51.4961 81.877C51.4961 82.1531 51.2722 82.377 50.9961 82.377C50.72 82.377 50.4961 82.1531 50.4961 81.877C50.4961 81.6009 50.72 81.377 50.9961 81.377C51.2722 81.377 51.4961 81.6009 51.4961 81.877Z" fill="#22328A" fill-opacity="0.2"/>
<path d="M64.4961 81.877C64.4961 82.1531 64.2722 82.377 63.9961 82.377C63.72 82.377 63.4961 82.1531 63.4961 81.877C63.4961 81.6009 63.72 81.377 63.9961 81.377C64.2722 81.377 64.4961 81.6009 64.4961 81.877Z" fill="#22328A" fill-opacity="0.2"/>
<path d="M77.4961 81.877C77.4961 82.1531 77.2722 82.377 76.9961 82.377C76.72 82.377 76.4961 82.1531 76.4961 81.877C76.4961 81.6009 76.72 81.377 76.9961 81.377C77.2722 81.377 77.4961 81.6009 77.4961 81.877Z" fill="#22328A" fill-opacity="0.2"/>
<path d="M90.4961 81.877C90.4961 82.1531 90.2722 82.377 89.9961 82.377C89.72 82.377 89.4961 82.1531 89.4961 81.877C89.4961 81.6009 89.72 81.377 89.9961 81.377C90.2722 81.377 90.4961 81.6009 90.4961 81.877Z" fill="#22328A" fill-opacity="0.2"/>
<path d="M103.496 81.877C103.496 82.1531 103.272 82.377 102.996 82.377C102.72 82.377 102.496 82.1531 102.496 81.877C102.496 81.6009 102.72 81.377 102.996 81.377C103.272 81.377 103.496 81.6009 103.496 81.877Z" fill="#22328A" fill-opacity="0.2"/>
<path d="M116.496 81.877C116.496 82.1531 116.272 82.377 115.996 82.377C115.72 82.377 115.496 82.1531 115.496 81.877C115.496 81.6009 115.72 81.377 115.996 81.377C116.272 81.377 116.496 81.6009 116.496 81.877Z" fill="#22328A" fill-opacity="0.2"/>
<path d="M129.496 81.877C129.496 82.1531 129.272 82.377 128.996 82.377C128.72 82.377 128.496 82.1531 128.496 81.877C128.496 81.6009 128.72 81.377 128.996 81.377C129.272 81.377 129.496 81.6009 129.496 81.877Z" fill="#22328A" fill-opacity="0.2"/>
<path d="M12.4961 94.877C12.4961 95.1531 12.2722 95.377 11.9961 95.377C11.72 95.377 11.4961 95.1531 11.4961 94.877C11.4961 94.6009 11.72 94.377 11.9961 94.377C12.2722 94.377 12.4961 94.6009 12.4961 94.877Z" fill="#22328A" fill-opacity="0.2"/>
<path d="M25.4961 94.877C25.4961 95.1531 25.2722 95.377 24.9961 95.377C24.72 95.377 24.4961 95.1531 24.4961 94.877C24.4961 94.6009 24.72 94.377 24.9961 94.377C25.2722 94.377 25.4961 94.6009 25.4961 94.877Z" fill="#22328A" fill-opacity="0.2"/>
<path d="M38.4961 94.877C38.4961 95.1531 38.2722 95.377 37.9961 95.377C37.72 95.377 37.4961 95.1531 37.4961 94.877C37.4961 94.6009 37.72 94.377 37.9961 94.377C38.2722 94.377 38.4961 94.6009 38.4961 94.877Z" fill="#22328A" fill-opacity="0.2"/>
<path d="M51.4961 94.877C51.4961 95.1531 51.2722 95.377 50.9961 95.377C50.72 95.377 50.4961 95.1531 50.4961 94.877C50.4961 94.6009 50.72 94.377 50.9961 94.377C51.2722 94.377 51.4961 94.6009 51.4961 94.877Z" fill="#22328A" fill-opacity="0.2"/>
<path d="M64.4961 94.877C64.4961 95.1531 64.2722 95.377 63.9961 95.377C63.72 95.377 63.4961 95.1531 63.4961 94.877C63.4961 94.6009 63.72 94.377 63.9961 94.377C64.2722 94.377 64.4961 94.6009 64.4961 94.877Z" fill="#22328A" fill-opacity="0.2"/>
<path d="M77.4961 94.877C77.4961 95.1531 77.2722 95.377 76.9961 95.377C76.72 95.377 76.4961 95.1531 76.4961 94.877C76.4961 94.6009 76.72 94.377 76.9961 94.377C77.2722 94.377 77.4961 94.6009 77.4961 94.877Z" fill="#22328A" fill-opacity="0.2"/>
<path d="M90.4961 94.877C90.4961 95.1531 90.2722 95.377 89.9961 95.377C89.72 95.377 89.4961 95.1531 89.4961 94.877C89.4961 94.6009 89.72 94.377 89.9961 94.377C90.2722 94.377 90.4961 94.6009 90.4961 94.877Z" fill="#22328A" fill-opacity="0.2"/>
<path d="M103.496 94.877C103.496 95.1531 103.272 95.377 102.996 95.377C102.72 95.377 102.496 95.1531 102.496 94.877C102.496 94.6009 102.72 94.377 102.996 94.377C103.272 94.377 103.496 94.6009 103.496 94.877Z" fill="#22328A" fill-opacity="0.2"/>
<path d="M116.496 94.877C116.496 95.1531 116.272 95.377 115.996 95.377C115.72 95.377 115.496 95.1531 115.496 94.877C115.496 94.6009 115.72 94.377 115.996 94.377C116.272 94.377 116.496 94.6009 116.496 94.877Z" fill="#22328A" fill-opacity="0.2"/>
<path d="M129.496 94.877C129.496 95.1531 129.272 95.377 128.996 95.377C128.72 95.377 128.496 95.1531 128.496 94.877C128.496 94.6009 128.72 94.377 128.996 94.377C129.272 94.377 129.496 94.6009 129.496 94.877Z" fill="#22328A" fill-opacity="0.2"/>
<path d="M12.4961 107.877C12.4961 108.153 12.2722 108.377 11.9961 108.377C11.72 108.377 11.4961 108.153 11.4961 107.877C11.4961 107.601 11.72 107.377 11.9961 107.377C12.2722 107.377 12.4961 107.601 12.4961 107.877Z" fill="#22328A" fill-opacity="0.2"/>
<path d="M25.4961 107.877C25.4961 108.153 25.2722 108.377 24.9961 108.377C24.72 108.377 24.4961 108.153 24.4961 107.877C24.4961 107.601 24.72 107.377 24.9961 107.377C25.2722 107.377 25.4961 107.601 25.4961 107.877Z" fill="#22328A" fill-opacity="0.2"/>
<path d="M38.4961 107.877C38.4961 108.153 38.2722 108.377 37.9961 108.377C37.72 108.377 37.4961 108.153 37.4961 107.877C37.4961 107.601 37.72 107.377 37.9961 107.377C38.2722 107.377 38.4961 107.601 38.4961 107.877Z" fill="#22328A" fill-opacity="0.2"/>
<path d="M51.4961 107.877C51.4961 108.153 51.2722 108.377 50.9961 108.377C50.72 108.377 50.4961 108.153 50.4961 107.877C50.4961 107.601 50.72 107.377 50.9961 107.377C51.2722 107.377 51.4961 107.601 51.4961 107.877Z" fill="#22328A" fill-opacity="0.2"/>
<path d="M64.4961 107.877C64.4961 108.153 64.2722 108.377 63.9961 108.377C63.72 108.377 63.4961 108.153 63.4961 107.877C63.4961 107.601 63.72 107.377 63.9961 107.377C64.2722 107.377 64.4961 107.601 64.4961 107.877Z" fill="#22328A" fill-opacity="0.2"/>
<path d="M77.4961 107.877C77.4961 108.153 77.2722 108.377 76.9961 108.377C76.72 108.377 76.4961 108.153 76.4961 107.877C76.4961 107.601 76.72 107.377 76.9961 107.377C77.2722 107.377 77.4961 107.601 77.4961 107.877Z" fill="#22328A" fill-opacity="0.2"/>
<path d="M90.4961 107.877C90.4961 108.153 90.2722 108.377 89.9961 108.377C89.72 108.377 89.4961 108.153 89.4961 107.877C89.4961 107.601 89.72 107.377 89.9961 107.377C90.2722 107.377 90.4961 107.601 90.4961 107.877Z" fill="#22328A" fill-opacity="0.2"/>
<path d="M103.496 107.877C103.496 108.153 103.272 108.377 102.996 108.377C102.72 108.377 102.496 108.153 102.496 107.877C102.496 107.601 102.72 107.377 102.996 107.377C103.272 107.377 103.496 107.601 103.496 107.877Z" fill="#22328A" fill-opacity="0.2"/>
<path d="M116.496 107.877C116.496 108.153 116.272 108.377 115.996 108.377C115.72 108.377 115.496 108.153 115.496 107.877C115.496 107.601 115.72 107.377 115.996 107.377C116.272 107.377 116.496 107.601 116.496 107.877Z" fill="#22328A" fill-opacity="0.2"/>
<path d="M129.496 107.877C129.496 108.153 129.272 108.377 128.996 108.377C128.72 108.377 128.496 108.153 128.496 107.877C128.496 107.601 128.72 107.377 128.996 107.377C129.272 107.377 129.496 107.601 129.496 107.877Z" fill="#22328A" fill-opacity="0.2"/>
<path d="M12.4961 120.877C12.4961 121.153 12.2722 121.377 11.9961 121.377C11.72 121.377 11.4961 121.153 11.4961 120.877C11.4961 120.601 11.72 120.377 11.9961 120.377C12.2722 120.377 12.4961 120.601 12.4961 120.877Z" fill="#22328A" fill-opacity="0.2"/>
<path d="M25.4961 120.877C25.4961 121.153 25.2722 121.377 24.9961 121.377C24.72 121.377 24.4961 121.153 24.4961 120.877C24.4961 120.601 24.72 120.377 24.9961 120.377C25.2722 120.377 25.4961 120.601 25.4961 120.877Z" fill="#22328A" fill-opacity="0.2"/>
<path d="M38.4961 120.877C38.4961 121.153 38.2722 121.377 37.9961 121.377C37.72 121.377 37.4961 121.153 37.4961 120.877C37.4961 120.601 37.72 120.377 37.9961 120.377C38.2722 120.377 38.4961 120.601 38.4961 120.877Z" fill="#22328A" fill-opacity="0.2"/>
<path d="M51.4961 120.877C51.4961 121.153 51.2722 121.377 50.9961 121.377C50.72 121.377 50.4961 121.153 50.4961 120.877C50.4961 120.601 50.72 120.377 50.9961 120.377C51.2722 120.377 51.4961 120.601 51.4961 120.877Z" fill="#22328A" fill-opacity="0.2"/>
<path d="M64.4961 120.877C64.4961 121.153 64.2722 121.377 63.9961 121.377C63.72 121.377 63.4961 121.153 63.4961 120.877C63.4961 120.601 63.72 120.377 63.9961 120.377C64.2722 120.377 64.4961 120.601 64.4961 120.877Z" fill="#22328A" fill-opacity="0.2"/>
<path d="M77.4961 120.877C77.4961 121.153 77.2722 121.377 76.9961 121.377C76.72 121.377 76.4961 121.153 76.4961 120.877C76.4961 120.601 76.72 120.377 76.9961 120.377C77.2722 120.377 77.4961 120.601 77.4961 120.877Z" fill="#22328A" fill-opacity="0.2"/>
<path d="M90.4961 120.877C90.4961 121.153 90.2722 121.377 89.9961 121.377C89.72 121.377 89.4961 121.153 89.4961 120.877C89.4961 120.601 89.72 120.377 89.9961 120.377C90.2722 120.377 90.4961 120.601 90.4961 120.877Z" fill="#22328A" fill-opacity="0.2"/>
<path d="M103.496 120.877C103.496 121.153 103.272 121.377 102.996 121.377C102.72 121.377 102.496 121.153 102.496 120.877C102.496 120.601 102.72 120.377 102.996 120.377C103.272 120.377 103.496 120.601 103.496 120.877Z" fill="#22328A" fill-opacity="0.2"/>
<path d="M116.496 120.877C116.496 121.153 116.272 121.377 115.996 121.377C115.72 121.377 115.496 121.153 115.496 120.877C115.496 120.601 115.72 120.377 115.996 120.377C116.272 120.377 116.496 120.601 116.496 120.877Z" fill="#22328A" fill-opacity="0.2"/>
<path d="M129.496 120.877C129.496 121.153 129.272 121.377 128.996 121.377C128.72 121.377 128.496 121.153 128.496 120.877C128.496 120.601 128.72 120.377 128.996 120.377C129.272 120.377 129.496 120.601 129.496 120.877Z" fill="#22328A" fill-opacity="0.2"/>
<path d="M12.4961 133.877C12.4961 134.153 12.2722 134.377 11.9961 134.377C11.72 134.377 11.4961 134.153 11.4961 133.877C11.4961 133.601 11.72 133.377 11.9961 133.377C12.2722 133.377 12.4961 133.601 12.4961 133.877Z" fill="#22328A" fill-opacity="0.2"/>
<path d="M25.4961 133.877C25.4961 134.153 25.2722 134.377 24.9961 134.377C24.72 134.377 24.4961 134.153 24.4961 133.877C24.4961 133.601 24.72 133.377 24.9961 133.377C25.2722 133.377 25.4961 133.601 25.4961 133.877Z" fill="#22328A" fill-opacity="0.2"/>
<path d="M38.4961 133.877C38.4961 134.153 38.2722 134.377 37.9961 134.377C37.72 134.377 37.4961 134.153 37.4961 133.877C37.4961 133.601 37.72 133.377 37.9961 133.377C38.2722 133.377 38.4961 133.601 38.4961 133.877Z" fill="#22328A" fill-opacity="0.2"/>
<path d="M51.4961 133.877C51.4961 134.153 51.2722 134.377 50.9961 134.377C50.72 134.377 50.4961 134.153 50.4961 133.877C50.4961 133.601 50.72 133.377 50.9961 133.377C51.2722 133.377 51.4961 133.601 51.4961 133.877Z" fill="#22328A" fill-opacity="0.2"/>
<path d="M64.4961 133.877C64.4961 134.153 64.2722 134.377 63.9961 134.377C63.72 134.377 63.4961 134.153 63.4961 133.877C63.4961 133.601 63.72 133.377 63.9961 133.377C64.2722 133.377 64.4961 133.601 64.4961 133.877Z" fill="#22328A" fill-opacity="0.2"/>
<path d="M77.4961 133.877C77.4961 134.153 77.2722 134.377 76.9961 134.377C76.72 134.377 76.4961 134.153 76.4961 133.877C76.4961 133.601 76.72 133.377 76.9961 133.377C77.2722 133.377 77.4961 133.601 77.4961 133.877Z" fill="#22328A" fill-opacity="0.2"/>
<path d="M90.4961 133.877C90.4961 134.153 90.2722 134.377 89.9961 134.377C89.72 134.377 89.4961 134.153 89.4961 133.877C89.4961 133.601 89.72 133.377 89.9961 133.377C90.2722 133.377 90.4961 133.601 90.4961 133.877Z" fill="#22328A" fill-opacity="0.2"/>
<path d="M103.496 133.877C103.496 134.153 103.272 134.377 102.996 134.377C102.72 134.377 102.496 134.153 102.496 133.877C102.496 133.601 102.72 133.377 102.996 133.377C103.272 133.377 103.496 133.601 103.496 133.877Z" fill="#22328A" fill-opacity="0.2"/>
<path d="M116.496 133.877C116.496 134.153 116.272 134.377 115.996 134.377C115.72 134.377 115.496 134.153 115.496 133.877C115.496 133.601 115.72 133.377 115.996 133.377C116.272 133.377 116.496 133.601 116.496 133.877Z" fill="#22328A" fill-opacity="0.2"/>
<path d="M129.496 133.877C129.496 134.153 129.272 134.377 128.996 134.377C128.72 134.377 128.496 134.153 128.496 133.877C128.496 133.601 128.72 133.377 128.996 133.377C129.272 133.377 129.496 133.601 129.496 133.877Z" fill="#22328A" fill-opacity="0.2"/>
<path d="M12.4961 146.877C12.4961 147.153 12.2722 147.377 11.9961 147.377C11.72 147.377 11.4961 147.153 11.4961 146.877C11.4961 146.601 11.72 146.377 11.9961 146.377C12.2722 146.377 12.4961 146.601 12.4961 146.877Z" fill="#22328A" fill-opacity="0.2"/>
<path d="M25.4961 146.877C25.4961 147.153 25.2722 147.377 24.9961 147.377C24.72 147.377 24.4961 147.153 24.4961 146.877C24.4961 146.601 24.72 146.377 24.9961 146.377C25.2722 146.377 25.4961 146.601 25.4961 146.877Z" fill="#22328A" fill-opacity="0.2"/>
<path d="M38.4961 146.877C38.4961 147.153 38.2722 147.377 37.9961 147.377C37.72 147.377 37.4961 147.153 37.4961 146.877C37.4961 146.601 37.72 146.377 37.9961 146.377C38.2722 146.377 38.4961 146.601 38.4961 146.877Z" fill="#22328A" fill-opacity="0.2"/>
<path d="M51.4961 146.877C51.4961 147.153 51.2722 147.377 50.9961 147.377C50.72 147.377 50.4961 147.153 50.4961 146.877C50.4961 146.601 50.72 146.377 50.9961 146.377C51.2722 146.377 51.4961 146.601 51.4961 146.877Z" fill="#22328A" fill-opacity="0.2"/>
<path d="M64.4961 146.877C64.4961 147.153 64.2722 147.377 63.9961 147.377C63.72 147.377 63.4961 147.153 63.4961 146.877C63.4961 146.601 63.72 146.377 63.9961 146.377C64.2722 146.377 64.4961 146.601 64.4961 146.877Z" fill="#22328A" fill-opacity="0.2"/>
<path d="M77.4961 146.877C77.4961 147.153 77.2722 147.377 76.9961 147.377C76.72 147.377 76.4961 147.153 76.4961 146.877C76.4961 146.601 76.72 146.377 76.9961 146.377C77.2722 146.377 77.4961 146.601 77.4961 146.877Z" fill="#22328A" fill-opacity="0.2"/>
<path d="M90.4961 146.877C90.4961 147.153 90.2722 147.377 89.9961 147.377C89.72 147.377 89.4961 147.153 89.4961 146.877C89.4961 146.601 89.72 146.377 89.9961 146.377C90.2722 146.377 90.4961 146.601 90.4961 146.877Z" fill="#22328A" fill-opacity="0.2"/>
<path d="M103.496 146.877C103.496 147.153 103.272 147.377 102.996 147.377C102.72 147.377 102.496 147.153 102.496 146.877C102.496 146.601 102.72 146.377 102.996 146.377C103.272 146.377 103.496 146.601 103.496 146.877Z" fill="#22328A" fill-opacity="0.2"/>
<path d="M116.496 146.877C116.496 147.153 116.272 147.377 115.996 147.377C115.72 147.377 115.496 147.153 115.496 146.877C115.496 146.601 115.72 146.377 115.996 146.377C116.272 146.377 116.496 146.601 116.496 146.877Z" fill="#22328A" fill-opacity="0.2"/>
<path d="M129.496 146.877C129.496 147.153 129.272 147.377 128.996 147.377C128.72 147.377 128.496 147.153 128.496 146.877C128.496 146.601 128.72 146.377 128.996 146.377C129.272 146.377 129.496 146.601 129.496 146.877Z" fill="#22328A" fill-opacity="0.2"/>
<path d="M12.4961 159.877C12.4961 160.153 12.2722 160.377 11.9961 160.377C11.72 160.377 11.4961 160.153 11.4961 159.877C11.4961 159.601 11.72 159.377 11.9961 159.377C12.2722 159.377 12.4961 159.601 12.4961 159.877Z" fill="#22328A" fill-opacity="0.2"/>
<path d="M25.4961 159.877C25.4961 160.153 25.2722 160.377 24.9961 160.377C24.72 160.377 24.4961 160.153 24.4961 159.877C24.4961 159.601 24.72 159.377 24.9961 159.377C25.2722 159.377 25.4961 159.601 25.4961 159.877Z" fill="#22328A" fill-opacity="0.2"/>
<path d="M38.4961 159.877C38.4961 160.153 38.2722 160.377 37.9961 160.377C37.72 160.377 37.4961 160.153 37.4961 159.877C37.4961 159.601 37.72 159.377 37.9961 159.377C38.2722 159.377 38.4961 159.601 38.4961 159.877Z" fill="#22328A" fill-opacity="0.2"/>
<path d="M51.4961 159.877C51.4961 160.153 51.2722 160.377 50.9961 160.377C50.72 160.377 50.4961 160.153 50.4961 159.877C50.4961 159.601 50.72 159.377 50.9961 159.377C51.2722 159.377 51.4961 159.601 51.4961 159.877Z" fill="#22328A" fill-opacity="0.2"/>
<path d="M64.4961 159.877C64.4961 160.153 64.2722 160.377 63.9961 160.377C63.72 160.377 63.4961 160.153 63.4961 159.877C63.4961 159.601 63.72 159.377 63.9961 159.377C64.2722 159.377 64.4961 159.601 64.4961 159.877Z" fill="#22328A" fill-opacity="0.2"/>
<path d="M77.4961 159.877C77.4961 160.153 77.2722 160.377 76.9961 160.377C76.72 160.377 76.4961 160.153 76.4961 159.877C76.4961 159.601 76.72 159.377 76.9961 159.377C77.2722 159.377 77.4961 159.601 77.4961 159.877Z" fill="#22328A" fill-opacity="0.2"/>
<path d="M90.4961 159.877C90.4961 160.153 90.2722 160.377 89.9961 160.377C89.72 160.377 89.4961 160.153 89.4961 159.877C89.4961 159.601 89.72 159.377 89.9961 159.377C90.2722 159.377 90.4961 159.601 90.4961 159.877Z" fill="#22328A" fill-opacity="0.2"/>
<path d="M103.496 159.877C103.496 160.153 103.272 160.377 102.996 160.377C102.72 160.377 102.496 160.153 102.496 159.877C102.496 159.601 102.72 159.377 102.996 159.377C103.272 159.377 103.496 159.601 103.496 159.877Z" fill="#22328A" fill-opacity="0.2"/>
<path d="M116.496 159.877C116.496 160.153 116.272 160.377 115.996 160.377C115.72 160.377 115.496 160.153 115.496 159.877C115.496 159.601 115.72 159.377 115.996 159.377C116.272 159.377 116.496 159.601 116.496 159.877Z" fill="#22328A" fill-opacity="0.2"/>
<path d="M129.496 159.877C129.496 160.153 129.272 160.377 128.996 160.377C128.72 160.377 128.496 160.153 128.496 159.877C128.496 159.601 128.72 159.377 128.996 159.377C129.272 159.377 129.496 159.601 129.496 159.877Z" fill="#22328A" fill-opacity="0.2"/>
<path d="M12.4961 172.877C12.4961 173.153 12.2722 173.377 11.9961 173.377C11.72 173.377 11.4961 173.153 11.4961 172.877C11.4961 172.601 11.72 172.377 11.9961 172.377C12.2722 172.377 12.4961 172.601 12.4961 172.877Z" fill="#22328A" fill-opacity="0.2"/>
<path d="M25.4961 172.877C25.4961 173.153 25.2722 173.377 24.9961 173.377C24.72 173.377 24.4961 173.153 24.4961 172.877C24.4961 172.601 24.72 172.377 24.9961 172.377C25.2722 172.377 25.4961 172.601 25.4961 172.877Z" fill="#22328A" fill-opacity="0.2"/>
<path d="M38.4961 172.877C38.4961 173.153 38.2722 173.377 37.9961 173.377C37.72 173.377 37.4961 173.153 37.4961 172.877C37.4961 172.601 37.72 172.377 37.9961 172.377C38.2722 172.377 38.4961 172.601 38.4961 172.877Z" fill="#22328A" fill-opacity="0.2"/>
<path d="M51.4961 172.877C51.4961 173.153 51.2722 173.377 50.9961 173.377C50.72 173.377 50.4961 173.153 50.4961 172.877C50.4961 172.601 50.72 172.377 50.9961 172.377C51.2722 172.377 51.4961 172.601 51.4961 172.877Z" fill="#22328A" fill-opacity="0.2"/>
<path d="M64.4961 172.877C64.4961 173.153 64.2722 173.377 63.9961 173.377C63.72 173.377 63.4961 173.153 63.4961 172.877C63.4961 172.601 63.72 172.377 63.9961 172.377C64.2722 172.377 64.4961 172.601 64.4961 172.877Z" fill="#22328A" fill-opacity="0.2"/>
<path d="M77.4961 172.877C77.4961 173.153 77.2722 173.377 76.9961 173.377C76.72 173.377 76.4961 173.153 76.4961 172.877C76.4961 172.601 76.72 172.377 76.9961 172.377C77.2722 172.377 77.4961 172.601 77.4961 172.877Z" fill="#22328A" fill-opacity="0.2"/>
<path d="M90.4961 172.877C90.4961 173.153 90.2722 173.377 89.9961 173.377C89.72 173.377 89.4961 173.153 89.4961 172.877C89.4961 172.601 89.72 172.377 89.9961 172.377C90.2722 172.377 90.4961 172.601 90.4961 172.877Z" fill="#22328A" fill-opacity="0.2"/>
<path d="M103.496 172.877C103.496 173.153 103.272 173.377 102.996 173.377C102.72 173.377 102.496 173.153 102.496 172.877C102.496 172.601 102.72 172.377 102.996 172.377C103.272 172.377 103.496 172.601 103.496 172.877Z" fill="#22328A" fill-opacity="0.2"/>
<path d="M116.496 172.877C116.496 173.153 116.272 173.377 115.996 173.377C115.72 173.377 115.496 173.153 115.496 172.877C115.496 172.601 115.72 172.377 115.996 172.377C116.272 172.377 116.496 172.601 116.496 172.877Z" fill="#22328A" fill-opacity="0.2"/>
<path d="M129.496 172.877C129.496 173.153 129.272 173.377 128.996 173.377C128.72 173.377 128.496 173.153 128.496 172.877C128.496 172.601 128.72 172.377 128.996 172.377C129.272 172.377 129.496 172.601 129.496 172.877Z" fill="#22328A" fill-opacity="0.2"/>
<path d="M12.4961 185.877C12.4961 186.153 12.2722 186.377 11.9961 186.377C11.72 186.377 11.4961 186.153 11.4961 185.877C11.4961 185.601 11.72 185.377 11.9961 185.377C12.2722 185.377 12.4961 185.601 12.4961 185.877Z" fill="#22328A" fill-opacity="0.2"/>
<path d="M25.4961 185.877C25.4961 186.153 25.2722 186.377 24.9961 186.377C24.72 186.377 24.4961 186.153 24.4961 185.877C24.4961 185.601 24.72 185.377 24.9961 185.377C25.2722 185.377 25.4961 185.601 25.4961 185.877Z" fill="#22328A" fill-opacity="0.2"/>
<path d="M38.4961 185.877C38.4961 186.153 38.2722 186.377 37.9961 186.377C37.72 186.377 37.4961 186.153 37.4961 185.877C37.4961 185.601 37.72 185.377 37.9961 185.377C38.2722 185.377 38.4961 185.601 38.4961 185.877Z" fill="#22328A" fill-opacity="0.2"/>
<path d="M51.4961 185.877C51.4961 186.153 51.2722 186.377 50.9961 186.377C50.72 186.377 50.4961 186.153 50.4961 185.877C50.4961 185.601 50.72 185.377 50.9961 185.377C51.2722 185.377 51.4961 185.601 51.4961 185.877Z" fill="#22328A" fill-opacity="0.2"/>
<path d="M64.4961 185.877C64.4961 186.153 64.2722 186.377 63.9961 186.377C63.72 186.377 63.4961 186.153 63.4961 185.877C63.4961 185.601 63.72 185.377 63.9961 185.377C64.2722 185.377 64.4961 185.601 64.4961 185.877Z" fill="#22328A" fill-opacity="0.2"/>
<path d="M77.4961 185.877C77.4961 186.153 77.2722 186.377 76.9961 186.377C76.72 186.377 76.4961 186.153 76.4961 185.877C76.4961 185.601 76.72 185.377 76.9961 185.377C77.2722 185.377 77.4961 185.601 77.4961 185.877Z" fill="#22328A" fill-opacity="0.2"/>
<path d="M90.4961 185.877C90.4961 186.153 90.2722 186.377 89.9961 186.377C89.72 186.377 89.4961 186.153 89.4961 185.877C89.4961 185.601 89.72 185.377 89.9961 185.377C90.2722 185.377 90.4961 185.601 90.4961 185.877Z" fill="#22328A" fill-opacity="0.2"/>
<path d="M103.496 185.877C103.496 186.153 103.272 186.377 102.996 186.377C102.72 186.377 102.496 186.153 102.496 185.877C102.496 185.601 102.72 185.377 102.996 185.377C103.272 185.377 103.496 185.601 103.496 185.877Z" fill="#22328A" fill-opacity="0.2"/>
<path d="M116.496 185.877C116.496 186.153 116.272 186.377 115.996 186.377C115.72 186.377 115.496 186.153 115.496 185.877C115.496 185.601 115.72 185.377 115.996 185.377C116.272 185.377 116.496 185.601 116.496 185.877Z" fill="#22328A" fill-opacity="0.2"/>
<path d="M129.496 185.877C129.496 186.153 129.272 186.377 128.996 186.377C128.72 186.377 128.496 186.153 128.496 185.877C128.496 185.601 128.72 185.377 128.996 185.377C129.272 185.377 129.496 185.601 129.496 185.877Z" fill="#22328A" fill-opacity="0.2"/>
<path d="M12.4961 198.877C12.4961 199.153 12.2722 199.377 11.9961 199.377C11.72 199.377 11.4961 199.153 11.4961 198.877C11.4961 198.601 11.72 198.377 11.9961 198.377C12.2722 198.377 12.4961 198.601 12.4961 198.877Z" fill="#22328A" fill-opacity="0.2"/>
<path d="M25.4961 198.877C25.4961 199.153 25.2722 199.377 24.9961 199.377C24.72 199.377 24.4961 199.153 24.4961 198.877C24.4961 198.601 24.72 198.377 24.9961 198.377C25.2722 198.377 25.4961 198.601 25.4961 198.877Z" fill="#22328A" fill-opacity="0.2"/>
<path d="M38.4961 198.877C38.4961 199.153 38.2722 199.377 37.9961 199.377C37.72 199.377 37.4961 199.153 37.4961 198.877C37.4961 198.601 37.72 198.377 37.9961 198.377C38.2722 198.377 38.4961 198.601 38.4961 198.877Z" fill="#22328A" fill-opacity="0.2"/>
<path d="M51.4961 198.877C51.4961 199.153 51.2722 199.377 50.9961 199.377C50.72 199.377 50.4961 199.153 50.4961 198.877C50.4961 198.601 50.72 198.377 50.9961 198.377C51.2722 198.377 51.4961 198.601 51.4961 198.877Z" fill="#22328A" fill-opacity="0.2"/>
<path d="M64.4961 198.877C64.4961 199.153 64.2722 199.377 63.9961 199.377C63.72 199.377 63.4961 199.153 63.4961 198.877C63.4961 198.601 63.72 198.377 63.9961 198.377C64.2722 198.377 64.4961 198.601 64.4961 198.877Z" fill="#22328A" fill-opacity="0.2"/>
<path d="M77.4961 198.877C77.4961 199.153 77.2722 199.377 76.9961 199.377C76.72 199.377 76.4961 199.153 76.4961 198.877C76.4961 198.601 76.72 198.377 76.9961 198.377C77.2722 198.377 77.4961 198.601 77.4961 198.877Z" fill="#22328A" fill-opacity="0.2"/>
<path d="M90.4961 198.877C90.4961 199.153 90.2722 199.377 89.9961 199.377C89.72 199.377 89.4961 199.153 89.4961 198.877C89.4961 198.601 89.72 198.377 89.9961 198.377C90.2722 198.377 90.4961 198.601 90.4961 198.877Z" fill="#22328A" fill-opacity="0.2"/>
<path d="M103.496 198.877C103.496 199.153 103.272 199.377 102.996 199.377C102.72 199.377 102.496 199.153 102.496 198.877C102.496 198.601 102.72 198.377 102.996 198.377C103.272 198.377 103.496 198.601 103.496 198.877Z" fill="#22328A" fill-opacity="0.2"/>
<path d="M116.496 198.877C116.496 199.153 116.272 199.377 115.996 199.377C115.72 199.377 115.496 199.153 115.496 198.877C115.496 198.601 115.72 198.377 115.996 198.377C116.272 198.377 116.496 198.601 116.496 198.877Z" fill="#22328A" fill-opacity="0.2"/>
<path d="M129.496 198.877C129.496 199.153 129.272 199.377 128.996 199.377C128.72 199.377 128.496 199.153 128.496 198.877C128.496 198.601 128.72 198.377 128.996 198.377C129.272 198.377 129.496 198.601 129.496 198.877Z" fill="#22328A" fill-opacity="0.2"/>
<path d="M12.4961 211.877C12.4961 212.153 12.2722 212.377 11.9961 212.377C11.72 212.377 11.4961 212.153 11.4961 211.877C11.4961 211.601 11.72 211.377 11.9961 211.377C12.2722 211.377 12.4961 211.601 12.4961 211.877Z" fill="#22328A" fill-opacity="0.2"/>
<path d="M25.4961 211.877C25.4961 212.153 25.2722 212.377 24.9961 212.377C24.72 212.377 24.4961 212.153 24.4961 211.877C24.4961 211.601 24.72 211.377 24.9961 211.377C25.2722 211.377 25.4961 211.601 25.4961 211.877Z" fill="#22328A" fill-opacity="0.2"/>
<path d="M38.4961 211.877C38.4961 212.153 38.2722 212.377 37.9961 212.377C37.72 212.377 37.4961 212.153 37.4961 211.877C37.4961 211.601 37.72 211.377 37.9961 211.377C38.2722 211.377 38.4961 211.601 38.4961 211.877Z" fill="#22328A" fill-opacity="0.2"/>
<path d="M51.4961 211.877C51.4961 212.153 51.2722 212.377 50.9961 212.377C50.72 212.377 50.4961 212.153 50.4961 211.877C50.4961 211.601 50.72 211.377 50.9961 211.377C51.2722 211.377 51.4961 211.601 51.4961 211.877Z" fill="#22328A" fill-opacity="0.2"/>
<path d="M64.4961 211.877C64.4961 212.153 64.2722 212.377 63.9961 212.377C63.72 212.377 63.4961 212.153 63.4961 211.877C63.4961 211.601 63.72 211.377 63.9961 211.377C64.2722 211.377 64.4961 211.601 64.4961 211.877Z" fill="#22328A" fill-opacity="0.2"/>
<path d="M77.4961 211.877C77.4961 212.153 77.2722 212.377 76.9961 212.377C76.72 212.377 76.4961 212.153 76.4961 211.877C76.4961 211.601 76.72 211.377 76.9961 211.377C77.2722 211.377 77.4961 211.601 77.4961 211.877Z" fill="#22328A" fill-opacity="0.2"/>
<path d="M90.4961 211.877C90.4961 212.153 90.2722 212.377 89.9961 212.377C89.72 212.377 89.4961 212.153 89.4961 211.877C89.4961 211.601 89.72 211.377 89.9961 211.377C90.2722 211.377 90.4961 211.601 90.4961 211.877Z" fill="#22328A" fill-opacity="0.2"/>
<path d="M103.496 211.877C103.496 212.153 103.272 212.377 102.996 212.377C102.72 212.377 102.496 212.153 102.496 211.877C102.496 211.601 102.72 211.377 102.996 211.377C103.272 211.377 103.496 211.601 103.496 211.877Z" fill="#22328A" fill-opacity="0.2"/>
<path d="M116.496 211.877C116.496 212.153 116.272 212.377 115.996 212.377C115.72 212.377 115.496 212.153 115.496 211.877C115.496 211.601 115.72 211.377 115.996 211.377C116.272 211.377 116.496 211.601 116.496 211.877Z" fill="#22328A" fill-opacity="0.2"/>
<path d="M129.496 211.877C129.496 212.153 129.272 212.377 128.996 212.377C128.72 212.377 128.496 212.153 128.496 211.877C128.496 211.601 128.72 211.377 128.996 211.377C129.272 211.377 129.496 211.601 129.496 211.877Z" fill="#22328A" fill-opacity="0.2"/>
<path d="M12.4961 224.877C12.4961 225.153 12.2722 225.377 11.9961 225.377C11.72 225.377 11.4961 225.153 11.4961 224.877C11.4961 224.601 11.72 224.377 11.9961 224.377C12.2722 224.377 12.4961 224.601 12.4961 224.877Z" fill="#22328A" fill-opacity="0.2"/>
<path d="M25.4961 224.877C25.4961 225.153 25.2722 225.377 24.9961 225.377C24.72 225.377 24.4961 225.153 24.4961 224.877C24.4961 224.601 24.72 224.377 24.9961 224.377C25.2722 224.377 25.4961 224.601 25.4961 224.877Z" fill="#22328A" fill-opacity="0.2"/>
<path d="M38.4961 224.877C38.4961 225.153 38.2722 225.377 37.9961 225.377C37.72 225.377 37.4961 225.153 37.4961 224.877C37.4961 224.601 37.72 224.377 37.9961 224.377C38.2722 224.377 38.4961 224.601 38.4961 224.877Z" fill="#22328A" fill-opacity="0.2"/>
<path d="M51.4961 224.877C51.4961 225.153 51.2722 225.377 50.9961 225.377C50.72 225.377 50.4961 225.153 50.4961 224.877C50.4961 224.601 50.72 224.377 50.9961 224.377C51.2722 224.377 51.4961 224.601 51.4961 224.877Z" fill="#22328A" fill-opacity="0.2"/>
<path d="M64.4961 224.877C64.4961 225.153 64.2722 225.377 63.9961 225.377C63.72 225.377 63.4961 225.153 63.4961 224.877C63.4961 224.601 63.72 224.377 63.9961 224.377C64.2722 224.377 64.4961 224.601 64.4961 224.877Z" fill="#22328A" fill-opacity="0.2"/>
<path d="M77.4961 224.877C77.4961 225.153 77.2722 225.377 76.9961 225.377C76.72 225.377 76.4961 225.153 76.4961 224.877C76.4961 224.601 76.72 224.377 76.9961 224.377C77.2722 224.377 77.4961 224.601 77.4961 224.877Z" fill="#22328A" fill-opacity="0.2"/>
<path d="M90.4961 224.877C90.4961 225.153 90.2722 225.377 89.9961 225.377C89.72 225.377 89.4961 225.153 89.4961 224.877C89.4961 224.601 89.72 224.377 89.9961 224.377C90.2722 224.377 90.4961 224.601 90.4961 224.877Z" fill="#22328A" fill-opacity="0.2"/>
<path d="M103.496 224.877C103.496 225.153 103.272 225.377 102.996 225.377C102.72 225.377 102.496 225.153 102.496 224.877C102.496 224.601 102.72 224.377 102.996 224.377C103.272 224.377 103.496 224.601 103.496 224.877Z" fill="#22328A" fill-opacity="0.2"/>
<path d="M116.496 224.877C116.496 225.153 116.272 225.377 115.996 225.377C115.72 225.377 115.496 225.153 115.496 224.877C115.496 224.601 115.72 224.377 115.996 224.377C116.272 224.377 116.496 224.601 116.496 224.877Z" fill="#22328A" fill-opacity="0.2"/>
<path d="M129.496 224.877C129.496 225.153 129.272 225.377 128.996 225.377C128.72 225.377 128.496 225.153 128.496 224.877C128.496 224.601 128.72 224.377 128.996 224.377C129.272 224.377 129.496 224.601 129.496 224.877Z" fill="#22328A" fill-opacity="0.2"/>
<path d="M258.496 55.877C258.496 56.1531 258.72 56.377 258.996 56.377C259.272 56.377 259.496 56.1531 259.496 55.877C259.496 55.6008 259.272 55.377 258.996 55.377C258.72 55.377 258.496 55.6008 258.496 55.877Z" fill="#22328A" fill-opacity="0.2"/>
<path d="M245.496 55.877C245.496 56.1531 245.72 56.377 245.996 56.377C246.272 56.377 246.496 56.1531 246.496 55.877C246.496 55.6008 246.272 55.377 245.996 55.377C245.72 55.377 245.496 55.6008 245.496 55.877Z" fill="#22328A" fill-opacity="0.2"/>
<path d="M232.496 55.877C232.496 56.1531 232.72 56.377 232.996 56.377C233.272 56.377 233.496 56.1531 233.496 55.877C233.496 55.6008 233.272 55.377 232.996 55.377C232.72 55.377 232.496 55.6008 232.496 55.877Z" fill="#22328A" fill-opacity="0.2"/>
<path d="M219.496 55.877C219.496 56.1531 219.72 56.377 219.996 56.377C220.272 56.377 220.496 56.1531 220.496 55.877C220.496 55.6008 220.272 55.377 219.996 55.377C219.72 55.377 219.496 55.6008 219.496 55.877Z" fill="#22328A" fill-opacity="0.2"/>
<path d="M206.496 55.877C206.496 56.1531 206.72 56.377 206.996 56.377C207.272 56.377 207.496 56.1531 207.496 55.877C207.496 55.6008 207.272 55.377 206.996 55.377C206.72 55.377 206.496 55.6008 206.496 55.877Z" fill="#22328A" fill-opacity="0.2"/>
<path d="M193.496 55.877C193.496 56.1531 193.72 56.377 193.996 56.377C194.272 56.377 194.496 56.1531 194.496 55.877C194.496 55.6008 194.272 55.377 193.996 55.377C193.72 55.377 193.496 55.6008 193.496 55.877Z" fill="#22328A" fill-opacity="0.2"/>
<path d="M180.496 55.877C180.496 56.1531 180.72 56.377 180.996 56.377C181.272 56.377 181.496 56.1531 181.496 55.877C181.496 55.6008 181.272 55.377 180.996 55.377C180.72 55.377 180.496 55.6008 180.496 55.877Z" fill="#22328A" fill-opacity="0.2"/>
<path d="M167.496 55.877C167.496 56.1531 167.72 56.377 167.996 56.377C168.272 56.377 168.496 56.1531 168.496 55.877C168.496 55.6008 168.272 55.377 167.996 55.377C167.72 55.377 167.496 55.6008 167.496 55.877Z" fill="#22328A" fill-opacity="0.2"/>
<path d="M154.496 55.877C154.496 56.1531 154.72 56.377 154.996 56.377C155.272 56.377 155.496 56.1531 155.496 55.877C155.496 55.6008 155.272 55.377 154.996 55.377C154.72 55.377 154.496 55.6008 154.496 55.877Z" fill="#22328A" fill-opacity="0.2"/>
<path d="M141.496 55.877C141.496 56.1531 141.72 56.377 141.996 56.377C142.272 56.377 142.496 56.1531 142.496 55.877C142.496 55.6008 142.272 55.377 141.996 55.377C141.72 55.377 141.496 55.6008 141.496 55.877Z" fill="#22328A" fill-opacity="0.2"/>
<path d="M258.496 68.877C258.496 69.1531 258.72 69.377 258.996 69.377C259.272 69.377 259.496 69.1531 259.496 68.877C259.496 68.6009 259.272 68.377 258.996 68.377C258.72 68.377 258.496 68.6009 258.496 68.877Z" fill="#22328A" fill-opacity="0.2"/>
<path d="M245.496 68.877C245.496 69.1531 245.72 69.377 245.996 69.377C246.272 69.377 246.496 69.1531 246.496 68.877C246.496 68.6009 246.272 68.377 245.996 68.377C245.72 68.377 245.496 68.6009 245.496 68.877Z" fill="#22328A" fill-opacity="0.2"/>
<path d="M232.496 68.877C232.496 69.1531 232.72 69.377 232.996 69.377C233.272 69.377 233.496 69.1531 233.496 68.877C233.496 68.6009 233.272 68.377 232.996 68.377C232.72 68.377 232.496 68.6009 232.496 68.877Z" fill="#22328A" fill-opacity="0.2"/>
<path d="M219.496 68.877C219.496 69.1531 219.72 69.377 219.996 69.377C220.272 69.377 220.496 69.1531 220.496 68.877C220.496 68.6009 220.272 68.377 219.996 68.377C219.72 68.377 219.496 68.6009 219.496 68.877Z" fill="#22328A" fill-opacity="0.2"/>
<path d="M206.496 68.877C206.496 69.1531 206.72 69.377 206.996 69.377C207.272 69.377 207.496 69.1531 207.496 68.877C207.496 68.6009 207.272 68.377 206.996 68.377C206.72 68.377 206.496 68.6009 206.496 68.877Z" fill="#22328A" fill-opacity="0.2"/>
<path d="M193.496 68.877C193.496 69.1531 193.72 69.377 193.996 69.377C194.272 69.377 194.496 69.1531 194.496 68.877C194.496 68.6009 194.272 68.377 193.996 68.377C193.72 68.377 193.496 68.6009 193.496 68.877Z" fill="#22328A" fill-opacity="0.2"/>
<path d="M180.496 68.877C180.496 69.1531 180.72 69.377 180.996 69.377C181.272 69.377 181.496 69.1531 181.496 68.877C181.496 68.6009 181.272 68.377 180.996 68.377C180.72 68.377 180.496 68.6009 180.496 68.877Z" fill="#22328A" fill-opacity="0.2"/>
<path d="M167.496 68.877C167.496 69.1531 167.72 69.377 167.996 69.377C168.272 69.377 168.496 69.1531 168.496 68.877C168.496 68.6009 168.272 68.377 167.996 68.377C167.72 68.377 167.496 68.6009 167.496 68.877Z" fill="#22328A" fill-opacity="0.2"/>
<path d="M154.496 68.877C154.496 69.1531 154.72 69.377 154.996 69.377C155.272 69.377 155.496 69.1531 155.496 68.877C155.496 68.6009 155.272 68.377 154.996 68.377C154.72 68.377 154.496 68.6009 154.496 68.877Z" fill="#22328A" fill-opacity="0.2"/>
<path d="M141.496 68.877C141.496 69.1531 141.72 69.377 141.996 69.377C142.272 69.377 142.496 69.1531 142.496 68.877C142.496 68.6009 142.272 68.377 141.996 68.377C141.72 68.377 141.496 68.6009 141.496 68.877Z" fill="#22328A" fill-opacity="0.2"/>
<path d="M258.496 81.877C258.496 82.1531 258.72 82.377 258.996 82.377C259.272 82.377 259.496 82.1531 259.496 81.877C259.496 81.6009 259.272 81.377 258.996 81.377C258.72 81.377 258.496 81.6009 258.496 81.877Z" fill="#22328A" fill-opacity="0.2"/>
<path d="M245.496 81.877C245.496 82.1531 245.72 82.377 245.996 82.377C246.272 82.377 246.496 82.1531 246.496 81.877C246.496 81.6009 246.272 81.377 245.996 81.377C245.72 81.377 245.496 81.6009 245.496 81.877Z" fill="#22328A" fill-opacity="0.2"/>
<path d="M232.496 81.877C232.496 82.1531 232.72 82.377 232.996 82.377C233.272 82.377 233.496 82.1531 233.496 81.877C233.496 81.6009 233.272 81.377 232.996 81.377C232.72 81.377 232.496 81.6009 232.496 81.877Z" fill="#22328A" fill-opacity="0.2"/>
<path d="M219.496 81.877C219.496 82.1531 219.72 82.377 219.996 82.377C220.272 82.377 220.496 82.1531 220.496 81.877C220.496 81.6009 220.272 81.377 219.996 81.377C219.72 81.377 219.496 81.6009 219.496 81.877Z" fill="#22328A" fill-opacity="0.2"/>
<path d="M206.496 81.877C206.496 82.1531 206.72 82.377 206.996 82.377C207.272 82.377 207.496 82.1531 207.496 81.877C207.496 81.6009 207.272 81.377 206.996 81.377C206.72 81.377 206.496 81.6009 206.496 81.877Z" fill="#22328A" fill-opacity="0.2"/>
<path d="M193.496 81.877C193.496 82.1531 193.72 82.377 193.996 82.377C194.272 82.377 194.496 82.1531 194.496 81.877C194.496 81.6009 194.272 81.377 193.996 81.377C193.72 81.377 193.496 81.6009 193.496 81.877Z" fill="#22328A" fill-opacity="0.2"/>
<path d="M180.496 81.877C180.496 82.1531 180.72 82.377 180.996 82.377C181.272 82.377 181.496 82.1531 181.496 81.877C181.496 81.6009 181.272 81.377 180.996 81.377C180.72 81.377 180.496 81.6009 180.496 81.877Z" fill="#22328A" fill-opacity="0.2"/>
<path d="M167.496 81.877C167.496 82.1531 167.72 82.377 167.996 82.377C168.272 82.377 168.496 82.1531 168.496 81.877C168.496 81.6009 168.272 81.377 167.996 81.377C167.72 81.377 167.496 81.6009 167.496 81.877Z" fill="#22328A" fill-opacity="0.2"/>
<path d="M154.496 81.877C154.496 82.1531 154.72 82.377 154.996 82.377C155.272 82.377 155.496 82.1531 155.496 81.877C155.496 81.6009 155.272 81.377 154.996 81.377C154.72 81.377 154.496 81.6009 154.496 81.877Z" fill="#22328A" fill-opacity="0.2"/>
<path d="M141.496 81.877C141.496 82.1531 141.72 82.377 141.996 82.377C142.272 82.377 142.496 82.1531 142.496 81.877C142.496 81.6009 142.272 81.377 141.996 81.377C141.72 81.377 141.496 81.6009 141.496 81.877Z" fill="#22328A" fill-opacity="0.2"/>
<path d="M258.496 94.877C258.496 95.1531 258.72 95.377 258.996 95.377C259.272 95.377 259.496 95.1531 259.496 94.877C259.496 94.6009 259.272 94.377 258.996 94.377C258.72 94.377 258.496 94.6009 258.496 94.877Z" fill="#22328A" fill-opacity="0.2"/>
<path d="M245.496 94.877C245.496 95.1531 245.72 95.377 245.996 95.377C246.272 95.377 246.496 95.1531 246.496 94.877C246.496 94.6009 246.272 94.377 245.996 94.377C245.72 94.377 245.496 94.6009 245.496 94.877Z" fill="#22328A" fill-opacity="0.2"/>
<path d="M232.496 94.877C232.496 95.1531 232.72 95.377 232.996 95.377C233.272 95.377 233.496 95.1531 233.496 94.877C233.496 94.6009 233.272 94.377 232.996 94.377C232.72 94.377 232.496 94.6009 232.496 94.877Z" fill="#22328A" fill-opacity="0.2"/>
<path d="M219.496 94.877C219.496 95.1531 219.72 95.377 219.996 95.377C220.272 95.377 220.496 95.1531 220.496 94.877C220.496 94.6009 220.272 94.377 219.996 94.377C219.72 94.377 219.496 94.6009 219.496 94.877Z" fill="#22328A" fill-opacity="0.2"/>
<path d="M206.496 94.877C206.496 95.1531 206.72 95.377 206.996 95.377C207.272 95.377 207.496 95.1531 207.496 94.877C207.496 94.6009 207.272 94.377 206.996 94.377C206.72 94.377 206.496 94.6009 206.496 94.877Z" fill="#22328A" fill-opacity="0.2"/>
<path d="M193.496 94.877C193.496 95.1531 193.72 95.377 193.996 95.377C194.272 95.377 194.496 95.1531 194.496 94.877C194.496 94.6009 194.272 94.377 193.996 94.377C193.72 94.377 193.496 94.6009 193.496 94.877Z" fill="#22328A" fill-opacity="0.2"/>
<path d="M180.496 94.877C180.496 95.1531 180.72 95.377 180.996 95.377C181.272 95.377 181.496 95.1531 181.496 94.877C181.496 94.6009 181.272 94.377 180.996 94.377C180.72 94.377 180.496 94.6009 180.496 94.877Z" fill="#22328A" fill-opacity="0.2"/>
<path d="M167.496 94.877C167.496 95.1531 167.72 95.377 167.996 95.377C168.272 95.377 168.496 95.1531 168.496 94.877C168.496 94.6009 168.272 94.377 167.996 94.377C167.72 94.377 167.496 94.6009 167.496 94.877Z" fill="#22328A" fill-opacity="0.2"/>
<path d="M154.496 94.877C154.496 95.1531 154.72 95.377 154.996 95.377C155.272 95.377 155.496 95.1531 155.496 94.877C155.496 94.6009 155.272 94.377 154.996 94.377C154.72 94.377 154.496 94.6009 154.496 94.877Z" fill="#22328A" fill-opacity="0.2"/>
<path d="M141.496 94.877C141.496 95.1531 141.72 95.377 141.996 95.377C142.272 95.377 142.496 95.1531 142.496 94.877C142.496 94.6009 142.272 94.377 141.996 94.377C141.72 94.377 141.496 94.6009 141.496 94.877Z" fill="#22328A" fill-opacity="0.2"/>
<path d="M258.496 107.877C258.496 108.153 258.72 108.377 258.996 108.377C259.272 108.377 259.496 108.153 259.496 107.877C259.496 107.601 259.272 107.377 258.996 107.377C258.72 107.377 258.496 107.601 258.496 107.877Z" fill="#22328A" fill-opacity="0.2"/>
<path d="M245.496 107.877C245.496 108.153 245.72 108.377 245.996 108.377C246.272 108.377 246.496 108.153 246.496 107.877C246.496 107.601 246.272 107.377 245.996 107.377C245.72 107.377 245.496 107.601 245.496 107.877Z" fill="#22328A" fill-opacity="0.2"/>
<path d="M232.496 107.877C232.496 108.153 232.72 108.377 232.996 108.377C233.272 108.377 233.496 108.153 233.496 107.877C233.496 107.601 233.272 107.377 232.996 107.377C232.72 107.377 232.496 107.601 232.496 107.877Z" fill="#22328A" fill-opacity="0.2"/>
<path d="M219.496 107.877C219.496 108.153 219.72 108.377 219.996 108.377C220.272 108.377 220.496 108.153 220.496 107.877C220.496 107.601 220.272 107.377 219.996 107.377C219.72 107.377 219.496 107.601 219.496 107.877Z" fill="#22328A" fill-opacity="0.2"/>
<path d="M206.496 107.877C206.496 108.153 206.72 108.377 206.996 108.377C207.272 108.377 207.496 108.153 207.496 107.877C207.496 107.601 207.272 107.377 206.996 107.377C206.72 107.377 206.496 107.601 206.496 107.877Z" fill="#22328A" fill-opacity="0.2"/>
<path d="M193.496 107.877C193.496 108.153 193.72 108.377 193.996 108.377C194.272 108.377 194.496 108.153 194.496 107.877C194.496 107.601 194.272 107.377 193.996 107.377C193.72 107.377 193.496 107.601 193.496 107.877Z" fill="#22328A" fill-opacity="0.2"/>
<path d="M180.496 107.877C180.496 108.153 180.72 108.377 180.996 108.377C181.272 108.377 181.496 108.153 181.496 107.877C181.496 107.601 181.272 107.377 180.996 107.377C180.72 107.377 180.496 107.601 180.496 107.877Z" fill="#22328A" fill-opacity="0.2"/>
<path d="M167.496 107.877C167.496 108.153 167.72 108.377 167.996 108.377C168.272 108.377 168.496 108.153 168.496 107.877C168.496 107.601 168.272 107.377 167.996 107.377C167.72 107.377 167.496 107.601 167.496 107.877Z" fill="#22328A" fill-opacity="0.2"/>
<path d="M154.496 107.877C154.496 108.153 154.72 108.377 154.996 108.377C155.272 108.377 155.496 108.153 155.496 107.877C155.496 107.601 155.272 107.377 154.996 107.377C154.72 107.377 154.496 107.601 154.496 107.877Z" fill="#22328A" fill-opacity="0.2"/>
<path d="M141.496 107.877C141.496 108.153 141.72 108.377 141.996 108.377C142.272 108.377 142.496 108.153 142.496 107.877C142.496 107.601 142.272 107.377 141.996 107.377C141.72 107.377 141.496 107.601 141.496 107.877Z" fill="#22328A" fill-opacity="0.2"/>
<path d="M258.496 120.877C258.496 121.153 258.72 121.377 258.996 121.377C259.272 121.377 259.496 121.153 259.496 120.877C259.496 120.601 259.272 120.377 258.996 120.377C258.72 120.377 258.496 120.601 258.496 120.877Z" fill="#22328A" fill-opacity="0.2"/>
<path d="M245.496 120.877C245.496 121.153 245.72 121.377 245.996 121.377C246.272 121.377 246.496 121.153 246.496 120.877C246.496 120.601 246.272 120.377 245.996 120.377C245.72 120.377 245.496 120.601 245.496 120.877Z" fill="#22328A" fill-opacity="0.2"/>
<path d="M232.496 120.877C232.496 121.153 232.72 121.377 232.996 121.377C233.272 121.377 233.496 121.153 233.496 120.877C233.496 120.601 233.272 120.377 232.996 120.377C232.72 120.377 232.496 120.601 232.496 120.877Z" fill="#22328A" fill-opacity="0.2"/>
<path d="M219.496 120.877C219.496 121.153 219.72 121.377 219.996 121.377C220.272 121.377 220.496 121.153 220.496 120.877C220.496 120.601 220.272 120.377 219.996 120.377C219.72 120.377 219.496 120.601 219.496 120.877Z" fill="#22328A" fill-opacity="0.2"/>
<path d="M206.496 120.877C206.496 121.153 206.72 121.377 206.996 121.377C207.272 121.377 207.496 121.153 207.496 120.877C207.496 120.601 207.272 120.377 206.996 120.377C206.72 120.377 206.496 120.601 206.496 120.877Z" fill="#22328A" fill-opacity="0.2"/>
<path d="M193.496 120.877C193.496 121.153 193.72 121.377 193.996 121.377C194.272 121.377 194.496 121.153 194.496 120.877C194.496 120.601 194.272 120.377 193.996 120.377C193.72 120.377 193.496 120.601 193.496 120.877Z" fill="#22328A" fill-opacity="0.2"/>
<path d="M180.496 120.877C180.496 121.153 180.72 121.377 180.996 121.377C181.272 121.377 181.496 121.153 181.496 120.877C181.496 120.601 181.272 120.377 180.996 120.377C180.72 120.377 180.496 120.601 180.496 120.877Z" fill="#22328A" fill-opacity="0.2"/>
<path d="M167.496 120.877C167.496 121.153 167.72 121.377 167.996 121.377C168.272 121.377 168.496 121.153 168.496 120.877C168.496 120.601 168.272 120.377 167.996 120.377C167.72 120.377 167.496 120.601 167.496 120.877Z" fill="#22328A" fill-opacity="0.2"/>
<path d="M154.496 120.877C154.496 121.153 154.72 121.377 154.996 121.377C155.272 121.377 155.496 121.153 155.496 120.877C155.496 120.601 155.272 120.377 154.996 120.377C154.72 120.377 154.496 120.601 154.496 120.877Z" fill="#22328A" fill-opacity="0.2"/>
<path d="M141.496 120.877C141.496 121.153 141.72 121.377 141.996 121.377C142.272 121.377 142.496 121.153 142.496 120.877C142.496 120.601 142.272 120.377 141.996 120.377C141.72 120.377 141.496 120.601 141.496 120.877Z" fill="#22328A" fill-opacity="0.2"/>
<path d="M258.496 133.877C258.496 134.153 258.72 134.377 258.996 134.377C259.272 134.377 259.496 134.153 259.496 133.877C259.496 133.601 259.272 133.377 258.996 133.377C258.72 133.377 258.496 133.601 258.496 133.877Z" fill="#22328A" fill-opacity="0.2"/>
<path d="M245.496 133.877C245.496 134.153 245.72 134.377 245.996 134.377C246.272 134.377 246.496 134.153 246.496 133.877C246.496 133.601 246.272 133.377 245.996 133.377C245.72 133.377 245.496 133.601 245.496 133.877Z" fill="#22328A" fill-opacity="0.2"/>
<path d="M232.496 133.877C232.496 134.153 232.72 134.377 232.996 134.377C233.272 134.377 233.496 134.153 233.496 133.877C233.496 133.601 233.272 133.377 232.996 133.377C232.72 133.377 232.496 133.601 232.496 133.877Z" fill="#22328A" fill-opacity="0.2"/>
<path d="M219.496 133.877C219.496 134.153 219.72 134.377 219.996 134.377C220.272 134.377 220.496 134.153 220.496 133.877C220.496 133.601 220.272 133.377 219.996 133.377C219.72 133.377 219.496 133.601 219.496 133.877Z" fill="#22328A" fill-opacity="0.2"/>
<path d="M206.496 133.877C206.496 134.153 206.72 134.377 206.996 134.377C207.272 134.377 207.496 134.153 207.496 133.877C207.496 133.601 207.272 133.377 206.996 133.377C206.72 133.377 206.496 133.601 206.496 133.877Z" fill="#22328A" fill-opacity="0.2"/>
<path d="M193.496 133.877C193.496 134.153 193.72 134.377 193.996 134.377C194.272 134.377 194.496 134.153 194.496 133.877C194.496 133.601 194.272 133.377 193.996 133.377C193.72 133.377 193.496 133.601 193.496 133.877Z" fill="#22328A" fill-opacity="0.2"/>
<path d="M180.496 133.877C180.496 134.153 180.72 134.377 180.996 134.377C181.272 134.377 181.496 134.153 181.496 133.877C181.496 133.601 181.272 133.377 180.996 133.377C180.72 133.377 180.496 133.601 180.496 133.877Z" fill="#22328A" fill-opacity="0.2"/>
<path d="M167.496 133.877C167.496 134.153 167.72 134.377 167.996 134.377C168.272 134.377 168.496 134.153 168.496 133.877C168.496 133.601 168.272 133.377 167.996 133.377C167.72 133.377 167.496 133.601 167.496 133.877Z" fill="#22328A" fill-opacity="0.2"/>
<path d="M154.496 133.877C154.496 134.153 154.72 134.377 154.996 134.377C155.272 134.377 155.496 134.153 155.496 133.877C155.496 133.601 155.272 133.377 154.996 133.377C154.72 133.377 154.496 133.601 154.496 133.877Z" fill="#22328A" fill-opacity="0.2"/>
<path d="M141.496 133.877C141.496 134.153 141.72 134.377 141.996 134.377C142.272 134.377 142.496 134.153 142.496 133.877C142.496 133.601 142.272 133.377 141.996 133.377C141.72 133.377 141.496 133.601 141.496 133.877Z" fill="#22328A" fill-opacity="0.2"/>
<path d="M258.496 146.877C258.496 147.153 258.72 147.377 258.996 147.377C259.272 147.377 259.496 147.153 259.496 146.877C259.496 146.601 259.272 146.377 258.996 146.377C258.72 146.377 258.496 146.601 258.496 146.877Z" fill="#22328A" fill-opacity="0.2"/>
<path d="M245.496 146.877C245.496 147.153 245.72 147.377 245.996 147.377C246.272 147.377 246.496 147.153 246.496 146.877C246.496 146.601 246.272 146.377 245.996 146.377C245.72 146.377 245.496 146.601 245.496 146.877Z" fill="#22328A" fill-opacity="0.2"/>
<path d="M232.496 146.877C232.496 147.153 232.72 147.377 232.996 147.377C233.272 147.377 233.496 147.153 233.496 146.877C233.496 146.601 233.272 146.377 232.996 146.377C232.72 146.377 232.496 146.601 232.496 146.877Z" fill="#22328A" fill-opacity="0.2"/>
<path d="M219.496 146.877C219.496 147.153 219.72 147.377 219.996 147.377C220.272 147.377 220.496 147.153 220.496 146.877C220.496 146.601 220.272 146.377 219.996 146.377C219.72 146.377 219.496 146.601 219.496 146.877Z" fill="#22328A" fill-opacity="0.2"/>
<path d="M206.496 146.877C206.496 147.153 206.72 147.377 206.996 147.377C207.272 147.377 207.496 147.153 207.496 146.877C207.496 146.601 207.272 146.377 206.996 146.377C206.72 146.377 206.496 146.601 206.496 146.877Z" fill="#22328A" fill-opacity="0.2"/>
<path d="M193.496 146.877C193.496 147.153 193.72 147.377 193.996 147.377C194.272 147.377 194.496 147.153 194.496 146.877C194.496 146.601 194.272 146.377 193.996 146.377C193.72 146.377 193.496 146.601 193.496 146.877Z" fill="#22328A" fill-opacity="0.2"/>
<path d="M180.496 146.877C180.496 147.153 180.72 147.377 180.996 147.377C181.272 147.377 181.496 147.153 181.496 146.877C181.496 146.601 181.272 146.377 180.996 146.377C180.72 146.377 180.496 146.601 180.496 146.877Z" fill="#22328A" fill-opacity="0.2"/>
<path d="M167.496 146.877C167.496 147.153 167.72 147.377 167.996 147.377C168.272 147.377 168.496 147.153 168.496 146.877C168.496 146.601 168.272 146.377 167.996 146.377C167.72 146.377 167.496 146.601 167.496 146.877Z" fill="#22328A" fill-opacity="0.2"/>
<path d="M154.496 146.877C154.496 147.153 154.72 147.377 154.996 147.377C155.272 147.377 155.496 147.153 155.496 146.877C155.496 146.601 155.272 146.377 154.996 146.377C154.72 146.377 154.496 146.601 154.496 146.877Z" fill="#22328A" fill-opacity="0.2"/>
<path d="M141.496 146.877C141.496 147.153 141.72 147.377 141.996 147.377C142.272 147.377 142.496 147.153 142.496 146.877C142.496 146.601 142.272 146.377 141.996 146.377C141.72 146.377 141.496 146.601 141.496 146.877Z" fill="#22328A" fill-opacity="0.2"/>
<path d="M258.496 159.877C258.496 160.153 258.72 160.377 258.996 160.377C259.272 160.377 259.496 160.153 259.496 159.877C259.496 159.601 259.272 159.377 258.996 159.377C258.72 159.377 258.496 159.601 258.496 159.877Z" fill="#22328A" fill-opacity="0.2"/>
<path d="M245.496 159.877C245.496 160.153 245.72 160.377 245.996 160.377C246.272 160.377 246.496 160.153 246.496 159.877C246.496 159.601 246.272 159.377 245.996 159.377C245.72 159.377 245.496 159.601 245.496 159.877Z" fill="#22328A" fill-opacity="0.2"/>
<path d="M232.496 159.877C232.496 160.153 232.72 160.377 232.996 160.377C233.272 160.377 233.496 160.153 233.496 159.877C233.496 159.601 233.272 159.377 232.996 159.377C232.72 159.377 232.496 159.601 232.496 159.877Z" fill="#22328A" fill-opacity="0.2"/>
<path d="M219.496 159.877C219.496 160.153 219.72 160.377 219.996 160.377C220.272 160.377 220.496 160.153 220.496 159.877C220.496 159.601 220.272 159.377 219.996 159.377C219.72 159.377 219.496 159.601 219.496 159.877Z" fill="#22328A" fill-opacity="0.2"/>
<path d="M206.496 159.877C206.496 160.153 206.72 160.377 206.996 160.377C207.272 160.377 207.496 160.153 207.496 159.877C207.496 159.601 207.272 159.377 206.996 159.377C206.72 159.377 206.496 159.601 206.496 159.877Z" fill="#22328A" fill-opacity="0.2"/>
<path d="M193.496 159.877C193.496 160.153 193.72 160.377 193.996 160.377C194.272 160.377 194.496 160.153 194.496 159.877C194.496 159.601 194.272 159.377 193.996 159.377C193.72 159.377 193.496 159.601 193.496 159.877Z" fill="#22328A" fill-opacity="0.2"/>
<path d="M180.496 159.877C180.496 160.153 180.72 160.377 180.996 160.377C181.272 160.377 181.496 160.153 181.496 159.877C181.496 159.601 181.272 159.377 180.996 159.377C180.72 159.377 180.496 159.601 180.496 159.877Z" fill="#22328A" fill-opacity="0.2"/>
<path d="M167.496 159.877C167.496 160.153 167.72 160.377 167.996 160.377C168.272 160.377 168.496 160.153 168.496 159.877C168.496 159.601 168.272 159.377 167.996 159.377C167.72 159.377 167.496 159.601 167.496 159.877Z" fill="#22328A" fill-opacity="0.2"/>
<path d="M154.496 159.877C154.496 160.153 154.72 160.377 154.996 160.377C155.272 160.377 155.496 160.153 155.496 159.877C155.496 159.601 155.272 159.377 154.996 159.377C154.72 159.377 154.496 159.601 154.496 159.877Z" fill="#22328A" fill-opacity="0.2"/>
<path d="M141.496 159.877C141.496 160.153 141.72 160.377 141.996 160.377C142.272 160.377 142.496 160.153 142.496 159.877C142.496 159.601 142.272 159.377 141.996 159.377C141.72 159.377 141.496 159.601 141.496 159.877Z" fill="#22328A" fill-opacity="0.2"/>
<path d="M258.496 172.877C258.496 173.153 258.72 173.377 258.996 173.377C259.272 173.377 259.496 173.153 259.496 172.877C259.496 172.601 259.272 172.377 258.996 172.377C258.72 172.377 258.496 172.601 258.496 172.877Z" fill="#22328A" fill-opacity="0.2"/>
<path d="M245.496 172.877C245.496 173.153 245.72 173.377 245.996 173.377C246.272 173.377 246.496 173.153 246.496 172.877C246.496 172.601 246.272 172.377 245.996 172.377C245.72 172.377 245.496 172.601 245.496 172.877Z" fill="#22328A" fill-opacity="0.2"/>
<path d="M232.496 172.877C232.496 173.153 232.72 173.377 232.996 173.377C233.272 173.377 233.496 173.153 233.496 172.877C233.496 172.601 233.272 172.377 232.996 172.377C232.72 172.377 232.496 172.601 232.496 172.877Z" fill="#22328A" fill-opacity="0.2"/>
<path d="M219.496 172.877C219.496 173.153 219.72 173.377 219.996 173.377C220.272 173.377 220.496 173.153 220.496 172.877C220.496 172.601 220.272 172.377 219.996 172.377C219.72 172.377 219.496 172.601 219.496 172.877Z" fill="#22328A" fill-opacity="0.2"/>
<path d="M206.496 172.877C206.496 173.153 206.72 173.377 206.996 173.377C207.272 173.377 207.496 173.153 207.496 172.877C207.496 172.601 207.272 172.377 206.996 172.377C206.72 172.377 206.496 172.601 206.496 172.877Z" fill="#22328A" fill-opacity="0.2"/>
<path d="M193.496 172.877C193.496 173.153 193.72 173.377 193.996 173.377C194.272 173.377 194.496 173.153 194.496 172.877C194.496 172.601 194.272 172.377 193.996 172.377C193.72 172.377 193.496 172.601 193.496 172.877Z" fill="#22328A" fill-opacity="0.2"/>
<path d="M180.496 172.877C180.496 173.153 180.72 173.377 180.996 173.377C181.272 173.377 181.496 173.153 181.496 172.877C181.496 172.601 181.272 172.377 180.996 172.377C180.72 172.377 180.496 172.601 180.496 172.877Z" fill="#22328A" fill-opacity="0.2"/>
<path d="M167.496 172.877C167.496 173.153 167.72 173.377 167.996 173.377C168.272 173.377 168.496 173.153 168.496 172.877C168.496 172.601 168.272 172.377 167.996 172.377C167.72 172.377 167.496 172.601 167.496 172.877Z" fill="#22328A" fill-opacity="0.2"/>
<path d="M154.496 172.877C154.496 173.153 154.72 173.377 154.996 173.377C155.272 173.377 155.496 173.153 155.496 172.877C155.496 172.601 155.272 172.377 154.996 172.377C154.72 172.377 154.496 172.601 154.496 172.877Z" fill="#22328A" fill-opacity="0.2"/>
<path d="M141.496 172.877C141.496 173.153 141.72 173.377 141.996 173.377C142.272 173.377 142.496 173.153 142.496 172.877C142.496 172.601 142.272 172.377 141.996 172.377C141.72 172.377 141.496 172.601 141.496 172.877Z" fill="#22328A" fill-opacity="0.2"/>
<path d="M258.496 185.877C258.496 186.153 258.72 186.377 258.996 186.377C259.272 186.377 259.496 186.153 259.496 185.877C259.496 185.601 259.272 185.377 258.996 185.377C258.72 185.377 258.496 185.601 258.496 185.877Z" fill="#22328A" fill-opacity="0.2"/>
<path d="M245.496 185.877C245.496 186.153 245.72 186.377 245.996 186.377C246.272 186.377 246.496 186.153 246.496 185.877C246.496 185.601 246.272 185.377 245.996 185.377C245.72 185.377 245.496 185.601 245.496 185.877Z" fill="#22328A" fill-opacity="0.2"/>
<path d="M232.496 185.877C232.496 186.153 232.72 186.377 232.996 186.377C233.272 186.377 233.496 186.153 233.496 185.877C233.496 185.601 233.272 185.377 232.996 185.377C232.72 185.377 232.496 185.601 232.496 185.877Z" fill="#22328A" fill-opacity="0.2"/>
<path d="M219.496 185.877C219.496 186.153 219.72 186.377 219.996 186.377C220.272 186.377 220.496 186.153 220.496 185.877C220.496 185.601 220.272 185.377 219.996 185.377C219.72 185.377 219.496 185.601 219.496 185.877Z" fill="#22328A" fill-opacity="0.2"/>
<path d="M206.496 185.877C206.496 186.153 206.72 186.377 206.996 186.377C207.272 186.377 207.496 186.153 207.496 185.877C207.496 185.601 207.272 185.377 206.996 185.377C206.72 185.377 206.496 185.601 206.496 185.877Z" fill="#22328A" fill-opacity="0.2"/>
<path d="M193.496 185.877C193.496 186.153 193.72 186.377 193.996 186.377C194.272 186.377 194.496 186.153 194.496 185.877C194.496 185.601 194.272 185.377 193.996 185.377C193.72 185.377 193.496 185.601 193.496 185.877Z" fill="#22328A" fill-opacity="0.2"/>
<path d="M180.496 185.877C180.496 186.153 180.72 186.377 180.996 186.377C181.272 186.377 181.496 186.153 181.496 185.877C181.496 185.601 181.272 185.377 180.996 185.377C180.72 185.377 180.496 185.601 180.496 185.877Z" fill="#22328A" fill-opacity="0.2"/>
<path d="M167.496 185.877C167.496 186.153 167.72 186.377 167.996 186.377C168.272 186.377 168.496 186.153 168.496 185.877C168.496 185.601 168.272 185.377 167.996 185.377C167.72 185.377 167.496 185.601 167.496 185.877Z" fill="#22328A" fill-opacity="0.2"/>
<path d="M154.496 185.877C154.496 186.153 154.72 186.377 154.996 186.377C155.272 186.377 155.496 186.153 155.496 185.877C155.496 185.601 155.272 185.377 154.996 185.377C154.72 185.377 154.496 185.601 154.496 185.877Z" fill="#22328A" fill-opacity="0.2"/>
<path d="M141.496 185.877C141.496 186.153 141.72 186.377 141.996 186.377C142.272 186.377 142.496 186.153 142.496 185.877C142.496 185.601 142.272 185.377 141.996 185.377C141.72 185.377 141.496 185.601 141.496 185.877Z" fill="#22328A" fill-opacity="0.2"/>
<path d="M258.496 198.877C258.496 199.153 258.72 199.377 258.996 199.377C259.272 199.377 259.496 199.153 259.496 198.877C259.496 198.601 259.272 198.377 258.996 198.377C258.72 198.377 258.496 198.601 258.496 198.877Z" fill="#22328A" fill-opacity="0.2"/>
<path d="M245.496 198.877C245.496 199.153 245.72 199.377 245.996 199.377C246.272 199.377 246.496 199.153 246.496 198.877C246.496 198.601 246.272 198.377 245.996 198.377C245.72 198.377 245.496 198.601 245.496 198.877Z" fill="#22328A" fill-opacity="0.2"/>
<path d="M232.496 198.877C232.496 199.153 232.72 199.377 232.996 199.377C233.272 199.377 233.496 199.153 233.496 198.877C233.496 198.601 233.272 198.377 232.996 198.377C232.72 198.377 232.496 198.601 232.496 198.877Z" fill="#22328A" fill-opacity="0.2"/>
<path d="M219.496 198.877C219.496 199.153 219.72 199.377 219.996 199.377C220.272 199.377 220.496 199.153 220.496 198.877C220.496 198.601 220.272 198.377 219.996 198.377C219.72 198.377 219.496 198.601 219.496 198.877Z" fill="#22328A" fill-opacity="0.2"/>
<path d="M206.496 198.877C206.496 199.153 206.72 199.377 206.996 199.377C207.272 199.377 207.496 199.153 207.496 198.877C207.496 198.601 207.272 198.377 206.996 198.377C206.72 198.377 206.496 198.601 206.496 198.877Z" fill="#22328A" fill-opacity="0.2"/>
<path d="M193.496 198.877C193.496 199.153 193.72 199.377 193.996 199.377C194.272 199.377 194.496 199.153 194.496 198.877C194.496 198.601 194.272 198.377 193.996 198.377C193.72 198.377 193.496 198.601 193.496 198.877Z" fill="#22328A" fill-opacity="0.2"/>
<path d="M180.496 198.877C180.496 199.153 180.72 199.377 180.996 199.377C181.272 199.377 181.496 199.153 181.496 198.877C181.496 198.601 181.272 198.377 180.996 198.377C180.72 198.377 180.496 198.601 180.496 198.877Z" fill="#22328A" fill-opacity="0.2"/>
<path d="M167.496 198.877C167.496 199.153 167.72 199.377 167.996 199.377C168.272 199.377 168.496 199.153 168.496 198.877C168.496 198.601 168.272 198.377 167.996 198.377C167.72 198.377 167.496 198.601 167.496 198.877Z" fill="#22328A" fill-opacity="0.2"/>
<path d="M154.496 198.877C154.496 199.153 154.72 199.377 154.996 199.377C155.272 199.377 155.496 199.153 155.496 198.877C155.496 198.601 155.272 198.377 154.996 198.377C154.72 198.377 154.496 198.601 154.496 198.877Z" fill="#22328A" fill-opacity="0.2"/>
<path d="M141.496 198.877C141.496 199.153 141.72 199.377 141.996 199.377C142.272 199.377 142.496 199.153 142.496 198.877C142.496 198.601 142.272 198.377 141.996 198.377C141.72 198.377 141.496 198.601 141.496 198.877Z" fill="#22328A" fill-opacity="0.2"/>
<path d="M258.496 211.877C258.496 212.153 258.72 212.377 258.996 212.377C259.272 212.377 259.496 212.153 259.496 211.877C259.496 211.601 259.272 211.377 258.996 211.377C258.72 211.377 258.496 211.601 258.496 211.877Z" fill="#22328A" fill-opacity="0.2"/>
<path d="M245.496 211.877C245.496 212.153 245.72 212.377 245.996 212.377C246.272 212.377 246.496 212.153 246.496 211.877C246.496 211.601 246.272 211.377 245.996 211.377C245.72 211.377 245.496 211.601 245.496 211.877Z" fill="#22328A" fill-opacity="0.2"/>
<path d="M232.496 211.877C232.496 212.153 232.72 212.377 232.996 212.377C233.272 212.377 233.496 212.153 233.496 211.877C233.496 211.601 233.272 211.377 232.996 211.377C232.72 211.377 232.496 211.601 232.496 211.877Z" fill="#22328A" fill-opacity="0.2"/>
<path d="M219.496 211.877C219.496 212.153 219.72 212.377 219.996 212.377C220.272 212.377 220.496 212.153 220.496 211.877C220.496 211.601 220.272 211.377 219.996 211.377C219.72 211.377 219.496 211.601 219.496 211.877Z" fill="#22328A" fill-opacity="0.2"/>
<path d="M206.496 211.877C206.496 212.153 206.72 212.377 206.996 212.377C207.272 212.377 207.496 212.153 207.496 211.877C207.496 211.601 207.272 211.377 206.996 211.377C206.72 211.377 206.496 211.601 206.496 211.877Z" fill="#22328A" fill-opacity="0.2"/>
<path d="M193.496 211.877C193.496 212.153 193.72 212.377 193.996 212.377C194.272 212.377 194.496 212.153 194.496 211.877C194.496 211.601 194.272 211.377 193.996 211.377C193.72 211.377 193.496 211.601 193.496 211.877Z" fill="#22328A" fill-opacity="0.2"/>
<path d="M180.496 211.877C180.496 212.153 180.72 212.377 180.996 212.377C181.272 212.377 181.496 212.153 181.496 211.877C181.496 211.601 181.272 211.377 180.996 211.377C180.72 211.377 180.496 211.601 180.496 211.877Z" fill="#22328A" fill-opacity="0.2"/>
<path d="M167.496 211.877C167.496 212.153 167.72 212.377 167.996 212.377C168.272 212.377 168.496 212.153 168.496 211.877C168.496 211.601 168.272 211.377 167.996 211.377C167.72 211.377 167.496 211.601 167.496 211.877Z" fill="#22328A" fill-opacity="0.2"/>
<path d="M154.496 211.877C154.496 212.153 154.72 212.377 154.996 212.377C155.272 212.377 155.496 212.153 155.496 211.877C155.496 211.601 155.272 211.377 154.996 211.377C154.72 211.377 154.496 211.601 154.496 211.877Z" fill="#22328A" fill-opacity="0.2"/>
<path d="M141.496 211.877C141.496 212.153 141.72 212.377 141.996 212.377C142.272 212.377 142.496 212.153 142.496 211.877C142.496 211.601 142.272 211.377 141.996 211.377C141.72 211.377 141.496 211.601 141.496 211.877Z" fill="#22328A" fill-opacity="0.2"/>
<path d="M258.496 224.877C258.496 225.153 258.72 225.377 258.996 225.377C259.272 225.377 259.496 225.153 259.496 224.877C259.496 224.601 259.272 224.377 258.996 224.377C258.72 224.377 258.496 224.601 258.496 224.877Z" fill="#22328A" fill-opacity="0.2"/>
<path d="M245.496 224.877C245.496 225.153 245.72 225.377 245.996 225.377C246.272 225.377 246.496 225.153 246.496 224.877C246.496 224.601 246.272 224.377 245.996 224.377C245.72 224.377 245.496 224.601 245.496 224.877Z" fill="#22328A" fill-opacity="0.2"/>
<path d="M232.496 224.877C232.496 225.153 232.72 225.377 232.996 225.377C233.272 225.377 233.496 225.153 233.496 224.877C233.496 224.601 233.272 224.377 232.996 224.377C232.72 224.377 232.496 224.601 232.496 224.877Z" fill="#22328A" fill-opacity="0.2"/>
<path d="M219.496 224.877C219.496 225.153 219.72 225.377 219.996 225.377C220.272 225.377 220.496 225.153 220.496 224.877C220.496 224.601 220.272 224.377 219.996 224.377C219.72 224.377 219.496 224.601 219.496 224.877Z" fill="#22328A" fill-opacity="0.2"/>
<path d="M206.496 224.877C206.496 225.153 206.72 225.377 206.996 225.377C207.272 225.377 207.496 225.153 207.496 224.877C207.496 224.601 207.272 224.377 206.996 224.377C206.72 224.377 206.496 224.601 206.496 224.877Z" fill="#22328A" fill-opacity="0.2"/>
<path d="M193.496 224.877C193.496 225.153 193.72 225.377 193.996 225.377C194.272 225.377 194.496 225.153 194.496 224.877C194.496 224.601 194.272 224.377 193.996 224.377C193.72 224.377 193.496 224.601 193.496 224.877Z" fill="#22328A" fill-opacity="0.2"/>
<path d="M180.496 224.877C180.496 225.153 180.72 225.377 180.996 225.377C181.272 225.377 181.496 225.153 181.496 224.877C181.496 224.601 181.272 224.377 180.996 224.377C180.72 224.377 180.496 224.601 180.496 224.877Z" fill="#22328A" fill-opacity="0.2"/>
<path d="M167.496 224.877C167.496 225.153 167.72 225.377 167.996 225.377C168.272 225.377 168.496 225.153 168.496 224.877C168.496 224.601 168.272 224.377 167.996 224.377C167.72 224.377 167.496 224.601 167.496 224.877Z" fill="#22328A" fill-opacity="0.2"/>
<path d="M154.496 224.877C154.496 225.153 154.72 225.377 154.996 225.377C155.272 225.377 155.496 225.153 155.496 224.877C155.496 224.601 155.272 224.377 154.996 224.377C154.72 224.377 154.496 224.601 154.496 224.877Z" fill="#22328A" fill-opacity="0.2"/>
<path d="M141.496 224.877C141.496 225.153 141.72 225.377 141.996 225.377C142.272 225.377 142.496 225.153 142.496 224.877C142.496 224.601 142.272 224.377 141.996 224.377C141.72 224.377 141.496 224.601 141.496 224.877Z" fill="#22328A" fill-opacity="0.2"/>
</g>
<rect x="-73.0039" y="65.877" width="94" height="94" rx="7.5" fill="url(#paint2_linear_1_3963)" stroke="#E3E0FD"/>
<rect x="37.9961" y="65.877" width="94" height="94" rx="7.5" fill="url(#paint3_linear_1_3963)" stroke="#E3E0FD"/>
<rect x="148.996" y="65.877" width="94" height="94" rx="7.5" fill="url(#paint4_linear_1_3963)" stroke="#E3E0FD"/>
<rect x="259.996" y="65.877" width="94" height="94" rx="7.5" fill="url(#paint5_linear_1_3963)" stroke="#E3E0FD"/>
<g clip-path="url(#clip2_1_3963)">
<g clip-path="url(#clip3_1_3963)">
<g clip-path="url(#clip4_1_3963)">
<path d="M223.996 158.377V64.377C223.996 59.6826 220.19 55.877 215.496 55.877H112.54C109.359 55.877 106.256 54.8988 103.651 53.0751L91.9147 44.8596C89.1413 42.9183 85.8379 41.877 82.4525 41.877H55.4961C50.8017 41.877 46.9961 45.6825 46.9961 50.377V158.377C46.9961 163.071 50.8017 166.877 55.4961 166.877H215.496C220.19 166.877 223.996 163.071 223.996 158.377Z" stroke="#0E0948" stroke-opacity="0.04"/>
<g filter="url(#filter0_di_1_3963)">
<path d="M47.4961 50.377C47.4961 45.9587 51.0778 42.377 55.4961 42.377H82.4525C85.7353 42.377 88.9386 43.3867 91.6279 45.2692L103.364 53.4847C106.054 55.3672 109.257 56.377 112.54 56.377H215.496C219.914 56.377 223.496 59.9587 223.496 64.377V158.377C223.496 162.795 219.914 166.377 215.496 166.377H55.4961C51.0778 166.377 47.4961 162.795 47.4961 158.377V50.377Z" fill="url(#paint6_linear_1_3963)"/>
</g>
</g>
</g>
</g>
<rect x="57.4961" y="65.377" width="2" height="68" rx="1" fill="#D9D9D9"/>
<rect x="57.9961" y="65.877" width="1" height="67" rx="0.5" stroke="#0E0948" stroke-opacity="0.04"/>
<rect x="65.4961" y="65.377" width="79.75" height="68" rx="4" fill="url(#paint7_linear_1_3963)"/>
<rect x="65.4961" y="65.377" width="79.75" height="68" rx="4" fill="url(#paint8_radial_1_3963)"/>
<rect x="65.9961" y="65.877" width="78.75" height="67" rx="3.5" stroke="#0E0948" stroke-opacity="0.04"/>
<rect x="151.246" y="65.377" width="62.25" height="68" rx="4" fill="url(#paint9_linear_1_3963)"/>
<rect x="151.246" y="65.377" width="62.25" height="68" rx="4" fill="url(#paint10_radial_1_3963)"/>
<rect x="151.746" y="65.877" width="61.25" height="67" rx="3.5" stroke="#0E0948" stroke-opacity="0.04"/>
<rect x="45.9961" y="80.877" width="179" height="88" rx="7.5" fill="url(#paint11_linear_1_3963)"/>
<rect x="45.9961" y="80.877" width="179" height="88" rx="7.5" fill="url(#paint12_radial_1_3963)"/>
<rect x="45.9961" y="80.877" width="179" height="88" rx="7.5" stroke="#E8E7EB"/>
<mask id="path-296-inside-1_1_3963" fill="white">
<path d="M135.496 81.377H224.496V168.377H135.496V81.377Z"/>
</mask>
<path d="M136.496 168.377V81.377H134.496V168.377H136.496Z" fill="#0E0948" fill-opacity="0.06" mask="url(#path-296-inside-1_1_3963)"/>
<rect x="136.496" y="128.377" width="88" height="1" fill="#0E0948" fill-opacity="0.04"/>
<path d="M59.6751 142.377H58.7518L61.4222 135.104H62.3313L65.0018 142.377H64.0785L61.9052 136.255H61.8484L59.6751 142.377ZM60.016 139.536H63.7376V140.317H60.016V139.536ZM69.8846 138.144L69.1317 138.357C69.0844 138.232 69.0146 138.11 68.9222 137.991C68.8323 137.871 68.7092 137.771 68.5529 137.693C68.3967 137.615 68.1966 137.576 67.9528 137.576C67.619 137.576 67.3408 137.653 67.1183 137.807C66.8981 137.958 66.788 138.151 66.788 138.385C66.788 138.594 66.8638 138.758 67.0153 138.879C67.1668 139 67.4035 139.1 67.7255 139.181L68.5352 139.38C69.0228 139.498 69.3862 139.679 69.6254 139.923C69.8645 140.165 69.984 140.476 69.984 140.857C69.984 141.17 69.8941 141.449 69.7141 141.695C69.5366 141.941 69.288 142.135 68.9684 142.278C68.6488 142.42 68.2771 142.491 67.8533 142.491C67.297 142.491 66.8365 142.37 66.4719 142.128C66.1074 141.887 65.8765 141.534 65.7795 141.07L66.5749 140.871C66.6507 141.165 66.7939 141.385 67.0046 141.532C67.2177 141.679 67.4959 141.752 67.8391 141.752C68.2298 141.752 68.5399 141.669 68.7695 141.503C69.0015 141.335 69.1175 141.134 69.1175 140.9C69.1175 140.71 69.0513 140.552 68.9187 140.424C68.7861 140.294 68.5825 140.197 68.3079 140.133L67.3988 139.92C66.8993 139.801 66.5323 139.618 66.2979 139.369C66.0659 139.118 65.9499 138.805 65.9499 138.428C65.9499 138.12 66.0363 137.848 66.2092 137.611C66.3844 137.375 66.6223 137.189 66.9229 137.054C67.226 136.919 67.5692 136.851 67.9528 136.851C68.4925 136.851 68.9163 136.97 69.2241 137.206C69.5342 137.443 69.7544 137.756 69.8846 138.144ZM75.1092 138.144L74.3564 138.357C74.309 138.232 74.2392 138.11 74.1468 137.991C74.0569 137.871 73.9338 137.771 73.7775 137.693C73.6213 137.615 73.4212 137.576 73.1774 137.576C72.8436 137.576 72.5654 137.653 72.3429 137.807C72.1227 137.958 72.0126 138.151 72.0126 138.385C72.0126 138.594 72.0884 138.758 72.2399 138.879C72.3914 139 72.6281 139.1 72.9501 139.181L73.7598 139.38C74.2475 139.498 74.6109 139.679 74.85 139.923C75.0891 140.165 75.2086 140.476 75.2086 140.857C75.2086 141.17 75.1187 141.449 74.9387 141.695C74.7612 141.941 74.5126 142.135 74.193 142.278C73.8734 142.42 73.5017 142.491 73.0779 142.491C72.5216 142.491 72.0611 142.37 71.6966 142.128C71.332 141.887 71.1011 141.534 71.0041 141.07L71.7995 140.871C71.8753 141.165 72.0185 141.385 72.2292 141.532C72.4423 141.679 72.7205 141.752 73.0637 141.752C73.4544 141.752 73.7645 141.669 73.9941 141.503C74.2261 141.335 74.3422 141.134 74.3422 140.9C74.3422 140.71 74.2759 140.552 74.1433 140.424C74.0107 140.294 73.8071 140.197 73.5325 140.133L72.6234 139.92C72.1239 139.801 71.7569 139.618 71.5225 139.369C71.2905 139.118 71.1745 138.805 71.1745 138.428C71.1745 138.12 71.2609 137.848 71.4338 137.611C71.609 137.375 71.8469 137.189 72.1475 137.054C72.4506 136.919 72.7939 136.851 73.1774 136.851C73.7172 136.851 74.1409 136.97 74.4487 137.206C74.7588 137.443 74.979 137.756 75.1092 138.144ZM78.7571 142.491C78.2315 142.491 77.7782 142.375 77.397 142.143C77.0182 141.908 76.7259 141.581 76.5199 141.162C76.3163 140.741 76.2145 140.251 76.2145 139.692C76.2145 139.134 76.3163 138.641 76.5199 138.215C76.7259 137.787 77.0123 137.453 77.3793 137.214C77.7486 136.972 78.1795 136.851 78.6719 136.851C78.956 136.851 79.2365 136.899 79.5135 136.993C79.7905 137.088 80.0426 137.242 80.2699 137.455C80.4972 137.666 80.6783 137.945 80.8132 138.293C80.9482 138.641 81.0156 139.07 81.0156 139.579V139.934H76.8111V139.209H80.1634C80.1634 138.902 80.1018 138.627 79.9787 138.385C79.858 138.144 79.6851 137.953 79.4602 137.814C79.2377 137.674 78.9749 137.604 78.6719 137.604C78.3381 137.604 78.0492 137.687 77.8054 137.853C77.5639 138.016 77.3781 138.229 77.2479 138.492C77.1177 138.755 77.0526 139.037 77.0526 139.337V139.82C77.0526 140.232 77.1236 140.581 77.2656 140.868C77.41 141.152 77.6101 141.368 77.8658 141.518C78.1214 141.664 78.4186 141.738 78.7571 141.738C78.9773 141.738 79.1761 141.707 79.3537 141.645C79.5336 141.581 79.6887 141.487 79.8189 141.361C79.9491 141.233 80.0497 141.075 80.1207 140.885L80.9304 141.113C80.8452 141.387 80.7019 141.629 80.5007 141.837C80.2995 142.043 80.0509 142.204 79.755 142.32C79.459 142.434 79.1264 142.491 78.7571 142.491ZM84.6626 136.922V137.633H81.8359V136.922H84.6626ZM82.6598 135.616H83.4979V140.814C83.4979 141.051 83.5322 141.229 83.6009 141.347C83.6719 141.463 83.7618 141.541 83.8707 141.581C83.982 141.619 84.0992 141.638 84.2223 141.638C84.3146 141.638 84.3904 141.634 84.4496 141.624C84.5088 141.612 84.5561 141.603 84.5916 141.596L84.7621 142.349C84.7053 142.37 84.6259 142.391 84.5241 142.412C84.4223 142.436 84.2933 142.448 84.1371 142.448C83.9003 142.448 83.6683 142.397 83.4411 142.295C83.2161 142.193 83.0291 142.038 82.88 141.83C82.7332 141.622 82.6598 141.359 82.6598 141.042V135.616ZM89.6893 138.144L88.9364 138.357C88.8891 138.232 88.8192 138.11 88.7269 137.991C88.637 137.871 88.5138 137.771 88.3576 137.693C88.2013 137.615 88.0013 137.576 87.7575 137.576C87.4237 137.576 87.1455 137.653 86.9229 137.807C86.7028 137.958 86.5927 138.151 86.5927 138.385C86.5927 138.594 86.6684 138.758 86.82 138.879C86.9715 139 87.2082 139.1 87.5302 139.181L88.3398 139.38C88.8275 139.498 89.1909 139.679 89.43 139.923C89.6692 140.165 89.7887 140.476 89.7887 140.857C89.7887 141.17 89.6987 141.449 89.5188 141.695C89.3413 141.941 89.0927 142.135 88.7731 142.278C88.4535 142.42 88.0818 142.491 87.658 142.491C87.1017 142.491 86.6412 142.37 86.2766 142.128C85.9121 141.887 85.6812 141.534 85.5842 141.07L86.3796 140.871C86.4554 141.165 86.5986 141.385 86.8093 141.532C87.0224 141.679 87.3005 141.752 87.6438 141.752C88.0344 141.752 88.3446 141.669 88.5742 141.503C88.8062 141.335 88.9222 141.134 88.9222 140.9C88.9222 140.71 88.8559 140.552 88.7234 140.424C88.5908 140.294 88.3872 140.197 88.1126 140.133L87.2035 139.92C86.704 139.801 86.337 139.618 86.1026 139.369C85.8706 139.118 85.7546 138.805 85.7546 138.428C85.7546 138.12 85.841 137.848 86.0138 137.611C86.189 137.375 86.427 137.189 86.7276 137.054C87.0307 136.919 87.3739 136.851 87.7575 136.851C88.2972 136.851 88.721 136.97 89.0288 137.206C89.3389 137.443 89.5591 137.756 89.6893 138.144Z" fill="#0E0948" fill-opacity="0.36"/>
<path d="M60.9677 149.334C61.2234 149.334 61.4577 149.372 61.6708 149.448C61.8862 149.521 62.0804 149.618 62.2532 149.739C62.4284 149.858 62.5823 149.983 62.7148 150.116C62.8001 150.194 62.8782 150.274 62.9492 150.357C63.0226 150.44 63.0913 150.52 63.1552 150.599C63.212 150.52 63.2724 150.443 63.3363 150.368C63.4002 150.292 63.4819 150.208 63.5813 150.116C63.7802 149.917 64.0252 149.737 64.3164 149.576C64.61 149.415 64.9521 149.334 65.3427 149.334C65.7025 149.334 66.0292 149.422 66.3228 149.597C66.6187 149.77 66.8531 150.004 67.0259 150.3C67.2011 150.594 67.2887 150.921 67.2887 151.28C67.2887 151.553 67.2378 151.808 67.136 152.047C67.0366 152.284 66.8981 152.492 66.7205 152.672C66.543 152.85 66.3358 152.99 66.0991 153.091C65.8647 153.191 65.6126 153.241 65.3427 153.241C65.0823 153.241 64.8432 153.204 64.6254 153.131C64.4099 153.055 64.2146 152.959 64.0394 152.843C63.8666 152.724 63.7139 152.601 63.5813 152.474C63.4961 152.388 63.418 152.304 63.3469 152.221C63.2759 152.136 63.212 152.055 63.1552 151.976C63.0913 152.055 63.0226 152.136 62.9492 152.221C62.8782 152.304 62.8001 152.388 62.7148 152.474C62.5823 152.601 62.4284 152.724 62.2532 152.843C62.0804 152.959 61.8862 153.055 61.6708 153.131C61.4577 153.204 61.2234 153.241 60.9677 153.241C60.6031 153.241 60.2728 153.153 59.9769 152.978C59.681 152.803 59.4454 152.567 59.2702 152.271C59.0951 151.975 59.0075 151.645 59.0075 151.28C59.0075 151.01 59.0572 150.758 59.1566 150.524C59.2584 150.287 59.3981 150.08 59.5756 149.903C59.7556 149.725 59.9639 149.586 60.2006 149.487C60.4397 149.385 60.6954 149.334 60.9677 149.334ZM59.8171 151.28C59.8171 151.493 59.868 151.688 59.9698 151.863C60.074 152.036 60.2125 152.174 60.3853 152.278C60.5605 152.38 60.7546 152.431 60.9677 152.431C61.2021 152.431 61.4163 152.378 61.6104 152.271C61.8046 152.165 61.9833 152.033 62.1467 151.877C62.2532 151.77 62.3467 151.667 62.4272 151.568C62.5077 151.469 62.5799 151.373 62.6438 151.28C62.5799 151.195 62.5089 151.104 62.4308 151.007C62.355 150.907 62.2603 150.805 62.1467 150.698C61.9904 150.542 61.8129 150.41 61.614 150.304C61.4175 150.197 61.2021 150.144 60.9677 150.144C60.7546 150.144 60.5605 150.196 60.3853 150.3C60.2125 150.402 60.074 150.539 59.9698 150.712C59.868 150.883 59.8171 151.072 59.8171 151.28ZM66.479 151.28C66.479 151.072 66.427 150.883 66.3228 150.712C66.221 150.539 66.0837 150.402 65.9109 150.3C65.7404 150.196 65.551 150.144 65.3427 150.144C65.1817 150.144 65.0302 150.169 64.8881 150.219C64.7461 150.266 64.6135 150.332 64.4904 150.417C64.3673 150.5 64.2537 150.594 64.1495 150.698C64.0217 150.819 63.9151 150.936 63.8299 151.05C63.747 151.161 63.6879 151.238 63.6523 151.28C63.7163 151.373 63.7885 151.469 63.869 151.568C63.9495 151.667 64.043 151.77 64.1495 151.877C64.3129 152.033 64.4916 152.165 64.6857 152.271C64.8822 152.378 65.1012 152.431 65.3427 152.431C65.551 152.431 65.7404 152.38 65.9109 152.278C66.0837 152.174 66.221 152.036 66.3228 151.863C66.427 151.688 66.479 151.493 66.479 151.28ZM76.4675 149.377C76.3894 149.138 76.2864 148.924 76.1586 148.734C76.0331 148.542 75.8828 148.379 75.7076 148.244C75.5347 148.109 75.3382 148.006 75.1181 147.935C74.8979 147.864 74.6564 147.829 74.3936 147.829C73.9628 147.829 73.571 147.94 73.2182 148.162C72.8655 148.385 72.5849 148.713 72.3766 149.146C72.1683 149.579 72.0641 150.111 72.0641 150.741C72.0641 151.37 72.1694 151.902 72.3801 152.335C72.5908 152.768 72.8761 153.096 73.236 153.319C73.5958 153.541 74.0007 153.653 74.4505 153.653C74.8671 153.653 75.2341 153.564 75.5513 153.386C75.8709 153.206 76.1195 152.953 76.2971 152.626C76.477 152.297 76.5669 151.91 76.5669 151.465L76.8368 151.522H74.6493V150.741H77.4192V151.522C77.4192 152.121 77.2914 152.642 77.0357 153.084C76.7824 153.527 76.432 153.87 75.9846 154.114C75.5395 154.356 75.0281 154.476 74.4505 154.476C73.8065 154.476 73.2407 154.325 72.753 154.022C72.2677 153.719 71.8889 153.288 71.6167 152.729C71.3468 152.171 71.2118 151.508 71.2118 150.741C71.2118 150.165 71.2888 149.648 71.4426 149.189C71.5989 148.727 71.8191 148.334 72.1032 148.01C72.3873 147.685 72.7234 147.437 73.1117 147.264C73.4999 147.091 73.9273 147.005 74.3936 147.005C74.7772 147.005 75.1346 147.063 75.4661 147.179C75.7999 147.292 76.097 147.455 76.3574 147.665C76.6202 147.874 76.8392 148.123 77.0144 148.415C77.1896 148.703 77.3103 149.024 77.3766 149.377H76.4675ZM78.9276 154.377V147.104H79.7656V149.789H79.8366C79.8982 149.694 79.9834 149.573 80.0923 149.427C80.2036 149.278 80.3622 149.145 80.5682 149.029C80.7765 148.911 81.0582 148.851 81.4134 148.851C81.8726 148.851 82.2775 148.966 82.6278 149.196C82.9782 149.425 83.2517 149.751 83.4482 150.172C83.6446 150.594 83.7429 151.091 83.7429 151.664C83.7429 152.242 83.6446 152.742 83.4482 153.166C83.2517 153.587 82.9794 153.914 82.6314 154.146C82.2834 154.376 81.8821 154.491 81.4276 154.491C81.0772 154.491 80.7966 154.433 80.5859 154.317C80.3752 154.198 80.2131 154.064 80.0994 153.915C79.9858 153.764 79.8982 153.638 79.8366 153.539H79.7372V154.377H78.9276ZM79.7514 151.65C79.7514 152.062 79.8118 152.425 79.9325 152.74C80.0533 153.052 80.2296 153.297 80.4616 153.475C80.6937 153.65 80.9777 153.738 81.3139 153.738C81.6643 153.738 81.9567 153.645 82.1911 153.461C82.4278 153.274 82.6054 153.023 82.7237 152.708C82.8445 152.391 82.9048 152.038 82.9048 151.65C82.9048 151.266 82.8456 150.921 82.7273 150.613C82.6113 150.303 82.4349 150.058 82.1982 149.878C81.9638 149.695 81.669 149.604 81.3139 149.604C80.973 149.604 80.6866 149.691 80.4545 149.863C80.2225 150.034 80.0473 150.273 79.929 150.581C79.8106 150.886 79.7514 151.242 79.7514 151.65ZM88.8885 150.144L88.1357 150.357C88.0883 150.232 88.0185 150.11 87.9261 149.991C87.8362 149.871 87.7131 149.771 87.5568 149.693C87.4006 149.615 87.2005 149.576 86.9567 149.576C86.6229 149.576 86.3447 149.653 86.1222 149.807C85.902 149.958 85.7919 150.151 85.7919 150.385C85.7919 150.594 85.8677 150.758 86.0192 150.879C86.1707 151 86.4074 151.1 86.7294 151.181L87.5391 151.38C88.0268 151.498 88.3902 151.679 88.6293 151.923C88.8684 152.165 88.9879 152.476 88.9879 152.857C88.9879 153.17 88.898 153.449 88.718 153.695C88.5405 153.941 88.2919 154.135 87.9723 154.278C87.6527 154.42 87.281 154.491 86.8572 154.491C86.3009 154.491 85.8404 154.37 85.4759 154.128C85.1113 153.887 84.8804 153.534 84.7834 153.07L85.5788 152.871C85.6546 153.165 85.7978 153.385 86.0085 153.532C86.2216 153.679 86.4998 153.752 86.843 153.752C87.2337 153.752 87.5438 153.669 87.7734 153.503C88.0054 153.335 88.1214 153.134 88.1214 152.9C88.1214 152.71 88.0552 152.552 87.9226 152.424C87.79 152.294 87.5864 152.197 87.3118 152.133L86.4027 151.92C85.9032 151.801 85.5362 151.618 85.3018 151.369C85.0698 151.118 84.9538 150.805 84.9538 150.428C84.9538 150.12 85.0402 149.848 85.2131 149.611C85.3883 149.375 85.6262 149.189 85.9268 149.054C86.2299 148.919 86.5732 148.851 86.9567 148.851C87.4964 148.851 87.9202 148.97 88.228 149.206C88.5381 149.443 88.7583 149.756 88.8885 150.144ZM95.4909 148.922V149.633H92.5506V148.922H95.4909ZM93.4313 154.377V148.17C93.4313 147.857 93.5047 147.597 93.6515 147.388C93.7982 147.18 93.9888 147.024 94.2232 146.92C94.4576 146.815 94.705 146.763 94.9654 146.763C95.1713 146.763 95.3394 146.78 95.4696 146.813C95.5998 146.846 95.6969 146.877 95.7608 146.905L95.5194 147.63C95.4767 147.616 95.4176 147.598 95.3418 147.577C95.2684 147.555 95.1713 147.545 95.0506 147.545C94.7736 147.545 94.5736 147.614 94.4505 147.754C94.3297 147.894 94.2694 148.099 94.2694 148.368V154.377H93.4313ZM96.6655 154.377V148.922H97.5036V154.377H96.6655ZM97.0916 148.013C96.9283 148.013 96.7874 147.958 96.669 147.846C96.553 147.735 96.495 147.601 96.495 147.445C96.495 147.289 96.553 147.155 96.669 147.044C96.7874 146.933 96.9283 146.877 97.0916 146.877C97.255 146.877 97.3946 146.933 97.5107 147.044C97.629 147.155 97.6882 147.289 97.6882 147.445C97.6882 147.601 97.629 147.735 97.5107 147.846C97.3946 147.958 97.255 148.013 97.0916 148.013ZM99.8766 147.104V154.377H99.0385V147.104H99.8766ZM103.699 154.491C103.173 154.491 102.72 154.375 102.338 154.143C101.96 153.908 101.667 153.581 101.461 153.162C101.258 152.741 101.156 152.251 101.156 151.692C101.156 151.134 101.258 150.641 101.461 150.215C101.667 149.787 101.954 149.453 102.321 149.214C102.69 148.972 103.121 148.851 103.613 148.851C103.897 148.851 104.178 148.899 104.455 148.993C104.732 149.088 104.984 149.242 105.211 149.455C105.439 149.666 105.62 149.945 105.755 150.293C105.89 150.641 105.957 151.07 105.957 151.579V151.934H101.752V151.209H105.105C105.105 150.902 105.043 150.627 104.92 150.385C104.799 150.144 104.627 149.953 104.402 149.814C104.179 149.674 103.916 149.604 103.613 149.604C103.279 149.604 102.991 149.687 102.747 149.853C102.505 150.016 102.319 150.229 102.189 150.492C102.059 150.755 101.994 151.037 101.994 151.337V151.82C101.994 152.232 102.065 152.581 102.207 152.868C102.351 153.152 102.551 153.368 102.807 153.518C103.063 153.664 103.36 153.738 103.699 153.738C103.919 153.738 104.118 153.707 104.295 153.645C104.475 153.581 104.63 153.487 104.76 153.361C104.891 153.233 104.991 153.075 105.062 152.885L105.872 153.113C105.787 153.387 105.643 153.629 105.442 153.837C105.241 154.043 104.992 154.204 104.696 154.32C104.4 154.434 104.068 154.491 103.699 154.491ZM111.096 150.144L110.343 150.357C110.295 150.232 110.225 150.11 110.133 149.991C110.043 149.871 109.92 149.771 109.764 149.693C109.608 149.615 109.408 149.576 109.164 149.576C108.83 149.576 108.552 149.653 108.329 149.807C108.109 149.958 107.999 150.151 107.999 150.385C107.999 150.594 108.075 150.758 108.226 150.879C108.378 151 108.614 151.1 108.936 151.181L109.746 151.38C110.234 151.498 110.597 151.679 110.836 151.923C111.075 152.165 111.195 152.476 111.195 152.857C111.195 153.17 111.105 153.449 110.925 153.695C110.748 153.941 110.499 154.135 110.179 154.278C109.86 154.42 109.488 154.491 109.064 154.491C108.508 154.491 108.047 154.37 107.683 154.128C107.318 153.887 107.087 153.534 106.99 153.07L107.786 152.871C107.862 153.165 108.005 153.385 108.216 153.532C108.429 153.679 108.707 153.752 109.05 153.752C109.441 153.752 109.751 153.669 109.98 153.503C110.212 153.335 110.328 153.134 110.328 152.9C110.328 152.71 110.262 152.552 110.13 152.424C109.997 152.294 109.793 152.197 109.519 152.133L108.61 151.92C108.11 151.801 107.743 151.618 107.509 151.369C107.277 151.118 107.161 150.805 107.161 150.428C107.161 150.12 107.247 149.848 107.42 149.611C107.595 149.375 107.833 149.189 108.134 149.054C108.437 148.919 108.78 148.851 109.164 148.851C109.703 148.851 110.127 148.97 110.435 149.206C110.745 149.443 110.965 149.756 111.096 150.144Z" fill="#0E0948" fill-opacity="0.24"/>
</g>
<rect x="0.996094" y="0.876953" width="269" height="279" rx="11.5" stroke="#ECE6FF"/>
<defs>
<filter id="filter0_di_1_3963" x="45.4961" y="41.377" width="180" height="128" filterUnits="userSpaceOnUse" color-interpolation-filters="sRGB">
<feFlood flood-opacity="0" result="BackgroundImageFix"/>
<feColorMatrix in="SourceAlpha" type="matrix" values="0 0 0 0 0 0 0 0 0 0 0 0 0 0 0 0 0 0 127 0" result="hardAlpha"/>
<feOffset dy="1"/>
<feGaussianBlur stdDeviation="1"/>
<feComposite in2="hardAlpha" operator="out"/>
<feColorMatrix type="matrix" values="0 0 0 0 0.056512 0 0 0 0 0.0368 0 0 0 0 0.2832 0 0 0 0.08 0"/>
<feBlend mode="normal" in2="BackgroundImageFix" result="effect1_dropShadow_1_3963"/>
<feBlend mode="normal" in="SourceGraphic" in2="effect1_dropShadow_1_3963" result="shape"/>
<feColorMatrix in="SourceAlpha" type="matrix" values="0 0 0 0 0 0 0 0 0 0 0 0 0 0 0 0 0 0 127 0" result="hardAlpha"/>
<feOffset/>
<feGaussianBlur stdDeviation="2"/>
<feComposite in2="hardAlpha" operator="arithmetic" k2="-1" k3="1"/>
<feColorMatrix type="matrix" values="0 0 0 0 0.056512 0 0 0 0 0.0368 0 0 0 0 0.2832 0 0 0 0.04 0"/>
<feBlend mode="normal" in2="shape" result="effect2_innerShadow_1_3963"/>
</filter>
<linearGradient id="paint0_linear_1_3963" x1="135.496" y1="0.376953" x2="135.496" y2="280.377" gradientUnits="userSpaceOnUse">
<stop stop-color="#F3F0FF"/>
<stop offset="1" stop-color="#F0F6FF"/>
</linearGradient>
<linearGradient id="paint1_linear_1_3963" x1="135.496" y1="0.376953" x2="135.496" y2="280.377" gradientUnits="userSpaceOnUse">
<stop offset="0.52" stop-color="white" stop-opacity="0"/>
<stop offset="1" stop-color="white" stop-opacity="0.8"/>
</linearGradient>
<linearGradient id="paint2_linear_1_3963" x1="-26.0039" y1="65.377" x2="-26.0039" y2="160.377" gradientUnits="userSpaceOnUse">
<stop stop-color="#CACEFF" stop-opacity="0.1"/>
<stop offset="1" stop-color="#C1BCFE" stop-opacity="0.1"/>
</linearGradient>
<linearGradient id="paint3_linear_1_3963" x1="84.9961" y1="65.377" x2="84.9961" y2="160.377" gradientUnits="userSpaceOnUse">
<stop stop-color="#CACEFF" stop-opacity="0.1"/>
<stop offset="1" stop-color="#C1BCFE" stop-opacity="0.1"/>
</linearGradient>
<linearGradient id="paint4_linear_1_3963" x1="195.996" y1="65.377" x2="195.996" y2="160.377" gradientUnits="userSpaceOnUse">
<stop stop-color="#CACEFF" stop-opacity="0.1"/>
<stop offset="1" stop-color="#C1BCFE" stop-opacity="0.1"/>
</linearGradient>
<linearGradient id="paint5_linear_1_3963" x1="306.996" y1="65.377" x2="306.996" y2="160.377" gradientUnits="userSpaceOnUse">
<stop stop-color="#CACEFF" stop-opacity="0.1"/>
<stop offset="1" stop-color="#C1BCFE" stop-opacity="0.1"/>
</linearGradient>
<linearGradient id="paint6_linear_1_3963" x1="135.496" y1="42.377" x2="135.496" y2="166.377" gradientUnits="userSpaceOnUse">
<stop stop-color="white" stop-opacity="0.5"/>
<stop offset="1" stop-color="white" stop-opacity="0.7"/>
</linearGradient>
<linearGradient id="paint7_linear_1_3963" x1="105.371" y1="65.377" x2="105.371" y2="133.377" gradientUnits="userSpaceOnUse">
<stop stop-color="#B0AEF8" stop-opacity="0.6"/>
<stop offset="1" stop-color="#EFE4FD" stop-opacity="0.6"/>
</linearGradient>
<radialGradient id="paint8_radial_1_3963" cx="0" cy="0" r="1" gradientUnits="userSpaceOnUse" gradientTransform="translate(105.371 99.377) scale(43.9821 37.502)">
<stop stop-color="white" stop-opacity="0.1"/>
<stop offset="1" stop-color="white" stop-opacity="0"/>
</radialGradient>
<linearGradient id="paint9_linear_1_3963" x1="182.371" y1="65.377" x2="182.371" y2="133.377" gradientUnits="userSpaceOnUse">
<stop stop-color="#D7D5E7" stop-opacity="0.5"/>
<stop offset="1" stop-color="#EDEEF3" stop-opacity="0.5"/>
</linearGradient>
<radialGradient id="paint10_radial_1_3963" cx="0" cy="0" r="1" gradientUnits="userSpaceOnUse" gradientTransform="translate(182.371 99.377) scale(34.3309 37.502)">
<stop stop-color="white" stop-opacity="0.1"/>
<stop offset="1" stop-color="white" stop-opacity="0"/>
</radialGradient>
<linearGradient id="paint11_linear_1_3963" x1="135.496" y1="80.377" x2="135.496" y2="169.377" gradientUnits="userSpaceOnUse">
<stop stop-color="white" stop-opacity="0.49"/>
<stop offset="1" stop-color="white" stop-opacity="0.7"/>
</linearGradient>
<radialGradient id="paint12_radial_1_3963" cx="0" cy="0" r="1" gradientUnits="userSpaceOnUse" gradientTransform="translate(135.496 124.877) scale(117.45 72.3125)">
<stop stop-color="white" stop-opacity="0.5"/>
<stop offset="1" stop-color="white" stop-opacity="0"/>
</radialGradient>
<clipPath id="clip0_1_3963">
<rect x="0.496094" y="0.376953" width="270" height="280" rx="12" fill="white"/>
</clipPath>
<clipPath id="clip1_1_3963">
<rect width="248" height="170" fill="white" transform="translate(11.4961 55.377)"/>
</clipPath>
<clipPath id="clip2_1_3963">
<rect width="180" height="128" fill="white" transform="translate(45.4961 41.377)"/>
</clipPath>
<clipPath id="clip3_1_3963">
<rect width="180" height="128" fill="white" transform="translate(45.4961 41.377)"/>
</clipPath>
<clipPath id="clip4_1_3963">
<rect width="180" height="128" fill="white" transform="translate(45.4961 41.377)"/>
</clipPath>
</defs>
</svg>
