<svg width="1181" height="536" viewBox="0 0 1181 536" fill="none" xmlns="http://www.w3.org/2000/svg">
<g clip-path="url(#clip0_1_5769)">
<rect x="0.496094" y="0.707031" width="1180" height="534.42" rx="24" fill="url(#paint0_linear_1_5769)"/>
<g clip-path="url(#clip1_1_5769)">
<path d="M330.996 86.917H250.996C246.578 86.917 242.996 90.4987 242.996 94.917V126.917C242.996 131.335 246.578 134.917 250.996 134.917H330.996C335.414 134.917 338.996 131.335 338.996 126.917V94.917C338.996 90.4987 335.414 86.917 330.996 86.917Z" fill="url(#paint1_linear_1_5769)" fill-opacity="0.1"/>
<path d="M330.996 87.417H250.996C246.854 87.417 243.496 90.7749 243.496 94.917V126.917C243.496 131.059 246.854 134.417 250.996 134.417H330.996C335.138 134.417 338.496 131.059 338.496 126.917V94.917C338.496 90.7749 335.138 87.417 330.996 87.417Z" stroke="url(#paint2_linear_1_5769)" stroke-opacity="0.2"/>
<path d="M295.996 360.917H263.996C259.578 360.917 255.996 364.499 255.996 368.917V400.917C255.996 405.335 259.578 408.917 263.996 408.917H295.996C300.414 408.917 303.996 405.335 303.996 400.917V368.917C303.996 364.499 300.414 360.917 295.996 360.917Z" fill="url(#paint3_linear_1_5769)" fill-opacity="0.1"/>
<path d="M295.996 361.417H263.996C259.854 361.417 256.496 364.775 256.496 368.917V400.917C256.496 405.059 259.854 408.417 263.996 408.417H295.996C300.138 408.417 303.496 405.059 303.496 400.917V368.917C303.496 364.775 300.138 361.417 295.996 361.417Z" stroke="url(#paint4_linear_1_5769)" stroke-opacity="0.2"/>
<path d="M852.996 360.917H820.996C816.578 360.917 812.996 364.499 812.996 368.917V440.917C812.996 445.335 816.578 448.917 820.996 448.917H852.996C857.414 448.917 860.996 445.335 860.996 440.917V368.917C860.996 364.499 857.414 360.917 852.996 360.917Z" fill="url(#paint5_linear_1_5769)" fill-opacity="0.1"/>
<path d="M852.996 361.417H820.996C816.854 361.417 813.496 364.775 813.496 368.917V440.917C813.496 445.059 816.854 448.417 820.996 448.417H852.996C857.138 448.417 860.496 445.059 860.496 440.917V368.917C860.496 364.775 857.138 361.417 852.996 361.417Z" stroke="url(#paint6_linear_1_5769)" stroke-opacity="0.2"/>
<path d="M849.068 144.917L868.58 94.5166H879.452L898.964 144.917H888.668L883.916 132.389H864.116L859.292 144.917H849.068ZM866.78 124.253H881.252L874.124 105.605H873.836L866.78 124.253ZM913.311 146.069C905.319 146.069 900.495 141.317 900.495 134.693C900.495 128.285 904.887 124.181 913.239 123.533L921.735 122.957C923.463 122.813 924.471 122.021 924.471 120.005C924.471 116.333 921.663 114.677 917.631 114.677C913.023 114.677 910.647 116.837 910.143 120.221H901.287C902.151 112.085 907.695 107.333 917.703 107.333C927.639 107.333 933.543 112.085 933.543 121.949V137.141H936.495V144.917H932.823C928.503 144.917 926.199 142.685 925.911 138.509C923.607 143.765 918.855 146.069 913.311 146.069ZM915.183 138.725C920.655 138.725 924.543 134.981 924.543 130.085V128.645L915.183 129.365C911.223 129.653 909.711 131.597 909.711 134.189C909.711 137.069 911.727 138.725 915.183 138.725Z" fill="#F2F4FF"/>
<path d="M849.068 144.917L848.135 144.556L847.608 145.917H849.068V144.917ZM868.58 94.5166V93.5166H867.894L867.647 94.1556L868.58 94.5166ZM879.452 94.5166L880.384 94.1556L880.137 93.5166H879.452V94.5166ZM898.964 144.917V145.917H900.423L899.896 144.556L898.964 144.917ZM888.668 144.917L887.733 145.271L887.977 145.917H888.668V144.917ZM883.916 132.389L884.851 132.034L884.606 131.389H883.916V132.389ZM864.116 132.389V131.389H863.429L863.182 132.029L864.116 132.389ZM859.292 144.917V145.917H859.978L860.225 145.276L859.292 144.917ZM866.78 124.253L865.844 123.899L865.332 125.253H866.78V124.253ZM881.252 124.253V125.253H882.704L882.186 123.896L881.252 124.253ZM874.124 105.605L875.058 105.248L874.812 104.605H874.124V105.605ZM873.836 105.605V104.605H873.145L872.9 105.251L873.836 105.605ZM850 145.278L869.512 94.8776L867.647 94.1556L848.135 144.556L850 145.278ZM868.58 95.5166H879.452V93.5166H868.58V95.5166ZM878.519 94.8776L898.031 145.278L899.896 144.556L880.384 94.1556L878.519 94.8776ZM898.964 143.917H888.668V145.917H898.964V143.917ZM889.603 144.562L884.851 132.034L882.981 132.743L887.733 145.271L889.603 144.562ZM883.916 131.389H864.116V133.389H883.916V131.389ZM863.182 132.029L858.358 144.557L860.225 145.276L865.049 132.748L863.182 132.029ZM859.292 143.917H849.068V145.917H859.292V143.917ZM866.78 125.253H881.252V123.253H866.78V125.253ZM882.186 123.896L875.058 105.248L873.189 105.962L880.317 124.61L882.186 123.896ZM874.124 104.605H873.836V106.605H874.124V104.605ZM872.9 105.251L865.844 123.899L867.715 124.607L874.771 105.959L872.9 105.251ZM913.239 123.533L913.171 122.535L913.161 122.536L913.239 123.533ZM921.735 122.957L921.802 123.954L921.81 123.954L921.818 123.953L921.735 122.957ZM910.143 120.221V121.221H911.005L911.132 120.368L910.143 120.221ZM901.287 120.221L900.292 120.115L900.175 121.221H901.287V120.221ZM933.543 137.141H932.543V138.141H933.543V137.141ZM936.495 137.141H937.495V136.141H936.495V137.141ZM936.495 144.917V145.917H937.495V144.917H936.495ZM925.911 138.509L926.908 138.44L924.995 138.107L925.911 138.509ZM924.543 128.645H925.543V127.565L924.466 127.648L924.543 128.645ZM915.183 129.365L915.255 130.362L915.259 130.362L915.183 129.365ZM913.311 145.069C909.512 145.069 906.566 143.942 904.58 142.127C902.602 140.318 901.495 137.751 901.495 134.693H899.495C899.495 138.258 900.8 141.38 903.231 143.603C905.656 145.82 909.117 147.069 913.311 147.069V145.069ZM901.495 134.693C901.495 131.736 902.498 129.394 904.4 127.699C906.326 125.983 909.276 124.843 913.316 124.53L913.161 122.536C908.849 122.87 905.427 124.106 903.07 126.206C900.688 128.328 899.495 131.241 899.495 134.693H901.495ZM913.306 124.53L921.802 123.954L921.667 121.959L913.171 122.535L913.306 124.53ZM921.818 123.953C922.797 123.872 923.753 123.594 924.458 122.89C925.176 122.171 925.471 121.173 925.471 120.005H923.471C923.471 120.852 923.261 121.258 923.044 121.476C922.812 121.707 922.4 121.898 921.652 121.96L921.818 123.953ZM925.471 120.005C925.471 117.878 924.639 116.232 923.149 115.154C921.708 114.111 919.761 113.677 917.631 113.677V115.677C919.532 115.677 921.005 116.071 921.976 116.774C922.899 117.441 923.471 118.459 923.471 120.005H925.471ZM917.631 113.677C915.177 113.677 913.191 114.252 911.732 115.392C910.261 116.541 909.436 118.177 909.154 120.073L911.132 120.368C911.353 118.88 911.969 117.745 912.963 116.968C913.97 116.181 915.476 115.677 917.631 115.677V113.677ZM910.143 119.221H901.287V121.221H910.143V119.221ZM902.281 120.326C902.691 116.471 904.192 113.513 906.692 111.505C909.207 109.485 912.848 108.333 917.703 108.333V106.333C912.549 106.333 908.415 107.556 905.439 109.946C902.449 112.348 900.747 115.834 900.292 120.115L902.281 120.326ZM917.703 108.333C922.527 108.333 926.213 109.487 928.684 111.688C931.135 113.872 932.543 117.221 932.543 121.949H934.543C934.543 116.813 932.999 112.854 930.014 110.195C927.049 107.554 922.814 106.333 917.703 106.333V108.333ZM932.543 121.949V137.141H934.543V121.949H932.543ZM933.543 138.141H936.495V136.141H933.543V138.141ZM935.495 137.141V144.917H937.495V137.141H935.495ZM936.495 143.917H932.823V145.917H936.495V143.917ZM932.823 143.917C930.83 143.917 929.45 143.404 928.539 142.549C927.626 141.694 927.041 140.363 926.908 138.44L924.913 138.577C925.068 140.83 925.779 142.704 927.171 144.008C928.563 145.313 930.495 145.917 932.823 145.917V143.917ZM924.995 138.107C922.888 142.914 918.561 145.069 913.311 145.069V147.069C919.148 147.069 924.325 144.616 926.827 138.91L924.995 138.107ZM915.183 139.725C921.142 139.725 925.543 135.595 925.543 130.085H923.543C923.543 134.366 920.167 137.725 915.183 137.725V139.725ZM925.543 130.085V128.645H923.543V130.085H925.543ZM924.466 127.648L915.106 128.368L915.259 130.362L924.619 129.642L924.466 127.648ZM915.11 128.367C912.989 128.522 911.364 129.13 910.266 130.195C909.153 131.273 908.711 132.693 908.711 134.189H910.711C910.711 133.092 911.025 132.244 911.658 131.631C912.305 131.003 913.416 130.496 915.255 130.362L915.11 128.367ZM908.711 134.189C908.711 135.88 909.314 137.315 910.513 138.307C911.686 139.277 913.309 139.725 915.183 139.725V137.725C913.6 137.725 912.487 137.344 911.788 136.766C911.115 136.21 910.711 135.377 910.711 134.189H908.711Z" fill="#D4DAF9"/>
</g>
<mask id="mask0_1_5769" style="mask-type:luminance" maskUnits="userSpaceOnUse" x="-92" y="-79" width="501" height="901">
<path d="M408.696 -78.1533H-91.3037V821.847H408.696V-78.1533Z" fill="white"/>
</mask>
<g mask="url(#mask0_1_5769)">
<mask id="mask1_1_5769" style="mask-type:alpha" maskUnits="userSpaceOnUse" x="-759" y="41" width="1153" height="755">
<path d="M102.03 792.497L383.65 749.52C390.93 748.41 395.372 740.922 392.853 734.01L196.765 196.062C158.381 90.7608 50.8873 27.2397 -60.1451 44.1991L-557.14 120.06C-704.738 142.633 -794.815 294.365 -743.789 434.391C-705.18 540.211 -597.203 604.136 -485.636 587.13L-200.241 543.547C-194.744 542.708 -189.417 545.86 -187.514 551.08L-154.888 640.546C-116.505 745.847 -9.00269 809.456 102.03 792.497Z" fill="url(#paint7_linear_1_5769)"/>
</mask>
<g mask="url(#mask1_1_5769)">
<mask id="mask2_1_5769" style="mask-type:luminance" maskUnits="userSpaceOnUse" x="-92" y="-79" width="1429" height="901">
<path d="M-91.3036 -78.1533H1336.69V821.847H-91.3036V-78.1533Z" fill="white"/>
</mask>
<g mask="url(#mask2_1_5769)">
<path d="M100.613 790.636L380.831 747.873C388.075 746.768 392.495 739.318 389.988 732.44L194.877 197.168C156.684 92.3905 49.725 29.1855 -60.7546 46.0605L-555.275 121.544C-702.139 144.005 -791.767 294.982 -740.996 434.312C-702.579 539.605 -595.139 603.212 -484.127 586.291L-200.153 542.925C-194.683 542.09 -189.383 545.226 -187.489 550.42L-155.026 639.441C-116.834 744.218 -9.86678 807.511 100.613 790.636Z" fill="url(#paint8_linear_1_5769)"/>
<path d="M1335.19 -66.1533V809.847C1335.19 816.469 1329.82 821.847 1323.19 821.847H-80.8036C-87.4264 821.847 -92.8036 816.469 -92.8036 809.847V-66.1533C-92.8036 -72.7761 -87.4264 -78.1533 -80.8036 -78.1533H1323.19C1329.82 -78.1533 1335.19 -72.7761 1335.19 -66.1533Z" fill="url(#paint9_linear_1_5769)"/>
</g>
</g>
</g>
<mask id="mask3_1_5769" style="mask-type:luminance" maskUnits="userSpaceOnUse" x="772" y="-79" width="501" height="901">
<path d="M1272.3 -78.1533H772.296V821.847H1272.3V-78.1533Z" fill="white"/>
</mask>
<g mask="url(#mask3_1_5769)">
<mask id="mask4_1_5769" style="mask-type:alpha" maskUnits="userSpaceOnUse" x="780" y="39" width="1153" height="755">
<path d="M1072.46 790.997L790.842 748.02C783.562 746.91 779.12 739.422 781.639 732.51L977.727 194.562C1016.11 89.2608 1123.6 25.7397 1234.64 42.6991L1731.63 118.56C1879.23 141.133 1969.31 292.865 1918.28 432.891C1879.67 538.711 1771.7 602.636 1660.13 585.63L1374.73 542.047C1369.24 541.208 1363.91 544.36 1362.01 549.58L1329.38 639.046C1291 744.347 1183.49 807.956 1072.46 790.997Z" fill="url(#paint10_linear_1_5769)"/>
</mask>
<g mask="url(#mask4_1_5769)">
<mask id="mask5_1_5769" style="mask-type:luminance" maskUnits="userSpaceOnUse" x="-156" y="-79" width="1429" height="901">
<path d="M-155.7 -78.1533H1272.3V821.847H-155.7V-78.1533Z" fill="white"/>
</mask>
<g mask="url(#mask5_1_5769)">
<path d="M1073.88 789.136L793.661 746.373C786.417 745.268 781.997 737.818 784.504 730.94L979.616 195.668C1017.81 90.8905 1124.77 27.6855 1235.25 44.5605L1729.77 120.044C1876.63 142.505 1966.26 293.482 1915.49 432.812C1877.07 538.105 1769.63 601.712 1658.62 584.791L1374.65 541.425C1369.18 540.59 1363.88 543.726 1361.98 548.92L1329.52 637.941C1291.33 742.718 1184.36 806.011 1073.88 789.136Z" fill="url(#paint11_linear_1_5769)"/>
<path d="M1270.8 -66.1533V809.847C1270.8 816.469 1265.42 821.847 1258.8 821.847H-145.2C-151.823 821.847 -157.2 816.469 -157.2 809.847V-66.1533C-157.2 -72.7761 -151.823 -78.1533 -145.2 -78.1533H1258.8C1265.42 -78.1533 1270.8 -72.7761 1270.8 -66.1533Z" fill="url(#paint12_linear_1_5769)"/>
</g>
</g>
</g>
</g>
<rect x="0.996094" y="1.20703" width="1179" height="533.42" rx="23.5" stroke="#212A78" stroke-opacity="0.04"/>
<defs>
<linearGradient id="paint0_linear_1_5769" x1="77.5308" y1="-105.54" x2="1104.92" y2="639.368" gradientUnits="userSpaceOnUse">
<stop stop-color="#F3F0FF"/>
<stop offset="1" stop-color="#F0F6FF"/>
</linearGradient>
<linearGradient id="paint1_linear_1_5769" x1="338.996" y1="134.917" x2="241.637" y2="131.98" gradientUnits="userSpaceOnUse">
<stop stop-color="#CACEFF"/>
<stop offset="1" stop-color="#C1BCFE"/>
</linearGradient>
<linearGradient id="paint2_linear_1_5769" x1="338.996" y1="134.917" x2="241.637" y2="131.98" gradientUnits="userSpaceOnUse">
<stop stop-color="#CACEFF"/>
<stop offset="1" stop-color="#C1BCFE"/>
</linearGradient>
<linearGradient id="paint3_linear_1_5769" x1="303.996" y1="408.917" x2="255.283" y2="408.182" gradientUnits="userSpaceOnUse">
<stop stop-color="#CACEFF"/>
<stop offset="1" stop-color="#C1BCFE"/>
</linearGradient>
<linearGradient id="paint4_linear_1_5769" x1="303.996" y1="408.917" x2="255.283" y2="408.182" gradientUnits="userSpaceOnUse">
<stop stop-color="#CACEFF"/>
<stop offset="1" stop-color="#C1BCFE"/>
</linearGradient>
<linearGradient id="paint5_linear_1_5769" x1="860.996" y1="448.917" x2="812.275" y2="448.516" gradientUnits="userSpaceOnUse">
<stop stop-color="#CACEFF"/>
<stop offset="1" stop-color="#C1BCFE"/>
</linearGradient>
<linearGradient id="paint6_linear_1_5769" x1="860.996" y1="448.917" x2="812.275" y2="448.516" gradientUnits="userSpaceOnUse">
<stop stop-color="#CACEFF"/>
<stop offset="1" stop-color="#C1BCFE"/>
</linearGradient>
<linearGradient id="paint7_linear_1_5769" x1="1336.25" y1="833.412" x2="-98.3845" y2="-71.0884" gradientUnits="userSpaceOnUse">
<stop stop-color="#E5F0FF"/>
<stop offset="0.5" stop-color="#E9EBFF"/>
<stop offset="1" stop-color="#EBE5FF"/>
</linearGradient>
<linearGradient id="paint8_linear_1_5769" x1="1328.69" y1="831.347" x2="-98.806" y2="-68.6496" gradientUnits="userSpaceOnUse">
<stop stop-color="#E5F0FF"/>
<stop offset="0.5" stop-color="#E9EBFF"/>
<stop offset="1" stop-color="#EBE5FF"/>
</linearGradient>
<linearGradient id="paint9_linear_1_5769" x1="621.194" y1="-78.1533" x2="621.194" y2="821.847" gradientUnits="userSpaceOnUse">
<stop offset="0.35" stop-color="white" stop-opacity="0"/>
<stop offset="0.68" stop-color="white" stop-opacity="0.5"/>
<stop offset="1" stop-color="white"/>
</linearGradient>
<linearGradient id="paint10_linear_1_5769" x1="1273.38" y1="831.912" x2="-161.259" y2="-72.5884" gradientUnits="userSpaceOnUse">
<stop stop-color="#E5F0FF"/>
<stop offset="0.5" stop-color="#E9EBFF"/>
<stop offset="1" stop-color="#EBE5FF"/>
</linearGradient>
<linearGradient id="paint11_linear_1_5769" x1="1273.8" y1="829.847" x2="-153.702" y2="-70.1496" gradientUnits="userSpaceOnUse">
<stop stop-color="#E5F0FF"/>
<stop offset="0.5" stop-color="#E9EBFF"/>
<stop offset="1" stop-color="#EBE5FF"/>
</linearGradient>
<linearGradient id="paint12_linear_1_5769" x1="556.798" y1="-78.1533" x2="556.798" y2="821.847" gradientUnits="userSpaceOnUse">
<stop offset="0.35" stop-color="white" stop-opacity="0"/>
<stop offset="0.68" stop-color="white" stop-opacity="0.5"/>
<stop offset="1" stop-color="white"/>
</linearGradient>
<clipPath id="clip0_1_5769">
<rect x="0.496094" y="0.707031" width="1180" height="534.42" rx="24" fill="white"/>
</clipPath>
<clipPath id="clip1_1_5769">
<rect width="695" height="362" fill="white" transform="translate(242.996 86.917)"/>
</clipPath>
</defs>
</svg>
