<svg width="271" height="281" viewBox="0 0 271 281" fill="none" xmlns="http://www.w3.org/2000/svg">
<g clip-path="url(#clip0_1_3591)">
<rect x="0.496094" y="0.376953" width="270" height="280" rx="12" fill="url(#paint0_linear_1_3591)"/>
<rect x="0.496094" y="0.376953" width="270" height="280" rx="12" fill="url(#paint1_linear_1_3591)"/>
<g clip-path="url(#clip1_1_3591)">
<path d="M12.4961 55.877C12.4961 56.1531 12.2722 56.377 11.9961 56.377C11.72 56.377 11.4961 56.1531 11.4961 55.877C11.4961 55.6008 11.72 55.377 11.9961 55.377C12.2722 55.377 12.4961 55.6008 12.4961 55.877Z" fill="#22328A" fill-opacity="0.2"/>
<path d="M25.4961 55.877C25.4961 56.1531 25.2722 56.377 24.9961 56.377C24.72 56.377 24.4961 56.1531 24.4961 55.877C24.4961 55.6008 24.72 55.377 24.9961 55.377C25.2722 55.377 25.4961 55.6008 25.4961 55.877Z" fill="#22328A" fill-opacity="0.2"/>
<path d="M38.4961 55.877C38.4961 56.1531 38.2722 56.377 37.9961 56.377C37.72 56.377 37.4961 56.1531 37.4961 55.877C37.4961 55.6008 37.72 55.377 37.9961 55.377C38.2722 55.377 38.4961 55.6008 38.4961 55.877Z" fill="#22328A" fill-opacity="0.2"/>
<path d="M51.4961 55.877C51.4961 56.1531 51.2722 56.377 50.9961 56.377C50.72 56.377 50.4961 56.1531 50.4961 55.877C50.4961 55.6008 50.72 55.377 50.9961 55.377C51.2722 55.377 51.4961 55.6008 51.4961 55.877Z" fill="#22328A" fill-opacity="0.2"/>
<path d="M64.4961 55.877C64.4961 56.1531 64.2722 56.377 63.9961 56.377C63.72 56.377 63.4961 56.1531 63.4961 55.877C63.4961 55.6008 63.72 55.377 63.9961 55.377C64.2722 55.377 64.4961 55.6008 64.4961 55.877Z" fill="#22328A" fill-opacity="0.2"/>
<path d="M77.4961 55.877C77.4961 56.1531 77.2722 56.377 76.9961 56.377C76.72 56.377 76.4961 56.1531 76.4961 55.877C76.4961 55.6008 76.72 55.377 76.9961 55.377C77.2722 55.377 77.4961 55.6008 77.4961 55.877Z" fill="#22328A" fill-opacity="0.2"/>
<path d="M90.4961 55.877C90.4961 56.1531 90.2722 56.377 89.9961 56.377C89.72 56.377 89.4961 56.1531 89.4961 55.877C89.4961 55.6008 89.72 55.377 89.9961 55.377C90.2722 55.377 90.4961 55.6008 90.4961 55.877Z" fill="#22328A" fill-opacity="0.2"/>
<path d="M103.496 55.877C103.496 56.1531 103.272 56.377 102.996 56.377C102.72 56.377 102.496 56.1531 102.496 55.877C102.496 55.6008 102.72 55.377 102.996 55.377C103.272 55.377 103.496 55.6008 103.496 55.877Z" fill="#22328A" fill-opacity="0.2"/>
<path d="M116.496 55.877C116.496 56.1531 116.272 56.377 115.996 56.377C115.72 56.377 115.496 56.1531 115.496 55.877C115.496 55.6008 115.72 55.377 115.996 55.377C116.272 55.377 116.496 55.6008 116.496 55.877Z" fill="#22328A" fill-opacity="0.2"/>
<path d="M129.496 55.877C129.496 56.1531 129.272 56.377 128.996 56.377C128.72 56.377 128.496 56.1531 128.496 55.877C128.496 55.6008 128.72 55.377 128.996 55.377C129.272 55.377 129.496 55.6008 129.496 55.877Z" fill="#22328A" fill-opacity="0.2"/>
<path d="M12.4961 68.877C12.4961 69.1531 12.2722 69.377 11.9961 69.377C11.72 69.377 11.4961 69.1531 11.4961 68.877C11.4961 68.6009 11.72 68.377 11.9961 68.377C12.2722 68.377 12.4961 68.6009 12.4961 68.877Z" fill="#22328A" fill-opacity="0.2"/>
<path d="M25.4961 68.877C25.4961 69.1531 25.2722 69.377 24.9961 69.377C24.72 69.377 24.4961 69.1531 24.4961 68.877C24.4961 68.6009 24.72 68.377 24.9961 68.377C25.2722 68.377 25.4961 68.6009 25.4961 68.877Z" fill="#22328A" fill-opacity="0.2"/>
<path d="M38.4961 68.877C38.4961 69.1531 38.2722 69.377 37.9961 69.377C37.72 69.377 37.4961 69.1531 37.4961 68.877C37.4961 68.6009 37.72 68.377 37.9961 68.377C38.2722 68.377 38.4961 68.6009 38.4961 68.877Z" fill="#22328A" fill-opacity="0.2"/>
<path d="M51.4961 68.877C51.4961 69.1531 51.2722 69.377 50.9961 69.377C50.72 69.377 50.4961 69.1531 50.4961 68.877C50.4961 68.6009 50.72 68.377 50.9961 68.377C51.2722 68.377 51.4961 68.6009 51.4961 68.877Z" fill="#22328A" fill-opacity="0.2"/>
<path d="M64.4961 68.877C64.4961 69.1531 64.2722 69.377 63.9961 69.377C63.72 69.377 63.4961 69.1531 63.4961 68.877C63.4961 68.6009 63.72 68.377 63.9961 68.377C64.2722 68.377 64.4961 68.6009 64.4961 68.877Z" fill="#22328A" fill-opacity="0.2"/>
<path d="M77.4961 68.877C77.4961 69.1531 77.2722 69.377 76.9961 69.377C76.72 69.377 76.4961 69.1531 76.4961 68.877C76.4961 68.6009 76.72 68.377 76.9961 68.377C77.2722 68.377 77.4961 68.6009 77.4961 68.877Z" fill="#22328A" fill-opacity="0.2"/>
<path d="M90.4961 68.877C90.4961 69.1531 90.2722 69.377 89.9961 69.377C89.72 69.377 89.4961 69.1531 89.4961 68.877C89.4961 68.6009 89.72 68.377 89.9961 68.377C90.2722 68.377 90.4961 68.6009 90.4961 68.877Z" fill="#22328A" fill-opacity="0.2"/>
<path d="M103.496 68.877C103.496 69.1531 103.272 69.377 102.996 69.377C102.72 69.377 102.496 69.1531 102.496 68.877C102.496 68.6009 102.72 68.377 102.996 68.377C103.272 68.377 103.496 68.6009 103.496 68.877Z" fill="#22328A" fill-opacity="0.2"/>
<path d="M116.496 68.877C116.496 69.1531 116.272 69.377 115.996 69.377C115.72 69.377 115.496 69.1531 115.496 68.877C115.496 68.6009 115.72 68.377 115.996 68.377C116.272 68.377 116.496 68.6009 116.496 68.877Z" fill="#22328A" fill-opacity="0.2"/>
<path d="M129.496 68.877C129.496 69.1531 129.272 69.377 128.996 69.377C128.72 69.377 128.496 69.1531 128.496 68.877C128.496 68.6009 128.72 68.377 128.996 68.377C129.272 68.377 129.496 68.6009 129.496 68.877Z" fill="#22328A" fill-opacity="0.2"/>
<path d="M12.4961 81.877C12.4961 82.1531 12.2722 82.377 11.9961 82.377C11.72 82.377 11.4961 82.1531 11.4961 81.877C11.4961 81.6009 11.72 81.377 11.9961 81.377C12.2722 81.377 12.4961 81.6009 12.4961 81.877Z" fill="#22328A" fill-opacity="0.2"/>
<path d="M25.4961 81.877C25.4961 82.1531 25.2722 82.377 24.9961 82.377C24.72 82.377 24.4961 82.1531 24.4961 81.877C24.4961 81.6009 24.72 81.377 24.9961 81.377C25.2722 81.377 25.4961 81.6009 25.4961 81.877Z" fill="#22328A" fill-opacity="0.2"/>
<path d="M38.4961 81.877C38.4961 82.1531 38.2722 82.377 37.9961 82.377C37.72 82.377 37.4961 82.1531 37.4961 81.877C37.4961 81.6009 37.72 81.377 37.9961 81.377C38.2722 81.377 38.4961 81.6009 38.4961 81.877Z" fill="#22328A" fill-opacity="0.2"/>
<path d="M51.4961 81.877C51.4961 82.1531 51.2722 82.377 50.9961 82.377C50.72 82.377 50.4961 82.1531 50.4961 81.877C50.4961 81.6009 50.72 81.377 50.9961 81.377C51.2722 81.377 51.4961 81.6009 51.4961 81.877Z" fill="#22328A" fill-opacity="0.2"/>
<path d="M64.4961 81.877C64.4961 82.1531 64.2722 82.377 63.9961 82.377C63.72 82.377 63.4961 82.1531 63.4961 81.877C63.4961 81.6009 63.72 81.377 63.9961 81.377C64.2722 81.377 64.4961 81.6009 64.4961 81.877Z" fill="#22328A" fill-opacity="0.2"/>
<path d="M77.4961 81.877C77.4961 82.1531 77.2722 82.377 76.9961 82.377C76.72 82.377 76.4961 82.1531 76.4961 81.877C76.4961 81.6009 76.72 81.377 76.9961 81.377C77.2722 81.377 77.4961 81.6009 77.4961 81.877Z" fill="#22328A" fill-opacity="0.2"/>
<path d="M90.4961 81.877C90.4961 82.1531 90.2722 82.377 89.9961 82.377C89.72 82.377 89.4961 82.1531 89.4961 81.877C89.4961 81.6009 89.72 81.377 89.9961 81.377C90.2722 81.377 90.4961 81.6009 90.4961 81.877Z" fill="#22328A" fill-opacity="0.2"/>
<path d="M103.496 81.877C103.496 82.1531 103.272 82.377 102.996 82.377C102.72 82.377 102.496 82.1531 102.496 81.877C102.496 81.6009 102.72 81.377 102.996 81.377C103.272 81.377 103.496 81.6009 103.496 81.877Z" fill="#22328A" fill-opacity="0.2"/>
<path d="M116.496 81.877C116.496 82.1531 116.272 82.377 115.996 82.377C115.72 82.377 115.496 82.1531 115.496 81.877C115.496 81.6009 115.72 81.377 115.996 81.377C116.272 81.377 116.496 81.6009 116.496 81.877Z" fill="#22328A" fill-opacity="0.2"/>
<path d="M129.496 81.877C129.496 82.1531 129.272 82.377 128.996 82.377C128.72 82.377 128.496 82.1531 128.496 81.877C128.496 81.6009 128.72 81.377 128.996 81.377C129.272 81.377 129.496 81.6009 129.496 81.877Z" fill="#22328A" fill-opacity="0.2"/>
<path d="M12.4961 94.877C12.4961 95.1531 12.2722 95.377 11.9961 95.377C11.72 95.377 11.4961 95.1531 11.4961 94.877C11.4961 94.6009 11.72 94.377 11.9961 94.377C12.2722 94.377 12.4961 94.6009 12.4961 94.877Z" fill="#22328A" fill-opacity="0.2"/>
<path d="M25.4961 94.877C25.4961 95.1531 25.2722 95.377 24.9961 95.377C24.72 95.377 24.4961 95.1531 24.4961 94.877C24.4961 94.6009 24.72 94.377 24.9961 94.377C25.2722 94.377 25.4961 94.6009 25.4961 94.877Z" fill="#22328A" fill-opacity="0.2"/>
<path d="M38.4961 94.877C38.4961 95.1531 38.2722 95.377 37.9961 95.377C37.72 95.377 37.4961 95.1531 37.4961 94.877C37.4961 94.6009 37.72 94.377 37.9961 94.377C38.2722 94.377 38.4961 94.6009 38.4961 94.877Z" fill="#22328A" fill-opacity="0.2"/>
<path d="M51.4961 94.877C51.4961 95.1531 51.2722 95.377 50.9961 95.377C50.72 95.377 50.4961 95.1531 50.4961 94.877C50.4961 94.6009 50.72 94.377 50.9961 94.377C51.2722 94.377 51.4961 94.6009 51.4961 94.877Z" fill="#22328A" fill-opacity="0.2"/>
<path d="M64.4961 94.877C64.4961 95.1531 64.2722 95.377 63.9961 95.377C63.72 95.377 63.4961 95.1531 63.4961 94.877C63.4961 94.6009 63.72 94.377 63.9961 94.377C64.2722 94.377 64.4961 94.6009 64.4961 94.877Z" fill="#22328A" fill-opacity="0.2"/>
<path d="M77.4961 94.877C77.4961 95.1531 77.2722 95.377 76.9961 95.377C76.72 95.377 76.4961 95.1531 76.4961 94.877C76.4961 94.6009 76.72 94.377 76.9961 94.377C77.2722 94.377 77.4961 94.6009 77.4961 94.877Z" fill="#22328A" fill-opacity="0.2"/>
<path d="M90.4961 94.877C90.4961 95.1531 90.2722 95.377 89.9961 95.377C89.72 95.377 89.4961 95.1531 89.4961 94.877C89.4961 94.6009 89.72 94.377 89.9961 94.377C90.2722 94.377 90.4961 94.6009 90.4961 94.877Z" fill="#22328A" fill-opacity="0.2"/>
<path d="M103.496 94.877C103.496 95.1531 103.272 95.377 102.996 95.377C102.72 95.377 102.496 95.1531 102.496 94.877C102.496 94.6009 102.72 94.377 102.996 94.377C103.272 94.377 103.496 94.6009 103.496 94.877Z" fill="#22328A" fill-opacity="0.2"/>
<path d="M116.496 94.877C116.496 95.1531 116.272 95.377 115.996 95.377C115.72 95.377 115.496 95.1531 115.496 94.877C115.496 94.6009 115.72 94.377 115.996 94.377C116.272 94.377 116.496 94.6009 116.496 94.877Z" fill="#22328A" fill-opacity="0.2"/>
<path d="M129.496 94.877C129.496 95.1531 129.272 95.377 128.996 95.377C128.72 95.377 128.496 95.1531 128.496 94.877C128.496 94.6009 128.72 94.377 128.996 94.377C129.272 94.377 129.496 94.6009 129.496 94.877Z" fill="#22328A" fill-opacity="0.2"/>
<path d="M12.4961 107.877C12.4961 108.153 12.2722 108.377 11.9961 108.377C11.72 108.377 11.4961 108.153 11.4961 107.877C11.4961 107.601 11.72 107.377 11.9961 107.377C12.2722 107.377 12.4961 107.601 12.4961 107.877Z" fill="#22328A" fill-opacity="0.2"/>
<path d="M25.4961 107.877C25.4961 108.153 25.2722 108.377 24.9961 108.377C24.72 108.377 24.4961 108.153 24.4961 107.877C24.4961 107.601 24.72 107.377 24.9961 107.377C25.2722 107.377 25.4961 107.601 25.4961 107.877Z" fill="#22328A" fill-opacity="0.2"/>
<path d="M38.4961 107.877C38.4961 108.153 38.2722 108.377 37.9961 108.377C37.72 108.377 37.4961 108.153 37.4961 107.877C37.4961 107.601 37.72 107.377 37.9961 107.377C38.2722 107.377 38.4961 107.601 38.4961 107.877Z" fill="#22328A" fill-opacity="0.2"/>
<path d="M51.4961 107.877C51.4961 108.153 51.2722 108.377 50.9961 108.377C50.72 108.377 50.4961 108.153 50.4961 107.877C50.4961 107.601 50.72 107.377 50.9961 107.377C51.2722 107.377 51.4961 107.601 51.4961 107.877Z" fill="#22328A" fill-opacity="0.2"/>
<path d="M64.4961 107.877C64.4961 108.153 64.2722 108.377 63.9961 108.377C63.72 108.377 63.4961 108.153 63.4961 107.877C63.4961 107.601 63.72 107.377 63.9961 107.377C64.2722 107.377 64.4961 107.601 64.4961 107.877Z" fill="#22328A" fill-opacity="0.2"/>
<path d="M77.4961 107.877C77.4961 108.153 77.2722 108.377 76.9961 108.377C76.72 108.377 76.4961 108.153 76.4961 107.877C76.4961 107.601 76.72 107.377 76.9961 107.377C77.2722 107.377 77.4961 107.601 77.4961 107.877Z" fill="#22328A" fill-opacity="0.2"/>
<path d="M90.4961 107.877C90.4961 108.153 90.2722 108.377 89.9961 108.377C89.72 108.377 89.4961 108.153 89.4961 107.877C89.4961 107.601 89.72 107.377 89.9961 107.377C90.2722 107.377 90.4961 107.601 90.4961 107.877Z" fill="#22328A" fill-opacity="0.2"/>
<path d="M103.496 107.877C103.496 108.153 103.272 108.377 102.996 108.377C102.72 108.377 102.496 108.153 102.496 107.877C102.496 107.601 102.72 107.377 102.996 107.377C103.272 107.377 103.496 107.601 103.496 107.877Z" fill="#22328A" fill-opacity="0.2"/>
<path d="M116.496 107.877C116.496 108.153 116.272 108.377 115.996 108.377C115.72 108.377 115.496 108.153 115.496 107.877C115.496 107.601 115.72 107.377 115.996 107.377C116.272 107.377 116.496 107.601 116.496 107.877Z" fill="#22328A" fill-opacity="0.2"/>
<path d="M129.496 107.877C129.496 108.153 129.272 108.377 128.996 108.377C128.72 108.377 128.496 108.153 128.496 107.877C128.496 107.601 128.72 107.377 128.996 107.377C129.272 107.377 129.496 107.601 129.496 107.877Z" fill="#22328A" fill-opacity="0.2"/>
<path d="M12.4961 120.877C12.4961 121.153 12.2722 121.377 11.9961 121.377C11.72 121.377 11.4961 121.153 11.4961 120.877C11.4961 120.601 11.72 120.377 11.9961 120.377C12.2722 120.377 12.4961 120.601 12.4961 120.877Z" fill="#22328A" fill-opacity="0.2"/>
<path d="M25.4961 120.877C25.4961 121.153 25.2722 121.377 24.9961 121.377C24.72 121.377 24.4961 121.153 24.4961 120.877C24.4961 120.601 24.72 120.377 24.9961 120.377C25.2722 120.377 25.4961 120.601 25.4961 120.877Z" fill="#22328A" fill-opacity="0.2"/>
<path d="M38.4961 120.877C38.4961 121.153 38.2722 121.377 37.9961 121.377C37.72 121.377 37.4961 121.153 37.4961 120.877C37.4961 120.601 37.72 120.377 37.9961 120.377C38.2722 120.377 38.4961 120.601 38.4961 120.877Z" fill="#22328A" fill-opacity="0.2"/>
<path d="M51.4961 120.877C51.4961 121.153 51.2722 121.377 50.9961 121.377C50.72 121.377 50.4961 121.153 50.4961 120.877C50.4961 120.601 50.72 120.377 50.9961 120.377C51.2722 120.377 51.4961 120.601 51.4961 120.877Z" fill="#22328A" fill-opacity="0.2"/>
<path d="M64.4961 120.877C64.4961 121.153 64.2722 121.377 63.9961 121.377C63.72 121.377 63.4961 121.153 63.4961 120.877C63.4961 120.601 63.72 120.377 63.9961 120.377C64.2722 120.377 64.4961 120.601 64.4961 120.877Z" fill="#22328A" fill-opacity="0.2"/>
<path d="M77.4961 120.877C77.4961 121.153 77.2722 121.377 76.9961 121.377C76.72 121.377 76.4961 121.153 76.4961 120.877C76.4961 120.601 76.72 120.377 76.9961 120.377C77.2722 120.377 77.4961 120.601 77.4961 120.877Z" fill="#22328A" fill-opacity="0.2"/>
<path d="M90.4961 120.877C90.4961 121.153 90.2722 121.377 89.9961 121.377C89.72 121.377 89.4961 121.153 89.4961 120.877C89.4961 120.601 89.72 120.377 89.9961 120.377C90.2722 120.377 90.4961 120.601 90.4961 120.877Z" fill="#22328A" fill-opacity="0.2"/>
<path d="M103.496 120.877C103.496 121.153 103.272 121.377 102.996 121.377C102.72 121.377 102.496 121.153 102.496 120.877C102.496 120.601 102.72 120.377 102.996 120.377C103.272 120.377 103.496 120.601 103.496 120.877Z" fill="#22328A" fill-opacity="0.2"/>
<path d="M116.496 120.877C116.496 121.153 116.272 121.377 115.996 121.377C115.72 121.377 115.496 121.153 115.496 120.877C115.496 120.601 115.72 120.377 115.996 120.377C116.272 120.377 116.496 120.601 116.496 120.877Z" fill="#22328A" fill-opacity="0.2"/>
<path d="M129.496 120.877C129.496 121.153 129.272 121.377 128.996 121.377C128.72 121.377 128.496 121.153 128.496 120.877C128.496 120.601 128.72 120.377 128.996 120.377C129.272 120.377 129.496 120.601 129.496 120.877Z" fill="#22328A" fill-opacity="0.2"/>
<path d="M12.4961 133.877C12.4961 134.153 12.2722 134.377 11.9961 134.377C11.72 134.377 11.4961 134.153 11.4961 133.877C11.4961 133.601 11.72 133.377 11.9961 133.377C12.2722 133.377 12.4961 133.601 12.4961 133.877Z" fill="#22328A" fill-opacity="0.2"/>
<path d="M25.4961 133.877C25.4961 134.153 25.2722 134.377 24.9961 134.377C24.72 134.377 24.4961 134.153 24.4961 133.877C24.4961 133.601 24.72 133.377 24.9961 133.377C25.2722 133.377 25.4961 133.601 25.4961 133.877Z" fill="#22328A" fill-opacity="0.2"/>
<path d="M38.4961 133.877C38.4961 134.153 38.2722 134.377 37.9961 134.377C37.72 134.377 37.4961 134.153 37.4961 133.877C37.4961 133.601 37.72 133.377 37.9961 133.377C38.2722 133.377 38.4961 133.601 38.4961 133.877Z" fill="#22328A" fill-opacity="0.2"/>
<path d="M51.4961 133.877C51.4961 134.153 51.2722 134.377 50.9961 134.377C50.72 134.377 50.4961 134.153 50.4961 133.877C50.4961 133.601 50.72 133.377 50.9961 133.377C51.2722 133.377 51.4961 133.601 51.4961 133.877Z" fill="#22328A" fill-opacity="0.2"/>
<path d="M64.4961 133.877C64.4961 134.153 64.2722 134.377 63.9961 134.377C63.72 134.377 63.4961 134.153 63.4961 133.877C63.4961 133.601 63.72 133.377 63.9961 133.377C64.2722 133.377 64.4961 133.601 64.4961 133.877Z" fill="#22328A" fill-opacity="0.2"/>
<path d="M77.4961 133.877C77.4961 134.153 77.2722 134.377 76.9961 134.377C76.72 134.377 76.4961 134.153 76.4961 133.877C76.4961 133.601 76.72 133.377 76.9961 133.377C77.2722 133.377 77.4961 133.601 77.4961 133.877Z" fill="#22328A" fill-opacity="0.2"/>
<path d="M90.4961 133.877C90.4961 134.153 90.2722 134.377 89.9961 134.377C89.72 134.377 89.4961 134.153 89.4961 133.877C89.4961 133.601 89.72 133.377 89.9961 133.377C90.2722 133.377 90.4961 133.601 90.4961 133.877Z" fill="#22328A" fill-opacity="0.2"/>
<path d="M103.496 133.877C103.496 134.153 103.272 134.377 102.996 134.377C102.72 134.377 102.496 134.153 102.496 133.877C102.496 133.601 102.72 133.377 102.996 133.377C103.272 133.377 103.496 133.601 103.496 133.877Z" fill="#22328A" fill-opacity="0.2"/>
<path d="M116.496 133.877C116.496 134.153 116.272 134.377 115.996 134.377C115.72 134.377 115.496 134.153 115.496 133.877C115.496 133.601 115.72 133.377 115.996 133.377C116.272 133.377 116.496 133.601 116.496 133.877Z" fill="#22328A" fill-opacity="0.2"/>
<path d="M129.496 133.877C129.496 134.153 129.272 134.377 128.996 134.377C128.72 134.377 128.496 134.153 128.496 133.877C128.496 133.601 128.72 133.377 128.996 133.377C129.272 133.377 129.496 133.601 129.496 133.877Z" fill="#22328A" fill-opacity="0.2"/>
<path d="M12.4961 146.877C12.4961 147.153 12.2722 147.377 11.9961 147.377C11.72 147.377 11.4961 147.153 11.4961 146.877C11.4961 146.601 11.72 146.377 11.9961 146.377C12.2722 146.377 12.4961 146.601 12.4961 146.877Z" fill="#22328A" fill-opacity="0.2"/>
<path d="M25.4961 146.877C25.4961 147.153 25.2722 147.377 24.9961 147.377C24.72 147.377 24.4961 147.153 24.4961 146.877C24.4961 146.601 24.72 146.377 24.9961 146.377C25.2722 146.377 25.4961 146.601 25.4961 146.877Z" fill="#22328A" fill-opacity="0.2"/>
<path d="M38.4961 146.877C38.4961 147.153 38.2722 147.377 37.9961 147.377C37.72 147.377 37.4961 147.153 37.4961 146.877C37.4961 146.601 37.72 146.377 37.9961 146.377C38.2722 146.377 38.4961 146.601 38.4961 146.877Z" fill="#22328A" fill-opacity="0.2"/>
<path d="M51.4961 146.877C51.4961 147.153 51.2722 147.377 50.9961 147.377C50.72 147.377 50.4961 147.153 50.4961 146.877C50.4961 146.601 50.72 146.377 50.9961 146.377C51.2722 146.377 51.4961 146.601 51.4961 146.877Z" fill="#22328A" fill-opacity="0.2"/>
<path d="M64.4961 146.877C64.4961 147.153 64.2722 147.377 63.9961 147.377C63.72 147.377 63.4961 147.153 63.4961 146.877C63.4961 146.601 63.72 146.377 63.9961 146.377C64.2722 146.377 64.4961 146.601 64.4961 146.877Z" fill="#22328A" fill-opacity="0.2"/>
<path d="M77.4961 146.877C77.4961 147.153 77.2722 147.377 76.9961 147.377C76.72 147.377 76.4961 147.153 76.4961 146.877C76.4961 146.601 76.72 146.377 76.9961 146.377C77.2722 146.377 77.4961 146.601 77.4961 146.877Z" fill="#22328A" fill-opacity="0.2"/>
<path d="M90.4961 146.877C90.4961 147.153 90.2722 147.377 89.9961 147.377C89.72 147.377 89.4961 147.153 89.4961 146.877C89.4961 146.601 89.72 146.377 89.9961 146.377C90.2722 146.377 90.4961 146.601 90.4961 146.877Z" fill="#22328A" fill-opacity="0.2"/>
<path d="M103.496 146.877C103.496 147.153 103.272 147.377 102.996 147.377C102.72 147.377 102.496 147.153 102.496 146.877C102.496 146.601 102.72 146.377 102.996 146.377C103.272 146.377 103.496 146.601 103.496 146.877Z" fill="#22328A" fill-opacity="0.2"/>
<path d="M116.496 146.877C116.496 147.153 116.272 147.377 115.996 147.377C115.72 147.377 115.496 147.153 115.496 146.877C115.496 146.601 115.72 146.377 115.996 146.377C116.272 146.377 116.496 146.601 116.496 146.877Z" fill="#22328A" fill-opacity="0.2"/>
<path d="M129.496 146.877C129.496 147.153 129.272 147.377 128.996 147.377C128.72 147.377 128.496 147.153 128.496 146.877C128.496 146.601 128.72 146.377 128.996 146.377C129.272 146.377 129.496 146.601 129.496 146.877Z" fill="#22328A" fill-opacity="0.2"/>
<path d="M12.4961 159.877C12.4961 160.153 12.2722 160.377 11.9961 160.377C11.72 160.377 11.4961 160.153 11.4961 159.877C11.4961 159.601 11.72 159.377 11.9961 159.377C12.2722 159.377 12.4961 159.601 12.4961 159.877Z" fill="#22328A" fill-opacity="0.2"/>
<path d="M25.4961 159.877C25.4961 160.153 25.2722 160.377 24.9961 160.377C24.72 160.377 24.4961 160.153 24.4961 159.877C24.4961 159.601 24.72 159.377 24.9961 159.377C25.2722 159.377 25.4961 159.601 25.4961 159.877Z" fill="#22328A" fill-opacity="0.2"/>
<path d="M38.4961 159.877C38.4961 160.153 38.2722 160.377 37.9961 160.377C37.72 160.377 37.4961 160.153 37.4961 159.877C37.4961 159.601 37.72 159.377 37.9961 159.377C38.2722 159.377 38.4961 159.601 38.4961 159.877Z" fill="#22328A" fill-opacity="0.2"/>
<path d="M51.4961 159.877C51.4961 160.153 51.2722 160.377 50.9961 160.377C50.72 160.377 50.4961 160.153 50.4961 159.877C50.4961 159.601 50.72 159.377 50.9961 159.377C51.2722 159.377 51.4961 159.601 51.4961 159.877Z" fill="#22328A" fill-opacity="0.2"/>
<path d="M64.4961 159.877C64.4961 160.153 64.2722 160.377 63.9961 160.377C63.72 160.377 63.4961 160.153 63.4961 159.877C63.4961 159.601 63.72 159.377 63.9961 159.377C64.2722 159.377 64.4961 159.601 64.4961 159.877Z" fill="#22328A" fill-opacity="0.2"/>
<path d="M77.4961 159.877C77.4961 160.153 77.2722 160.377 76.9961 160.377C76.72 160.377 76.4961 160.153 76.4961 159.877C76.4961 159.601 76.72 159.377 76.9961 159.377C77.2722 159.377 77.4961 159.601 77.4961 159.877Z" fill="#22328A" fill-opacity="0.2"/>
<path d="M90.4961 159.877C90.4961 160.153 90.2722 160.377 89.9961 160.377C89.72 160.377 89.4961 160.153 89.4961 159.877C89.4961 159.601 89.72 159.377 89.9961 159.377C90.2722 159.377 90.4961 159.601 90.4961 159.877Z" fill="#22328A" fill-opacity="0.2"/>
<path d="M103.496 159.877C103.496 160.153 103.272 160.377 102.996 160.377C102.72 160.377 102.496 160.153 102.496 159.877C102.496 159.601 102.72 159.377 102.996 159.377C103.272 159.377 103.496 159.601 103.496 159.877Z" fill="#22328A" fill-opacity="0.2"/>
<path d="M116.496 159.877C116.496 160.153 116.272 160.377 115.996 160.377C115.72 160.377 115.496 160.153 115.496 159.877C115.496 159.601 115.72 159.377 115.996 159.377C116.272 159.377 116.496 159.601 116.496 159.877Z" fill="#22328A" fill-opacity="0.2"/>
<path d="M129.496 159.877C129.496 160.153 129.272 160.377 128.996 160.377C128.72 160.377 128.496 160.153 128.496 159.877C128.496 159.601 128.72 159.377 128.996 159.377C129.272 159.377 129.496 159.601 129.496 159.877Z" fill="#22328A" fill-opacity="0.2"/>
<path d="M12.4961 172.877C12.4961 173.153 12.2722 173.377 11.9961 173.377C11.72 173.377 11.4961 173.153 11.4961 172.877C11.4961 172.601 11.72 172.377 11.9961 172.377C12.2722 172.377 12.4961 172.601 12.4961 172.877Z" fill="#22328A" fill-opacity="0.2"/>
<path d="M25.4961 172.877C25.4961 173.153 25.2722 173.377 24.9961 173.377C24.72 173.377 24.4961 173.153 24.4961 172.877C24.4961 172.601 24.72 172.377 24.9961 172.377C25.2722 172.377 25.4961 172.601 25.4961 172.877Z" fill="#22328A" fill-opacity="0.2"/>
<path d="M38.4961 172.877C38.4961 173.153 38.2722 173.377 37.9961 173.377C37.72 173.377 37.4961 173.153 37.4961 172.877C37.4961 172.601 37.72 172.377 37.9961 172.377C38.2722 172.377 38.4961 172.601 38.4961 172.877Z" fill="#22328A" fill-opacity="0.2"/>
<path d="M51.4961 172.877C51.4961 173.153 51.2722 173.377 50.9961 173.377C50.72 173.377 50.4961 173.153 50.4961 172.877C50.4961 172.601 50.72 172.377 50.9961 172.377C51.2722 172.377 51.4961 172.601 51.4961 172.877Z" fill="#22328A" fill-opacity="0.2"/>
<path d="M64.4961 172.877C64.4961 173.153 64.2722 173.377 63.9961 173.377C63.72 173.377 63.4961 173.153 63.4961 172.877C63.4961 172.601 63.72 172.377 63.9961 172.377C64.2722 172.377 64.4961 172.601 64.4961 172.877Z" fill="#22328A" fill-opacity="0.2"/>
<path d="M77.4961 172.877C77.4961 173.153 77.2722 173.377 76.9961 173.377C76.72 173.377 76.4961 173.153 76.4961 172.877C76.4961 172.601 76.72 172.377 76.9961 172.377C77.2722 172.377 77.4961 172.601 77.4961 172.877Z" fill="#22328A" fill-opacity="0.2"/>
<path d="M90.4961 172.877C90.4961 173.153 90.2722 173.377 89.9961 173.377C89.72 173.377 89.4961 173.153 89.4961 172.877C89.4961 172.601 89.72 172.377 89.9961 172.377C90.2722 172.377 90.4961 172.601 90.4961 172.877Z" fill="#22328A" fill-opacity="0.2"/>
<path d="M103.496 172.877C103.496 173.153 103.272 173.377 102.996 173.377C102.72 173.377 102.496 173.153 102.496 172.877C102.496 172.601 102.72 172.377 102.996 172.377C103.272 172.377 103.496 172.601 103.496 172.877Z" fill="#22328A" fill-opacity="0.2"/>
<path d="M116.496 172.877C116.496 173.153 116.272 173.377 115.996 173.377C115.72 173.377 115.496 173.153 115.496 172.877C115.496 172.601 115.72 172.377 115.996 172.377C116.272 172.377 116.496 172.601 116.496 172.877Z" fill="#22328A" fill-opacity="0.2"/>
<path d="M129.496 172.877C129.496 173.153 129.272 173.377 128.996 173.377C128.72 173.377 128.496 173.153 128.496 172.877C128.496 172.601 128.72 172.377 128.996 172.377C129.272 172.377 129.496 172.601 129.496 172.877Z" fill="#22328A" fill-opacity="0.2"/>
<path d="M12.4961 185.877C12.4961 186.153 12.2722 186.377 11.9961 186.377C11.72 186.377 11.4961 186.153 11.4961 185.877C11.4961 185.601 11.72 185.377 11.9961 185.377C12.2722 185.377 12.4961 185.601 12.4961 185.877Z" fill="#22328A" fill-opacity="0.2"/>
<path d="M25.4961 185.877C25.4961 186.153 25.2722 186.377 24.9961 186.377C24.72 186.377 24.4961 186.153 24.4961 185.877C24.4961 185.601 24.72 185.377 24.9961 185.377C25.2722 185.377 25.4961 185.601 25.4961 185.877Z" fill="#22328A" fill-opacity="0.2"/>
<path d="M38.4961 185.877C38.4961 186.153 38.2722 186.377 37.9961 186.377C37.72 186.377 37.4961 186.153 37.4961 185.877C37.4961 185.601 37.72 185.377 37.9961 185.377C38.2722 185.377 38.4961 185.601 38.4961 185.877Z" fill="#22328A" fill-opacity="0.2"/>
<path d="M51.4961 185.877C51.4961 186.153 51.2722 186.377 50.9961 186.377C50.72 186.377 50.4961 186.153 50.4961 185.877C50.4961 185.601 50.72 185.377 50.9961 185.377C51.2722 185.377 51.4961 185.601 51.4961 185.877Z" fill="#22328A" fill-opacity="0.2"/>
<path d="M64.4961 185.877C64.4961 186.153 64.2722 186.377 63.9961 186.377C63.72 186.377 63.4961 186.153 63.4961 185.877C63.4961 185.601 63.72 185.377 63.9961 185.377C64.2722 185.377 64.4961 185.601 64.4961 185.877Z" fill="#22328A" fill-opacity="0.2"/>
<path d="M77.4961 185.877C77.4961 186.153 77.2722 186.377 76.9961 186.377C76.72 186.377 76.4961 186.153 76.4961 185.877C76.4961 185.601 76.72 185.377 76.9961 185.377C77.2722 185.377 77.4961 185.601 77.4961 185.877Z" fill="#22328A" fill-opacity="0.2"/>
<path d="M90.4961 185.877C90.4961 186.153 90.2722 186.377 89.9961 186.377C89.72 186.377 89.4961 186.153 89.4961 185.877C89.4961 185.601 89.72 185.377 89.9961 185.377C90.2722 185.377 90.4961 185.601 90.4961 185.877Z" fill="#22328A" fill-opacity="0.2"/>
<path d="M103.496 185.877C103.496 186.153 103.272 186.377 102.996 186.377C102.72 186.377 102.496 186.153 102.496 185.877C102.496 185.601 102.72 185.377 102.996 185.377C103.272 185.377 103.496 185.601 103.496 185.877Z" fill="#22328A" fill-opacity="0.2"/>
<path d="M116.496 185.877C116.496 186.153 116.272 186.377 115.996 186.377C115.72 186.377 115.496 186.153 115.496 185.877C115.496 185.601 115.72 185.377 115.996 185.377C116.272 185.377 116.496 185.601 116.496 185.877Z" fill="#22328A" fill-opacity="0.2"/>
<path d="M129.496 185.877C129.496 186.153 129.272 186.377 128.996 186.377C128.72 186.377 128.496 186.153 128.496 185.877C128.496 185.601 128.72 185.377 128.996 185.377C129.272 185.377 129.496 185.601 129.496 185.877Z" fill="#22328A" fill-opacity="0.2"/>
<path d="M12.4961 198.877C12.4961 199.153 12.2722 199.377 11.9961 199.377C11.72 199.377 11.4961 199.153 11.4961 198.877C11.4961 198.601 11.72 198.377 11.9961 198.377C12.2722 198.377 12.4961 198.601 12.4961 198.877Z" fill="#22328A" fill-opacity="0.2"/>
<path d="M25.4961 198.877C25.4961 199.153 25.2722 199.377 24.9961 199.377C24.72 199.377 24.4961 199.153 24.4961 198.877C24.4961 198.601 24.72 198.377 24.9961 198.377C25.2722 198.377 25.4961 198.601 25.4961 198.877Z" fill="#22328A" fill-opacity="0.2"/>
<path d="M38.4961 198.877C38.4961 199.153 38.2722 199.377 37.9961 199.377C37.72 199.377 37.4961 199.153 37.4961 198.877C37.4961 198.601 37.72 198.377 37.9961 198.377C38.2722 198.377 38.4961 198.601 38.4961 198.877Z" fill="#22328A" fill-opacity="0.2"/>
<path d="M51.4961 198.877C51.4961 199.153 51.2722 199.377 50.9961 199.377C50.72 199.377 50.4961 199.153 50.4961 198.877C50.4961 198.601 50.72 198.377 50.9961 198.377C51.2722 198.377 51.4961 198.601 51.4961 198.877Z" fill="#22328A" fill-opacity="0.2"/>
<path d="M64.4961 198.877C64.4961 199.153 64.2722 199.377 63.9961 199.377C63.72 199.377 63.4961 199.153 63.4961 198.877C63.4961 198.601 63.72 198.377 63.9961 198.377C64.2722 198.377 64.4961 198.601 64.4961 198.877Z" fill="#22328A" fill-opacity="0.2"/>
<path d="M77.4961 198.877C77.4961 199.153 77.2722 199.377 76.9961 199.377C76.72 199.377 76.4961 199.153 76.4961 198.877C76.4961 198.601 76.72 198.377 76.9961 198.377C77.2722 198.377 77.4961 198.601 77.4961 198.877Z" fill="#22328A" fill-opacity="0.2"/>
<path d="M90.4961 198.877C90.4961 199.153 90.2722 199.377 89.9961 199.377C89.72 199.377 89.4961 199.153 89.4961 198.877C89.4961 198.601 89.72 198.377 89.9961 198.377C90.2722 198.377 90.4961 198.601 90.4961 198.877Z" fill="#22328A" fill-opacity="0.2"/>
<path d="M103.496 198.877C103.496 199.153 103.272 199.377 102.996 199.377C102.72 199.377 102.496 199.153 102.496 198.877C102.496 198.601 102.72 198.377 102.996 198.377C103.272 198.377 103.496 198.601 103.496 198.877Z" fill="#22328A" fill-opacity="0.2"/>
<path d="M116.496 198.877C116.496 199.153 116.272 199.377 115.996 199.377C115.72 199.377 115.496 199.153 115.496 198.877C115.496 198.601 115.72 198.377 115.996 198.377C116.272 198.377 116.496 198.601 116.496 198.877Z" fill="#22328A" fill-opacity="0.2"/>
<path d="M129.496 198.877C129.496 199.153 129.272 199.377 128.996 199.377C128.72 199.377 128.496 199.153 128.496 198.877C128.496 198.601 128.72 198.377 128.996 198.377C129.272 198.377 129.496 198.601 129.496 198.877Z" fill="#22328A" fill-opacity="0.2"/>
<path d="M12.4961 211.877C12.4961 212.153 12.2722 212.377 11.9961 212.377C11.72 212.377 11.4961 212.153 11.4961 211.877C11.4961 211.601 11.72 211.377 11.9961 211.377C12.2722 211.377 12.4961 211.601 12.4961 211.877Z" fill="#22328A" fill-opacity="0.2"/>
<path d="M25.4961 211.877C25.4961 212.153 25.2722 212.377 24.9961 212.377C24.72 212.377 24.4961 212.153 24.4961 211.877C24.4961 211.601 24.72 211.377 24.9961 211.377C25.2722 211.377 25.4961 211.601 25.4961 211.877Z" fill="#22328A" fill-opacity="0.2"/>
<path d="M38.4961 211.877C38.4961 212.153 38.2722 212.377 37.9961 212.377C37.72 212.377 37.4961 212.153 37.4961 211.877C37.4961 211.601 37.72 211.377 37.9961 211.377C38.2722 211.377 38.4961 211.601 38.4961 211.877Z" fill="#22328A" fill-opacity="0.2"/>
<path d="M51.4961 211.877C51.4961 212.153 51.2722 212.377 50.9961 212.377C50.72 212.377 50.4961 212.153 50.4961 211.877C50.4961 211.601 50.72 211.377 50.9961 211.377C51.2722 211.377 51.4961 211.601 51.4961 211.877Z" fill="#22328A" fill-opacity="0.2"/>
<path d="M64.4961 211.877C64.4961 212.153 64.2722 212.377 63.9961 212.377C63.72 212.377 63.4961 212.153 63.4961 211.877C63.4961 211.601 63.72 211.377 63.9961 211.377C64.2722 211.377 64.4961 211.601 64.4961 211.877Z" fill="#22328A" fill-opacity="0.2"/>
<path d="M77.4961 211.877C77.4961 212.153 77.2722 212.377 76.9961 212.377C76.72 212.377 76.4961 212.153 76.4961 211.877C76.4961 211.601 76.72 211.377 76.9961 211.377C77.2722 211.377 77.4961 211.601 77.4961 211.877Z" fill="#22328A" fill-opacity="0.2"/>
<path d="M90.4961 211.877C90.4961 212.153 90.2722 212.377 89.9961 212.377C89.72 212.377 89.4961 212.153 89.4961 211.877C89.4961 211.601 89.72 211.377 89.9961 211.377C90.2722 211.377 90.4961 211.601 90.4961 211.877Z" fill="#22328A" fill-opacity="0.2"/>
<path d="M103.496 211.877C103.496 212.153 103.272 212.377 102.996 212.377C102.72 212.377 102.496 212.153 102.496 211.877C102.496 211.601 102.72 211.377 102.996 211.377C103.272 211.377 103.496 211.601 103.496 211.877Z" fill="#22328A" fill-opacity="0.2"/>
<path d="M116.496 211.877C116.496 212.153 116.272 212.377 115.996 212.377C115.72 212.377 115.496 212.153 115.496 211.877C115.496 211.601 115.72 211.377 115.996 211.377C116.272 211.377 116.496 211.601 116.496 211.877Z" fill="#22328A" fill-opacity="0.2"/>
<path d="M129.496 211.877C129.496 212.153 129.272 212.377 128.996 212.377C128.72 212.377 128.496 212.153 128.496 211.877C128.496 211.601 128.72 211.377 128.996 211.377C129.272 211.377 129.496 211.601 129.496 211.877Z" fill="#22328A" fill-opacity="0.2"/>
<path d="M12.4961 224.877C12.4961 225.153 12.2722 225.377 11.9961 225.377C11.72 225.377 11.4961 225.153 11.4961 224.877C11.4961 224.601 11.72 224.377 11.9961 224.377C12.2722 224.377 12.4961 224.601 12.4961 224.877Z" fill="#22328A" fill-opacity="0.2"/>
<path d="M25.4961 224.877C25.4961 225.153 25.2722 225.377 24.9961 225.377C24.72 225.377 24.4961 225.153 24.4961 224.877C24.4961 224.601 24.72 224.377 24.9961 224.377C25.2722 224.377 25.4961 224.601 25.4961 224.877Z" fill="#22328A" fill-opacity="0.2"/>
<path d="M38.4961 224.877C38.4961 225.153 38.2722 225.377 37.9961 225.377C37.72 225.377 37.4961 225.153 37.4961 224.877C37.4961 224.601 37.72 224.377 37.9961 224.377C38.2722 224.377 38.4961 224.601 38.4961 224.877Z" fill="#22328A" fill-opacity="0.2"/>
<path d="M51.4961 224.877C51.4961 225.153 51.2722 225.377 50.9961 225.377C50.72 225.377 50.4961 225.153 50.4961 224.877C50.4961 224.601 50.72 224.377 50.9961 224.377C51.2722 224.377 51.4961 224.601 51.4961 224.877Z" fill="#22328A" fill-opacity="0.2"/>
<path d="M64.4961 224.877C64.4961 225.153 64.2722 225.377 63.9961 225.377C63.72 225.377 63.4961 225.153 63.4961 224.877C63.4961 224.601 63.72 224.377 63.9961 224.377C64.2722 224.377 64.4961 224.601 64.4961 224.877Z" fill="#22328A" fill-opacity="0.2"/>
<path d="M77.4961 224.877C77.4961 225.153 77.2722 225.377 76.9961 225.377C76.72 225.377 76.4961 225.153 76.4961 224.877C76.4961 224.601 76.72 224.377 76.9961 224.377C77.2722 224.377 77.4961 224.601 77.4961 224.877Z" fill="#22328A" fill-opacity="0.2"/>
<path d="M90.4961 224.877C90.4961 225.153 90.2722 225.377 89.9961 225.377C89.72 225.377 89.4961 225.153 89.4961 224.877C89.4961 224.601 89.72 224.377 89.9961 224.377C90.2722 224.377 90.4961 224.601 90.4961 224.877Z" fill="#22328A" fill-opacity="0.2"/>
<path d="M103.496 224.877C103.496 225.153 103.272 225.377 102.996 225.377C102.72 225.377 102.496 225.153 102.496 224.877C102.496 224.601 102.72 224.377 102.996 224.377C103.272 224.377 103.496 224.601 103.496 224.877Z" fill="#22328A" fill-opacity="0.2"/>
<path d="M116.496 224.877C116.496 225.153 116.272 225.377 115.996 225.377C115.72 225.377 115.496 225.153 115.496 224.877C115.496 224.601 115.72 224.377 115.996 224.377C116.272 224.377 116.496 224.601 116.496 224.877Z" fill="#22328A" fill-opacity="0.2"/>
<path d="M129.496 224.877C129.496 225.153 129.272 225.377 128.996 225.377C128.72 225.377 128.496 225.153 128.496 224.877C128.496 224.601 128.72 224.377 128.996 224.377C129.272 224.377 129.496 224.601 129.496 224.877Z" fill="#22328A" fill-opacity="0.2"/>
<path d="M258.496 55.877C258.496 56.1531 258.72 56.377 258.996 56.377C259.272 56.377 259.496 56.1531 259.496 55.877C259.496 55.6008 259.272 55.377 258.996 55.377C258.72 55.377 258.496 55.6008 258.496 55.877Z" fill="#22328A" fill-opacity="0.2"/>
<path d="M245.496 55.877C245.496 56.1531 245.72 56.377 245.996 56.377C246.272 56.377 246.496 56.1531 246.496 55.877C246.496 55.6008 246.272 55.377 245.996 55.377C245.72 55.377 245.496 55.6008 245.496 55.877Z" fill="#22328A" fill-opacity="0.2"/>
<path d="M232.496 55.877C232.496 56.1531 232.72 56.377 232.996 56.377C233.272 56.377 233.496 56.1531 233.496 55.877C233.496 55.6008 233.272 55.377 232.996 55.377C232.72 55.377 232.496 55.6008 232.496 55.877Z" fill="#22328A" fill-opacity="0.2"/>
<path d="M219.496 55.877C219.496 56.1531 219.72 56.377 219.996 56.377C220.272 56.377 220.496 56.1531 220.496 55.877C220.496 55.6008 220.272 55.377 219.996 55.377C219.72 55.377 219.496 55.6008 219.496 55.877Z" fill="#22328A" fill-opacity="0.2"/>
<path d="M206.496 55.877C206.496 56.1531 206.72 56.377 206.996 56.377C207.272 56.377 207.496 56.1531 207.496 55.877C207.496 55.6008 207.272 55.377 206.996 55.377C206.72 55.377 206.496 55.6008 206.496 55.877Z" fill="#22328A" fill-opacity="0.2"/>
<path d="M193.496 55.877C193.496 56.1531 193.72 56.377 193.996 56.377C194.272 56.377 194.496 56.1531 194.496 55.877C194.496 55.6008 194.272 55.377 193.996 55.377C193.72 55.377 193.496 55.6008 193.496 55.877Z" fill="#22328A" fill-opacity="0.2"/>
<path d="M180.496 55.877C180.496 56.1531 180.72 56.377 180.996 56.377C181.272 56.377 181.496 56.1531 181.496 55.877C181.496 55.6008 181.272 55.377 180.996 55.377C180.72 55.377 180.496 55.6008 180.496 55.877Z" fill="#22328A" fill-opacity="0.2"/>
<path d="M167.496 55.877C167.496 56.1531 167.72 56.377 167.996 56.377C168.272 56.377 168.496 56.1531 168.496 55.877C168.496 55.6008 168.272 55.377 167.996 55.377C167.72 55.377 167.496 55.6008 167.496 55.877Z" fill="#22328A" fill-opacity="0.2"/>
<path d="M154.496 55.877C154.496 56.1531 154.72 56.377 154.996 56.377C155.272 56.377 155.496 56.1531 155.496 55.877C155.496 55.6008 155.272 55.377 154.996 55.377C154.72 55.377 154.496 55.6008 154.496 55.877Z" fill="#22328A" fill-opacity="0.2"/>
<path d="M141.496 55.877C141.496 56.1531 141.72 56.377 141.996 56.377C142.272 56.377 142.496 56.1531 142.496 55.877C142.496 55.6008 142.272 55.377 141.996 55.377C141.72 55.377 141.496 55.6008 141.496 55.877Z" fill="#22328A" fill-opacity="0.2"/>
<path d="M258.496 68.877C258.496 69.1531 258.72 69.377 258.996 69.377C259.272 69.377 259.496 69.1531 259.496 68.877C259.496 68.6009 259.272 68.377 258.996 68.377C258.72 68.377 258.496 68.6009 258.496 68.877Z" fill="#22328A" fill-opacity="0.2"/>
<path d="M245.496 68.877C245.496 69.1531 245.72 69.377 245.996 69.377C246.272 69.377 246.496 69.1531 246.496 68.877C246.496 68.6009 246.272 68.377 245.996 68.377C245.72 68.377 245.496 68.6009 245.496 68.877Z" fill="#22328A" fill-opacity="0.2"/>
<path d="M232.496 68.877C232.496 69.1531 232.72 69.377 232.996 69.377C233.272 69.377 233.496 69.1531 233.496 68.877C233.496 68.6009 233.272 68.377 232.996 68.377C232.72 68.377 232.496 68.6009 232.496 68.877Z" fill="#22328A" fill-opacity="0.2"/>
<path d="M219.496 68.877C219.496 69.1531 219.72 69.377 219.996 69.377C220.272 69.377 220.496 69.1531 220.496 68.877C220.496 68.6009 220.272 68.377 219.996 68.377C219.72 68.377 219.496 68.6009 219.496 68.877Z" fill="#22328A" fill-opacity="0.2"/>
<path d="M206.496 68.877C206.496 69.1531 206.72 69.377 206.996 69.377C207.272 69.377 207.496 69.1531 207.496 68.877C207.496 68.6009 207.272 68.377 206.996 68.377C206.72 68.377 206.496 68.6009 206.496 68.877Z" fill="#22328A" fill-opacity="0.2"/>
<path d="M193.496 68.877C193.496 69.1531 193.72 69.377 193.996 69.377C194.272 69.377 194.496 69.1531 194.496 68.877C194.496 68.6009 194.272 68.377 193.996 68.377C193.72 68.377 193.496 68.6009 193.496 68.877Z" fill="#22328A" fill-opacity="0.2"/>
<path d="M180.496 68.877C180.496 69.1531 180.72 69.377 180.996 69.377C181.272 69.377 181.496 69.1531 181.496 68.877C181.496 68.6009 181.272 68.377 180.996 68.377C180.72 68.377 180.496 68.6009 180.496 68.877Z" fill="#22328A" fill-opacity="0.2"/>
<path d="M167.496 68.877C167.496 69.1531 167.72 69.377 167.996 69.377C168.272 69.377 168.496 69.1531 168.496 68.877C168.496 68.6009 168.272 68.377 167.996 68.377C167.72 68.377 167.496 68.6009 167.496 68.877Z" fill="#22328A" fill-opacity="0.2"/>
<path d="M154.496 68.877C154.496 69.1531 154.72 69.377 154.996 69.377C155.272 69.377 155.496 69.1531 155.496 68.877C155.496 68.6009 155.272 68.377 154.996 68.377C154.72 68.377 154.496 68.6009 154.496 68.877Z" fill="#22328A" fill-opacity="0.2"/>
<path d="M141.496 68.877C141.496 69.1531 141.72 69.377 141.996 69.377C142.272 69.377 142.496 69.1531 142.496 68.877C142.496 68.6009 142.272 68.377 141.996 68.377C141.72 68.377 141.496 68.6009 141.496 68.877Z" fill="#22328A" fill-opacity="0.2"/>
<path d="M258.496 81.877C258.496 82.1531 258.72 82.377 258.996 82.377C259.272 82.377 259.496 82.1531 259.496 81.877C259.496 81.6009 259.272 81.377 258.996 81.377C258.72 81.377 258.496 81.6009 258.496 81.877Z" fill="#22328A" fill-opacity="0.2"/>
<path d="M245.496 81.877C245.496 82.1531 245.72 82.377 245.996 82.377C246.272 82.377 246.496 82.1531 246.496 81.877C246.496 81.6009 246.272 81.377 245.996 81.377C245.72 81.377 245.496 81.6009 245.496 81.877Z" fill="#22328A" fill-opacity="0.2"/>
<path d="M232.496 81.877C232.496 82.1531 232.72 82.377 232.996 82.377C233.272 82.377 233.496 82.1531 233.496 81.877C233.496 81.6009 233.272 81.377 232.996 81.377C232.72 81.377 232.496 81.6009 232.496 81.877Z" fill="#22328A" fill-opacity="0.2"/>
<path d="M219.496 81.877C219.496 82.1531 219.72 82.377 219.996 82.377C220.272 82.377 220.496 82.1531 220.496 81.877C220.496 81.6009 220.272 81.377 219.996 81.377C219.72 81.377 219.496 81.6009 219.496 81.877Z" fill="#22328A" fill-opacity="0.2"/>
<path d="M206.496 81.877C206.496 82.1531 206.72 82.377 206.996 82.377C207.272 82.377 207.496 82.1531 207.496 81.877C207.496 81.6009 207.272 81.377 206.996 81.377C206.72 81.377 206.496 81.6009 206.496 81.877Z" fill="#22328A" fill-opacity="0.2"/>
<path d="M193.496 81.877C193.496 82.1531 193.72 82.377 193.996 82.377C194.272 82.377 194.496 82.1531 194.496 81.877C194.496 81.6009 194.272 81.377 193.996 81.377C193.72 81.377 193.496 81.6009 193.496 81.877Z" fill="#22328A" fill-opacity="0.2"/>
<path d="M180.496 81.877C180.496 82.1531 180.72 82.377 180.996 82.377C181.272 82.377 181.496 82.1531 181.496 81.877C181.496 81.6009 181.272 81.377 180.996 81.377C180.72 81.377 180.496 81.6009 180.496 81.877Z" fill="#22328A" fill-opacity="0.2"/>
<path d="M167.496 81.877C167.496 82.1531 167.72 82.377 167.996 82.377C168.272 82.377 168.496 82.1531 168.496 81.877C168.496 81.6009 168.272 81.377 167.996 81.377C167.72 81.377 167.496 81.6009 167.496 81.877Z" fill="#22328A" fill-opacity="0.2"/>
<path d="M154.496 81.877C154.496 82.1531 154.72 82.377 154.996 82.377C155.272 82.377 155.496 82.1531 155.496 81.877C155.496 81.6009 155.272 81.377 154.996 81.377C154.72 81.377 154.496 81.6009 154.496 81.877Z" fill="#22328A" fill-opacity="0.2"/>
<path d="M141.496 81.877C141.496 82.1531 141.72 82.377 141.996 82.377C142.272 82.377 142.496 82.1531 142.496 81.877C142.496 81.6009 142.272 81.377 141.996 81.377C141.72 81.377 141.496 81.6009 141.496 81.877Z" fill="#22328A" fill-opacity="0.2"/>
<path d="M258.496 94.877C258.496 95.1531 258.72 95.377 258.996 95.377C259.272 95.377 259.496 95.1531 259.496 94.877C259.496 94.6009 259.272 94.377 258.996 94.377C258.72 94.377 258.496 94.6009 258.496 94.877Z" fill="#22328A" fill-opacity="0.2"/>
<path d="M245.496 94.877C245.496 95.1531 245.72 95.377 245.996 95.377C246.272 95.377 246.496 95.1531 246.496 94.877C246.496 94.6009 246.272 94.377 245.996 94.377C245.72 94.377 245.496 94.6009 245.496 94.877Z" fill="#22328A" fill-opacity="0.2"/>
<path d="M232.496 94.877C232.496 95.1531 232.72 95.377 232.996 95.377C233.272 95.377 233.496 95.1531 233.496 94.877C233.496 94.6009 233.272 94.377 232.996 94.377C232.72 94.377 232.496 94.6009 232.496 94.877Z" fill="#22328A" fill-opacity="0.2"/>
<path d="M219.496 94.877C219.496 95.1531 219.72 95.377 219.996 95.377C220.272 95.377 220.496 95.1531 220.496 94.877C220.496 94.6009 220.272 94.377 219.996 94.377C219.72 94.377 219.496 94.6009 219.496 94.877Z" fill="#22328A" fill-opacity="0.2"/>
<path d="M206.496 94.877C206.496 95.1531 206.72 95.377 206.996 95.377C207.272 95.377 207.496 95.1531 207.496 94.877C207.496 94.6009 207.272 94.377 206.996 94.377C206.72 94.377 206.496 94.6009 206.496 94.877Z" fill="#22328A" fill-opacity="0.2"/>
<path d="M193.496 94.877C193.496 95.1531 193.72 95.377 193.996 95.377C194.272 95.377 194.496 95.1531 194.496 94.877C194.496 94.6009 194.272 94.377 193.996 94.377C193.72 94.377 193.496 94.6009 193.496 94.877Z" fill="#22328A" fill-opacity="0.2"/>
<path d="M180.496 94.877C180.496 95.1531 180.72 95.377 180.996 95.377C181.272 95.377 181.496 95.1531 181.496 94.877C181.496 94.6009 181.272 94.377 180.996 94.377C180.72 94.377 180.496 94.6009 180.496 94.877Z" fill="#22328A" fill-opacity="0.2"/>
<path d="M167.496 94.877C167.496 95.1531 167.72 95.377 167.996 95.377C168.272 95.377 168.496 95.1531 168.496 94.877C168.496 94.6009 168.272 94.377 167.996 94.377C167.72 94.377 167.496 94.6009 167.496 94.877Z" fill="#22328A" fill-opacity="0.2"/>
<path d="M154.496 94.877C154.496 95.1531 154.72 95.377 154.996 95.377C155.272 95.377 155.496 95.1531 155.496 94.877C155.496 94.6009 155.272 94.377 154.996 94.377C154.72 94.377 154.496 94.6009 154.496 94.877Z" fill="#22328A" fill-opacity="0.2"/>
<path d="M141.496 94.877C141.496 95.1531 141.72 95.377 141.996 95.377C142.272 95.377 142.496 95.1531 142.496 94.877C142.496 94.6009 142.272 94.377 141.996 94.377C141.72 94.377 141.496 94.6009 141.496 94.877Z" fill="#22328A" fill-opacity="0.2"/>
<path d="M258.496 107.877C258.496 108.153 258.72 108.377 258.996 108.377C259.272 108.377 259.496 108.153 259.496 107.877C259.496 107.601 259.272 107.377 258.996 107.377C258.72 107.377 258.496 107.601 258.496 107.877Z" fill="#22328A" fill-opacity="0.2"/>
<path d="M245.496 107.877C245.496 108.153 245.72 108.377 245.996 108.377C246.272 108.377 246.496 108.153 246.496 107.877C246.496 107.601 246.272 107.377 245.996 107.377C245.72 107.377 245.496 107.601 245.496 107.877Z" fill="#22328A" fill-opacity="0.2"/>
<path d="M232.496 107.877C232.496 108.153 232.72 108.377 232.996 108.377C233.272 108.377 233.496 108.153 233.496 107.877C233.496 107.601 233.272 107.377 232.996 107.377C232.72 107.377 232.496 107.601 232.496 107.877Z" fill="#22328A" fill-opacity="0.2"/>
<path d="M219.496 107.877C219.496 108.153 219.72 108.377 219.996 108.377C220.272 108.377 220.496 108.153 220.496 107.877C220.496 107.601 220.272 107.377 219.996 107.377C219.72 107.377 219.496 107.601 219.496 107.877Z" fill="#22328A" fill-opacity="0.2"/>
<path d="M206.496 107.877C206.496 108.153 206.72 108.377 206.996 108.377C207.272 108.377 207.496 108.153 207.496 107.877C207.496 107.601 207.272 107.377 206.996 107.377C206.72 107.377 206.496 107.601 206.496 107.877Z" fill="#22328A" fill-opacity="0.2"/>
<path d="M193.496 107.877C193.496 108.153 193.72 108.377 193.996 108.377C194.272 108.377 194.496 108.153 194.496 107.877C194.496 107.601 194.272 107.377 193.996 107.377C193.72 107.377 193.496 107.601 193.496 107.877Z" fill="#22328A" fill-opacity="0.2"/>
<path d="M180.496 107.877C180.496 108.153 180.72 108.377 180.996 108.377C181.272 108.377 181.496 108.153 181.496 107.877C181.496 107.601 181.272 107.377 180.996 107.377C180.72 107.377 180.496 107.601 180.496 107.877Z" fill="#22328A" fill-opacity="0.2"/>
<path d="M167.496 107.877C167.496 108.153 167.72 108.377 167.996 108.377C168.272 108.377 168.496 108.153 168.496 107.877C168.496 107.601 168.272 107.377 167.996 107.377C167.72 107.377 167.496 107.601 167.496 107.877Z" fill="#22328A" fill-opacity="0.2"/>
<path d="M154.496 107.877C154.496 108.153 154.72 108.377 154.996 108.377C155.272 108.377 155.496 108.153 155.496 107.877C155.496 107.601 155.272 107.377 154.996 107.377C154.72 107.377 154.496 107.601 154.496 107.877Z" fill="#22328A" fill-opacity="0.2"/>
<path d="M141.496 107.877C141.496 108.153 141.72 108.377 141.996 108.377C142.272 108.377 142.496 108.153 142.496 107.877C142.496 107.601 142.272 107.377 141.996 107.377C141.72 107.377 141.496 107.601 141.496 107.877Z" fill="#22328A" fill-opacity="0.2"/>
<path d="M258.496 120.877C258.496 121.153 258.72 121.377 258.996 121.377C259.272 121.377 259.496 121.153 259.496 120.877C259.496 120.601 259.272 120.377 258.996 120.377C258.72 120.377 258.496 120.601 258.496 120.877Z" fill="#22328A" fill-opacity="0.2"/>
<path d="M245.496 120.877C245.496 121.153 245.72 121.377 245.996 121.377C246.272 121.377 246.496 121.153 246.496 120.877C246.496 120.601 246.272 120.377 245.996 120.377C245.72 120.377 245.496 120.601 245.496 120.877Z" fill="#22328A" fill-opacity="0.2"/>
<path d="M232.496 120.877C232.496 121.153 232.72 121.377 232.996 121.377C233.272 121.377 233.496 121.153 233.496 120.877C233.496 120.601 233.272 120.377 232.996 120.377C232.72 120.377 232.496 120.601 232.496 120.877Z" fill="#22328A" fill-opacity="0.2"/>
<path d="M219.496 120.877C219.496 121.153 219.72 121.377 219.996 121.377C220.272 121.377 220.496 121.153 220.496 120.877C220.496 120.601 220.272 120.377 219.996 120.377C219.72 120.377 219.496 120.601 219.496 120.877Z" fill="#22328A" fill-opacity="0.2"/>
<path d="M206.496 120.877C206.496 121.153 206.72 121.377 206.996 121.377C207.272 121.377 207.496 121.153 207.496 120.877C207.496 120.601 207.272 120.377 206.996 120.377C206.72 120.377 206.496 120.601 206.496 120.877Z" fill="#22328A" fill-opacity="0.2"/>
<path d="M193.496 120.877C193.496 121.153 193.72 121.377 193.996 121.377C194.272 121.377 194.496 121.153 194.496 120.877C194.496 120.601 194.272 120.377 193.996 120.377C193.72 120.377 193.496 120.601 193.496 120.877Z" fill="#22328A" fill-opacity="0.2"/>
<path d="M180.496 120.877C180.496 121.153 180.72 121.377 180.996 121.377C181.272 121.377 181.496 121.153 181.496 120.877C181.496 120.601 181.272 120.377 180.996 120.377C180.72 120.377 180.496 120.601 180.496 120.877Z" fill="#22328A" fill-opacity="0.2"/>
<path d="M167.496 120.877C167.496 121.153 167.72 121.377 167.996 121.377C168.272 121.377 168.496 121.153 168.496 120.877C168.496 120.601 168.272 120.377 167.996 120.377C167.72 120.377 167.496 120.601 167.496 120.877Z" fill="#22328A" fill-opacity="0.2"/>
<path d="M154.496 120.877C154.496 121.153 154.72 121.377 154.996 121.377C155.272 121.377 155.496 121.153 155.496 120.877C155.496 120.601 155.272 120.377 154.996 120.377C154.72 120.377 154.496 120.601 154.496 120.877Z" fill="#22328A" fill-opacity="0.2"/>
<path d="M141.496 120.877C141.496 121.153 141.72 121.377 141.996 121.377C142.272 121.377 142.496 121.153 142.496 120.877C142.496 120.601 142.272 120.377 141.996 120.377C141.72 120.377 141.496 120.601 141.496 120.877Z" fill="#22328A" fill-opacity="0.2"/>
<path d="M258.496 133.877C258.496 134.153 258.72 134.377 258.996 134.377C259.272 134.377 259.496 134.153 259.496 133.877C259.496 133.601 259.272 133.377 258.996 133.377C258.72 133.377 258.496 133.601 258.496 133.877Z" fill="#22328A" fill-opacity="0.2"/>
<path d="M245.496 133.877C245.496 134.153 245.72 134.377 245.996 134.377C246.272 134.377 246.496 134.153 246.496 133.877C246.496 133.601 246.272 133.377 245.996 133.377C245.72 133.377 245.496 133.601 245.496 133.877Z" fill="#22328A" fill-opacity="0.2"/>
<path d="M232.496 133.877C232.496 134.153 232.72 134.377 232.996 134.377C233.272 134.377 233.496 134.153 233.496 133.877C233.496 133.601 233.272 133.377 232.996 133.377C232.72 133.377 232.496 133.601 232.496 133.877Z" fill="#22328A" fill-opacity="0.2"/>
<path d="M219.496 133.877C219.496 134.153 219.72 134.377 219.996 134.377C220.272 134.377 220.496 134.153 220.496 133.877C220.496 133.601 220.272 133.377 219.996 133.377C219.72 133.377 219.496 133.601 219.496 133.877Z" fill="#22328A" fill-opacity="0.2"/>
<path d="M206.496 133.877C206.496 134.153 206.72 134.377 206.996 134.377C207.272 134.377 207.496 134.153 207.496 133.877C207.496 133.601 207.272 133.377 206.996 133.377C206.72 133.377 206.496 133.601 206.496 133.877Z" fill="#22328A" fill-opacity="0.2"/>
<path d="M193.496 133.877C193.496 134.153 193.72 134.377 193.996 134.377C194.272 134.377 194.496 134.153 194.496 133.877C194.496 133.601 194.272 133.377 193.996 133.377C193.72 133.377 193.496 133.601 193.496 133.877Z" fill="#22328A" fill-opacity="0.2"/>
<path d="M180.496 133.877C180.496 134.153 180.72 134.377 180.996 134.377C181.272 134.377 181.496 134.153 181.496 133.877C181.496 133.601 181.272 133.377 180.996 133.377C180.72 133.377 180.496 133.601 180.496 133.877Z" fill="#22328A" fill-opacity="0.2"/>
<path d="M167.496 133.877C167.496 134.153 167.72 134.377 167.996 134.377C168.272 134.377 168.496 134.153 168.496 133.877C168.496 133.601 168.272 133.377 167.996 133.377C167.72 133.377 167.496 133.601 167.496 133.877Z" fill="#22328A" fill-opacity="0.2"/>
<path d="M154.496 133.877C154.496 134.153 154.72 134.377 154.996 134.377C155.272 134.377 155.496 134.153 155.496 133.877C155.496 133.601 155.272 133.377 154.996 133.377C154.72 133.377 154.496 133.601 154.496 133.877Z" fill="#22328A" fill-opacity="0.2"/>
<path d="M141.496 133.877C141.496 134.153 141.72 134.377 141.996 134.377C142.272 134.377 142.496 134.153 142.496 133.877C142.496 133.601 142.272 133.377 141.996 133.377C141.72 133.377 141.496 133.601 141.496 133.877Z" fill="#22328A" fill-opacity="0.2"/>
<path d="M258.496 146.877C258.496 147.153 258.72 147.377 258.996 147.377C259.272 147.377 259.496 147.153 259.496 146.877C259.496 146.601 259.272 146.377 258.996 146.377C258.72 146.377 258.496 146.601 258.496 146.877Z" fill="#22328A" fill-opacity="0.2"/>
<path d="M245.496 146.877C245.496 147.153 245.72 147.377 245.996 147.377C246.272 147.377 246.496 147.153 246.496 146.877C246.496 146.601 246.272 146.377 245.996 146.377C245.72 146.377 245.496 146.601 245.496 146.877Z" fill="#22328A" fill-opacity="0.2"/>
<path d="M232.496 146.877C232.496 147.153 232.72 147.377 232.996 147.377C233.272 147.377 233.496 147.153 233.496 146.877C233.496 146.601 233.272 146.377 232.996 146.377C232.72 146.377 232.496 146.601 232.496 146.877Z" fill="#22328A" fill-opacity="0.2"/>
<path d="M219.496 146.877C219.496 147.153 219.72 147.377 219.996 147.377C220.272 147.377 220.496 147.153 220.496 146.877C220.496 146.601 220.272 146.377 219.996 146.377C219.72 146.377 219.496 146.601 219.496 146.877Z" fill="#22328A" fill-opacity="0.2"/>
<path d="M206.496 146.877C206.496 147.153 206.72 147.377 206.996 147.377C207.272 147.377 207.496 147.153 207.496 146.877C207.496 146.601 207.272 146.377 206.996 146.377C206.72 146.377 206.496 146.601 206.496 146.877Z" fill="#22328A" fill-opacity="0.2"/>
<path d="M193.496 146.877C193.496 147.153 193.72 147.377 193.996 147.377C194.272 147.377 194.496 147.153 194.496 146.877C194.496 146.601 194.272 146.377 193.996 146.377C193.72 146.377 193.496 146.601 193.496 146.877Z" fill="#22328A" fill-opacity="0.2"/>
<path d="M180.496 146.877C180.496 147.153 180.72 147.377 180.996 147.377C181.272 147.377 181.496 147.153 181.496 146.877C181.496 146.601 181.272 146.377 180.996 146.377C180.72 146.377 180.496 146.601 180.496 146.877Z" fill="#22328A" fill-opacity="0.2"/>
<path d="M167.496 146.877C167.496 147.153 167.72 147.377 167.996 147.377C168.272 147.377 168.496 147.153 168.496 146.877C168.496 146.601 168.272 146.377 167.996 146.377C167.72 146.377 167.496 146.601 167.496 146.877Z" fill="#22328A" fill-opacity="0.2"/>
<path d="M154.496 146.877C154.496 147.153 154.72 147.377 154.996 147.377C155.272 147.377 155.496 147.153 155.496 146.877C155.496 146.601 155.272 146.377 154.996 146.377C154.72 146.377 154.496 146.601 154.496 146.877Z" fill="#22328A" fill-opacity="0.2"/>
<path d="M141.496 146.877C141.496 147.153 141.72 147.377 141.996 147.377C142.272 147.377 142.496 147.153 142.496 146.877C142.496 146.601 142.272 146.377 141.996 146.377C141.72 146.377 141.496 146.601 141.496 146.877Z" fill="#22328A" fill-opacity="0.2"/>
<path d="M258.496 159.877C258.496 160.153 258.72 160.377 258.996 160.377C259.272 160.377 259.496 160.153 259.496 159.877C259.496 159.601 259.272 159.377 258.996 159.377C258.72 159.377 258.496 159.601 258.496 159.877Z" fill="#22328A" fill-opacity="0.2"/>
<path d="M245.496 159.877C245.496 160.153 245.72 160.377 245.996 160.377C246.272 160.377 246.496 160.153 246.496 159.877C246.496 159.601 246.272 159.377 245.996 159.377C245.72 159.377 245.496 159.601 245.496 159.877Z" fill="#22328A" fill-opacity="0.2"/>
<path d="M232.496 159.877C232.496 160.153 232.72 160.377 232.996 160.377C233.272 160.377 233.496 160.153 233.496 159.877C233.496 159.601 233.272 159.377 232.996 159.377C232.72 159.377 232.496 159.601 232.496 159.877Z" fill="#22328A" fill-opacity="0.2"/>
<path d="M219.496 159.877C219.496 160.153 219.72 160.377 219.996 160.377C220.272 160.377 220.496 160.153 220.496 159.877C220.496 159.601 220.272 159.377 219.996 159.377C219.72 159.377 219.496 159.601 219.496 159.877Z" fill="#22328A" fill-opacity="0.2"/>
<path d="M206.496 159.877C206.496 160.153 206.72 160.377 206.996 160.377C207.272 160.377 207.496 160.153 207.496 159.877C207.496 159.601 207.272 159.377 206.996 159.377C206.72 159.377 206.496 159.601 206.496 159.877Z" fill="#22328A" fill-opacity="0.2"/>
<path d="M193.496 159.877C193.496 160.153 193.72 160.377 193.996 160.377C194.272 160.377 194.496 160.153 194.496 159.877C194.496 159.601 194.272 159.377 193.996 159.377C193.72 159.377 193.496 159.601 193.496 159.877Z" fill="#22328A" fill-opacity="0.2"/>
<path d="M180.496 159.877C180.496 160.153 180.72 160.377 180.996 160.377C181.272 160.377 181.496 160.153 181.496 159.877C181.496 159.601 181.272 159.377 180.996 159.377C180.72 159.377 180.496 159.601 180.496 159.877Z" fill="#22328A" fill-opacity="0.2"/>
<path d="M167.496 159.877C167.496 160.153 167.72 160.377 167.996 160.377C168.272 160.377 168.496 160.153 168.496 159.877C168.496 159.601 168.272 159.377 167.996 159.377C167.72 159.377 167.496 159.601 167.496 159.877Z" fill="#22328A" fill-opacity="0.2"/>
<path d="M154.496 159.877C154.496 160.153 154.72 160.377 154.996 160.377C155.272 160.377 155.496 160.153 155.496 159.877C155.496 159.601 155.272 159.377 154.996 159.377C154.72 159.377 154.496 159.601 154.496 159.877Z" fill="#22328A" fill-opacity="0.2"/>
<path d="M141.496 159.877C141.496 160.153 141.72 160.377 141.996 160.377C142.272 160.377 142.496 160.153 142.496 159.877C142.496 159.601 142.272 159.377 141.996 159.377C141.72 159.377 141.496 159.601 141.496 159.877Z" fill="#22328A" fill-opacity="0.2"/>
<path d="M258.496 172.877C258.496 173.153 258.72 173.377 258.996 173.377C259.272 173.377 259.496 173.153 259.496 172.877C259.496 172.601 259.272 172.377 258.996 172.377C258.72 172.377 258.496 172.601 258.496 172.877Z" fill="#22328A" fill-opacity="0.2"/>
<path d="M245.496 172.877C245.496 173.153 245.72 173.377 245.996 173.377C246.272 173.377 246.496 173.153 246.496 172.877C246.496 172.601 246.272 172.377 245.996 172.377C245.72 172.377 245.496 172.601 245.496 172.877Z" fill="#22328A" fill-opacity="0.2"/>
<path d="M232.496 172.877C232.496 173.153 232.72 173.377 232.996 173.377C233.272 173.377 233.496 173.153 233.496 172.877C233.496 172.601 233.272 172.377 232.996 172.377C232.72 172.377 232.496 172.601 232.496 172.877Z" fill="#22328A" fill-opacity="0.2"/>
<path d="M219.496 172.877C219.496 173.153 219.72 173.377 219.996 173.377C220.272 173.377 220.496 173.153 220.496 172.877C220.496 172.601 220.272 172.377 219.996 172.377C219.72 172.377 219.496 172.601 219.496 172.877Z" fill="#22328A" fill-opacity="0.2"/>
<path d="M206.496 172.877C206.496 173.153 206.72 173.377 206.996 173.377C207.272 173.377 207.496 173.153 207.496 172.877C207.496 172.601 207.272 172.377 206.996 172.377C206.72 172.377 206.496 172.601 206.496 172.877Z" fill="#22328A" fill-opacity="0.2"/>
<path d="M193.496 172.877C193.496 173.153 193.72 173.377 193.996 173.377C194.272 173.377 194.496 173.153 194.496 172.877C194.496 172.601 194.272 172.377 193.996 172.377C193.72 172.377 193.496 172.601 193.496 172.877Z" fill="#22328A" fill-opacity="0.2"/>
<path d="M180.496 172.877C180.496 173.153 180.72 173.377 180.996 173.377C181.272 173.377 181.496 173.153 181.496 172.877C181.496 172.601 181.272 172.377 180.996 172.377C180.72 172.377 180.496 172.601 180.496 172.877Z" fill="#22328A" fill-opacity="0.2"/>
<path d="M167.496 172.877C167.496 173.153 167.72 173.377 167.996 173.377C168.272 173.377 168.496 173.153 168.496 172.877C168.496 172.601 168.272 172.377 167.996 172.377C167.72 172.377 167.496 172.601 167.496 172.877Z" fill="#22328A" fill-opacity="0.2"/>
<path d="M154.496 172.877C154.496 173.153 154.72 173.377 154.996 173.377C155.272 173.377 155.496 173.153 155.496 172.877C155.496 172.601 155.272 172.377 154.996 172.377C154.72 172.377 154.496 172.601 154.496 172.877Z" fill="#22328A" fill-opacity="0.2"/>
<path d="M141.496 172.877C141.496 173.153 141.72 173.377 141.996 173.377C142.272 173.377 142.496 173.153 142.496 172.877C142.496 172.601 142.272 172.377 141.996 172.377C141.72 172.377 141.496 172.601 141.496 172.877Z" fill="#22328A" fill-opacity="0.2"/>
<path d="M258.496 185.877C258.496 186.153 258.72 186.377 258.996 186.377C259.272 186.377 259.496 186.153 259.496 185.877C259.496 185.601 259.272 185.377 258.996 185.377C258.72 185.377 258.496 185.601 258.496 185.877Z" fill="#22328A" fill-opacity="0.2"/>
<path d="M245.496 185.877C245.496 186.153 245.72 186.377 245.996 186.377C246.272 186.377 246.496 186.153 246.496 185.877C246.496 185.601 246.272 185.377 245.996 185.377C245.72 185.377 245.496 185.601 245.496 185.877Z" fill="#22328A" fill-opacity="0.2"/>
<path d="M232.496 185.877C232.496 186.153 232.72 186.377 232.996 186.377C233.272 186.377 233.496 186.153 233.496 185.877C233.496 185.601 233.272 185.377 232.996 185.377C232.72 185.377 232.496 185.601 232.496 185.877Z" fill="#22328A" fill-opacity="0.2"/>
<path d="M219.496 185.877C219.496 186.153 219.72 186.377 219.996 186.377C220.272 186.377 220.496 186.153 220.496 185.877C220.496 185.601 220.272 185.377 219.996 185.377C219.72 185.377 219.496 185.601 219.496 185.877Z" fill="#22328A" fill-opacity="0.2"/>
<path d="M206.496 185.877C206.496 186.153 206.72 186.377 206.996 186.377C207.272 186.377 207.496 186.153 207.496 185.877C207.496 185.601 207.272 185.377 206.996 185.377C206.72 185.377 206.496 185.601 206.496 185.877Z" fill="#22328A" fill-opacity="0.2"/>
<path d="M193.496 185.877C193.496 186.153 193.72 186.377 193.996 186.377C194.272 186.377 194.496 186.153 194.496 185.877C194.496 185.601 194.272 185.377 193.996 185.377C193.72 185.377 193.496 185.601 193.496 185.877Z" fill="#22328A" fill-opacity="0.2"/>
<path d="M180.496 185.877C180.496 186.153 180.72 186.377 180.996 186.377C181.272 186.377 181.496 186.153 181.496 185.877C181.496 185.601 181.272 185.377 180.996 185.377C180.72 185.377 180.496 185.601 180.496 185.877Z" fill="#22328A" fill-opacity="0.2"/>
<path d="M167.496 185.877C167.496 186.153 167.72 186.377 167.996 186.377C168.272 186.377 168.496 186.153 168.496 185.877C168.496 185.601 168.272 185.377 167.996 185.377C167.72 185.377 167.496 185.601 167.496 185.877Z" fill="#22328A" fill-opacity="0.2"/>
<path d="M154.496 185.877C154.496 186.153 154.72 186.377 154.996 186.377C155.272 186.377 155.496 186.153 155.496 185.877C155.496 185.601 155.272 185.377 154.996 185.377C154.72 185.377 154.496 185.601 154.496 185.877Z" fill="#22328A" fill-opacity="0.2"/>
<path d="M141.496 185.877C141.496 186.153 141.72 186.377 141.996 186.377C142.272 186.377 142.496 186.153 142.496 185.877C142.496 185.601 142.272 185.377 141.996 185.377C141.72 185.377 141.496 185.601 141.496 185.877Z" fill="#22328A" fill-opacity="0.2"/>
<path d="M258.496 198.877C258.496 199.153 258.72 199.377 258.996 199.377C259.272 199.377 259.496 199.153 259.496 198.877C259.496 198.601 259.272 198.377 258.996 198.377C258.72 198.377 258.496 198.601 258.496 198.877Z" fill="#22328A" fill-opacity="0.2"/>
<path d="M245.496 198.877C245.496 199.153 245.72 199.377 245.996 199.377C246.272 199.377 246.496 199.153 246.496 198.877C246.496 198.601 246.272 198.377 245.996 198.377C245.72 198.377 245.496 198.601 245.496 198.877Z" fill="#22328A" fill-opacity="0.2"/>
<path d="M232.496 198.877C232.496 199.153 232.72 199.377 232.996 199.377C233.272 199.377 233.496 199.153 233.496 198.877C233.496 198.601 233.272 198.377 232.996 198.377C232.72 198.377 232.496 198.601 232.496 198.877Z" fill="#22328A" fill-opacity="0.2"/>
<path d="M219.496 198.877C219.496 199.153 219.72 199.377 219.996 199.377C220.272 199.377 220.496 199.153 220.496 198.877C220.496 198.601 220.272 198.377 219.996 198.377C219.72 198.377 219.496 198.601 219.496 198.877Z" fill="#22328A" fill-opacity="0.2"/>
<path d="M206.496 198.877C206.496 199.153 206.72 199.377 206.996 199.377C207.272 199.377 207.496 199.153 207.496 198.877C207.496 198.601 207.272 198.377 206.996 198.377C206.72 198.377 206.496 198.601 206.496 198.877Z" fill="#22328A" fill-opacity="0.2"/>
<path d="M193.496 198.877C193.496 199.153 193.72 199.377 193.996 199.377C194.272 199.377 194.496 199.153 194.496 198.877C194.496 198.601 194.272 198.377 193.996 198.377C193.72 198.377 193.496 198.601 193.496 198.877Z" fill="#22328A" fill-opacity="0.2"/>
<path d="M180.496 198.877C180.496 199.153 180.72 199.377 180.996 199.377C181.272 199.377 181.496 199.153 181.496 198.877C181.496 198.601 181.272 198.377 180.996 198.377C180.72 198.377 180.496 198.601 180.496 198.877Z" fill="#22328A" fill-opacity="0.2"/>
<path d="M167.496 198.877C167.496 199.153 167.72 199.377 167.996 199.377C168.272 199.377 168.496 199.153 168.496 198.877C168.496 198.601 168.272 198.377 167.996 198.377C167.72 198.377 167.496 198.601 167.496 198.877Z" fill="#22328A" fill-opacity="0.2"/>
<path d="M154.496 198.877C154.496 199.153 154.72 199.377 154.996 199.377C155.272 199.377 155.496 199.153 155.496 198.877C155.496 198.601 155.272 198.377 154.996 198.377C154.72 198.377 154.496 198.601 154.496 198.877Z" fill="#22328A" fill-opacity="0.2"/>
<path d="M141.496 198.877C141.496 199.153 141.72 199.377 141.996 199.377C142.272 199.377 142.496 199.153 142.496 198.877C142.496 198.601 142.272 198.377 141.996 198.377C141.72 198.377 141.496 198.601 141.496 198.877Z" fill="#22328A" fill-opacity="0.2"/>
<path d="M258.496 211.877C258.496 212.153 258.72 212.377 258.996 212.377C259.272 212.377 259.496 212.153 259.496 211.877C259.496 211.601 259.272 211.377 258.996 211.377C258.72 211.377 258.496 211.601 258.496 211.877Z" fill="#22328A" fill-opacity="0.2"/>
<path d="M245.496 211.877C245.496 212.153 245.72 212.377 245.996 212.377C246.272 212.377 246.496 212.153 246.496 211.877C246.496 211.601 246.272 211.377 245.996 211.377C245.72 211.377 245.496 211.601 245.496 211.877Z" fill="#22328A" fill-opacity="0.2"/>
<path d="M232.496 211.877C232.496 212.153 232.72 212.377 232.996 212.377C233.272 212.377 233.496 212.153 233.496 211.877C233.496 211.601 233.272 211.377 232.996 211.377C232.72 211.377 232.496 211.601 232.496 211.877Z" fill="#22328A" fill-opacity="0.2"/>
<path d="M219.496 211.877C219.496 212.153 219.72 212.377 219.996 212.377C220.272 212.377 220.496 212.153 220.496 211.877C220.496 211.601 220.272 211.377 219.996 211.377C219.72 211.377 219.496 211.601 219.496 211.877Z" fill="#22328A" fill-opacity="0.2"/>
<path d="M206.496 211.877C206.496 212.153 206.72 212.377 206.996 212.377C207.272 212.377 207.496 212.153 207.496 211.877C207.496 211.601 207.272 211.377 206.996 211.377C206.72 211.377 206.496 211.601 206.496 211.877Z" fill="#22328A" fill-opacity="0.2"/>
<path d="M193.496 211.877C193.496 212.153 193.72 212.377 193.996 212.377C194.272 212.377 194.496 212.153 194.496 211.877C194.496 211.601 194.272 211.377 193.996 211.377C193.72 211.377 193.496 211.601 193.496 211.877Z" fill="#22328A" fill-opacity="0.2"/>
<path d="M180.496 211.877C180.496 212.153 180.72 212.377 180.996 212.377C181.272 212.377 181.496 212.153 181.496 211.877C181.496 211.601 181.272 211.377 180.996 211.377C180.72 211.377 180.496 211.601 180.496 211.877Z" fill="#22328A" fill-opacity="0.2"/>
<path d="M167.496 211.877C167.496 212.153 167.72 212.377 167.996 212.377C168.272 212.377 168.496 212.153 168.496 211.877C168.496 211.601 168.272 211.377 167.996 211.377C167.72 211.377 167.496 211.601 167.496 211.877Z" fill="#22328A" fill-opacity="0.2"/>
<path d="M154.496 211.877C154.496 212.153 154.72 212.377 154.996 212.377C155.272 212.377 155.496 212.153 155.496 211.877C155.496 211.601 155.272 211.377 154.996 211.377C154.72 211.377 154.496 211.601 154.496 211.877Z" fill="#22328A" fill-opacity="0.2"/>
<path d="M141.496 211.877C141.496 212.153 141.72 212.377 141.996 212.377C142.272 212.377 142.496 212.153 142.496 211.877C142.496 211.601 142.272 211.377 141.996 211.377C141.72 211.377 141.496 211.601 141.496 211.877Z" fill="#22328A" fill-opacity="0.2"/>
<path d="M258.496 224.877C258.496 225.153 258.72 225.377 258.996 225.377C259.272 225.377 259.496 225.153 259.496 224.877C259.496 224.601 259.272 224.377 258.996 224.377C258.72 224.377 258.496 224.601 258.496 224.877Z" fill="#22328A" fill-opacity="0.2"/>
<path d="M245.496 224.877C245.496 225.153 245.72 225.377 245.996 225.377C246.272 225.377 246.496 225.153 246.496 224.877C246.496 224.601 246.272 224.377 245.996 224.377C245.72 224.377 245.496 224.601 245.496 224.877Z" fill="#22328A" fill-opacity="0.2"/>
<path d="M232.496 224.877C232.496 225.153 232.72 225.377 232.996 225.377C233.272 225.377 233.496 225.153 233.496 224.877C233.496 224.601 233.272 224.377 232.996 224.377C232.72 224.377 232.496 224.601 232.496 224.877Z" fill="#22328A" fill-opacity="0.2"/>
<path d="M219.496 224.877C219.496 225.153 219.72 225.377 219.996 225.377C220.272 225.377 220.496 225.153 220.496 224.877C220.496 224.601 220.272 224.377 219.996 224.377C219.72 224.377 219.496 224.601 219.496 224.877Z" fill="#22328A" fill-opacity="0.2"/>
<path d="M206.496 224.877C206.496 225.153 206.72 225.377 206.996 225.377C207.272 225.377 207.496 225.153 207.496 224.877C207.496 224.601 207.272 224.377 206.996 224.377C206.72 224.377 206.496 224.601 206.496 224.877Z" fill="#22328A" fill-opacity="0.2"/>
<path d="M193.496 224.877C193.496 225.153 193.72 225.377 193.996 225.377C194.272 225.377 194.496 225.153 194.496 224.877C194.496 224.601 194.272 224.377 193.996 224.377C193.72 224.377 193.496 224.601 193.496 224.877Z" fill="#22328A" fill-opacity="0.2"/>
<path d="M180.496 224.877C180.496 225.153 180.72 225.377 180.996 225.377C181.272 225.377 181.496 225.153 181.496 224.877C181.496 224.601 181.272 224.377 180.996 224.377C180.72 224.377 180.496 224.601 180.496 224.877Z" fill="#22328A" fill-opacity="0.2"/>
<path d="M167.496 224.877C167.496 225.153 167.72 225.377 167.996 225.377C168.272 225.377 168.496 225.153 168.496 224.877C168.496 224.601 168.272 224.377 167.996 224.377C167.72 224.377 167.496 224.601 167.496 224.877Z" fill="#22328A" fill-opacity="0.2"/>
<path d="M154.496 224.877C154.496 225.153 154.72 225.377 154.996 225.377C155.272 225.377 155.496 225.153 155.496 224.877C155.496 224.601 155.272 224.377 154.996 224.377C154.72 224.377 154.496 224.601 154.496 224.877Z" fill="#22328A" fill-opacity="0.2"/>
<path d="M141.496 224.877C141.496 225.153 141.72 225.377 141.996 225.377C142.272 225.377 142.496 225.153 142.496 224.877C142.496 224.601 142.272 224.377 141.996 224.377C141.72 224.377 141.496 224.601 141.496 224.877Z" fill="#22328A" fill-opacity="0.2"/>
</g>
<g clip-path="url(#clip2_1_3591)">
<g clip-path="url(#clip3_1_3591)">
<g clip-path="url(#clip4_1_3591)">
<g filter="url(#filter0_diii_1_3591)">
<path d="M189.496 54.377H29.4961C25.0778 54.377 21.4961 57.9587 21.4961 62.377V461.377C21.4961 465.795 25.0778 469.377 29.4961 469.377H189.496C193.914 469.377 197.496 465.795 197.496 461.377V62.377C197.496 57.9587 193.914 54.377 189.496 54.377Z" fill="url(#paint2_linear_1_3591)"/>
</g>
<path d="M70.4961 178.377H44.4961C42.8392 178.377 41.4961 179.72 41.4961 181.377C41.4961 183.034 42.8392 184.377 44.4961 184.377H70.4961C72.1529 184.377 73.4961 183.034 73.4961 181.377C73.4961 179.72 72.1529 178.377 70.4961 178.377Z" fill="#75749C"/>
<path d="M54.4961 204.877H44.4961C43.1154 204.877 41.9961 205.996 41.9961 207.377C41.9961 208.758 43.1154 209.877 44.4961 209.877H54.4961C55.8768 209.877 56.9961 208.758 56.9961 207.377C56.9961 205.996 55.8768 204.877 54.4961 204.877Z" stroke="#E0D8F7"/>
<path d="M54.4961 206.377H44.4961C43.9438 206.377 43.4961 206.825 43.4961 207.377C43.4961 207.929 43.9438 208.377 44.4961 208.377H54.4961C55.0484 208.377 55.4961 207.929 55.4961 207.377C55.4961 206.825 55.0484 206.377 54.4961 206.377Z" fill="#E0D8F7"/>
<path d="M88.4961 191.377H42.4961C41.9438 191.377 41.4961 191.825 41.4961 192.377C41.4961 192.929 41.9438 193.377 42.4961 193.377H88.4961C89.0484 193.377 89.4961 192.929 89.4961 192.377C89.4961 191.825 89.0484 191.377 88.4961 191.377Z" fill="#22328A" fill-opacity="0.08"/>
<path d="M96.4961 196.377H42.4961C41.9438 196.377 41.4961 196.825 41.4961 197.377C41.4961 197.929 41.9438 198.377 42.4961 198.377H96.4961C97.0484 198.377 97.4961 197.929 97.4961 197.377C97.4961 196.825 97.0484 196.377 96.4961 196.377Z" fill="#22328A" fill-opacity="0.08"/>
<path d="M177.496 174.377H119.496C117.287 174.377 115.496 176.168 115.496 178.377V210.377C115.496 212.586 117.287 214.377 119.496 214.377H177.496C179.705 214.377 181.496 212.586 181.496 210.377V178.377C181.496 176.168 179.705 174.377 177.496 174.377Z" fill="#22328A" fill-opacity="0.04"/>
<path d="M99.4961 230.377H41.4961C39.287 230.377 37.4961 232.168 37.4961 234.377V266.377C37.4961 268.586 39.287 270.377 41.4961 270.377H99.4961C101.705 270.377 103.496 268.586 103.496 266.377V234.377C103.496 232.168 101.705 230.377 99.4961 230.377Z" fill="#22328A" fill-opacity="0.04"/>
<path d="M142.496 234.377H124.496C122.839 234.377 121.496 235.72 121.496 237.377C121.496 239.034 122.839 240.377 124.496 240.377H142.496C144.153 240.377 145.496 239.034 145.496 237.377C145.496 235.72 144.153 234.377 142.496 234.377Z" fill="#75749C"/>
<path d="M134.496 260.877H124.496C123.115 260.877 121.996 261.996 121.996 263.377C121.996 264.758 123.115 265.877 124.496 265.877H134.496C135.877 265.877 136.996 264.758 136.996 263.377C136.996 261.996 135.877 260.877 134.496 260.877Z" stroke="#E0D8F7"/>
<path d="M134.496 262.377H124.496C123.944 262.377 123.496 262.825 123.496 263.377C123.496 263.929 123.944 264.377 124.496 264.377H134.496C135.048 264.377 135.496 263.929 135.496 263.377C135.496 262.825 135.048 262.377 134.496 262.377Z" fill="#E0D8F7"/>
<path d="M168.496 247.377H122.496C121.944 247.377 121.496 247.825 121.496 248.377C121.496 248.929 121.944 249.377 122.496 249.377H168.496C169.048 249.377 169.496 248.929 169.496 248.377C169.496 247.825 169.048 247.377 168.496 247.377Z" fill="#22328A" fill-opacity="0.08"/>
<path d="M176.496 252.377H122.496C121.944 252.377 121.496 252.825 121.496 253.377C121.496 253.929 121.944 254.377 122.496 254.377H176.496C177.048 254.377 177.496 253.929 177.496 253.377C177.496 252.825 177.048 252.377 176.496 252.377Z" fill="#22328A" fill-opacity="0.08"/>
<path d="M25.4961 74.377L25.4961 140.377C25.4961 142.586 27.287 144.377 29.4961 144.377H189.496C191.705 144.377 193.496 142.586 193.496 140.377V74.377C193.496 72.1678 191.705 70.377 189.496 70.377L29.4961 70.377C27.287 70.377 25.4961 72.1678 25.4961 74.377Z" fill="#22328A" fill-opacity="0.04"/>
<path d="M85.4961 82.377C84.3915 82.377 83.4961 83.2724 83.4961 84.377C83.4961 85.4815 84.3915 86.377 85.4961 86.377H133.496C134.601 86.377 135.496 85.4815 135.496 84.377C135.496 83.2724 134.601 82.377 133.496 82.377H85.4961Z" fill="#22328A" fill-opacity="0.08"/>
<path d="M122.496 94.377H96.4961C94.287 94.377 92.4961 96.1678 92.4961 98.377C92.4961 100.586 94.287 102.377 96.4961 102.377H122.496C124.705 102.377 126.496 100.586 126.496 98.377C126.496 96.1678 124.705 94.377 122.496 94.377Z" fill="#75749C"/>
<path d="M114.496 120.377H104.496C102.839 120.377 101.496 121.72 101.496 123.377C101.496 125.034 102.839 126.377 104.496 126.377H114.496C116.153 126.377 117.496 125.034 117.496 123.377C117.496 121.72 116.153 120.377 114.496 120.377Z" fill="#BEA9F7"/>
<path d="M137.496 107.377H81.4961C80.9438 107.377 80.4961 107.825 80.4961 108.377C80.4961 108.929 80.9438 109.377 81.4961 109.377H137.496C138.048 109.377 138.496 108.929 138.496 108.377C138.496 107.825 138.048 107.377 137.496 107.377Z" fill="#22328A" fill-opacity="0.08"/>
<path d="M128.496 112.377H90.4961C89.9438 112.377 89.4961 112.825 89.4961 113.377C89.4961 113.929 89.9438 114.377 90.4961 114.377H128.496C129.048 114.377 129.496 113.929 129.496 113.377C129.496 112.825 129.048 112.377 128.496 112.377Z" fill="#22328A" fill-opacity="0.08"/>
<path d="M30.4961 64.377C31.0484 64.377 31.4961 63.9292 31.4961 63.377C31.4961 62.8247 31.0484 62.377 30.4961 62.377C29.9438 62.377 29.4961 62.8247 29.4961 63.377C29.4961 63.9292 29.9438 64.377 30.4961 64.377Z" fill="#22328A" fill-opacity="0.12"/>
<path d="M36.4961 64.377C37.0484 64.377 37.4961 63.9292 37.4961 63.377C37.4961 62.8247 37.0484 62.377 36.4961 62.377C35.9438 62.377 35.4961 62.8247 35.4961 63.377C35.4961 63.9292 35.9438 64.377 36.4961 64.377Z" fill="#22328A" fill-opacity="0.12"/>
<path d="M42.4961 64.377C43.0484 64.377 43.4961 63.9292 43.4961 63.377C43.4961 62.8247 43.0484 62.377 42.4961 62.377C41.9438 62.377 41.4961 62.8247 41.4961 63.377C41.4961 63.9292 41.9438 64.377 42.4961 64.377Z" fill="#22328A" fill-opacity="0.12"/>
<path d="M188.496 64.377C189.048 64.377 189.496 63.9292 189.496 63.377C189.496 62.8247 189.048 62.377 188.496 62.377C187.944 62.377 187.496 62.8247 187.496 63.377C187.496 63.9292 187.944 64.377 188.496 64.377Z" fill="#22328A" fill-opacity="0.12"/>
<path d="M155.496 61.377H63.4961C62.3915 61.377 61.4961 62.2724 61.4961 63.377C61.4961 64.4815 62.3915 65.377 63.4961 65.377H155.496C156.601 65.377 157.496 64.4815 157.496 63.377C157.496 62.2724 156.601 61.377 155.496 61.377Z" fill="#22328A" fill-opacity="0.08"/>
</g>
</g>
</g>
<g clip-path="url(#clip5_1_3591)">
<g clip-path="url(#clip6_1_3591)">
<g clip-path="url(#clip7_1_3591)">
<g filter="url(#filter1_diii_1_3591)">
<path d="M241.496 54.377H81.4961C77.0778 54.377 73.4961 57.9587 73.4961 62.377V461.377C73.4961 465.795 77.0778 469.377 81.4961 469.377H241.496C245.914 469.377 249.496 465.795 249.496 461.377V62.377C249.496 57.9587 245.914 54.377 241.496 54.377Z" fill="url(#paint3_linear_1_3591)"/>
</g>
<path d="M122.496 178.377H96.4961C94.8392 178.377 93.4961 179.72 93.4961 181.377C93.4961 183.034 94.8392 184.377 96.4961 184.377H122.496C124.153 184.377 125.496 183.034 125.496 181.377C125.496 179.72 124.153 178.377 122.496 178.377Z" fill="#75749C"/>
<path d="M106.496 204.877H96.4961C95.1154 204.877 93.9961 205.996 93.9961 207.377C93.9961 208.758 95.1154 209.877 96.4961 209.877H106.496C107.877 209.877 108.996 208.758 108.996 207.377C108.996 205.996 107.877 204.877 106.496 204.877Z" stroke="#E0D8F7"/>
<path d="M106.496 206.377H96.4961C95.9438 206.377 95.4961 206.825 95.4961 207.377C95.4961 207.929 95.9438 208.377 96.4961 208.377H106.496C107.048 208.377 107.496 207.929 107.496 207.377C107.496 206.825 107.048 206.377 106.496 206.377Z" fill="#E0D8F7"/>
<path d="M140.496 191.377H94.4961C93.9438 191.377 93.4961 191.825 93.4961 192.377C93.4961 192.929 93.9438 193.377 94.4961 193.377H140.496C141.048 193.377 141.496 192.929 141.496 192.377C141.496 191.825 141.048 191.377 140.496 191.377Z" fill="#22328A" fill-opacity="0.08"/>
<path d="M148.496 196.377H94.4961C93.9438 196.377 93.4961 196.825 93.4961 197.377C93.4961 197.929 93.9438 198.377 94.4961 198.377H148.496C149.048 198.377 149.496 197.929 149.496 197.377C149.496 196.825 149.048 196.377 148.496 196.377Z" fill="#22328A" fill-opacity="0.08"/>
<path d="M229.496 174.377H171.496C169.287 174.377 167.496 176.168 167.496 178.377V210.377C167.496 212.586 169.287 214.377 171.496 214.377H229.496C231.705 214.377 233.496 212.586 233.496 210.377V178.377C233.496 176.168 231.705 174.377 229.496 174.377Z" fill="#22328A" fill-opacity="0.04"/>
<path d="M151.496 230.377H93.4961C91.287 230.377 89.4961 232.168 89.4961 234.377V266.377C89.4961 268.586 91.287 270.377 93.4961 270.377H151.496C153.705 270.377 155.496 268.586 155.496 266.377V234.377C155.496 232.168 153.705 230.377 151.496 230.377Z" fill="#22328A" fill-opacity="0.04"/>
<path d="M194.496 234.377H176.496C174.839 234.377 173.496 235.72 173.496 237.377C173.496 239.034 174.839 240.377 176.496 240.377H194.496C196.153 240.377 197.496 239.034 197.496 237.377C197.496 235.72 196.153 234.377 194.496 234.377Z" fill="#75749C"/>
<path d="M186.496 260.877H176.496C175.115 260.877 173.996 261.996 173.996 263.377C173.996 264.758 175.115 265.877 176.496 265.877H186.496C187.877 265.877 188.996 264.758 188.996 263.377C188.996 261.996 187.877 260.877 186.496 260.877Z" stroke="#E0D8F7"/>
<path d="M186.496 262.377H176.496C175.944 262.377 175.496 262.825 175.496 263.377C175.496 263.929 175.944 264.377 176.496 264.377H186.496C187.048 264.377 187.496 263.929 187.496 263.377C187.496 262.825 187.048 262.377 186.496 262.377Z" fill="#E0D8F7"/>
<path d="M220.496 247.377H174.496C173.944 247.377 173.496 247.825 173.496 248.377C173.496 248.929 173.944 249.377 174.496 249.377H220.496C221.048 249.377 221.496 248.929 221.496 248.377C221.496 247.825 221.048 247.377 220.496 247.377Z" fill="#22328A" fill-opacity="0.08"/>
<path d="M228.496 252.377H174.496C173.944 252.377 173.496 252.825 173.496 253.377C173.496 253.929 173.944 254.377 174.496 254.377H228.496C229.048 254.377 229.496 253.929 229.496 253.377C229.496 252.825 229.048 252.377 228.496 252.377Z" fill="#22328A" fill-opacity="0.08"/>
<path d="M123.496 96.377H97.4961C95.287 96.377 93.4961 98.1678 93.4961 100.377C93.4961 102.586 95.287 104.377 97.4961 104.377H123.496C125.705 104.377 127.496 102.586 127.496 100.377C127.496 98.1678 125.705 96.377 123.496 96.377Z" fill="#75749C"/>
<path d="M106.496 122.377H96.4961C94.8392 122.377 93.4961 123.72 93.4961 125.377C93.4961 127.034 94.8392 128.377 96.4961 128.377H106.496C108.153 128.377 109.496 127.034 109.496 125.377C109.496 123.72 108.153 122.377 106.496 122.377Z" fill="#BEA9F7"/>
<path d="M150.496 109.377H94.4961C93.9438 109.377 93.4961 109.825 93.4961 110.377C93.4961 110.929 93.9438 111.377 94.4961 111.377H150.496C151.048 111.377 151.496 110.929 151.496 110.377C151.496 109.825 151.048 109.377 150.496 109.377Z" fill="#22328A" fill-opacity="0.08"/>
<path d="M132.496 114.377H94.4961C93.9438 114.377 93.4961 114.825 93.4961 115.377C93.4961 115.929 93.9438 116.377 94.4961 116.377H132.496C133.048 116.377 133.496 115.929 133.496 115.377C133.496 114.825 133.048 114.377 132.496 114.377Z" fill="#22328A" fill-opacity="0.08"/>
<path d="M95.4961 82.377C94.3915 82.377 93.4961 83.2724 93.4961 84.377C93.4961 85.4815 94.3915 86.377 95.4961 86.377H143.496C144.601 86.377 145.496 85.4815 145.496 84.377C145.496 83.2724 144.601 82.377 143.496 82.377H95.4961Z" fill="#22328A" fill-opacity="0.04"/>
<path d="M168.496 85.377V129.377C168.496 131.586 170.287 133.377 172.496 133.377H228.496C230.705 133.377 232.496 131.586 232.496 129.377V85.377C232.496 83.1678 230.705 81.377 228.496 81.377H172.496C170.287 81.377 168.496 83.1678 168.496 85.377Z" fill="#22328A" fill-opacity="0.04"/>
<path d="M82.4961 64.377C83.0484 64.377 83.4961 63.9292 83.4961 63.377C83.4961 62.8247 83.0484 62.377 82.4961 62.377C81.9438 62.377 81.4961 62.8247 81.4961 63.377C81.4961 63.9292 81.9438 64.377 82.4961 64.377Z" fill="#22328A" fill-opacity="0.12"/>
<path d="M88.4961 64.377C89.0484 64.377 89.4961 63.9292 89.4961 63.377C89.4961 62.8247 89.0484 62.377 88.4961 62.377C87.9438 62.377 87.4961 62.8247 87.4961 63.377C87.4961 63.9292 87.9438 64.377 88.4961 64.377Z" fill="#22328A" fill-opacity="0.12"/>
<path d="M94.4961 64.377C95.0484 64.377 95.4961 63.9292 95.4961 63.377C95.4961 62.8247 95.0484 62.377 94.4961 62.377C93.9438 62.377 93.4961 62.8247 93.4961 63.377C93.4961 63.9292 93.9438 64.377 94.4961 64.377Z" fill="#22328A" fill-opacity="0.12"/>
<path d="M240.496 64.377C241.048 64.377 241.496 63.9292 241.496 63.377C241.496 62.8247 241.048 62.377 240.496 62.377C239.944 62.377 239.496 62.8247 239.496 63.377C239.496 63.9292 239.944 64.377 240.496 64.377Z" fill="#22328A" fill-opacity="0.12"/>
<path d="M207.496 61.377H115.496C114.392 61.377 113.496 62.2724 113.496 63.377C113.496 64.4815 114.392 65.377 115.496 65.377H207.496C208.601 65.377 209.496 64.4815 209.496 63.377C209.496 62.2724 208.601 61.377 207.496 61.377Z" fill="#22328A" fill-opacity="0.08"/>
</g>
</g>
</g>
<g clip-path="url(#clip8_1_3591)">
<g clip-path="url(#clip9_1_3591)">
<g clip-path="url(#clip10_1_3591)">
<g filter="url(#filter2_diii_1_3591)">
<path d="M215.496 28.377H55.4961C51.0778 28.377 47.4961 31.9587 47.4961 36.377V435.377C47.4961 439.795 51.0778 443.377 55.4961 443.377H215.496C219.914 443.377 223.496 439.795 223.496 435.377V36.377C223.496 31.9587 219.914 28.377 215.496 28.377Z" fill="url(#paint4_linear_1_3591)"/>
</g>
<path d="M96.4961 152.377H70.4961C68.8392 152.377 67.4961 153.72 67.4961 155.377C67.4961 157.034 68.8392 158.377 70.4961 158.377H96.4961C98.1529 158.377 99.4961 157.034 99.4961 155.377C99.4961 153.72 98.1529 152.377 96.4961 152.377Z" fill="#75749C"/>
<path d="M80.4961 178.877H70.4961C69.1154 178.877 67.9961 179.996 67.9961 181.377C67.9961 182.758 69.1154 183.877 70.4961 183.877H80.4961C81.8768 183.877 82.9961 182.758 82.9961 181.377C82.9961 179.996 81.8768 178.877 80.4961 178.877Z" stroke="#E0D8F7"/>
<path d="M80.4961 180.377H70.4961C69.9438 180.377 69.4961 180.825 69.4961 181.377C69.4961 181.929 69.9438 182.377 70.4961 182.377H80.4961C81.0484 182.377 81.4961 181.929 81.4961 181.377C81.4961 180.825 81.0484 180.377 80.4961 180.377Z" fill="#E0D8F7"/>
<path d="M114.496 165.377H68.4961C67.9438 165.377 67.4961 165.825 67.4961 166.377C67.4961 166.929 67.9438 167.377 68.4961 167.377H114.496C115.048 167.377 115.496 166.929 115.496 166.377C115.496 165.825 115.048 165.377 114.496 165.377Z" fill="#22328A" fill-opacity="0.08"/>
<path d="M122.496 170.377H68.4961C67.9438 170.377 67.4961 170.825 67.4961 171.377C67.4961 171.929 67.9438 172.377 68.4961 172.377H122.496C123.048 172.377 123.496 171.929 123.496 171.377C123.496 170.825 123.048 170.377 122.496 170.377Z" fill="#22328A" fill-opacity="0.08"/>
<path d="M203.496 148.377H145.496C143.287 148.377 141.496 150.168 141.496 152.377V184.377C141.496 186.586 143.287 188.377 145.496 188.377H203.496C205.705 188.377 207.496 186.586 207.496 184.377V152.377C207.496 150.168 205.705 148.377 203.496 148.377Z" fill="#22328A" fill-opacity="0.04"/>
<path d="M125.496 204.377H67.4961C65.287 204.377 63.4961 206.168 63.4961 208.377V240.377C63.4961 242.586 65.287 244.377 67.4961 244.377H125.496C127.705 244.377 129.496 242.586 129.496 240.377V208.377C129.496 206.168 127.705 204.377 125.496 204.377Z" fill="#22328A" fill-opacity="0.04"/>
<path d="M168.496 208.377H150.496C148.839 208.377 147.496 209.72 147.496 211.377C147.496 213.034 148.839 214.377 150.496 214.377H168.496C170.153 214.377 171.496 213.034 171.496 211.377C171.496 209.72 170.153 208.377 168.496 208.377Z" fill="#75749C"/>
<path d="M160.496 234.877H150.496C149.115 234.877 147.996 235.996 147.996 237.377C147.996 238.758 149.115 239.877 150.496 239.877H160.496C161.877 239.877 162.996 238.758 162.996 237.377C162.996 235.996 161.877 234.877 160.496 234.877Z" stroke="#E0D8F7"/>
<path d="M160.496 236.377H150.496C149.944 236.377 149.496 236.825 149.496 237.377C149.496 237.929 149.944 238.377 150.496 238.377H160.496C161.048 238.377 161.496 237.929 161.496 237.377C161.496 236.825 161.048 236.377 160.496 236.377Z" fill="#E0D8F7"/>
<path d="M194.496 221.377H148.496C147.944 221.377 147.496 221.825 147.496 222.377C147.496 222.929 147.944 223.377 148.496 223.377H194.496C195.048 223.377 195.496 222.929 195.496 222.377C195.496 221.825 195.048 221.377 194.496 221.377Z" fill="#22328A" fill-opacity="0.08"/>
<path d="M202.496 226.377H148.496C147.944 226.377 147.496 226.825 147.496 227.377C147.496 227.929 147.944 228.377 148.496 228.377H202.496C203.048 228.377 203.496 227.929 203.496 227.377C203.496 226.825 203.048 226.377 202.496 226.377Z" fill="#22328A" fill-opacity="0.08"/>
<path d="M153.496 272.377H117.496C115.839 272.377 114.496 273.72 114.496 275.377C114.496 277.034 115.839 278.377 117.496 278.377H153.496C155.153 278.377 156.496 277.034 156.496 275.377C156.496 273.72 155.153 272.377 153.496 272.377Z" fill="#75749C"/>
<path d="M105.496 56.377H71.4961C69.287 56.377 67.4961 58.1678 67.4961 60.377C67.4961 62.5861 69.287 64.377 71.4961 64.377H105.496C107.705 64.377 109.496 62.5861 109.496 60.377C109.496 58.1678 107.705 56.377 105.496 56.377Z" fill="#75749C"/>
<path d="M80.4961 82.377H70.4961C68.8392 82.377 67.4961 83.7201 67.4961 85.377C67.4961 87.0338 68.8392 88.377 70.4961 88.377H80.4961C82.1529 88.377 83.4961 87.0338 83.4961 85.377C83.4961 83.7201 82.1529 82.377 80.4961 82.377Z" fill="#BEA9F7"/>
<path d="M124.496 69.377H68.4961C67.9438 69.377 67.4961 69.8247 67.4961 70.377C67.4961 70.9292 67.9438 71.377 68.4961 71.377H124.496C125.048 71.377 125.496 70.9292 125.496 70.377C125.496 69.8247 125.048 69.377 124.496 69.377Z" fill="#22328A" fill-opacity="0.08"/>
<path d="M106.496 74.377H68.4961C67.9438 74.377 67.4961 74.8247 67.4961 75.377C67.4961 75.9292 67.9438 76.377 68.4961 76.377H106.496C107.048 76.377 107.496 75.9292 107.496 75.377C107.496 74.8247 107.048 74.377 106.496 74.377Z" fill="#22328A" fill-opacity="0.08"/>
<path d="M67.4961 103.377V109.377C67.4961 111.034 68.8392 112.377 70.4961 112.377H116.496C118.153 112.377 119.496 111.034 119.496 109.377V103.377C119.496 101.72 118.153 100.377 116.496 100.377H70.4961C68.8392 100.377 67.4961 101.72 67.4961 103.377Z" fill="#22328A" fill-opacity="0.04"/>
<path d="M167.496 56.377H145.496C143.287 56.377 141.496 58.1678 141.496 60.377V100.377C141.496 102.586 143.287 104.377 145.496 104.377H167.496C169.705 104.377 171.496 102.586 171.496 100.377V60.377C171.496 58.1678 169.705 56.377 167.496 56.377Z" fill="#22328A" fill-opacity="0.04"/>
<path d="M203.496 56.377H181.496C179.287 56.377 177.496 58.1678 177.496 60.377V116.377C177.496 118.586 179.287 120.377 181.496 120.377H203.496C205.705 120.377 207.496 118.586 207.496 116.377V60.377C207.496 58.1678 205.705 56.377 203.496 56.377Z" fill="#22328A" fill-opacity="0.04"/>
<path d="M56.4961 38.377C57.0484 38.377 57.4961 37.9292 57.4961 37.377C57.4961 36.8247 57.0484 36.377 56.4961 36.377C55.9438 36.377 55.4961 36.8247 55.4961 37.377C55.4961 37.9292 55.9438 38.377 56.4961 38.377Z" fill="#22328A" fill-opacity="0.12"/>
<path d="M62.4961 38.377C63.0484 38.377 63.4961 37.9292 63.4961 37.377C63.4961 36.8247 63.0484 36.377 62.4961 36.377C61.9438 36.377 61.4961 36.8247 61.4961 37.377C61.4961 37.9292 61.9438 38.377 62.4961 38.377Z" fill="#22328A" fill-opacity="0.12"/>
<path d="M68.4961 38.377C69.0484 38.377 69.4961 37.9292 69.4961 37.377C69.4961 36.8247 69.0484 36.377 68.4961 36.377C67.9438 36.377 67.4961 36.8247 67.4961 37.377C67.4961 37.9292 67.9438 38.377 68.4961 38.377Z" fill="#22328A" fill-opacity="0.12"/>
<path d="M214.496 38.377C215.048 38.377 215.496 37.9292 215.496 37.377C215.496 36.8247 215.048 36.377 214.496 36.377C213.944 36.377 213.496 36.8247 213.496 37.377C213.496 37.9292 213.944 38.377 214.496 38.377Z" fill="#22328A" fill-opacity="0.12"/>
<path d="M181.496 35.377H89.4961C88.3915 35.377 87.4961 36.2724 87.4961 37.377C87.4961 38.4815 88.3915 39.377 89.4961 39.377H181.496C182.601 39.377 183.496 38.4815 183.496 37.377C183.496 36.2724 182.601 35.377 181.496 35.377Z" fill="#22328A" fill-opacity="0.08"/>
</g>
</g>
</g>
<rect x="1.49609" y="140.377" width="268" height="139" fill="url(#paint5_linear_1_3591)"/>
</g>
<rect x="0.996094" y="0.876953" width="269" height="279" rx="11.5" stroke="#ECE6FF"/>
<defs>
<filter id="filter0_diii_1_3591" x="19.4961" y="51.377" width="180" height="421" filterUnits="userSpaceOnUse" color-interpolation-filters="sRGB">
<feFlood flood-opacity="0" result="BackgroundImageFix"/>
<feColorMatrix in="SourceAlpha" type="matrix" values="0 0 0 0 0 0 0 0 0 0 0 0 0 0 0 0 0 0 127 0" result="hardAlpha"/>
<feOffset dy="1"/>
<feGaussianBlur stdDeviation="1"/>
<feComposite in2="hardAlpha" operator="out"/>
<feColorMatrix type="matrix" values="0 0 0 0 0.056512 0 0 0 0 0.0368 0 0 0 0 0.2832 0 0 0 0.08 0"/>
<feBlend mode="normal" in2="BackgroundImageFix" result="effect1_dropShadow_1_3591"/>
<feBlend mode="normal" in="SourceGraphic" in2="effect1_dropShadow_1_3591" result="shape"/>
<feColorMatrix in="SourceAlpha" type="matrix" values="0 0 0 0 0 0 0 0 0 0 0 0 0 0 0 0 0 0 127 0" result="hardAlpha"/>
<feOffset/>
<feGaussianBlur stdDeviation="2"/>
<feComposite in2="hardAlpha" operator="arithmetic" k2="-1" k3="1"/>
<feColorMatrix type="matrix" values="0 0 0 0 0.056512 0 0 0 0 0.0368 0 0 0 0 0.2832 0 0 0 0.04 0"/>
<feBlend mode="normal" in2="shape" result="effect2_innerShadow_1_3591"/>
<feColorMatrix in="SourceAlpha" type="matrix" values="0 0 0 0 0 0 0 0 0 0 0 0 0 0 0 0 0 0 127 0" result="hardAlpha"/>
<feOffset dy="-6"/>
<feGaussianBlur stdDeviation="0.25"/>
<feComposite in2="hardAlpha" operator="arithmetic" k2="-1" k3="1"/>
<feColorMatrix type="matrix" values="0 0 0 0 0.964706 0 0 0 0 0.972549 0 0 0 0 0.980392 0 0 0 1 0"/>
<feBlend mode="normal" in2="effect2_innerShadow_1_3591" result="effect3_innerShadow_1_3591"/>
<feColorMatrix in="SourceAlpha" type="matrix" values="0 0 0 0 0 0 0 0 0 0 0 0 0 0 0 0 0 0 127 0" result="hardAlpha"/>
<feOffset dy="-3"/>
<feGaussianBlur stdDeviation="1.5"/>
<feComposite in2="hardAlpha" operator="arithmetic" k2="-1" k3="1"/>
<feColorMatrix type="matrix" values="0 0 0 0 0.92549 0 0 0 0 0.937255 0 0 0 0 0.952941 0 0 0 1 0"/>
<feBlend mode="normal" in2="effect3_innerShadow_1_3591" result="effect4_innerShadow_1_3591"/>
</filter>
<filter id="filter1_diii_1_3591" x="71.4961" y="51.377" width="180" height="421" filterUnits="userSpaceOnUse" color-interpolation-filters="sRGB">
<feFlood flood-opacity="0" result="BackgroundImageFix"/>
<feColorMatrix in="SourceAlpha" type="matrix" values="0 0 0 0 0 0 0 0 0 0 0 0 0 0 0 0 0 0 127 0" result="hardAlpha"/>
<feOffset dy="1"/>
<feGaussianBlur stdDeviation="1"/>
<feComposite in2="hardAlpha" operator="out"/>
<feColorMatrix type="matrix" values="0 0 0 0 0.056512 0 0 0 0 0.0368 0 0 0 0 0.2832 0 0 0 0.08 0"/>
<feBlend mode="normal" in2="BackgroundImageFix" result="effect1_dropShadow_1_3591"/>
<feBlend mode="normal" in="SourceGraphic" in2="effect1_dropShadow_1_3591" result="shape"/>
<feColorMatrix in="SourceAlpha" type="matrix" values="0 0 0 0 0 0 0 0 0 0 0 0 0 0 0 0 0 0 127 0" result="hardAlpha"/>
<feOffset/>
<feGaussianBlur stdDeviation="2"/>
<feComposite in2="hardAlpha" operator="arithmetic" k2="-1" k3="1"/>
<feColorMatrix type="matrix" values="0 0 0 0 0.056512 0 0 0 0 0.0368 0 0 0 0 0.2832 0 0 0 0.04 0"/>
<feBlend mode="normal" in2="shape" result="effect2_innerShadow_1_3591"/>
<feColorMatrix in="SourceAlpha" type="matrix" values="0 0 0 0 0 0 0 0 0 0 0 0 0 0 0 0 0 0 127 0" result="hardAlpha"/>
<feOffset dy="-6"/>
<feGaussianBlur stdDeviation="0.25"/>
<feComposite in2="hardAlpha" operator="arithmetic" k2="-1" k3="1"/>
<feColorMatrix type="matrix" values="0 0 0 0 0.964706 0 0 0 0 0.972549 0 0 0 0 0.980392 0 0 0 1 0"/>
<feBlend mode="normal" in2="effect2_innerShadow_1_3591" result="effect3_innerShadow_1_3591"/>
<feColorMatrix in="SourceAlpha" type="matrix" values="0 0 0 0 0 0 0 0 0 0 0 0 0 0 0 0 0 0 127 0" result="hardAlpha"/>
<feOffset dy="-3"/>
<feGaussianBlur stdDeviation="1.5"/>
<feComposite in2="hardAlpha" operator="arithmetic" k2="-1" k3="1"/>
<feColorMatrix type="matrix" values="0 0 0 0 0.92549 0 0 0 0 0.937255 0 0 0 0 0.952941 0 0 0 1 0"/>
<feBlend mode="normal" in2="effect3_innerShadow_1_3591" result="effect4_innerShadow_1_3591"/>
</filter>
<filter id="filter2_diii_1_3591" x="45.4961" y="25.377" width="180" height="421" filterUnits="userSpaceOnUse" color-interpolation-filters="sRGB">
<feFlood flood-opacity="0" result="BackgroundImageFix"/>
<feColorMatrix in="SourceAlpha" type="matrix" values="0 0 0 0 0 0 0 0 0 0 0 0 0 0 0 0 0 0 127 0" result="hardAlpha"/>
<feOffset dy="1"/>
<feGaussianBlur stdDeviation="1"/>
<feComposite in2="hardAlpha" operator="out"/>
<feColorMatrix type="matrix" values="0 0 0 0 0.056512 0 0 0 0 0.0368 0 0 0 0 0.2832 0 0 0 0.08 0"/>
<feBlend mode="normal" in2="BackgroundImageFix" result="effect1_dropShadow_1_3591"/>
<feBlend mode="normal" in="SourceGraphic" in2="effect1_dropShadow_1_3591" result="shape"/>
<feColorMatrix in="SourceAlpha" type="matrix" values="0 0 0 0 0 0 0 0 0 0 0 0 0 0 0 0 0 0 127 0" result="hardAlpha"/>
<feOffset/>
<feGaussianBlur stdDeviation="2"/>
<feComposite in2="hardAlpha" operator="arithmetic" k2="-1" k3="1"/>
<feColorMatrix type="matrix" values="0 0 0 0 0.056512 0 0 0 0 0.0368 0 0 0 0 0.2832 0 0 0 0.04 0"/>
<feBlend mode="normal" in2="shape" result="effect2_innerShadow_1_3591"/>
<feColorMatrix in="SourceAlpha" type="matrix" values="0 0 0 0 0 0 0 0 0 0 0 0 0 0 0 0 0 0 127 0" result="hardAlpha"/>
<feOffset dy="-6"/>
<feGaussianBlur stdDeviation="0.25"/>
<feComposite in2="hardAlpha" operator="arithmetic" k2="-1" k3="1"/>
<feColorMatrix type="matrix" values="0 0 0 0 0.964706 0 0 0 0 0.972549 0 0 0 0 0.980392 0 0 0 1 0"/>
<feBlend mode="normal" in2="effect2_innerShadow_1_3591" result="effect3_innerShadow_1_3591"/>
<feColorMatrix in="SourceAlpha" type="matrix" values="0 0 0 0 0 0 0 0 0 0 0 0 0 0 0 0 0 0 127 0" result="hardAlpha"/>
<feOffset dy="-3"/>
<feGaussianBlur stdDeviation="1.5"/>
<feComposite in2="hardAlpha" operator="arithmetic" k2="-1" k3="1"/>
<feColorMatrix type="matrix" values="0 0 0 0 0.92549 0 0 0 0 0.937255 0 0 0 0 0.952941 0 0 0 1 0"/>
<feBlend mode="normal" in2="effect3_innerShadow_1_3591" result="effect4_innerShadow_1_3591"/>
</filter>
<linearGradient id="paint0_linear_1_3591" x1="135.496" y1="0.376953" x2="135.496" y2="280.377" gradientUnits="userSpaceOnUse">
<stop stop-color="#F3F0FF"/>
<stop offset="1" stop-color="#F0F6FF"/>
</linearGradient>
<linearGradient id="paint1_linear_1_3591" x1="135.496" y1="0.376953" x2="135.496" y2="280.377" gradientUnits="userSpaceOnUse">
<stop offset="0.52" stop-color="white" stop-opacity="0"/>
<stop offset="1" stop-color="white" stop-opacity="0.8"/>
</linearGradient>
<linearGradient id="paint2_linear_1_3591" x1="109.496" y1="54.377" x2="109.496" y2="469.377" gradientUnits="userSpaceOnUse">
<stop stop-color="white" stop-opacity="0.95"/>
<stop offset="1" stop-color="white"/>
</linearGradient>
<linearGradient id="paint3_linear_1_3591" x1="161.496" y1="54.377" x2="161.496" y2="469.377" gradientUnits="userSpaceOnUse">
<stop stop-color="white" stop-opacity="0.95"/>
<stop offset="1" stop-color="white"/>
</linearGradient>
<linearGradient id="paint4_linear_1_3591" x1="135.496" y1="28.377" x2="135.496" y2="443.377" gradientUnits="userSpaceOnUse">
<stop stop-color="white" stop-opacity="0.95"/>
<stop offset="1" stop-color="white"/>
</linearGradient>
<linearGradient id="paint5_linear_1_3591" x1="135.496" y1="140.377" x2="135.496" y2="279.377" gradientUnits="userSpaceOnUse">
<stop stop-color="#F0F1FF" stop-opacity="0"/>
<stop offset="0.32" stop-color="#F5F5FF" stop-opacity="0.79"/>
<stop offset="1" stop-color="white"/>
</linearGradient>
<clipPath id="clip0_1_3591">
<rect x="0.496094" y="0.376953" width="270" height="280" rx="12" fill="white"/>
</clipPath>
<clipPath id="clip1_1_3591">
<rect width="248" height="170" fill="white" transform="translate(11.4961 55.377)"/>
</clipPath>
<clipPath id="clip2_1_3591">
<rect width="180" height="229" fill="white" transform="translate(19.4961 53.377)"/>
</clipPath>
<clipPath id="clip3_1_3591">
<rect width="180" height="229" fill="white" transform="translate(19.4961 53.377)"/>
</clipPath>
<clipPath id="clip4_1_3591">
<rect width="180" height="229" fill="white" transform="translate(19.4961 53.377)"/>
</clipPath>
<clipPath id="clip5_1_3591">
<rect width="180" height="229" fill="white" transform="translate(71.4961 53.377)"/>
</clipPath>
<clipPath id="clip6_1_3591">
<rect width="180" height="229" fill="white" transform="translate(71.4961 53.377)"/>
</clipPath>
<clipPath id="clip7_1_3591">
<rect width="180" height="229" fill="white" transform="translate(71.4961 53.377)"/>
</clipPath>
<clipPath id="clip8_1_3591">
<rect width="180" height="255" fill="white" transform="translate(45.4961 27.377)"/>
</clipPath>
<clipPath id="clip9_1_3591">
<rect width="180" height="255" fill="white" transform="translate(45.4961 27.377)"/>
</clipPath>
<clipPath id="clip10_1_3591">
<rect width="180" height="255" fill="white" transform="translate(45.4961 27.377)"/>
</clipPath>
</defs>
</svg>
