<svg width="270" height="280" viewBox="0 0 270 280" fill="none" xmlns="http://www.w3.org/2000/svg">
<g clip-path="url(#clip0_1_3287)">
<rect width="270" height="280" rx="12" fill="url(#paint0_linear_1_3287)"/>
<rect width="270" height="280" rx="12" fill="url(#paint1_linear_1_3287)"/>
<rect x="-144.5" y="-51.5" width="175" height="123" rx="11.5" fill="url(#paint2_linear_1_3287)" stroke="#E6E4FF"/>
<rect x="-144.5" y="88.5" width="175" height="327" rx="11.5" fill="url(#paint3_linear_1_3287)" stroke="#E6E4FF"/>
<rect x="47.5" y="-95.5" width="175" height="123" rx="11.5" fill="url(#paint4_linear_1_3287)" stroke="#E6E4FF"/>
<g clip-path="url(#clip1_1_3287)">
<rect x="47" y="44" width="176" height="124" rx="8" fill="url(#paint5_linear_1_3287)"/>
<g clip-path="url(#clip2_1_3287)">
<path d="M59 118.5C59 115.186 61.6863 112.5 65 112.5H205C208.314 112.5 211 115.186 211 118.5V164.5H59V118.5Z" fill="url(#paint6_linear_1_3287)" fill-opacity="0.06"/>
<path d="M152 70.5H118C115.791 70.5 114 72.2909 114 74.5C114 76.7091 115.791 78.5 118 78.5H152C154.209 78.5 156 76.7091 156 74.5C156 72.2909 154.209 70.5 152 70.5Z" fill="#75749C"/>
<path d="M140 96.5H130C128.343 96.5 127 97.8431 127 99.5C127 101.157 128.343 102.5 130 102.5H140C141.657 102.5 143 101.157 143 99.5C143 97.8431 141.657 96.5 140 96.5Z" fill="#BEA9F7"/>
<path d="M163 83.5H107C106.448 83.5 106 83.9477 106 84.5C106 85.0523 106.448 85.5 107 85.5H163C163.552 85.5 164 85.0523 164 84.5C164 83.9477 163.552 83.5 163 83.5Z" fill="#22328A" fill-opacity="0.08"/>
<path d="M154 88.5H116C115.448 88.5 115 88.9477 115 89.5C115 90.0523 115.448 90.5 116 90.5H154C154.552 90.5 155 90.0523 155 89.5C155 88.9477 154.552 88.5 154 88.5Z" fill="#22328A" fill-opacity="0.08"/>
<path d="M56 50.5C56.5523 50.5 57 50.0523 57 49.5C57 48.9477 56.5523 48.5 56 48.5C55.4477 48.5 55 48.9477 55 49.5C55 50.0523 55.4477 50.5 56 50.5Z" fill="#22328A" fill-opacity="0.12"/>
<path d="M62 50.5C62.5523 50.5 63 50.0523 63 49.5C63 48.9477 62.5523 48.5 62 48.5C61.4477 48.5 61 48.9477 61 49.5C61 50.0523 61.4477 50.5 62 50.5Z" fill="#22328A" fill-opacity="0.12"/>
<path d="M68 50.5C68.5523 50.5 69 50.0523 69 49.5C69 48.9477 68.5523 48.5 68 48.5C67.4477 48.5 67 48.9477 67 49.5C67 50.0523 67.4477 50.5 68 50.5Z" fill="#22328A" fill-opacity="0.12"/>
<path d="M214 50.5C214.552 50.5 215 50.0523 215 49.5C215 48.9477 214.552 48.5 214 48.5C213.448 48.5 213 48.9477 213 49.5C213 50.0523 213.448 50.5 214 50.5Z" fill="#22328A" fill-opacity="0.12"/>
<path d="M181 47.5H89C87.8954 47.5 87 48.3954 87 49.5C87 50.6046 87.8954 51.5 89 51.5H181C182.105 51.5 183 50.6046 183 49.5C183 48.3954 182.105 47.5 181 47.5Z" fill="#22328A" fill-opacity="0.08"/>
</g>
</g>
<rect x="239.5" y="-51.5" width="175" height="123" rx="11.5" fill="url(#paint7_linear_1_3287)" stroke="#E6E4FF"/>
<rect x="239.5" y="88.5" width="175" height="327" rx="11.5" fill="url(#paint8_linear_1_3287)" stroke="#E6E4FF"/>
<rect x="-145" y="140" width="560" height="139" fill="url(#paint9_linear_1_3287)"/>
</g>
<rect x="0.5" y="0.5" width="269" height="279" rx="11.5" stroke="#ECE6FF"/>
<defs>
<linearGradient id="paint0_linear_1_3287" x1="135" y1="0" x2="135" y2="280" gradientUnits="userSpaceOnUse">
<stop stop-color="#F3F0FF"/>
<stop offset="1" stop-color="#F0F6FF"/>
</linearGradient>
<linearGradient id="paint1_linear_1_3287" x1="135" y1="0" x2="135" y2="280" gradientUnits="userSpaceOnUse">
<stop offset="0.52" stop-color="white" stop-opacity="0"/>
<stop offset="1" stop-color="white" stop-opacity="0.8"/>
</linearGradient>
<linearGradient id="paint2_linear_1_3287" x1="32.0499" y1="11.5619" x2="-146.05" y2="8.46813" gradientUnits="userSpaceOnUse">
<stop stop-color="#CACEFF" stop-opacity="0.1"/>
<stop offset="1" stop-color="#C1BCFE" stop-opacity="0.1"/>
</linearGradient>
<linearGradient id="paint3_linear_1_3287" x1="33.8502" y1="253.577" x2="-147.85" y2="250.389" gradientUnits="userSpaceOnUse">
<stop stop-color="#CACEFF" stop-opacity="0.1"/>
<stop offset="1" stop-color="#C1BCFE" stop-opacity="0.1"/>
</linearGradient>
<linearGradient id="paint4_linear_1_3287" x1="224.05" y1="-32.4381" x2="45.9496" y2="-35.5319" gradientUnits="userSpaceOnUse">
<stop stop-color="#CACEFF" stop-opacity="0.1"/>
<stop offset="1" stop-color="#C1BCFE" stop-opacity="0.1"/>
</linearGradient>
<linearGradient id="paint5_linear_1_3287" x1="135" y1="44" x2="135" y2="168" gradientUnits="userSpaceOnUse">
<stop stop-color="white" stop-opacity="0.7"/>
<stop offset="1" stop-color="white"/>
</linearGradient>
<linearGradient id="paint6_linear_1_3287" x1="135" y1="112.5" x2="135" y2="164.5" gradientUnits="userSpaceOnUse">
<stop stop-color="#22328A"/>
<stop offset="1" stop-color="#22328A" stop-opacity="0"/>
</linearGradient>
<linearGradient id="paint7_linear_1_3287" x1="416.05" y1="11.5619" x2="237.95" y2="8.46813" gradientUnits="userSpaceOnUse">
<stop stop-color="#CACEFF" stop-opacity="0.1"/>
<stop offset="1" stop-color="#C1BCFE" stop-opacity="0.1"/>
</linearGradient>
<linearGradient id="paint8_linear_1_3287" x1="417.85" y1="253.577" x2="236.15" y2="250.389" gradientUnits="userSpaceOnUse">
<stop stop-color="#CACEFF" stop-opacity="0.1"/>
<stop offset="1" stop-color="#C1BCFE" stop-opacity="0.1"/>
</linearGradient>
<linearGradient id="paint9_linear_1_3287" x1="135" y1="140" x2="135" y2="279" gradientUnits="userSpaceOnUse">
<stop stop-color="#F0F1FF" stop-opacity="0"/>
<stop offset="0.32" stop-color="#F5F5FF" stop-opacity="0.79"/>
<stop offset="1" stop-color="white"/>
</linearGradient>
<clipPath id="clip0_1_3287">
<rect width="270" height="280" rx="12" fill="white"/>
</clipPath>
<clipPath id="clip1_1_3287">
<rect x="47" y="44" width="176" height="124" rx="8" fill="white"/>
</clipPath>
<clipPath id="clip2_1_3287">
<rect width="160" height="117" fill="white" transform="translate(55 47.5)"/>
</clipPath>
</defs>
</svg>
