<svg width="105" height="28" viewBox="0 0 105 28" fill="none" xmlns="http://www.w3.org/2000/svg">
<g clip-path="url(#clip0_1_5466)">
<g clip-path="url(#clip1_1_5466)">
<g clip-path="url(#clip2_1_5466)">
<mask id="mask0_1_5466" style="mask-type:luminance" maskUnits="userSpaceOnUse" x="0" y="0" width="28" height="28">
<path d="M27.7826 0.376953H0.512634V27.647H27.7826V0.376953Z" fill="white"/>
</mask>
<g mask="url(#mask0_1_5466)">
<path d="M16.979 23.3009V21.7286H17.7332C17.8127 21.7286 17.8894 21.7478 17.9633 21.7862C18.0385 21.8231 18.1003 21.8785 18.1486 21.9523C18.1983 22.0248 18.2232 22.1143 18.2232 22.2208C18.2232 22.3273 18.1976 22.4196 18.1465 22.4977C18.0968 22.5744 18.0329 22.6334 17.9548 22.6746C17.8781 22.7157 17.7986 22.7364 17.7161 22.7364H17.1324V22.5212H17.6437C17.7162 22.5212 17.7807 22.4956 17.8376 22.4445C17.8958 22.3919 17.9249 22.3173 17.9249 22.2208C17.9249 22.1213 17.8958 22.0503 17.8376 22.0077C17.7807 21.9651 17.7183 21.9438 17.6501 21.9438H17.2538V23.3009H16.979ZM17.8951 22.5702L18.2871 23.3009H17.9803L17.599 22.5702H17.8951ZM17.5564 24.2383C17.3206 24.2383 17.0998 24.1943 16.8938 24.1063C16.6878 24.0182 16.5067 23.896 16.3505 23.7398C16.1943 23.5836 16.0721 23.4025 15.9841 23.1965C15.896 22.9906 15.852 22.7698 15.852 22.534C15.852 22.2982 15.896 22.0774 15.9841 21.8714C16.0721 21.6654 16.1943 21.4843 16.3505 21.3281C16.5067 21.1719 16.6878 21.0497 16.8938 20.9617C17.0998 20.8736 17.3206 20.8296 17.5564 20.8296C17.7922 20.8296 18.013 20.8736 18.2189 20.9617C18.4249 21.0497 18.606 21.1719 18.7622 21.3281C18.9184 21.4843 19.0406 21.6654 19.1287 21.8714C19.2167 22.0774 19.2607 22.2982 19.2607 22.534C19.2607 22.7698 19.2167 22.9906 19.1287 23.1965C19.0406 23.4025 18.9184 23.5836 18.7622 23.7398C18.606 23.896 18.4249 24.0182 18.2189 24.1063C18.013 24.1943 17.7922 24.2383 17.5564 24.2383ZM17.5564 23.9209C17.812 23.9209 18.0442 23.8584 18.253 23.7334C18.4633 23.6084 18.6308 23.4415 18.7558 23.2328C18.8808 23.0225 18.9433 22.7896 18.9433 22.534C18.9433 22.2783 18.8808 22.0461 18.7558 21.8373C18.6308 21.6271 18.4633 21.4595 18.253 21.3345C18.0442 21.2095 17.812 21.147 17.5564 21.147C17.3007 21.147 17.0678 21.2095 16.8576 21.3345C16.6488 21.4595 16.4819 21.6271 16.3569 21.8373C16.2319 22.0461 16.1694 22.2783 16.1694 22.534C16.1694 22.7896 16.2319 23.0225 16.3569 23.2328C16.4819 23.4415 16.6488 23.6084 16.8576 23.7334C17.0678 23.8584 17.3007 23.9209 17.5564 23.9209Z" fill="#9C84F1"/>
<path d="M14.1476 24.2381C11.4355 24.2381 8.83438 23.1607 6.91659 21.243C4.99879 19.3251 3.92139 16.7241 3.92139 14.0119C3.92139 11.2997 4.99879 8.69863 6.91659 6.78084C8.83438 4.86305 11.4355 3.78564 14.1476 3.78564V14.0119V24.2381Z" fill="#9C84F1"/>
</g>
<path d="M35.2333 20.8293C39.0547 20.8293 41.4671 18.6119 41.8727 15.7345H39.4817C39.1614 17.6039 37.6243 18.9784 35.2333 18.9784C31.7962 18.9784 30.2591 16.7059 30.2591 14.0118C30.2591 11.3178 31.7962 9.04529 35.2333 9.04529C37.4535 9.04529 38.9906 10.2182 39.3749 11.9043H41.7873C41.2749 9.21027 38.8839 7.19434 35.2333 7.19434C30.3231 7.19434 27.7827 10.3282 27.7827 14.0118C27.7827 17.6955 30.3231 20.8293 35.2333 20.8293Z" fill="#9C84F1"/>
<path d="M43.4412 20.6097H45.6828V15.3317C45.6828 12.9858 47.6681 12.5643 48.5221 12.5643C50.1446 12.5643 50.8491 13.444 50.8491 14.6719V20.6097H53.0693V14.4703C53.0693 12.5094 51.8097 10.86 49.1198 10.86C47.5614 10.86 46.43 11.4831 45.6828 12.3261V7.41455H43.4412V20.6097Z" fill="#9C84F1"/>
<path d="M62.0861 20.6096H64.1996V13.6638C64.1996 11.9411 62.7692 10.8599 59.7804 10.8599C57.2613 10.8599 55.041 11.7761 54.9769 14.067H57.1972C57.2612 12.8208 58.4995 12.4359 59.7804 12.4359C61.2748 12.4359 62.0007 12.8575 62.0007 13.8654V14.4885L58.6489 15.02C55.9804 15.4415 54.5287 16.3029 54.5287 17.9889C54.5287 19.8216 56.1085 20.8295 58.5635 20.8295C59.9085 20.8295 61.1254 20.4996 62.0861 19.4917V20.6096ZM56.8343 17.934C56.8343 16.9626 57.6883 16.6877 59.0332 16.4494L62.0007 15.918V16.8709C62.0007 18.5753 60.4209 19.29 58.9051 19.29C57.4748 19.29 56.8343 18.7403 56.8343 17.934Z" fill="#9C84F1"/>
<path d="M65.958 7.41455V18.3189C65.958 20.005 66.8974 20.6097 68.7973 20.6097H70.7828V19.0336H69.3098C68.4985 19.0336 68.1996 18.7587 68.1996 18.099V7.41455H65.958Z" fill="#9C84F1"/>
<path d="M72.1608 20.6097H74.4451V17.6225L76.1743 16.1197L79.6327 20.6097H82.3227L77.7327 14.7635L81.9811 11.0798H79.1844L74.4451 15.295V7.41455H72.1608V20.6097Z" fill="#9C84F1"/>
<path d="M96.8098 6.34229H91.6967C87.4608 6.34229 84.027 9.77612 84.027 14.012C84.027 18.2478 87.4608 21.6817 91.6967 21.6817H96.8098C101.046 21.6817 104.479 18.2478 104.479 14.012C104.479 9.77612 101.046 6.34229 96.8098 6.34229Z" fill="#9C84F1"/>
<path d="M94.341 10.6411C94.341 10.1495 94.7399 9.75098 95.2316 9.75098C95.7233 9.75098 96.1213 10.1495 96.1213 10.6411V15.208C96.1213 15.8207 95.9747 16.3568 95.6815 16.8163C95.3909 17.2758 94.9836 17.6341 94.4603 17.8912C93.9371 18.1456 93.3269 18.2729 92.6307 18.2729C91.9319 18.2729 91.3209 18.1456 90.7968 17.8912C90.2735 17.6341 89.8662 17.2758 89.5756 16.8163C89.285 16.3568 89.1401 15.8207 89.1401 15.208V10.6411C89.1401 10.1495 89.539 9.75098 90.0307 9.75098C90.5215 9.75098 90.9204 10.1495 90.9204 10.6411V15.0561C90.9204 15.3762 90.9902 15.6606 91.13 15.9096C91.2723 16.1585 91.4726 16.3541 91.7308 16.4963C91.9881 16.6385 92.2881 16.7096 92.6307 16.7096C92.9758 16.7096 93.2767 16.6385 93.5315 16.4963C93.7888 16.3541 93.9874 16.1585 94.1271 15.9096C94.2695 15.6606 94.341 15.3762 94.341 15.0561V10.6411Z" fill="white"/>
<path d="M98.4759 9.75098C98.9676 9.75098 99.3664 10.1495 99.3664 10.6411V17.2637C99.3664 17.7553 98.9676 18.1539 98.4759 18.1539C97.985 18.1539 97.5862 17.7553 97.5862 17.2637V10.6411C97.5862 10.1495 97.985 9.75098 98.4759 9.75098Z" fill="white"/>
</g>
</g>
</g>
<defs>
<clipPath id="clip0_1_5466">
<rect width="104" height="27.27" fill="white" transform="translate(0.496094 0.376953)"/>
</clipPath>
<clipPath id="clip1_1_5466">
<rect width="104" height="27.27" fill="white" transform="translate(0.496094 0.376953)"/>
</clipPath>
<clipPath id="clip2_1_5466">
<rect width="103.967" height="27.27" fill="white" transform="translate(0.512634 0.376953)"/>
</clipPath>
</defs>
</svg>
