<svg width="25" height="24" viewBox="0 0 25 24" fill="none" xmlns="http://www.w3.org/2000/svg">
<path d="M5.49342 23.9845C4.43059 23.9845 3.39483 23.6194 2.55514 22.9307C1.47552 22.0458 0.855103 20.7366 0.855103 19.3396C0.855103 17.2138 2.36811 15.368 4.45251 14.9513L7.82033 14.278V6.75019C7.82033 4.58445 9.36171 2.70377 11.4861 2.2794L18.6009 0.85664C19.9515 0.587051 21.3355 0.932744 22.3996 1.80471C23.4637 2.67798 24.0751 3.96787 24.0751 5.3442C24.0751 7.51768 22.5286 9.40479 20.3964 9.83175L17.1099 10.4896V11.052C17.1099 13.2178 15.5685 15.0984 13.4441 15.5228L10.1447 16.1832V19.3421C10.1447 21.5479 8.57489 23.4634 6.4118 23.8955C6.10611 23.9561 5.79912 23.9871 5.49472 23.9871L5.49342 23.9845ZM7.82162 16.645L4.90912 17.228C3.90561 17.4293 3.17814 18.3167 3.17814 19.3396C3.17814 20.0375 3.4877 20.6927 4.02815 21.1351C4.5686 21.5775 5.27028 21.753 5.95519 21.6162C7.03609 21.3995 7.82162 20.4425 7.82162 19.3396V16.645ZM19.5 3.08946C19.3516 3.08946 19.2047 3.10235 19.0562 3.13202L11.9427 4.55477C10.9005 4.76375 10.1434 5.68601 10.1434 6.74889V13.8124L12.9875 13.2435C14.0297 13.0346 14.7869 12.1123 14.7869 11.0494V8.58442L19.9399 7.55379C20.9898 7.34354 21.7521 6.41352 21.7521 5.3429C21.7521 4.66442 21.4516 4.02979 20.9266 3.60025C20.519 3.26617 20.0159 3.08946 19.5 3.08946Z" fill="#642CFF"/>
</svg>
