<svg width="100" height="40" viewBox="0 0 100 40" fill="none" xmlns="http://www.w3.org/2000/svg">
<g clip-path="url(#clip0_1_1449)">
<path d="M81.774 6.104H77.663V10.216H81.773L81.774 6.104Z" fill="white"/>
<path fill-rule="evenodd" clip-rule="evenodd" d="M65.769 16.6601H62.159V23.3411C62.159 23.8981 62.297 24.3051 62.575 24.5611C62.854 24.8191 63.261 24.9691 63.795 25.0111C64.33 25.0321 64.995 25.0231 65.788 24.9801V28.7381C62.983 29.0591 60.981 28.8011 59.782 27.9681C58.604 27.1121 58.016 25.5701 58.016 23.3431V16.6631H55.222V12.6781H58.016V9.43413L62.159 8.18213V12.6801H68.563V9.43613L72.706 8.18413V12.6821H76.335V16.6661H72.705V23.3461C72.705 23.9041 72.844 24.3111 73.122 24.5661C73.401 24.8251 73.808 24.9741 74.342 25.0171C74.877 25.0371 75.542 25.0291 76.332 24.9851V28.7441C73.528 29.0641 71.527 28.8071 70.327 27.9741C69.15 27.1181 68.561 25.5761 68.561 23.3491V16.6681H65.767L65.769 16.6601Z" fill="white"/>
<path d="M81.793 12.6738H77.65V28.7358H81.793V12.6738Z" fill="white"/>
<path fill-rule="evenodd" clip-rule="evenodd" d="M91.553 12.2568C89.3126 12.2574 87.1642 13.1478 85.5803 14.7323C83.9964 16.3167 83.1068 18.4655 83.107 20.7058C83.0859 21.8284 83.2887 22.944 83.7037 23.9873C84.1186 25.0306 84.7374 25.9807 85.5239 26.7821C86.3103 27.5835 87.2486 28.2201 88.2839 28.6546C89.3192 29.0892 90.4307 29.313 91.5535 29.313C92.6763 29.313 93.7879 29.0892 94.8232 28.6546C95.8585 28.2201 96.7968 27.5835 97.5832 26.7821C98.3696 25.9807 98.9884 25.0306 99.4034 23.9873C99.8183 22.944 100.021 21.8284 100 20.7058C100 19.5964 99.7822 18.4977 99.3579 17.4725C98.9335 16.4474 98.3114 15.5159 97.527 14.7313C96.7425 13.9467 95.8112 13.3243 94.7862 12.8997C93.7611 12.4752 92.6625 12.2567 91.553 12.2568ZM91.539 25.1718C90.367 25.1471 89.2513 24.6641 88.4311 23.8264C87.611 22.9888 87.1517 21.8631 87.1517 20.6908C87.1517 19.5185 87.611 18.3929 88.4311 17.5552C89.2513 16.7176 90.367 16.2346 91.539 16.2098C92.727 16.2101 93.8663 16.6822 94.7062 17.5224C95.5462 18.3625 96.018 19.5018 96.018 20.6898C96.0183 21.2783 95.9026 21.8611 95.6776 22.4049C95.4525 22.9486 95.1226 23.4427 94.7066 23.859C94.2905 24.2752 93.7966 24.6054 93.2529 24.8306C92.7092 25.0559 92.1275 25.1718 91.539 25.1718ZM49.791 12.6418V13.5338C48.512 12.7385 47.0435 12.2996 45.5378 12.2625C44.032 12.2255 42.5438 12.5917 41.2272 13.3232C39.9105 14.0547 38.8134 15.1249 38.0494 16.4229C37.2855 17.721 36.8824 19.1997 36.882 20.7058C36.8823 22.2122 37.2853 23.691 38.0493 24.9892C38.8134 26.2874 39.9106 27.3577 41.2274 28.0893C42.5442 28.8208 44.0326 29.1869 45.5385 29.1498C47.0444 29.1126 48.5129 28.6734 49.792 27.8778V28.7688H53.902V12.6418H49.791ZM45.314 25.1718C44.142 25.1471 43.0263 24.6641 42.2061 23.8264C41.386 22.9888 40.9267 21.8631 40.9267 20.6908C40.9267 19.5185 41.386 18.3929 42.2061 17.5552C43.0263 16.7176 44.142 16.2346 45.314 16.2098C46.4904 16.2058 47.6207 16.6664 48.4592 17.4916C49.2976 18.3167 49.7763 19.4396 49.791 20.6158V20.7638C49.7721 21.9388 49.2921 23.0592 48.4546 23.8835C47.6171 24.7077 46.4891 25.1697 45.314 25.1698V25.1718Z" fill="white"/>
<path d="M29.754 22.3618L27.242 18.3418C27.242 18.3418 27.233 18.3248 27.227 18.3178L27.029 18.0018C26.8468 17.7081 26.5927 17.4657 26.2906 17.2977C25.9886 17.1297 25.6486 17.0416 25.303 17.0418L21.257 17.0278L20.975 17.4808L16.14 25.2168L15.873 25.6448L17.9 28.8798C18.274 29.4818 18.92 29.8408 19.632 29.8408H25.302C26.001 29.8408 26.662 29.4728 27.032 28.8818L27.232 28.5618C27.232 28.5618 27.24 28.5538 27.242 28.5498L29.757 24.5248C29.9594 24.2002 30.0667 23.8253 30.0667 23.4428C30.0667 23.0603 29.9594 22.6854 29.757 22.3608H29.755L29.754 22.3618ZM28.988 24.0448L26.472 28.0698C26.462 28.0898 26.448 28.1038 26.437 28.1198C26.4016 28.1594 26.3574 28.1901 26.308 28.2096C26.2586 28.229 26.2053 28.2366 26.1524 28.2318C26.0995 28.2269 26.0485 28.2097 26.0035 28.1816C25.9584 28.1535 25.9206 28.1152 25.893 28.0698L23.378 24.0428C23.321 23.9528 23.2773 23.8552 23.248 23.7528C23.2043 23.601 23.1931 23.4417 23.215 23.2853C23.2369 23.1289 23.2914 22.9788 23.375 22.8448L25.887 18.8248L25.893 18.8148C25.953 18.7248 26.028 18.6838 26.093 18.6708C26.119 18.6628 26.142 18.6608 26.16 18.6578H26.188C26.246 18.6578 26.39 18.6758 26.48 18.8218L28.991 22.8418C29.221 23.2078 29.221 23.6788 28.991 24.0448H28.988ZM22.322 12.6358C22.5235 12.3109 22.6303 11.9361 22.6303 11.5538C22.6303 11.1715 22.5235 10.7967 22.322 10.4718L19.81 6.4518L19.6 6.1138C19.4171 5.81947 19.1619 5.57683 18.8587 5.40897C18.5556 5.24111 18.2145 5.15361 17.868 5.1548H12.198C11.491 5.1548 10.844 5.5148 10.467 6.1148L0.313985 22.3658C0.109994 22.6894 0.00157542 23.064 0.00122157 23.4465C0.000867724 23.829 0.108593 24.2038 0.311985 24.5278L3.03498 28.8868C3.21735 29.1812 3.47213 29.4239 3.775 29.5918C4.07786 29.7597 4.4187 29.8471 4.76498 29.8458H10.435C11.147 29.8458 11.793 29.4858 12.167 28.8858L12.375 28.5558V28.5518L12.378 28.5448L14.402 25.3078L20.401 15.7078L22.318 12.6378L22.322 12.6368V12.6358ZM21.729 11.5538C21.729 11.7608 21.671 11.9698 21.554 12.1548L11.608 28.0728C11.5772 28.1221 11.5343 28.1627 11.4833 28.1907C11.4324 28.2188 11.3751 28.2332 11.317 28.2328C11.2587 28.2332 11.2013 28.2187 11.1502 28.1907C11.0991 28.1627 11.056 28.1221 11.025 28.0728L8.51198 24.0458C8.40013 23.8653 8.34087 23.6571 8.34087 23.4448C8.34087 23.2324 8.40013 23.0243 8.51198 22.8438L18.457 6.9308C18.4874 6.8807 18.5303 6.83935 18.5815 6.81079C18.6327 6.78222 18.6904 6.76741 18.749 6.7678C18.807 6.7678 18.951 6.7848 19.042 6.9318L21.554 10.9518C21.671 11.1368 21.729 11.3458 21.729 11.5538Z" fill="white"/>
</g>
<defs>
<clipPath id="clip0_1_1449">
<rect width="100" height="40" fill="white"/>
</clipPath>
</defs>
</svg>
