<svg width="105" height="28" viewBox="0 0 105 28" fill="none" xmlns="http://www.w3.org/2000/svg">
<path d="M42.0966 23H37.5625L43.4517 5.54545H49.0682L54.9574 23H50.4233L46.3239 9.94318H46.1875L42.0966 23ZM41.4915 16.1307H50.9688V19.3352H41.4915V16.1307ZM63.3055 9.90909V12.9773H55.047V9.90909H63.3055ZM56.7771 6.77273H60.9447V18.8835C60.9447 19.1392 60.9845 19.3466 61.0641 19.5057C61.1493 19.6591 61.2714 19.7699 61.4305 19.8381C61.5896 19.9006 61.78 19.9318 62.0016 19.9318C62.1607 19.9318 62.3283 19.9176 62.5044 19.8892C62.6862 19.8551 62.8226 19.8267 62.9135 19.804L63.5442 22.8125C63.3453 22.8693 63.0641 22.9403 62.7004 23.0256C62.3425 23.1108 61.9135 23.1648 61.4135 23.1875C60.4362 23.233 59.5982 23.1193 58.8993 22.8466C58.2061 22.5682 57.6749 22.1364 57.3055 21.5511C56.9419 20.9659 56.7658 20.2301 56.7771 19.3438V6.77273ZM72.7212 9.90909V12.9773H64.4626V9.90909H72.7212ZM66.1928 6.77273H70.3604V18.8835C70.3604 19.1392 70.4001 19.3466 70.4797 19.5057C70.5649 19.6591 70.6871 19.7699 70.8462 19.8381C71.0053 19.9006 71.1956 19.9318 71.4172 19.9318C71.5763 19.9318 71.7439 19.9176 71.92 19.8892C72.1018 19.8551 72.2382 19.8267 72.3291 19.804L72.9598 22.8125C72.7609 22.8693 72.4797 22.9403 72.1161 23.0256C71.7581 23.1108 71.3291 23.1648 70.8291 23.1875C69.8518 23.233 69.0138 23.1193 68.3149 22.8466C67.6217 22.5682 67.0905 22.1364 66.7212 21.5511C66.3575 20.9659 66.1814 20.2301 66.1928 19.3438V6.77273ZM74.7476 23V9.90909H78.9152V23H74.7476ZM76.8357 8.38352C76.2504 8.38352 75.7476 8.19034 75.3271 7.80398C74.9067 7.41193 74.6964 6.94034 74.6964 6.3892C74.6964 5.84375 74.9067 5.37784 75.3271 4.99148C75.7476 4.59943 76.2504 4.40341 76.8357 4.40341C77.4266 4.40341 77.9294 4.59943 78.3442 4.99148C78.7646 5.37784 78.9749 5.84375 78.9749 6.3892C78.9749 6.94034 78.7646 7.41193 78.3442 7.80398C77.9294 8.19034 77.4266 8.38352 76.8357 8.38352ZM81.4679 23V9.90909H85.5162V12.2955H85.6526C85.8912 11.4318 86.2804 10.7898 86.8202 10.3693C87.3599 9.94318 87.9878 9.73011 88.7037 9.73011C88.8969 9.73011 89.0957 9.74432 89.3003 9.77273C89.5048 9.79545 89.6952 9.83239 89.8713 9.88352V13.5057C89.6724 13.4375 89.4111 13.3835 89.0872 13.3438C88.769 13.304 88.4849 13.2841 88.2349 13.2841C87.7406 13.2841 87.2946 13.3949 86.8969 13.6165C86.5048 13.8324 86.1952 14.1364 85.9679 14.5284C85.7463 14.9148 85.6355 15.3693 85.6355 15.892V23H81.4679ZM96.9006 23.2472C95.5256 23.2472 94.3438 22.9659 93.3551 22.4034C92.3722 21.8352 91.6136 21.0455 91.0795 20.0341C90.5511 19.017 90.2869 17.8381 90.2869 16.4972C90.2869 15.1506 90.5511 13.9716 91.0795 12.9602C91.6136 11.9432 92.3722 11.1534 93.3551 10.5909C94.3438 10.0227 95.5256 9.73864 96.9006 9.73864C98.2756 9.73864 99.4545 10.0227 100.438 10.5909C101.426 11.1534 102.185 11.9432 102.713 12.9602C103.247 13.9716 103.514 15.1506 103.514 16.4972C103.514 17.8381 103.247 19.017 102.713 20.0341C102.185 21.0455 101.426 21.8352 100.438 22.4034C99.4545 22.9659 98.2756 23.2472 96.9006 23.2472ZM96.9261 20.1023C97.4261 20.1023 97.8494 19.9489 98.196 19.642C98.5426 19.3352 98.8068 18.9091 98.9886 18.3636C99.1761 17.8182 99.2699 17.1875 99.2699 16.4716C99.2699 15.7443 99.1761 15.108 98.9886 14.5625C98.8068 14.017 98.5426 13.5909 98.196 13.2841C97.8494 12.9773 97.4261 12.8239 96.9261 12.8239C96.4091 12.8239 95.9716 12.9773 95.6136 13.2841C95.2614 13.5909 94.9915 14.017 94.804 14.5625C94.6222 15.108 94.5312 15.7443 94.5312 16.4716C94.5312 17.1875 94.6222 17.8182 94.804 18.3636C94.9915 18.9091 95.2614 19.3352 95.6136 19.642C95.9716 19.9489 96.4091 20.1023 96.9261 20.1023Z" fill="#0065FF"/>
<path d="M29.7528 17.207L27.2408 13.187C27.2408 13.187 27.2318 13.17 27.2258 13.163L27.0278 12.847C26.8456 12.5533 26.5914 12.311 26.2894 12.143C25.9873 11.975 25.6474 11.8869 25.3018 11.887L21.2558 11.873L20.9738 12.326L16.1388 20.062L15.8718 20.49L17.8988 23.725C18.2728 24.327 18.9188 24.686 19.6308 24.686H25.3008C25.9998 24.686 26.6608 24.318 27.0308 23.727L27.2308 23.407C27.2308 23.407 27.2388 23.399 27.2408 23.395L29.7558 19.37C29.9582 19.0454 30.0655 18.6705 30.0655 18.288C30.0655 17.9055 29.9582 17.5306 29.7558 17.206H29.7538L29.7528 17.207ZM28.9868 18.89L26.4708 22.915C26.4608 22.935 26.4468 22.949 26.4358 22.965C26.4004 23.0046 26.3562 23.0354 26.3068 23.0548C26.2573 23.0742 26.2041 23.0818 26.1512 23.077C26.0983 23.0721 26.0473 23.0549 26.0022 23.0268C25.9572 22.9987 25.9194 22.9604 25.8918 22.915L23.3768 18.888C23.3198 18.798 23.276 18.7004 23.2468 18.598C23.2031 18.4462 23.1919 18.2869 23.2138 18.1305C23.2356 17.9741 23.2901 17.824 23.3738 17.69L25.8858 13.67L25.8918 13.66C25.9518 13.57 26.0268 13.529 26.0918 13.516C26.1178 13.508 26.1408 13.506 26.1588 13.503H26.1868C26.2448 13.503 26.3888 13.521 26.4788 13.667L28.9898 17.687C29.2198 18.053 29.2198 18.524 28.9898 18.89H28.9868ZM22.3208 7.48101C22.5223 7.15609 22.629 6.78135 22.629 6.39901C22.629 6.01668 22.5223 5.64194 22.3208 5.31701L19.8088 1.29701L19.5988 0.959011C19.4159 0.664681 19.1607 0.422044 18.8575 0.254185C18.5544 0.0863251 18.2133 -0.00117368 17.8668 1.18894e-05H12.1968C11.4898 1.18894e-05 10.8428 0.360011 10.4658 0.960011L0.312764 17.211C0.108773 17.5346 0.000354717 17.9092 8.68919e-07 18.2917C-0.000352979 18.6742 0.107372 19.0491 0.310764 19.373L3.03376 23.732C3.21613 24.0264 3.47091 24.2691 3.77378 24.437C4.07664 24.6049 4.41748 24.6923 4.76376 24.691H10.4338C11.1458 24.691 11.7918 24.331 12.1658 23.731L12.3738 23.401V23.397L12.3768 23.39L14.4008 20.153L20.3998 10.553L22.3168 7.48301L22.3208 7.48201V7.48101ZM21.7278 6.39901C21.7278 6.60601 21.6698 6.81501 21.5528 7.00001L11.6068 22.918C11.576 22.9673 11.5331 23.0079 11.4821 23.036C11.4312 23.064 11.3739 23.0784 11.3158 23.078C11.2575 23.0784 11.2001 23.0639 11.149 23.0359C11.0979 23.0079 11.0548 22.9673 11.0238 22.918L8.51076 18.891C8.39891 18.7105 8.33965 18.5024 8.33965 18.29C8.33965 18.0777 8.39891 17.8695 8.51076 17.689L18.4558 1.77601C18.4862 1.72592 18.5291 1.68457 18.5803 1.656C18.6314 1.62743 18.6892 1.61262 18.7478 1.61301C18.8058 1.61301 18.9498 1.63001 19.0408 1.77701L21.5528 5.79701C21.6698 5.98201 21.7278 6.19101 21.7278 6.39901Z" fill="#0065FF"/>
</svg>
